<svg xmlns="http://www.w3.org/2000/svg" width="146" height="123.942" viewBox="0 0 146 123.942">
  <g id="Grupo_1111586" data-name="Grupo 1111586" transform="translate(0 -38.68)">
    <g id="Grupo_1111569" data-name="Grupo 1111569" transform="translate(35.82 81.729)">
      <path id="Trazado_901544" data-name="Trazado 901544" d="M175.466,189.648a28.171,28.171,0,0,1-9.583,10.607h69.223V189.648Z" transform="translate(-154.401 -189.648)" fill="#b4d2e2"/>
      <path id="Trazado_901545" data-name="Trazado 901545" d="M125.616,316.142H189.9v10.381H125.616Z" transform="translate(-125.616 -280.071)" fill="#b4d2e2"/>
      <path id="Trazado_901546" data-name="Trazado 901546" d="M125.616,316.142H135.3v10.381h-9.681Z" transform="translate(-125.616 -280.071)" fill="#8abbd5"/>
    </g>
    <path id="Trazado_901547" data-name="Trazado 901547" d="M259.273,103.909a1.426,1.426,0,0,1-1.426-1.426V98.35h-58.9a28.077,28.077,0,0,1,.154,26.034H261.75a2.852,2.852,0,0,0,2.852-2.852V103.909h-5.329Z" transform="translate(-142.218 -42.655)" fill="#8abbd5"/>
    <path id="Trazado_901548" data-name="Trazado 901548" d="M175.216,246.7a1.426,1.426,0,0,1,1.426-1.426h20.853V228.7a2.852,2.852,0,0,0-2.852-2.852h-71.8a27.909,27.909,0,0,1-15.762,4.848c-.675,0-1.343-.025-2.006-.072v18.407a2.852,2.852,0,0,0,2.852,2.852h67.29Z" transform="translate(-75.111 -133.793)" fill="#8abbd5"/>
    <path id="Trazado_901549" data-name="Trazado 901549" d="M119.6,253.549V233.218a2.841,2.841,0,0,1,.2-1.047,27.923,27.923,0,0,1-12.717,3.043c-.675,0-1.343-.025-2.006-.072v18.407a2.852,2.852,0,0,0,2.852,2.852h14.522A2.852,2.852,0,0,1,119.6,253.549Z" transform="translate(-75.111 -138.316)" fill="#6cabca"/>
    <path id="Trazado_901550" data-name="Trazado 901550" d="M175.216,352.547h-67.29a2.852,2.852,0,0,0-2.852,2.852v20.331a2.852,2.852,0,0,0,2.852,2.852h67.29Z" transform="translate(-75.111 -224.366)" fill="#8abbd5"/>
    <g id="Grupo_1111570" data-name="Grupo 1111570" transform="translate(29.963 128.181)">
      <path id="Trazado_901551" data-name="Trazado 901551" d="M119.6,375.729V355.4a2.852,2.852,0,0,1,2.852-2.852H107.926a2.852,2.852,0,0,0-2.852,2.852v20.331a2.852,2.852,0,0,0,2.852,2.852h14.522A2.852,2.852,0,0,1,119.6,375.729Z" transform="translate(-105.074 -352.547)" fill="#6cabca"/>
    </g>
    <g id="Grupo_1111571" data-name="Grupo 1111571" transform="translate(3.929 40.818)">
      <path id="Trazado_901552" data-name="Trazado 901552" d="M41.817,46.178a28.047,28.047,0,0,0-24.294,42.05h5.73a1.426,1.426,0,0,1,1.426,1.426v6.757A28.04,28.04,0,1,0,41.817,46.178Z" transform="translate(-13.777 -46.178)" fill="#ffe177"/>
      <path id="Trazado_901553" data-name="Trazado 901553" d="M25.817,74.218a28.049,28.049,0,0,1,22.02-27.39,28.048,28.048,0,0,0-30.314,41.4h5.73a1.426,1.426,0,0,1,1.426,1.426v6.757a28.079,28.079,0,0,0,23.159,5.2,28.05,28.05,0,0,1-22.02-27.391Z" transform="translate(-13.777 -46.178)" fill="#ffc344"/>
    </g>
    <g id="Grupo_1111574" data-name="Grupo 1111574" transform="translate(100.104 111.481)">
      <g id="Grupo_1111572" data-name="Grupo 1111572">
        <path id="Trazado_901554" data-name="Trazado 901554" d="M380.406,293.982H352.477a1.426,1.426,0,0,0-1.426,1.426v46.15a1.426,1.426,0,0,0,1.426,1.426h36.349a1.426,1.426,0,0,0,1.426-1.426V303.828a1.427,1.427,0,0,0-.417-1.008l-8.421-8.421A1.427,1.427,0,0,0,380.406,293.982Z" transform="translate(-351.051 -293.982)" fill="#d8ecfe"/>
      </g>
      <g id="Grupo_1111573" data-name="Grupo 1111573">
        <path id="Trazado_901555" data-name="Trazado 901555" d="M362.593,341.557v-46.15a1.426,1.426,0,0,1,1.426-1.426H352.477a1.426,1.426,0,0,0-1.426,1.426v46.15a1.426,1.426,0,0,0,1.426,1.426h11.542A1.426,1.426,0,0,1,362.593,341.557Z" transform="translate(-351.051 -293.982)" fill="#c4e2ff"/>
      </g>
    </g>
    <g id="Grupo_1111575" data-name="Grupo 1111575" transform="translate(131.17 88.889)">
      <path id="Trazado_901556" data-name="Trazado 901556" d="M471.259,227.446h-9.84a1.426,1.426,0,0,1-1.426-1.426v-9.84a1.426,1.426,0,0,1,1.426-1.426h9.84a1.426,1.426,0,0,1,1.426,1.426v9.84A1.426,1.426,0,0,1,471.259,227.446Z" transform="translate(-459.993 -214.755)" fill="#fe646f"/>
    </g>
    <g id="Grupo_1111576" data-name="Grupo 1111576" transform="translate(131.17 88.889)">
      <path id="Trazado_901557" data-name="Trazado 901557" d="M465.839,226.021v-9.84a1.426,1.426,0,0,1,1.426-1.426h-5.846a1.426,1.426,0,0,0-1.426,1.426v9.84a1.426,1.426,0,0,0,1.426,1.426h5.846A1.426,1.426,0,0,1,465.839,226.021Z" transform="translate(-459.993 -214.755)" fill="#fd4755"/>
    </g>
    <g id="Grupo_1111577" data-name="Grupo 1111577" transform="translate(115.629 48.563)">
      <path id="Trazado_901558" data-name="Trazado 901558" d="M416.759,86.028h-9.84a1.426,1.426,0,0,1-1.426-1.426v-9.84a1.426,1.426,0,0,1,1.426-1.426h9.84a1.426,1.426,0,0,1,1.426,1.426V84.6A1.426,1.426,0,0,1,416.759,86.028Z" transform="translate(-405.493 -73.337)" fill="#00f2a6"/>
    </g>
    <g id="Grupo_1111578" data-name="Grupo 1111578" transform="translate(115.629 48.563)">
      <path id="Trazado_901559" data-name="Trazado 901559" d="M411.339,84.6v-9.84a1.426,1.426,0,0,1,1.426-1.426h-5.846a1.426,1.426,0,0,0-1.426,1.426V84.6a1.426,1.426,0,0,0,1.426,1.426h5.846A1.426,1.426,0,0,1,411.339,84.6Z" transform="translate(-405.493 -73.337)" fill="#05e39c"/>
    </g>
    <g id="Grupo_1111579" data-name="Grupo 1111579" transform="translate(2.139 82.868)">
      <path id="Trazado_901560" data-name="Trazado 901560" d="M18.766,206.333H8.926A1.426,1.426,0,0,1,7.5,204.908v-9.84a1.426,1.426,0,0,1,1.426-1.426h9.84a1.426,1.426,0,0,1,1.426,1.426v9.84A1.426,1.426,0,0,1,18.766,206.333Z" transform="translate(-7.5 -193.642)" fill="#00f2a6"/>
    </g>
    <g id="Grupo_1111580" data-name="Grupo 1111580" transform="translate(2.139 82.868)">
      <path id="Trazado_901561" data-name="Trazado 901561" d="M13.346,204.908v-9.84a1.426,1.426,0,0,1,1.426-1.426H8.926A1.426,1.426,0,0,0,7.5,195.068v9.84a1.426,1.426,0,0,0,1.426,1.426h5.846A1.426,1.426,0,0,1,13.346,204.908Z" transform="translate(-7.5 -193.642)" fill="#05e39c"/>
    </g>
    <g id="Grupo_1111581" data-name="Grupo 1111581" transform="translate(2.139 124.807)">
      <path id="Trazado_901562" data-name="Trazado 901562" d="M18.766,353.405H8.926A1.426,1.426,0,0,1,7.5,351.98v-9.84a1.426,1.426,0,0,1,1.426-1.426h9.84a1.426,1.426,0,0,1,1.426,1.426v9.84A1.426,1.426,0,0,1,18.766,353.405Z" transform="translate(-7.5 -340.714)" fill="#00f2a6"/>
    </g>
    <g id="Grupo_1111582" data-name="Grupo 1111582" transform="translate(2.139 124.807)">
      <path id="Trazado_901563" data-name="Trazado 901563" d="M13.346,351.98v-9.84a1.426,1.426,0,0,1,1.426-1.426H8.926A1.426,1.426,0,0,0,7.5,342.14v9.84a1.426,1.426,0,0,0,1.426,1.426h5.846A1.426,1.426,0,0,1,13.346,351.98Z" transform="translate(-7.5 -340.714)" fill="#05e39c"/>
    </g>
    <g id="Grupo_1111583" data-name="Grupo 1111583" transform="translate(8.98 103.743)">
      <path id="Trazado_901564" data-name="Trazado 901564" d="M42.759,279.536h-9.84a1.426,1.426,0,0,1-1.426-1.426v-9.84a1.426,1.426,0,0,1,1.426-1.426h9.84a1.426,1.426,0,0,1,1.426,1.426v9.84A1.426,1.426,0,0,1,42.759,279.536Z" transform="translate(-31.493 -266.845)" fill="#ffe177"/>
    </g>
    <g id="Grupo_1111584" data-name="Grupo 1111584" transform="translate(8.98 103.743)">
      <path id="Trazado_901565" data-name="Trazado 901565" d="M37.339,278.111v-9.84a1.426,1.426,0,0,1,1.426-1.426H32.919a1.426,1.426,0,0,0-1.426,1.426v9.84a1.426,1.426,0,0,0,1.426,1.426h5.846A1.426,1.426,0,0,1,37.339,278.111Z" transform="translate(-31.493 -266.845)" fill="#ffc344"/>
    </g>
    <g id="Grupo_1111585" data-name="Grupo 1111585" transform="translate(0 38.68)">
      <path id="Trazado_901566" data-name="Trazado 901566" d="M359.34,138.494h8.136a2.139,2.139,0,0,0,0-4.277H359.34a2.139,2.139,0,0,0,0,4.277Z" transform="translate(-255.343 -106.974)"/>
      <path id="Trazado_901567" data-name="Trazado 901567" d="M185.613,261.71H135.661a2.139,2.139,0,0,0,0,4.277h49.953a2.139,2.139,0,0,0,0-4.277Z" transform="translate(-95.447 -198.112)"/>
      <path id="Trazado_901568" data-name="Trazado 901568" d="M367.474,261.71h-8.136a2.139,2.139,0,0,0,0,4.277h8.136a2.139,2.139,0,0,0,0-4.277Z" transform="translate(-255.342 -198.112)"/>
      <path id="Trazado_901569" data-name="Trazado 901569" d="M185.613,388.413H135.661a2.139,2.139,0,0,0,0,4.277h49.953a2.139,2.139,0,0,0,0-4.277Z" transform="translate(-95.447 -288.684)"/>
      <path id="Trazado_901570" data-name="Trazado 901570" d="M108.032,119.184h-2.566a.855.855,0,0,0-.855.855v20.982a.855.855,0,0,0,.855.855h2.566a.855.855,0,0,0,.855-.855V120.039A.855.855,0,0,0,108.032,119.184Z" transform="translate(-74.78 -96.228)"/>
      <path id="Trazado_901571" data-name="Trazado 901571" d="M108.887,93.459a.855.855,0,0,0-.855-.855h-2.566a.855.855,0,0,0-.855.855v2.566a.855.855,0,0,0,.855.855h2.566a.855.855,0,0,0,.855-.855Z" transform="translate(-74.78 -77.227)"/>
      <path id="Trazado_901572" data-name="Trazado 901572" d="M131.979,110.386a3.543,3.543,0,0,0-2.52-1.043h-4.937V94.9a5,5,0,0,0-4.99-4.99h-.867V83.868h.867a5,5,0,0,0,4.99-4.99V63.393h2.373a3.568,3.568,0,0,0,3.564-3.564v-9.84a3.568,3.568,0,0,0-3.564-3.564h-9.84a3.568,3.568,0,0,0-3.564,3.564v3.568H57.983a30.482,30.482,0,0,0-1.81-2.727,2.139,2.139,0,1,0-3.428,2.558A25.89,25.89,0,0,1,16.969,89.955v-5.66A3.568,3.568,0,0,0,13.4,80.73H8.956A25.9,25.9,0,0,1,46,47.086a2.139,2.139,0,1,0,2.321-3.593A30.174,30.174,0,0,0,4.229,80.73H3.564A3.568,3.568,0,0,0,0,84.295v9.84A3.568,3.568,0,0,0,3.564,97.7H13.4a3.568,3.568,0,0,0,3.461-2.726,29.957,29.957,0,0,0,10.959,3.775v16.486a5,5,0,0,0,4.99,4.99h.867v5.819h-.867a5,5,0,0,0-4.99,4.99v20.331a5,5,0,0,0,4.99,4.99H97.966v2.7a3.568,3.568,0,0,0,3.564,3.564H137.88a3.568,3.568,0,0,0,3.564-3.564v-7.079a2.139,2.139,0,0,0-4.277,0v6.365H102.243V113.62h26.921l8,8V142a2.139,2.139,0,0,0,4.277,0v-20.67a3.541,3.541,0,0,0-1.044-2.52ZM12.691,93.421H4.277V85.007h8.414ZM117.768,50.7h8.414v8.414h-8.414Zm-4.277,7.133v1.994a3.568,3.568,0,0,0,3.564,3.564h3.19V78.878a.714.714,0,0,1-.713.713H60.174a29.983,29.983,0,0,0,1.942-9.39h28.05a2.139,2.139,0,0,0,0-4.277H62a29.87,29.87,0,0,0-1.931-8.089Zm.9,26.034v6.044H53.568a30.368,30.368,0,0,0,4.576-6.044ZM32.814,152.076a.714.714,0,0,1-.713-.713V131.033a.714.714,0,0,1,.713-.713H97.966v21.757Zm68.716-42.734a3.568,3.568,0,0,0-3.564,3.564v3.039H66.156a2.139,2.139,0,0,0,0,4.277H97.966v5.819H37.959v-5.819H56.176a2.139,2.139,0,1,0,0-4.277H32.814a.714.714,0,0,1-.713-.713v-16.2a30,30,0,0,0,16.253-4.846h71.177a.714.714,0,0,1,.713.713v14.44Z" transform="translate(0 -38.68)"/>
      <path id="Trazado_901573" data-name="Trazado 901573" d="M402.611,410.895h-15.68a2.139,2.139,0,0,0,0,4.277h15.68a2.139,2.139,0,1,0,0-4.277Z" transform="translate(-275.066 -304.756)"/>
      <path id="Trazado_901574" data-name="Trazado 901574" d="M402.611,372.4h-15.68a2.139,2.139,0,0,0,0,4.277h15.68a2.139,2.139,0,1,0,0-4.277Z" transform="translate(-275.066 -277.239)"/>
      <path id="Trazado_901575" data-name="Trazado 901575" d="M386.931,338.187h8.885a2.139,2.139,0,0,0,0-4.277h-8.885a2.139,2.139,0,0,0,0,4.277Z" transform="translate(-275.066 -249.723)"/>
      <path id="Trazado_901576" data-name="Trazado 901576" d="M465.9,207.255h-9.84a3.568,3.568,0,0,0-3.564,3.564v9.84a3.568,3.568,0,0,0,3.564,3.564h9.84a3.568,3.568,0,0,0,3.564-3.564v-9.84A3.568,3.568,0,0,0,465.9,207.255Zm-.713,12.691H456.77v-8.414h8.414Z" transform="translate(-323.462 -159.185)"/>
      <path id="Trazado_901577" data-name="Trazado 901577" d="M13.4,333.214H3.564A3.568,3.568,0,0,0,0,336.778v9.84a3.568,3.568,0,0,0,3.564,3.564H13.4a3.568,3.568,0,0,0,3.564-3.564v-9.84A3.568,3.568,0,0,0,13.4,333.214Zm-.713,12.692H4.277v-8.414h8.414Z" transform="translate(0 -249.226)"/>
      <path id="Trazado_901578" data-name="Trazado 901578" d="M37.4,259.344h-9.84a3.568,3.568,0,0,0-3.564,3.564v9.84a3.568,3.568,0,0,0,3.564,3.564H37.4a3.568,3.568,0,0,0,3.564-3.564v-9.84A3.568,3.568,0,0,0,37.4,259.344Zm-.713,12.692H28.27v-8.414h8.414Z" transform="translate(-17.151 -196.42)"/>
    </g>
  </g>
</svg>
