<svg xmlns="http://www.w3.org/2000/svg" width="132" height="132" viewBox="0 0 132 132">
  <g id="Grupo_1112064" data-name="Grupo 1112064" transform="translate(-1261.051 -1753)">
    <g id="Grupo_1099402" data-name="Grupo 1099402" transform="translate(314.27 -2687)">
      <rect id="Rectángulo_401228" data-name="Rectángulo 401228" width="132" height="132" rx="14" transform="translate(946.781 4440)" fill="#feeae0"/>
    </g>
    <g id="Grupo_1111684" data-name="Grupo 1111684" transform="translate(1223.8 1756.126)">
      <path id="Trazado_901790" data-name="Trazado 901790" d="M236.737,305.179v16.947a16.96,16.96,0,0,0,16.941,16.941h9.527a16.963,16.963,0,0,0,16.947-16.941V305.179Z" transform="translate(-138.559 -231.423)" fill="#d8ecfe"/>
      <path id="Trazado_901791" data-name="Trazado 901791" d="M144.691,73.756V62.14a3.076,3.076,0,0,0-3.073-3.073h-8.58a3.071,3.071,0,0,0-.346.021,3.369,3.369,0,0,0-3-1.84H121.7a3.344,3.344,0,0,0-1.819.538,3.345,3.345,0,0,0-1.819-.538h-7.991c-.091,0-.181.007-.27.014V54.846a1.549,1.549,0,0,0-1.549-1.549h-.533V46h.533a1.549,1.549,0,0,0,1.549-1.549V31.339a7.366,7.366,0,0,0-14.732,0V44.447A1.549,1.549,0,0,0,96.623,46h.533v7.3h-.527a1.549,1.549,0,0,0-1.549,1.549V77.123l-2.986-2.235V66.97a9.158,9.158,0,0,0-9.144-9.151h-.408a4.2,4.2,0,0,0-4.2,4.189v18.96a1.548,1.548,0,0,0,.456,1.1l19.33,19.255a20.2,20.2,0,0,0,4.3,4.885V116.2a1.549,1.549,0,0,0,1.549,1.549h31.793a1.549,1.549,0,0,0,1.549-1.549V106.21A20.006,20.006,0,0,0,144.691,90.7V73.756Zm-3.1-3.1h-8.531V62.165h8.531ZM121.7,60.346H129.7a.281.281,0,0,1,.27.27V70.658h-8.531V60.616a.277.277,0,0,1,.27-.27Zm-11.628,0h7.991a.281.281,0,0,1,.27.27V70.658h-8.531V60.616a.277.277,0,0,1,.27-.27Zm-11.9-29.008a4.269,4.269,0,0,1,8.537,0V42.9H98.172ZM100.254,46h4.372v7.3h-4.372Zm-2.076,10.4h8.531V70.658H98.178ZM81.444,62.009a1.1,1.1,0,0,1,1.1-1.092h.408A6.057,6.057,0,0,1,89,66.97v4.453H81.444Zm0,18.317v-5.8H89v1.142a1.549,1.549,0,0,0,.621,1.24l5.463,4.089V90.7a20.071,20.071,0,0,0,.309,3.513L81.444,80.326ZM134.23,114.65h-28.7V108.3a19.916,19.916,0,0,0,9.584,2.445h9.527a19.925,19.925,0,0,0,9.584-2.443v6.351ZM141.594,90.7a16.963,16.963,0,0,1-16.947,16.941h-9.527A16.96,16.96,0,0,1,98.178,90.7V73.756h43.416Zm-16.17-10.486h8.994a1.549,1.549,0,0,1,0,3.1h-8.994a1.549,1.549,0,1,1,0-3.1ZM64.033,36.97A5.227,5.227,0,0,0,69.017,33.3H75.9a26.576,26.576,0,0,0,.964,5.714H73.88a1.549,1.549,0,0,0-1.342.775l-3.093,5.36a5.236,5.236,0,1,0,2.721,1.483l2.609-4.52h3.183a26.617,26.617,0,0,0,7.3,9.925,1.549,1.549,0,0,0,2-2.362,23.492,23.492,0,0,1,0-35.853,1.549,1.549,0,1,0-2-2.362,26.615,26.615,0,0,0-7.3,9.925H74.775l-2.609-4.52a5.212,5.212,0,1,0-2.721,1.483l3.093,5.36a1.549,1.549,0,0,0,1.342.775h2.988A26.578,26.578,0,0,0,75.9,30.2H69.017a5.221,5.221,0,1,0-4.984,6.767Zm4.39,15.43a2.127,2.127,0,1,1,2.127-2.127A2.129,2.129,0,0,1,68.424,52.4ZM66.3,13.225a2.127,2.127,0,1,1,2.127,2.127A2.129,2.129,0,0,1,66.3,13.225Zm-2.264,16.4a2.123,2.123,0,1,1-2.127,2.127A2.126,2.126,0,0,1,64.033,29.626Zm76.82-3.1a5.233,5.233,0,0,0-4.99,3.675h-6.886a26.578,26.578,0,0,0-.966-5.721H131a1.549,1.549,0,0,0,1.342-.775l3.093-5.36a5.237,5.237,0,1,0-2.721-1.483l-2.609,4.52h-3.184a26.615,26.615,0,0,0-7.3-9.925,1.549,1.549,0,1,0-2,2.362,23.492,23.492,0,0,1,0,35.853,1.549,1.549,0,1,0,2,2.362,26.615,26.615,0,0,0,7.3-9.925h3.183l2.609,4.52a5.212,5.212,0,1,0,2.721-1.483l-3.093-5.36A1.549,1.549,0,0,0,131,39.016h-2.987a26.549,26.549,0,0,0,.965-5.714h6.886a5.222,5.222,0,1,0,4.989-6.773Zm-4.4-15.424a2.123,2.123,0,1,1-2.127,2.12A2.126,2.126,0,0,1,136.456,11.1Zm2.127,39.169a2.127,2.127,0,1,1-2.127-2.127A2.129,2.129,0,0,1,138.583,50.274Zm2.27-16.4a2.123,2.123,0,1,1,2.12-2.12A2.126,2.126,0,0,1,140.853,33.873ZM112.61,40.736a13.576,13.576,0,1,0-20.341,0,1.549,1.549,0,1,1-2.32,2.052,16.674,16.674,0,1,1,24.981,0,1.549,1.549,0,1,1-2.32-2.052Z"/>
      <path id="Trazado_901792" data-name="Trazado 901792" d="M394.4,252.795h8.531v8.493H394.4Z" transform="translate(-261.336 -190.63)" fill="#8ac9fe"/>
      <path id="Trazado_901793" data-name="Trazado 901793" d="M168.661,253.207a6.057,6.057,0,0,0-6.046-6.053h-.408a1.1,1.1,0,0,0-1.1,1.092v9.415h7.552Z" transform="translate(-79.665 -186.237)" fill="#d8ecfe"/>
      <path id="Trazado_901794" data-name="Trazado 901794" d="M350.376,246.369v-1.524a.281.281,0,0,0-.27-.27h-7.991a.277.277,0,0,0-.27.27v10.042h8.531v-8.518Z" transform="translate(-220.411 -184.229)" fill="#8ac9fe"/>
      <path id="Trazado_901795" data-name="Trazado 901795" d="M174.745,315.108l-5.463-4.089a1.549,1.549,0,0,1-.621-1.24v-1.142h-7.552v5.8l13.944,13.891a20.072,20.072,0,0,1-.309-3.513v-9.711Z" transform="translate(-79.665 -234.116)" fill="#8ac9fe"/>
      <path id="Trazado_901796" data-name="Trazado 901796" d="M402.252,26.275a2.123,2.123,0,1,0-2.127-2.127A2.129,2.129,0,0,0,402.252,26.275Z" transform="translate(-265.795 -10.923)" fill="#ffe177"/>
      <path id="Trazado_901797" data-name="Trazado 901797" d="M422.122,109.982a2.123,2.123,0,1,0-2.127-2.12A2.123,2.123,0,0,0,422.122,109.982Z" transform="translate(-281.269 -76.109)" fill="#6cf5c2"/>
      <path id="Trazado_901798" data-name="Trazado 901798" d="M402.252,193.694a2.127,2.127,0,1,0-2.127-2.127A2.129,2.129,0,0,0,402.252,193.694Z" transform="translate(-265.795 -141.294)" fill="#ffe177"/>
      <path id="Trazado_901799" data-name="Trazado 901799" d="M297.822,244.845a.281.281,0,0,0-.27-.27h-7.991a.277.277,0,0,0-.27.27v10.042h8.531Z" transform="translate(-179.485 -184.229)" fill="#8ac9fe"/>
      <path id="Trazado_901800" data-name="Trazado 901800" d="M94.78,22a2.127,2.127,0,1,0,2.127,2.127A2.129,2.129,0,0,0,94.78,22Z" transform="translate(-26.356 -10.902)" fill="#ffe177"/>
      <g id="Grupo_1111683" data-name="Grupo 1111683" transform="translate(98.172 27.073)">
        <path id="Trazado_901801" data-name="Trazado 901801" d="M279.572,463.734a19.915,19.915,0,0,1-9.584-2.445v6.353h28.7v-6.351a19.927,19.927,0,0,1-9.584,2.443h-9.527Z" transform="translate(-262.624 -380.065)" fill="#8ac9fe"/>
        <path id="Trazado_901802" data-name="Trazado 901802" d="M245.245,98.463a4.269,4.269,0,0,0-8.537,0v11.56h8.537Z" transform="translate(-236.708 -94.198)" fill="#8ac9fe"/>
        <path id="Trazado_901803" data-name="Trazado 901803" d="M236.737,240.979h8.531V226.716h-8.531Z" transform="translate(-236.731 -197.395)" fill="#8ac9fe"/>
      </g>
      <path id="Trazado_901804" data-name="Trazado 901804" d="M246.12,179.718h4.372v7.3H246.12Z" transform="translate(-145.866 -133.722)" fill="#d8ecfe"/>
      <path id="Trazado_901805" data-name="Trazado 901805" d="M74.937,105.735a2.123,2.123,0,1,0,2.12,2.127A2.129,2.129,0,0,0,74.937,105.735Z" transform="translate(-10.903 -76.109)" fill="#6cf5c2"/>
      <path id="Trazado_901806" data-name="Trazado 901806" d="M94.78,189.441a2.127,2.127,0,1,0,2.127,2.127A2.129,2.129,0,0,0,94.78,189.441Z" transform="translate(-26.356 -141.294)" fill="#ffe177"/>
    </g>
  </g>
</svg>
