<svg xmlns="http://www.w3.org/2000/svg" width="82" height="82" viewBox="0 0 82 82">
  <g id="Grupo_1111707" data-name="Grupo 1111707" transform="translate(-338.377 -1996)">
    <circle id="Elipse_11497" data-name="Elipse 11497" cx="41" cy="41" r="41" transform="translate(338.377 1996)" fill="#2436b1"/>
    <g id="Grupo_1111705" data-name="Grupo 1111705" transform="translate(301.955 2005.333)">
      <g id="Grupo_1111704" data-name="Grupo 1111704" transform="translate(56.62 1.904)">
        <g id="Grupo_1111703" data-name="Grupo 1111703">
          <g id="Grupo_1111702" data-name="Grupo 1111702">
            <path id="Trazado_901814" data-name="Trazado 901814" d="M114.89,329.944h12.5v21.043h-12.5Z" transform="translate(-111.099 -292.072)" fill="#26a6fe"/>
            <path id="Trazado_901815" data-name="Trazado 901815" d="M124.118,345.984a1.205,1.205,0,0,1-1.206,1.206H114.89v3.8h12.5V329.944h-3.275Z" transform="translate(-111.099 -292.072)" fill="#0593fc"/>
            <path id="Trazado_901816" data-name="Trazado 901816" d="M235.24,279.033v-7.113a.6.6,0,0,0-.6-.6h-7.113a.6.6,0,0,1-.6-.6V263.6a.6.6,0,0,0-.6-.6H218.6v29.113h24.954V280.239a.6.6,0,0,0-.6-.6h-7.113A.6.6,0,0,1,235.24,279.033Z" transform="translate(-202.31 -233.198)" fill="#ffe177"/>
            <path id="Trazado_901817" data-name="Trazado 901817" d="M242.956,401h-3.087v7.474a1.206,1.206,0,0,1-1.206,1.206H218.6v3.8h24.954V401.6A.6.6,0,0,0,242.956,401Z" transform="translate(-202.31 -354.562)" fill="#ffd15b"/>
            <g id="Grupo_1111695" data-name="Grupo 1111695" transform="translate(20.922 29.802)">
              <g id="Grupo_1111694" data-name="Grupo 1111694">
                <path id="Trazado_901818" data-name="Trazado 901818" d="M260.687,270.715V263.6a.6.6,0,0,0-.6-.6H257v7.113a1.205,1.205,0,0,0,1.206,1.206h3.087A.6.6,0,0,1,260.687,270.715Z" transform="translate(-256.997 -263)" fill="#ffd15b"/>
              </g>
            </g>
            <g id="Grupo_1111696" data-name="Grupo 1111696" transform="translate(29.24 38.12)">
              <path id="Trazado_901819" data-name="Trazado 901819" d="M329.687,339.715V332.6a.6.6,0,0,0-.6-.6H326v7.113a1.205,1.205,0,0,0,1.206,1.206h3.087A.6.6,0,0,1,329.687,339.715Z" transform="translate(-325.997 -332)" fill="#ffd15b"/>
            </g>
            <g id="Grupo_1111701" data-name="Grupo 1111701">
              <g id="Grupo_1111697" data-name="Grupo 1111697" transform="translate(28.691)">
                <path id="Trazado_901820" data-name="Trazado 901820" d="M336.766,15.792H321.443v8.825h15.323a.362.362,0,0,0,.288-.581L334.3,20.424a.362.362,0,0,1,0-.438l2.751-3.613A.362.362,0,0,0,336.766,15.792Z" transform="translate(-321.443 -15.792)" fill="#fd8087"/>
                <path id="Trazado_901821" data-name="Trazado 901821" d="M334.3,20.423a.362.362,0,0,1,0-.438l2.751-3.613a.362.362,0,0,0-.288-.581h-3.061l-2.846,3.738a1.113,1.113,0,0,0,0,1.349.752.752,0,0,1-.6,1.207h-8.817v2.532h15.323a.362.362,0,0,0,.288-.581Z" transform="translate(-321.444 -15.791)" fill="#fe646f"/>
              </g>
              <g id="Grupo_1111700" data-name="Grupo 1111700" transform="translate(0 8.119)">
                <g id="Grupo_1111699" data-name="Grupo 1111699">
                  <path id="Trazado_901822" data-name="Trazado 901822" d="M112.617,166.639H87.438a3.994,3.994,0,0,0-3.994,3.994v16.175a2.411,2.411,0,0,0,2.411,2.411h1.38v-2.893h12.5v-14.69a1.206,1.206,0,0,1,1.206-1.206h11.674a1.9,1.9,0,1,0,0-3.791Z" transform="translate(-83.444 -156.573)" fill="#d8ecfe"/>
                  <g id="Grupo_1111698" data-name="Grupo 1111698" transform="translate(13.019 10.066)">
                    <path id="Trazado_901823" data-name="Trazado 901823" d="M207.536,166.639h-1.33a1.931,1.931,0,0,1-1.945,1.785H193.846a2.411,2.411,0,0,0-2.411,2.411v15.491h3.275v-14.69a1.206,1.206,0,0,1,1.206-1.206H207.59a1.9,1.9,0,0,0,1.893-1.987A1.93,1.93,0,0,0,207.536,166.639Z" transform="translate(-191.435 -166.639)" fill="#c4e2ff"/>
                  </g>
                  <circle id="Elipse_12098" data-name="Elipse 12098" cx="5.414" cy="5.414" r="5.414" transform="translate(4.551)" fill="#ffcebf"/>
                  <path id="Trazado_901824" data-name="Trazado 901824" d="M131.429,86.4a5.414,5.414,0,0,1-7.056,7.022,5.414,5.414,0,1,0,7.056-7.022Z" transform="translate(-119.439 -86.008)" fill="#ffb09e"/>
                </g>
              </g>
            </g>
          </g>
        </g>
      </g>
      <path id="Trazado_901825" data-name="Trazado 901825" d="M101,59.914H98.772V48.944a1.509,1.509,0,0,0-1.507-1.507H90.454V40.626a1.509,1.509,0,0,0-1.507-1.507H86.216V24.752a2.8,2.8,0,0,0,0-5.536V11.633h14.418A1.266,1.266,0,0,0,101.641,9.6l-2.5-3.284,2.5-3.284A1.266,1.266,0,0,0,100.634,1H92.946a.9.9,0,1,0,0,1.808h6.593L97.452,5.55a1.269,1.269,0,0,0,0,1.533l2.087,2.742H86.215V2.808h2.511a.9.9,0,1,0,0-1.808H86.215V.9a.9.9,0,1,0-1.808,0v18.28H80.8a.9.9,0,1,0,0,1.808h5a.991.991,0,1,1,0,1.983H74.119a2.112,2.112,0,0,0-2.11,2.11V38.871H61.315V25.092a.9.9,0,0,0-1.808,0V41.765h-.476a1.509,1.509,0,0,1-1.507-1.507V24.083a3.094,3.094,0,0,1,3.09-3.09h2.964a6.31,6.31,0,0,0,6.014,0h6.986a.9.9,0,0,0,0-1.808h-4.91a6.318,6.318,0,1,0-10.166,0h-.887a4.9,4.9,0,0,0-4.9,4.9V40.258a3.319,3.319,0,0,0,3.315,3.315h.476v3.2a.9.9,0,0,0,1.808,0V40.679H72.01V59.914H67.567V44.6a.9.9,0,1,0-1.808,0v15.31H61.315V50.994a.9.9,0,0,0-1.808,0v8.921h-5.66a.9.9,0,1,0,0,1.808H101a.9.9,0,0,0,0-1.808ZM66.585,10.927a4.51,4.51,0,1,1-4.51,4.51A4.515,4.515,0,0,1,66.585,10.927Zm7.535,13.857H84.407V39.119H82.136V32.308A1.509,1.509,0,0,0,80.629,30.8H73.818V25.085A.3.3,0,0,1,74.119,24.784Zm-.3,7.826h6.51v6.811a1.509,1.509,0,0,0,1.507,1.507h2.572V59.914H73.818Zm12.4,27.305V40.927h2.43v6.811a1.509,1.509,0,0,0,1.507,1.507h6.811V59.914Z" transform="translate(0)"/>
    </g>
  </g>
</svg>
