<svg xmlns="http://www.w3.org/2000/svg" width="82" height="82" viewBox="0 0 82 82">
  <g id="Grupo_1111709" data-name="Grupo 1111709" transform="translate(-1185.377 -1996)">
    <circle id="Elipse_11497" data-name="Elipse 11497" cx="41" cy="41" r="41" transform="translate(1185.377 1996)" fill="#2436b1"/>
    <g id="_001---Financial-Growth" data-name="001---Financial-Growth" transform="translate(1196.375 2007.5)">
      <g id="Icons" transform="translate(1 1)">
        <path id="Shape" d="M58,9a9,9,0,0,1-9,9,9.294,9.294,0,0,1-1.5-.12A9.007,9.007,0,0,1,47.5.12,9.294,9.294,0,0,1,49,0a9,9,0,0,1,9,9Z" fill="#fec108"/>
        <ellipse id="Oval" cx="7.5" cy="8.88" rx="7.5" ry="8.88" transform="translate(40 0.12)" fill="#ffdc00"/>
        <path id="Shape-2" data-name="Shape" d="M49,0V9H40A9,9,0,0,1,49,0Z" fill="#02a9f4"/>
        <path id="Shape-3" data-name="Shape" d="M49,9v9a9,9,0,0,1-9-9Z" fill="#ef314c"/>
        <path id="Shape-4" data-name="Shape" d="M18,9a9,9,0,0,1-9,9,9.294,9.294,0,0,1-1.5-.12A9.008,9.008,0,0,1,7.49.12,9.419,9.419,0,0,1,9,0a8.919,8.919,0,0,1,5.02,1.54,8.426,8.426,0,0,1,1.81,1.61A8.957,8.957,0,0,1,18,9Z" fill="#0377bc"/>
        <path id="Shape-5" data-name="Shape" d="M15,9a9.008,9.008,0,0,1-7.5,8.88A9.008,9.008,0,0,1,7.49.12a8.91,8.91,0,0,1,3.53,1.42,8.426,8.426,0,0,1,1.81,1.61A8.957,8.957,0,0,1,15,9Z" fill="#02a9f4"/>
        <path id="Shape-6" data-name="Shape" d="M23,46.14V49H13.32L6.09,41.77a9.463,9.463,0,0,1-1.97-2.84L.2,30.31A2.141,2.141,0,0,1,0,29.4a1.77,1.77,0,0,1,.01-.23,2.194,2.194,0,0,1,2.18-1.96A2.172,2.172,0,0,1,4.2,28.54l2.24,5.22a6.589,6.589,0,0,0,.34.71v.01c.04.07.07.13.11.2l.01-.01.37-.19v-.01a3.489,3.489,0,0,1,1.33-.84,3.552,3.552,0,0,1,3.51.62,21.527,21.527,0,0,0,6.05,3.86,6.281,6.281,0,0,1,2.87,2.1A9.493,9.493,0,0,1,23,46.14Z" fill="#dfc49c"/>
        <path id="Shape-7" data-name="Shape" d="M20,47.93V49H13.32L6.09,41.77a9.463,9.463,0,0,1-1.97-2.84L.2,30.31A2.141,2.141,0,0,1,0,29.4a1.77,1.77,0,0,1,.01-.23A2.117,2.117,0,0,1,1.2,30.33l2.24,5.22a6.589,6.589,0,0,0,.34.71v.01c.04.07.07.13.11.2l.01-.01.37-.19v-.01a3.6,3.6,0,0,1,2.6-1.05,3.475,3.475,0,0,1,2.24.83,21.527,21.527,0,0,0,6.05,3.86A6.281,6.281,0,0,1,18.03,42,9.493,9.493,0,0,1,20,47.93Z" fill="#ffe0b2"/>
        <rect id="Rectangle-path" width="13" height="8" rx="1" transform="translate(12 49)" fill="#6a1b9a"/>
        <path id="Shape-8" data-name="Shape" d="M58,29.4a2.141,2.141,0,0,1-.2.91l-3.92,8.62a9.463,9.463,0,0,1-1.97,2.84L44.68,49H35V46.14a9.493,9.493,0,0,1,1.97-5.93,6.281,6.281,0,0,1,2.87-2.1,21.527,21.527,0,0,0,6.05-3.86,2.827,2.827,0,0,1,.45-.32,3.255,3.255,0,0,1,1.26-.46,3.438,3.438,0,0,1,1.8.16,3.489,3.489,0,0,1,1.33.84v.01l.37.19v.01h.01c.04-.07.07-.13.11-.2v-.01a6.59,6.59,0,0,0,.34-.71l2.24-5.22.06-.12a2.167,2.167,0,0,1,1.95-1.21A2.2,2.2,0,0,1,58,29.4Z" fill="#ffe0b2"/>
        <path id="Shape-9" data-name="Shape" d="M55.81,27.21a2.163,2.163,0,0,0-1.493.612A2.2,2.2,0,0,1,55,29.4a2.141,2.141,0,0,1-.2.91l-3.92,8.62a9.463,9.463,0,0,1-1.97,2.84L41.68,49h3l7.23-7.23a9.463,9.463,0,0,0,1.97-2.84l3.92-8.62a2.141,2.141,0,0,0,.2-.91,2.2,2.2,0,0,0-2.19-2.19Z" fill="#dfc49c"/>
        <rect id="Rectangle-path-2" data-name="Rectangle-path" width="13" height="8" rx="1" transform="translate(33 49)" fill="#6a1b9a"/>
        <rect id="Rectangle-path-3" data-name="Rectangle-path" width="10" height="8" rx="1" transform="translate(12 49)" fill="#9d27b0"/>
        <rect id="Rectangle-path-4" data-name="Rectangle-path" width="10" height="8" rx="1" transform="translate(33 49)" fill="#9d27b0"/>
        <path id="Shape-10" data-name="Shape" d="M28.61,37.91a6.234,6.234,0,0,1-3.67.21,8.544,8.544,0,0,1-4.1-2.33,7.663,7.663,0,0,1-2.29-7.3.955.955,0,0,1,.64-.64,1.046,1.046,0,0,1,.17-.04,7.7,7.7,0,0,1,7.13,2.32c2.29,2.29,3.05,5.41,2.12,7.78Z" fill="#549414"/>
        <path id="Shape-11" data-name="Shape" d="M25.61,37.91a4,4,0,0,1-.67.21,8.544,8.544,0,0,1-4.1-2.33,7.663,7.663,0,0,1-2.29-7.3.955.955,0,0,1,.64-.64,1.046,1.046,0,0,1,.17-.04,8.492,8.492,0,0,1,4.13,2.32c2.29,2.29,3.05,5.41,2.12,7.78Z" fill="#60a917"/>
        <path id="Shape-12" data-name="Shape" d="M37.16,35.79a7.686,7.686,0,0,1-7.1,2.33,4,4,0,0,1-.67-.21c-.93-2.37-.17-5.49,2.12-7.78a8.492,8.492,0,0,1,4.13-2.32,6.287,6.287,0,0,1,3.17.04.955.955,0,0,1,.64.64,7.663,7.663,0,0,1-2.29,7.3Z" fill="#549414"/>
        <path id="Shape-13" data-name="Shape" d="M34.16,35.79a8.544,8.544,0,0,1-4.1,2.33,4,4,0,0,1-.67-.21c-.93-2.37-.17-5.49,2.12-7.78a8.492,8.492,0,0,1,4.13-2.32,1.046,1.046,0,0,1,.17.04.955.955,0,0,1,.64.64,7.663,7.663,0,0,1-2.29,7.3Z" fill="#60a917"/>
        <path id="Shape-14" data-name="Shape" d="M38,9a9,9,0,0,1-9,9,9.294,9.294,0,0,1-1.5-.12A9.007,9.007,0,0,1,27.5.12,9.294,9.294,0,0,1,29,0a9,9,0,0,1,9,9Z" fill="#fec108"/>
        <ellipse id="Oval-2" data-name="Oval" cx="7.5" cy="8.88" rx="7.5" ry="8.88" transform="translate(20 0.12)" fill="#ffdc00"/>
      </g>
      <g id="Layer_10" transform="translate(0 -1)">
        <path id="Shape-15" data-name="Shape" d="M19.475,39.158a19.782,19.782,0,0,1-5.725-3.674,4.612,4.612,0,0,0-5.471-.3L6.122,30.146A3.188,3.188,0,0,0,.289,32.721l3.919,8.621c1.061,2.336,1.917,2.88,8.334,9.3A1.988,1.988,0,0,0,12,52v6a2,2,0,0,0,2,2H25a2,2,0,0,0,2-2V52a2,2,0,0,0-2-2V48.139c0-4.618-2.672-8.029-5.525-8.981ZM25,58H14V52H25ZM14.73,50c-7.434-7.434-7.838-7.584-8.7-9.485L2.109,31.894a1.169,1.169,0,0,1,.083-1.136,1.188,1.188,0,0,1,2.091.176c3.619,8.443,2.3,6.481,9.327,13.511a1,1,0,1,0,1.414-1.414c-4.476-4.476-5.027-4.911-5.8-6.07a2.6,2.6,0,0,1,3.239.054c6.07,5.109,6.679,3.193,8.785,5.823C23.2,45.282,23,47.887,23,50Z"/>
        <path id="Shape-16" data-name="Shape" d="M23,54H22a1,1,0,0,0,0,2h1a1,1,0,0,0,0-2Z"/>
        <path id="Shape-17" data-name="Shape" d="M55.792,41.342l3.919-8.621a3.188,3.188,0,1,0-5.832-2.575l-2.158,5.035a4.612,4.612,0,0,0-5.471.3,19.782,19.782,0,0,1-5.725,3.674,7.2,7.2,0,0,0-3.333,2.431C34.833,44.536,35,47.6,35,50a2,2,0,0,0-2,2v6a2,2,0,0,0,2,2H46a2,2,0,0,0,2-2V52a1.988,1.988,0,0,0-.542-1.36c6.428-6.428,7.276-6.967,8.334-9.3ZM46,58H35V52H46Zm-.731-8H37V48.139c0-3.756,2.129-6.406,4.157-7.084a21.312,21.312,0,0,0,6.381-4.04,2.6,2.6,0,0,1,3.239-.054c-.759,1.136-1.124,1.393-5.8,6.07a1,1,0,0,0,1.414,1.414c7.037-7.037,5.7-5.052,9.327-13.512a1.189,1.189,0,1,1,2.174.961c-4.193,9.224-4.211,9.7-5.684,11.168Z"/>
        <path id="Shape-18" data-name="Shape" d="M38,54H37a1,1,0,0,0,0,2h1a1,1,0,0,0,0-2Z"/>
        <path id="Shape-19" data-name="Shape" d="M50,1a10,10,0,0,0-.99,19.95c-.016.3-.01-1.061-.01,3.05a1,1,0,0,1-1,1H31c0-4.977,0-3.877-.01-4.05a10,10,0,1,0-1.98,0C29,21.092,29,20.023,29,25H12a1,1,0,0,1-1-1c0-4.156.01-2.66-.01-3.05a10,10,0,1,0-1.98,0C8.994,21.253,9,19.889,9,24a3,3,0,0,0,3,3H29v5.338c-2.427-3.1-6.179-4.285-9.088-3.447a1.939,1.939,0,0,0-1.318,1.318C16.956,35.9,23.015,42.431,29,41.131V47a1,1,0,0,0,2,0V41.131c5.987,1.3,12.042-5.234,10.406-10.922a1.939,1.939,0,0,0-1.318-1.318c-2.867-.825-6.628.309-9.088,3.447V27H48a3,3,0,0,0,3-3c0-4.156.01-2.66-.01-3.05A10,10,0,0,0,50,1ZM3.637,15.829l.8-.463a1,1,0,1,0-1-1.732l-.812.468A7.985,7.985,0,0,1,2.069,12H3a1,1,0,1,0,0-2H2.069a7.985,7.985,0,0,1,.557-2.1c.893.515.978.6,1.311.6a1,1,0,0,0,.5-1.866l-.8-.463A8.075,8.075,0,0,1,5.171,4.637l.463.8a1,1,0,1,0,1.732-1L6.9,3.626A7.985,7.985,0,0,1,9,3.069V4a1,1,0,0,0,2,0V3.069a7.985,7.985,0,0,1,2.1.557l-.468.812a1,1,0,0,0,.865,1.5c.7,0,.879-.521,1.33-1.3a8.075,8.075,0,0,1,1.534,1.534l-.8.463a1,1,0,0,0,.5,1.866c.351,0,.5-.132,1.311-.6a7.985,7.985,0,0,1,.557,2.1H17a1,1,0,0,0,0,2h.931a7.985,7.985,0,0,1-.557,2.1l-.812-.468a1,1,0,0,0-1,1.732l.8.463a8.075,8.075,0,0,1-1.534,1.534l-.463-.8a1,1,0,1,0-1.732,1l.468.812a7.985,7.985,0,0,1-2.1.557V18a1,1,0,0,0-2,0v.931a7.985,7.985,0,0,1-2.1-.557l.468-.812a1,1,0,0,0-1.732-1l-.463.8a8.075,8.075,0,0,1-1.537-1.533ZM22,11a8,8,0,1,1,8,8,8,8,0,0,1-8-8ZM20.464,30.813c3.88-1.113,8.593,2.772,8.524,7.059l-4.323-4.324a1,1,0,0,0-1.415,1.414l4.324,4.324c-4.23.068-8.155-4.586-7.11-8.473Zm19.02-.051c1.108,3.852-2.742,8.59-7.057,8.523l4.323-4.323a1,1,0,0,0-1.415-1.414l-4.323,4.324c-.068-4.232,4.588-8.155,8.472-7.11ZM49,3.069V10H42.069A8.008,8.008,0,0,1,49,3.069ZM42.069,12H49v6.931A8.008,8.008,0,0,1,42.069,12ZM51,18.931V3.069a7.993,7.993,0,0,1,0,15.862Z"/>
        <path id="Shape-20" data-name="Shape" d="M30,17.833a.993.993,0,0,0,.987-.933,3.756,3.756,0,0,0,3.346-3.4A3.752,3.752,0,0,0,31,10.1V7.162c.772.251,1.333.767,1.333,1.338a1,1,0,0,0,1,1c1.825,0,1.209-3.726-2.346-4.4a.989.989,0,0,0-1.974,0,3.756,3.756,0,0,0-3.346,3.4A3.752,3.752,0,0,0,29,11.9v2.941c-.772-.251-1.333-.767-1.333-1.338a1,1,0,0,0-1-1c-1.825,0-1.209,3.726,2.346,4.4a.993.993,0,0,0,.987.93Zm1-2.995V12.162c1.77.575,1.772,2.1,0,2.676ZM29,7.162V9.838C27.23,9.263,27.228,7.737,29,7.162Z"/>
        <path id="Shape-21" data-name="Shape" d="M10,12h4a1,1,0,0,0,0-2H11V7A1,1,0,0,0,9,7v4A1,1,0,0,0,10,12Z"/>
      </g>
    </g>
  </g>
</svg>
