<svg xmlns="http://www.w3.org/2000/svg" width="39.051" height="36.013" viewBox="0 0 39.051 36.013">
  <g id="Grupo_1112055" data-name="Grupo 1112055" transform="translate(-195 -2227.867)">
    <g id="Rectángulo_401341" data-name="Rectángulo 401341" transform="translate(195 2227.867)" fill="#fece2f" stroke="#faedc1" stroke-width="3">
      <rect width="39.051" height="36.013" rx="12" stroke="none"/>
      <rect x="1.5" y="1.5" width="36.051" height="33.013" rx="10.5" fill="none"/>
    </g>
    <g id="laptop-shopping_bag-smartphone-money" data-name="laptop-shopping bag-smartphone-money" transform="translate(200.637 2231.85)">
      <path id="Trazado_902174" data-name="Trazado 902174" d="M5.76,19h19a.76.76,0,0,1,.76.76V31.92H5V19.76A.76.76,0,0,1,5.76,19Z" transform="translate(-1.86 -10.54)" fill="#57a4ff"/>
      <path id="Trazado_902175" data-name="Trazado 902175" d="M25.041,53.38v1.14a1.52,1.52,0,0,1-1.52,1.52h-19A1.52,1.52,0,0,1,3,54.52V53.38A.38.38,0,0,1,3.38,53H24.661A.38.38,0,0,1,25.041,53.38Z" transform="translate(-0.62 -31.619)" fill="#57565c"/>
      <path id="Trazado_902176" data-name="Trazado 902176" d="M35,7h9.88v9.88H35Z" transform="translate(-20.46 -3.1)" fill="#2488ff"/>
      <path id="Trazado_902177" data-name="Trazado 902177" d="M44.88,33v3.04a.762.762,0,0,1-.76.76H35.76a.762.762,0,0,1-.76-.76V33Z" transform="translate(-20.46 -19.22)" fill="#e9e9ea"/>
      <ellipse id="Elipse_12128" data-name="Elipse 12128" cx="1" cy="0.5" rx="1" ry="0.5" transform="translate(18.4 15.4)" fill="#9bfbff"/>
      <path id="Trazado_902178" data-name="Trazado 902178" d="M44.88,3.76v.76H35V3.76A.762.762,0,0,1,35.76,3h8.36a.762.762,0,0,1,.76.76Z" transform="translate(-20.46 -0.62)" fill="#e9e9ea"/>
      <circle id="Elipse_12129" data-name="Elipse 12129" cx="3" cy="3" r="3" transform="translate(16.4 5.4)" fill="#ffda44"/>
      <path id="Trazado_902179" data-name="Trazado 902179" d="M30.56,53v1.14a.38.38,0,0,1-.38.38h-3.8a.38.38,0,0,1-.38-.38V53Z" transform="translate(-14.88 -31.619)" fill="#e9e9ea"/>
      <path id="Trazado_902180" data-name="Trazado 902180" d="M16.08,32H17.6l.76,6.08H10L10.76,32h5.32Z" transform="translate(-4.96 -18.6)" fill="#ea348b"/>
      <path id="Trazado_902181" data-name="Trazado 902181" d="M24.8,16.821V3.14A1.143,1.143,0,0,0,23.661,2H15.3a1.143,1.143,0,0,0-1.14,1.14V8.08H3.9A1.143,1.143,0,0,0,2.76,9.22V21a.762.762,0,0,0-.76.76V22.9a1.9,1.9,0,0,0,1.9,1.9h19a1.9,1.9,0,0,0,1.9-1.9v-1.14a.762.762,0,0,0-.76-.76V17.892A1.144,1.144,0,0,0,24.8,16.821ZM14.92,3.14a.38.38,0,0,1,.38-.38h8.36a.38.38,0,0,1,.38.38v.38H14.92Zm0,1.14h9.12V13.4H14.92ZM3.52,9.22a.38.38,0,0,1,.38-.38H14.16v7.98a1.143,1.143,0,0,0,1.14,1.14h7.98V21H3.52ZM15.3,21.761v.76H11.5v-.76Zm8.74,1.14a1.143,1.143,0,0,1-1.14,1.14H3.9A1.143,1.143,0,0,1,2.76,22.9v-1.14h7.98v.76a.762.762,0,0,0,.76.76h3.8a.762.762,0,0,0,.76-.76v-.76h7.98Zm-.38-5.7H15.3a.38.38,0,0,1-.38-.38V14.16h9.12v2.66A.38.38,0,0,1,23.661,17.2Z"/>
      <path id="Trazado_902182" data-name="Trazado 902182" d="M46.14,35a1.14,1.14,0,1,0,1.14,1.14A1.14,1.14,0,0,0,46.14,35Zm0,1.52a.38.38,0,1,1,.38-.38A.38.38,0,0,1,46.14,36.52Z" transform="translate(-26.659 -20.46)"/>
      <path id="Trazado_902183" data-name="Trazado 902183" d="M42.42,11a3.42,3.42,0,1,0,3.42,3.42A3.42,3.42,0,0,0,42.42,11Zm0,6.08a2.66,2.66,0,1,1,2.66-2.66A2.66,2.66,0,0,1,42.42,17.08Z" transform="translate(-22.94 -5.58)"/>
      <path id="Trazado_902184" data-name="Trazado 902184" d="M47.04,17.04a1.143,1.143,0,0,1-1.14,1.14v.38h-.76v-.38A1.143,1.143,0,0,1,44,17.04h.76a.38.38,0,0,0,.38.38h.76a.38.38,0,0,0,0-.76h-.76a1.14,1.14,0,1,1,0-2.28V14h.76v.38a1.143,1.143,0,0,1,1.14,1.14h-.76a.38.38,0,0,0-.38-.38h-.76a.38.38,0,0,0,0,.76h.76A1.143,1.143,0,0,1,47.04,17.04Z" transform="translate(-26.039 -7.44)"/>
      <path id="Trazado_902185" data-name="Trazado 902185" d="M17.357,26.375a.38.38,0,0,0-.376-.334h-1.14v-.76a2.28,2.28,0,1,0-4.56,0v.76h-1.14a.38.38,0,0,0-.376.334L9,32.455a.368.368,0,0,0,.091.3.373.373,0,0,0,.285.129h8.36a.373.373,0,0,0,.285-.129.368.368,0,0,0,.091-.3ZM12.041,25.28a1.52,1.52,0,1,1,3.04,0v.76h-3.04ZM9.81,32.12l.665-5.32h.806v1.14h.76V26.8h3.04v1.14h.76V26.8h.806l.665,5.32Z" transform="translate(-4.341 -13.02)"/>
      <path id="Trazado_902186" data-name="Trazado 902186" d="M8.52,21H7.38a.38.38,0,0,0-.38.38v1.14h.76v-.76h.76Z" transform="translate(-3.1 -11.78)"/>
      <path id="Trazado_902187" data-name="Trazado 902187" d="M53.76,47.76H53v.76h1.14a.38.38,0,0,0,.38-.38V47h-.76Z" transform="translate(-31.619 -27.899)"/>
    </g>
  </g>
</svg>
