<svg xmlns="http://www.w3.org/2000/svg" width="39.051" height="36.013" viewBox="0 0 39.051 36.013">
  <g id="Grupo_1112056" data-name="Grupo 1112056" transform="translate(-195 -2289.867)">
    <g id="Rectángulo_401341" data-name="Rectángulo 401341" transform="translate(195 2289.867)" fill="#fece2f" stroke="#faedc1" stroke-width="3">
      <rect width="39.051" height="36.013" rx="12" stroke="none"/>
      <rect x="1.5" y="1.5" width="36.051" height="33.013" rx="10.5" fill="none"/>
    </g>
    <g id="Grupo_1111940" data-name="Grupo 1111940" transform="translate(186.67 2278.623)">
      <g id="Grupo_1111939" data-name="Grupo 1111939" transform="translate(15.991 17.295)">
        <path id="Trazado_902188" data-name="Trazado 902188" d="M16.158,22.834l9.513-5.492a.328.328,0,0,1,.331,0l9.492,5.48a.329.329,0,0,1,.193.3v3.789h4.074a.984.984,0,0,1,.982.982V38.249a.984.984,0,0,1-.982.982H32.538a.984.984,0,0,1-.982-.982V36.684l-1.049.606a4.669,4.669,0,0,1-9.339,0l-4.985-2.88a.329.329,0,0,1-.193-.3V23.119a.327.327,0,0,1,.166-.285Z" transform="translate(-15.991 -17.295)" fill-rule="evenodd"/>
        <path id="Trazado_902189" data-name="Trazado 902189" d="M338.18,216.03h-7.222a.325.325,0,0,0-.323.323v10.359a.325.325,0,0,0,.323.323h7.222a.325.325,0,0,0,.323-.323V216.353a.325.325,0,0,0-.323-.323Zm-1.867,9.939h-.329v-.659h1.387v.659Zm0-1.982h-.329v-.659h1.387v.659Zm-2.108,1.982h-.329v-.659h1.387v.659Zm-2.108,0h-.329v-.659h1.387v.659Zm2.108-1.982h-.329v-.659h1.387v.659Zm-2.108,0h-.329v-.659h1.387v.659ZM336.313,222h-.329v-.659h1.387V222Zm-2.108,0h-.329v-.659h1.387V222Zm-2.108,0h-.329v-.659h1.387V222Zm-.389-5.168h5.615a.329.329,0,0,1,.329.329v2.379a.329.329,0,0,1-.329.329h-5.615a.329.329,0,0,1-.329-.329v-2.379A.33.33,0,0,1,331.709,216.837Z" transform="translate(-314.411 -205.782)" fill="#0085c4" fill-rule="evenodd"/>
        <path id="Trazado_902190" data-name="Trazado 902190" d="M136.032,327.08A4,4,0,0,0,133.2,325.9h0a4.011,4.011,0,1,0,2.836,1.175Zm-2.507,5.475a.329.329,0,1,1-.659,0v-.328a1.6,1.6,0,0,1-.234-.066,1.261,1.261,0,0,1-.867-1.232.329.329,0,0,1,.659,0,.63.63,0,0,0,.434.614,1.009,1.009,0,0,0,.674,0,.63.63,0,0,0,.434-.614c0-.51-.422-.6-.843-.694-.68-.148-1.359-.3-1.359-1.331a1.261,1.261,0,0,1,.867-1.232,1.6,1.6,0,0,1,.234-.066v-.328a.329.329,0,0,1,.659,0v.328a1.6,1.6,0,0,1,.234.066,1.261,1.261,0,0,1,.867,1.232.329.329,0,1,1-.659,0,.63.63,0,0,0-.434-.614,1.008,1.008,0,0,0-.674,0,.63.63,0,0,0-.434.614c0,.5.419.6.839.688.681.149,1.362.3,1.362,1.337a1.261,1.261,0,0,1-.867,1.232,1.591,1.591,0,0,1-.233.066C133.526,332.335,133.525,332.445,133.525,332.554Z" transform="translate(-123.349 -309.992)" fill="#f8c52d" fill-rule="evenodd"/>
        <path id="Trazado_902191" data-name="Trazado 902191" d="M222.226,140.8l-8.86,5.115V149.7a4.671,4.671,0,0,1,4.29,3.975l1.1-.634V145a.984.984,0,0,1,.982-.982h2.49Z" transform="translate(-203.189 -134.432)" fill="#f0d0af" fill-rule="evenodd"/>
        <path id="Trazado_902192" data-name="Trazado 902192" d="M96.213,179.741v3.676l1.735.986.013-3.652Z" transform="translate(-92.076 -171.365)" fill="#f8c52d" fill-rule="evenodd"/>
        <path id="Trazado_902193" data-name="Trazado 902193" d="M112.992,70.389l-8.863,5.117,1.749,1.01,8.863-5.117Z" transform="translate(-99.584 -67.651)" fill="#fbdc89" fill-rule="evenodd"/>
        <path id="Trazado_902194" data-name="Trazado 902194" d="M38,37.327l8.863-5.117-2.9-1.676L35.1,35.652Z" transform="translate(-34.114 -29.852)" fill="#fae5d0" fill-rule="evenodd"/>
        <path id="Trazado_902195" data-name="Trazado 902195" d="M34.648,144.2l-.014,3.837a.329.329,0,0,1-.49.285l-2.39-1.358a.328.328,0,0,1-.166-.286v-4.247L28.767,140.8v10.234l4.569,2.638a4.671,4.671,0,0,1,4.291-3.974v-3.782l-2.979-1.72Zm-4.209,5.9a.328.328,0,1,1,.327-.569l2.14,1.235a.328.328,0,0,1-.327.569Z" transform="translate(-28.108 -134.432)" fill="#deb285" fill-rule="evenodd"/>
        <path id="Trazado_902196" data-name="Trazado 902196" d="M159.653,97.328l-8.863,5.117,2.9,1.673L162.55,99Z" transform="translate(-143.839 -93.201)" fill="#fae5d0" fill-rule="evenodd"/>
      </g>
      <path id="Trazado_902197" data-name="Trazado 902197" d="M357.846,244.454H362.8v1.72h-4.957Z" transform="translate(-324.228 -215.446)" fill="#85beed"/>
    </g>
  </g>
</svg>
