<svg xmlns="http://www.w3.org/2000/svg" width="82" height="82" viewBox="0 0 82 82">
  <g id="Grupo_1112088" data-name="Grupo 1112088" transform="translate(1942 10250)">
    <circle id="Elipse_11497" data-name="Elipse 11497" cx="41" cy="41" r="41" transform="translate(-1942 -10250)" fill="#ff9b6a"/>
    <g id="Artboard321" transform="translate(-1938.046 -10282.474)">
      <g id="Grupo_1111772" data-name="Grupo 1111772" transform="translate(7 47.974)">
        <g id="Grupo_1111771" data-name="Grupo 1111771" transform="translate(0.987 0.987)">
          <g id="Grupo_1111767" data-name="Grupo 1111767" transform="translate(0 10.836)">
            <path id="Trazado_902075" data-name="Trazado 902075" d="M131.88,366.983h13.2V374.5h-13.2Z" transform="translate(-117.485 -339.513)" fill="#a79ba7" fill-rule="evenodd"/>
            <path id="Trazado_902076" data-name="Trazado 902076" d="M230.709,366.983h1.024V374.5h-1.024Z" transform="translate(-204.141 -339.513)" fill="#837683" fill-rule="evenodd"/>
            <path id="Trazado_902077" data-name="Trazado 902077" d="M69.651,422.7H98.18v-2.2a2.533,2.533,0,0,0-2.752-2.2H72.4a2.531,2.531,0,0,0-2.753,2.2Z" transform="translate(-62.921 -384.509)" fill="#eceff1" fill-rule="evenodd"/>
            <path id="Trazado_902078" data-name="Trazado 902078" d="M69.651,425.823H98.18v-2.2a2.1,2.1,0,0,0-1.111-1.761,1.812,1.812,0,0,1,.236.888v2.2H69.651Z" transform="translate(-62.921 -387.633)" fill="#d1d1d6" fill-rule="evenodd"/>
            <path id="Trazado_902079" data-name="Trazado 902079" d="M18.238,143.957H53.772A3.238,3.238,0,0,1,57,147.186v22.206a3.238,3.238,0,0,1-3.229,3.229H18.238a3.236,3.236,0,0,1-3.226-3.229V147.186A3.236,3.236,0,0,1,18.238,143.957Z" transform="translate(-15.012 -143.957)" fill="#eceff1" fill-rule="evenodd"/>
            <path id="Trazado_902080" data-name="Trazado 902080" d="M59.491,148.447a3.231,3.231,0,0,1,1.428,2.676v22.206a3.238,3.238,0,0,1-3.229,3.229H22.157a3.238,3.238,0,0,1-2.676-1.426,3.216,3.216,0,0,0,1.8.551H56.816a3.236,3.236,0,0,0,3.229-3.226V150.247A3.2,3.2,0,0,0,59.491,148.447Z" transform="translate(-18.931 -147.894)" fill="#d1d1d6" fill-rule="evenodd"/>
            <path id="Trazado_902081" data-name="Trazado 902081" d="M37.365,165.881h35.7a.448.448,0,0,1,.446.446v20.1H36.916v-20.1A.448.448,0,0,1,37.365,165.881Z" transform="translate(-34.218 -163.181)" fill="#d8ecfe" fill-rule="evenodd"/>
            <path id="Trazado_902082" data-name="Trazado 902082" d="M316.15,165.881H317.9a.448.448,0,0,1,.446.446v20.1H316.6v-20.1A.45.45,0,0,0,316.15,165.881Z" transform="translate(-279.058 -163.181)" fill="#c4e2ff" fill-rule="evenodd"/>
          </g>
          <g id="Grupo_1111768" data-name="Grupo 1111768" transform="translate(13.963 16.767)">
            <circle id="Elipse_12115" data-name="Elipse 12115" cx="7.031" cy="7.031" r="7.031" fill="#fe646f"/>
            <path id="Trazado_902083" data-name="Trazado 902083" d="M180.462,192.143q.3-.027.616-.027a7.031,7.031,0,0,1,0,14.062q-.311,0-.616-.027a7.031,7.031,0,0,0,0-14.009Z" transform="translate(-174.047 -192.116)" fill="#fd4755" fill-rule="evenodd"/>
            <path id="Trazado_902084" data-name="Trazado 902084" d="M172.688,226.605a1.047,1.047,0,0,1,0,1.814l-3.462,2a1.047,1.047,0,0,1-1.571-.907v-4a1.047,1.047,0,0,1,1.571-.907Z" transform="translate(-162.816 -220.481)" fill="#eceff1" fill-rule="evenodd"/>
            <path id="Trazado_902085" data-name="Trazado 902085" d="M169.036,230.5a1.048,1.048,0,0,1-1.382-.993v-4a1.048,1.048,0,0,1,1.382-.993,1.048,1.048,0,0,0-.713.993v4a1.048,1.048,0,0,0,.713.993Z" transform="translate(-162.816 -220.481)" fill="#d1d1d6" fill-rule="evenodd"/>
          </g>
          <g id="Grupo_1111769" data-name="Grupo 1111769" transform="translate(45.057)">
            <circle id="Elipse_12116" data-name="Elipse 12116" cx="7.031" cy="7.031" r="7.031" fill="#fe646f"/>
            <path id="Trazado_902086" data-name="Trazado 902086" d="M432.9,56.012q.3-.027.616-.027a7.031,7.031,0,0,1,0,14.062q-.311,0-.616-.027a7.031,7.031,0,0,0,0-14.009Z" transform="translate(-426.49 -55.985)" fill="#fd4755" fill-rule="evenodd"/>
            <path id="Trazado_902087" data-name="Trazado 902087" d="M425.131,90.474a1.048,1.048,0,0,1,0,1.814l-3.462,2a1.047,1.047,0,0,1-1.571-.907v-4a1.047,1.047,0,0,1,1.571-.907Z" transform="translate(-415.259 -84.35)" fill="#eceff1" fill-rule="evenodd"/>
            <path id="Trazado_902088" data-name="Trazado 902088" d="M421.479,94.373a1.048,1.048,0,0,1-1.382-.993v-4a1.047,1.047,0,0,1,1.382-.993,1.048,1.048,0,0,0-.713.993v4a1.048,1.048,0,0,0,.713.993Z" transform="translate(-415.259 -84.35)" fill="#d1d1d6" fill-rule="evenodd"/>
          </g>
          <g id="Grupo_1111770" data-name="Grupo 1111770" transform="translate(45.057 34.766)">
            <circle id="Elipse_12117" data-name="Elipse 12117" cx="7.031" cy="7.031" r="7.031" transform="translate(0 0)" fill="#fe646f"/>
            <path id="Trazado_902089" data-name="Trazado 902089" d="M432.9,338.274q.3-.026.616-.027a7.031,7.031,0,0,1,0,14.062q-.311,0-.616-.027a7.031,7.031,0,0,0,0-14.009Z" transform="translate(-426.49 -338.247)" fill="#fd4755" fill-rule="evenodd"/>
            <path id="Trazado_902090" data-name="Trazado 902090" d="M425.131,372.736a1.048,1.048,0,0,1,0,1.814l-3.462,2a1.047,1.047,0,0,1-1.571-.907v-4a1.047,1.047,0,0,1,1.571-.907Z" transform="translate(-415.259 -366.612)" fill="#eceff1" fill-rule="evenodd"/>
            <path id="Trazado_902091" data-name="Trazado 902091" d="M421.479,376.636a1.048,1.048,0,0,1-1.382-.993v-4a1.047,1.047,0,0,1,1.382-.993,1.047,1.047,0,0,0-.713.993v4a1.048,1.048,0,0,0,.713.993Z" transform="translate(-415.259 -366.613)" fill="#d1d1d6" fill-rule="evenodd"/>
          </g>
        </g>
        <path id="Trazado_902092" data-name="Trazado 902092" d="M21.4,89.445H11.215A4.228,4.228,0,0,1,7,85.23V63.022a4.228,4.228,0,0,1,4.215-4.215H45.593l1.278-3.183a.986.986,0,0,1,.915-.618H52.12a8.016,8.016,0,1,1,0,1.971H48.451l-.776,1.934a4.232,4.232,0,0,1,3.291,4.112V85.23a4.231,4.231,0,0,1-2.722,3.94l.225.6H52.12a8.016,8.016,0,1,1,0,1.971H47.785a.985.985,0,0,1-.923-.64l-.619-1.657H36.569V92.6H40.5a3.516,3.516,0,0,1,3.739,3.183v2.2a.985.985,0,0,1-.985.985H14.718a.985.985,0,0,1-.985-.985v-2.2A3.516,3.516,0,0,1,17.471,92.6H21.4ZM44.8,60.778H11.215a2.251,2.251,0,0,0-2.244,2.244V85.23a2.251,2.251,0,0,0,2.244,2.244H45.505l-1.3-3.467H10.685a.985.985,0,0,1-.985-.985V62.942a1.434,1.434,0,0,1,1.436-1.433H44.508ZM34.6,89.445H23.37V92.6H34.6ZM54.031,55.99a6.046,6.046,0,1,0,6.046-6.046A6.049,6.049,0,0,0,54.031,55.99ZM47.554,87.325a2.253,2.253,0,0,0,1.441-2.095V63.022a2.252,2.252,0,0,0-2.072-2.237l-.291.725h.2a1.435,1.435,0,0,1,1.433,1.433v20.08a.985.985,0,0,1-.985.985h-.968Zm6.477,3.432a6.046,6.046,0,1,0,6.046-6.046A6.049,6.049,0,0,0,54.031,90.757ZM43.718,63.48H11.67V82.036h31.8l-3.1-8.293h-1.6a.985.985,0,1,1,0-1.971H40.39Zm1.859,18.556H46.3V63.48h-.455L42.112,72.77ZM63.409,54.23a2.033,2.033,0,0,1,0,3.521l-3.462,2A2.033,2.033,0,0,1,56.9,57.99v-4a2.033,2.033,0,0,1,3.049-1.76Zm-.985,1.707-3.462-2a.062.062,0,0,0-.093.054v4a.062.062,0,0,0,.093.054l3.462-2a.062.062,0,0,0,0-.107ZM63.409,89a2.033,2.033,0,0,1,0,3.521l-3.462,2a2.033,2.033,0,0,1-3.049-1.76v-4A2.033,2.033,0,0,1,59.947,87ZM62.424,90.7l-3.462-2a.062.062,0,0,0-.093.054v4a.062.062,0,0,0,.093.054l3.462-2a.062.062,0,0,0,0-.108ZM15.7,97H42.265V95.788c0-.735-.847-1.212-1.768-1.212H17.471c-.921,0-1.768.477-1.768,1.212Zm13.28-32.261a8.016,8.016,0,1,1-8.016,8.016,8.02,8.02,0,0,1,8.016-8.016Zm0,1.971a6.046,6.046,0,1,0,6.046,6.046,6.049,6.049,0,0,0-6.046-6.046ZM32.316,71a2.033,2.033,0,0,1,0,3.521l-3.462,2a2.033,2.033,0,0,1-3.049-1.76v-4A2.033,2.033,0,0,1,28.853,69ZM31.33,72.7l-3.462-2a.062.062,0,0,0-.093.054v4a.062.062,0,0,0,.093.054l3.462-2a.062.062,0,0,0,0-.107Z" transform="translate(-7 -47.974)" fill-rule="evenodd"/>
      </g>
    </g>
  </g>
</svg>
