<svg xmlns="http://www.w3.org/2000/svg" width="82" height="82" viewBox="0 0 82 82">
  <g id="Grupo_1112087" data-name="Grupo 1112087" transform="translate(2259 10250)">
    <circle id="Elipse_11497" data-name="Elipse 11497" cx="41" cy="41" r="41" transform="translate(-2259 -10250)" fill="#ff9b6a"/>
    <g id="Grupo_1111766" data-name="Grupo 1111766" transform="translate(-2270.204 -10235.469)">
      <g id="Grupo_1111751" data-name="Grupo 1111751" transform="translate(33.632 0.775)">
        <g id="Grupo_1111750" data-name="Grupo 1111750">
          <path id="Trazado_902047" data-name="Trazado 902047" d="M135.557,7.5h-35.3a2,2,0,0,0-2,2v4.808h11.246A.7.7,0,0,1,110.2,15V32.232a.7.7,0,0,1-.695.695H98.261V56.888a2,2,0,0,0,2,2h35.3a2,2,0,0,0,2-2V9.5a2,2,0,0,0-2-2Z" transform="translate(-98.261 -7.5)" fill="#d8ecfe"/>
          <g id="Grupo_1111747" data-name="Grupo 1111747" transform="translate(0 0)">
            <path id="Trazado_902048" data-name="Trazado 902048" d="M102.578,277.379V253.418H98.262v23.961a2,2,0,0,0,2,2h4.316A2,2,0,0,1,102.578,277.379Z" transform="translate(-98.262 -227.991)" fill="#c4e2ff"/>
            <path id="Trazado_902049" data-name="Trazado 902049" d="M102.577,14.308V9.5a2,2,0,0,1,2-2h-4.316a2,2,0,0,0-2,2v4.808h4.316Z" transform="translate(-98.261 -7.5)" fill="#c4e2ff"/>
          </g>
          <path id="Trazado_902050" data-name="Trazado 902050" d="M236.58,138.069H213.75v3.451h19.379a.7.7,0,0,1,.695.695v15.307h2.756a.7.7,0,0,0,.695-.695V138.764A.7.7,0,0,0,236.58,138.069Z" transform="translate(-201.809 -124.569)" fill="#97d729"/>
          <path id="Trazado_902051" data-name="Trazado 902051" d="M213.75,141.519h4.058v-2.756a.7.7,0,0,1,.695-.695H213.75Z" transform="translate(-201.809 -124.568)" fill="#8bc727"/>
          <g id="Grupo_1111748" data-name="Grupo 1111748" transform="translate(12.692 0)">
            <path id="Trazado_902052" data-name="Trazado 902052" d="M221.007,7.5l.851,2.553a2.159,2.159,0,0,0,2.048,1.476h8.115a2.159,2.159,0,0,0,2.048-1.476l.851-2.553Z" transform="translate(-221.007 -7.5)" fill="#8379c1"/>
          </g>
          <g id="Grupo_1111749" data-name="Grupo 1111749" transform="translate(12.692 0)">
            <path id="Trazado_902053" data-name="Trazado 902053" d="M225.373,10.053,224.522,7.5h-3.515l.851,2.553a2.159,2.159,0,0,0,2.048,1.476h3.515A2.159,2.159,0,0,1,225.373,10.053Z" transform="translate(-221.007 -7.5)" fill="#6e61b6"/>
          </g>
        </g>
      </g>
      <g id="Grupo_1111752" data-name="Grupo 1111752" transform="translate(48.34 44.461)">
        <path id="Trazado_902054" data-name="Trazado 902054" d="M248.842,433.1h-6.778a1.551,1.551,0,1,1,0-3.1h6.778a1.551,1.551,0,0,1,0,3.1Z" transform="translate(-240.513 -430)" fill="#8379c1"/>
      </g>
      <g id="Grupo_1111753" data-name="Grupo 1111753" transform="translate(48.34 44.461)">
        <path id="Trazado_902055" data-name="Trazado 902055" d="M244.021,431.551A1.551,1.551,0,0,1,245.572,430h-3.508a1.551,1.551,0,1,0,0,3.1h3.508A1.551,1.551,0,0,1,244.021,431.551Z" transform="translate(-240.513 -430)" fill="#6e61b6"/>
      </g>
      <g id="Grupo_1111758" data-name="Grupo 1111758" transform="translate(40.914 17.727)">
        <path id="Trazado_902056" data-name="Trazado 902056" d="M192.73,171.445H173.351v7.781a.7.7,0,0,1-.695.695h-3.964V190.2a.7.7,0,0,0,.695.695H192.73a.7.7,0,0,0,.695-.695V172.14a.7.7,0,0,0-.695-.695Z" transform="translate(-168.692 -171.445)" fill="#26a6fe"/>
        <g id="Grupo_1111754" data-name="Grupo 1111754" transform="translate(0 8.571)">
          <path id="Trazado_902057" data-name="Trazado 902057" d="M173.894,264.53V254.344a1.469,1.469,0,0,1-1.238.68h-3.964v9.507a.7.7,0,0,0,.695.695h5.2A.7.7,0,0,1,173.894,264.53Z" transform="translate(-168.692 -254.344)" fill="#0593fc"/>
        </g>
        <g id="Grupo_1111757" data-name="Grupo 1111757" transform="translate(8.518 4.171)">
          <g id="Grupo_1111755" data-name="Grupo 1111755">
            <path id="Trazado_902058" data-name="Trazado 902058" d="M258.754,215.366l-7.081-3.54a.417.417,0,0,0-.6.373v7.081a.417.417,0,0,0,.6.373l7.081-3.54A.417.417,0,0,0,258.754,215.366Z" transform="translate(-251.07 -211.781)" fill="#fed402"/>
          </g>
          <g id="Grupo_1111756" data-name="Grupo 1111756">
            <path id="Trazado_902059" data-name="Trazado 902059" d="M253.695,212.837l-2.021-1.011a.417.417,0,0,0-.6.373v7.081a.417.417,0,0,0,.6.373l2.021-1.011Z" transform="translate(-251.07 -211.781)" fill="#fac600"/>
          </g>
        </g>
      </g>
      <g id="Grupo_1111764" data-name="Grupo 1111764" transform="translate(26.954 7.584)">
        <g id="Grupo_1111759" data-name="Grupo 1111759" transform="translate(0)">
          <path id="Trazado_902060" data-name="Trazado 902060" d="M51.6,91.966H34.374a.7.7,0,0,1-.695-.695V74.042a.7.7,0,0,1,.695-.695H51.6a.7.7,0,0,1,.695.695V91.271A.7.7,0,0,1,51.6,91.966Z" transform="translate(-33.679 -73.347)" fill="#fed402"/>
        </g>
        <g id="Grupo_1111760" data-name="Grupo 1111760">
          <path id="Trazado_902061" data-name="Trazado 902061" d="M38.048,91.271V74.042a.7.7,0,0,1,.695-.695H34.374a.7.7,0,0,0-.695.695V91.271a.7.7,0,0,0,.695.695h4.369A.7.7,0,0,1,38.048,91.271Z" transform="translate(-33.679 -73.347)" fill="#fac600"/>
        </g>
        <g id="Grupo_1111763" data-name="Grupo 1111763" transform="translate(3.766 10.179)">
          <g id="Grupo_1111761" data-name="Grupo 1111761" transform="translate(0 1.078)">
            <circle id="Elipse_12110" data-name="Elipse 12110" cx="1.978" cy="1.978" r="1.978" fill="#26a6fe"/>
          </g>
          <g id="Grupo_1111762" data-name="Grupo 1111762" transform="translate(7.131)">
            <circle id="Elipse_12111" data-name="Elipse 12111" cx="1.978" cy="1.978" r="1.978" fill="#26a6fe"/>
          </g>
        </g>
      </g>
      <g id="Grupo_1111765" data-name="Grupo 1111765" transform="translate(26.179 0)">
        <path id="Trazado_902062" data-name="Trazado 902062" d="M72.929,44.926a.775.775,0,0,0,.775-.775V2.776A2.779,2.779,0,0,0,70.928,0h-35.3a2.779,2.779,0,0,0-2.776,2.776V6.808H27.649a1.472,1.472,0,0,0-1.47,1.47V25.508a1.472,1.472,0,0,0,1.47,1.47h5.207V50.163a2.779,2.779,0,0,0,2.776,2.776h35.3A2.779,2.779,0,0,0,73.7,50.163V47.769a.775.775,0,0,0-1.551,0v2.394a1.226,1.226,0,0,1-1.225,1.225h-35.3a1.227,1.227,0,0,1-1.225-1.225V26.978h5.731v9.507a1.472,1.472,0,0,0,1.47,1.47H64.952a1.472,1.472,0,0,0,1.47-1.47V34.5H68.4a1.472,1.472,0,0,0,1.47-1.47V22.954a.775.775,0,0,0-1.551,0v10h-1.9V18.422a1.472,1.472,0,0,0-1.47-1.47h-18.6v-1.9H68.322v4.284a.775.775,0,1,0,1.551,0V14.971A1.472,1.472,0,0,0,68.4,13.5H46.349V8.279a1.472,1.472,0,0,0-1.47-1.47H34.408V2.776a1.227,1.227,0,0,1,1.225-1.225H45.765l.674,2.023A2.931,2.931,0,0,0,49.223,5.58h3.511a.775.775,0,0,0,0-1.551H49.223a1.382,1.382,0,0,1-1.313-.946L47.4,1.551H59.162l-.511,1.532a1.382,1.382,0,0,1-1.313.946h-.986a.775.775,0,0,0,0,1.551h.986a2.931,2.931,0,0,0,2.784-2.007L60.8,1.551H70.928a1.226,1.226,0,0,1,1.225,1.225V44.15a.775.775,0,0,0,.775.775ZM46.349,25.508V18.5H64.871V36.4H41.69V26.978h3.189a1.472,1.472,0,0,0,1.47-1.47ZM44.8,8.359V25.427H27.73V8.359Z" transform="translate(-26.179 0)"/>
        <circle id="Elipse_12112" data-name="Elipse 12112" cx="0.775" cy="0.775" r="0.775" transform="translate(41.993 3.102)"/>
        <circle id="Elipse_12113" data-name="Elipse 12113" cx="0.775" cy="0.775" r="0.775" transform="translate(39.305 3.102)"/>
        <circle id="Elipse_12114" data-name="Elipse 12114" cx="0.775" cy="0.775" r="0.775" transform="translate(36.617 3.102)"/>
        <path id="Trazado_902063" data-name="Trazado 902063" d="M146.066,440.5a.775.775,0,1,0,0,1.551h3.412a.775.775,0,1,0,0-1.551Z" transform="translate(-132.975 -394.954)"/>
        <path id="Trazado_902064" data-name="Trazado 902064" d="M384.066,440.5a.775.775,0,1,0,0,1.551h3.412a.775.775,0,0,0,0-1.551Z" transform="translate(-346.367 -394.954)"/>
        <path id="Trazado_902065" data-name="Trazado 902065" d="M235.34,422.5a2.326,2.326,0,0,0,0,4.653h6.778a2.326,2.326,0,0,0,0-4.653Zm7.554,2.326a.776.776,0,0,1-.775.775H235.34a.775.775,0,0,1,0-1.551h6.778A.776.776,0,0,1,242.894,424.826Z" transform="translate(-211.628 -378.815)"/>
        <path id="Trazado_902066" data-name="Trazado 902066" d="M192.875,275.978a.775.775,0,0,0,.775-.775v-.934a.775.775,0,0,0-1.551,0v.934A.775.775,0,0,0,192.875,275.978Z" transform="translate(-174.944 -245.215)"/>
        <path id="Trazado_902067" data-name="Trazado 902067" d="M192.875,315.97a.775.775,0,0,0,.775-.775v-.934a.775.775,0,1,0-1.551,0v.934A.775.775,0,0,0,192.875,315.97Z" transform="translate(-174.944 -281.072)"/>
        <path id="Trazado_902068" data-name="Trazado 902068" d="M370.257,195.995a.775.775,0,0,0,.775-.775v-.934a.775.775,0,1,0-1.551,0v.934A.775.775,0,0,0,370.257,195.995Z" transform="translate(-333.986 -173.502)"/>
        <path id="Trazado_902069" data-name="Trazado 902069" d="M370.257,235.986a.775.775,0,0,0,.775-.775v-.934a.775.775,0,1,0-1.551,0v.934A.776.776,0,0,0,370.257,235.986Z" transform="translate(-333.986 -209.358)"/>
        <path id="Trazado_902070" data-name="Trazado 902070" d="M370.257,275.978a.775.775,0,0,0,.775-.775v-.934a.775.775,0,0,0-1.551,0v.934A.775.775,0,0,0,370.257,275.978Z" transform="translate(-333.986 -245.215)"/>
        <path id="Trazado_902071" data-name="Trazado 902071" d="M370.257,315.97a.775.775,0,0,0,.775-.775v-.934a.775.775,0,1,0-1.551,0v.934A.776.776,0,0,0,370.257,315.97Z" transform="translate(-333.986 -281.072)"/>
        <path id="Trazado_902072" data-name="Trazado 902072" d="M244.136,213.563a1.185,1.185,0,0,0,1.16.052l7.081-3.54a1.192,1.192,0,0,0,0-2.133L245.3,204.4a1.192,1.192,0,0,0-1.726,1.066v7.081A1.184,1.184,0,0,0,244.136,213.563Zm.985-7.515,5.92,2.96-5.92,2.96Z" transform="translate(-221.092 -183.153)"/>
        <path id="Trazado_902073" data-name="Trazado 902073" d="M242.243,313.295h7.914a.775.775,0,0,0,0-1.551h-7.914a.775.775,0,0,0,0,1.551Z" transform="translate(-219.208 -279.511)"/>
        <path id="Trazado_902074" data-name="Trazado 902074" d="M65.356,112.151a2.756,2.756,0,0,0,2.753-2.753V101.33l5.581-.856v5.37a2.753,2.753,0,1,0,1.551,2.476V99.57a.775.775,0,0,0-.775-.775l-7.249,1.1a.775.775,0,0,0-.658.766v6.257a2.753,2.753,0,1,0-1.2,5.229Zm7.131-2.629a1.2,1.2,0,1,1,1.2-1.2A1.2,1.2,0,0,1,72.488,109.522ZM65.356,108.2a1.2,1.2,0,1,1-1.2,1.2A1.2,1.2,0,0,1,65.356,108.2Z" transform="translate(-58.837 -88.58)"/>
      </g>
    </g>
  </g>
</svg>
