<svg xmlns="http://www.w3.org/2000/svg" width="82.869" height="82.869" viewBox="0 0 82.869 82.869">
  <g id="Grupo_1112052" data-name="Grupo 1112052" transform="translate(-859.885 -2975.232)">
    <path id="Trazado_873758" data-name="Trazado 873758" d="M41.434,0A41.434,41.434,0,1,1,0,41.434,41.434,41.434,0,0,1,41.434,0Z" transform="translate(859.885 2975.232)" fill="#405f5a"/>
    <g id="Grupo_1112032" data-name="Grupo 1112032" transform="translate(872.336 2989)">
      <g id="Grupo_1112030" data-name="Grupo 1112030" transform="translate(0.872 0.872)">
        <g id="Grupo_1112024" data-name="Grupo 1112024" transform="translate(14.367 34.864)">
          <path id="Trazado_902326" data-name="Trazado 902326" d="M177.8,331.486v6.973a3.487,3.487,0,0,1-3.486,3.486H139.87a7.807,7.807,0,0,0,1.322-4.358v-8.716a6.047,6.047,0,0,0-.062-.872h33.183A3.487,3.487,0,0,1,177.8,331.486Z" transform="translate(-139.87 -328)" fill="#ffeaa7"/>
        </g>
        <g id="Grupo_1112025" data-name="Grupo 1112025" transform="translate(0 36.607)">
          <path id="Trazado_902327" data-name="Trazado 902327" d="M23.689,344v7.844a7.844,7.844,0,1,1-15.689,0V344H23.689Z" transform="translate(-8 -344)" fill="#969faa"/>
        </g>
        <g id="Grupo_1112026" data-name="Grupo 1112026" transform="translate(7.844 29.634)">
          <path id="Trazado_902328" data-name="Trazado 902328" d="M87.844,286.1v.872H80a1.743,1.743,0,0,0,1.743-1.743v-3.486A1.741,1.741,0,0,0,80,280h1.743a6.1,6.1,0,0,1,6.038,5.23h0A6.044,6.044,0,0,1,87.844,286.1Z" transform="translate(-80 -280)" fill="#ccd1d9"/>
        </g>
        <g id="Grupo_1112027" data-name="Grupo 1112027" transform="translate(0 29.634)">
          <path id="Trazado_902329" data-name="Trazado 902329" d="M14.1,280h1.743a1.743,1.743,0,0,0-1.743,1.743v3.486a1.743,1.743,0,0,0,1.743,1.743H8V286.1A6.1,6.1,0,0,1,14.1,280Z" transform="translate(-8 -280)" fill="#ccd1d9"/>
        </g>
        <g id="Grupo_1112028" data-name="Grupo 1112028" transform="translate(6.101 29.634)">
          <path id="Trazado_902330" data-name="Trazado 902330" d="M67.486,281.743v3.486a1.743,1.743,0,0,1-3.486,0v-3.486a1.743,1.743,0,1,1,3.486,0Z" transform="translate(-64 -280)" fill="#ff826e"/>
        </g>
        <g id="Grupo_1112029" data-name="Grupo 1112029" transform="translate(15.689)">
          <path id="Trazado_902331" data-name="Trazado 902331" d="M188.607,26.3a18.306,18.306,0,0,1-10.5,16.56H162.5A18.3,18.3,0,1,1,188.607,26.3Z" transform="translate(-152 -8)" fill="#69d6f4"/>
        </g>
      </g>
      <g id="Grupo_1112031" data-name="Grupo 1112031">
        <path id="Trazado_902332" data-name="Trazado 902332" d="M182.516,355.675l-1.312-3.062a.872.872,0,0,0-1.6,0l-1.312,3.062-.506-4.559-1.733.193.872,7.844a.872.872,0,0,0,1.667.247l1.814-4.232,1.814,4.232a.872.872,0,0,0,1.667-.247l.872-7.844-1.733-.193Z" transform="translate(-156.869 -312.862)"/>
        <path id="Trazado_902333" data-name="Trazado 902333" d="M278.516,355.675l-1.313-3.062a.872.872,0,0,0-1.6,0l-1.312,3.062-.506-4.559-1.733.193.872,7.844a.872.872,0,0,0,1.667.247l1.814-4.232,1.814,4.232a.872.872,0,0,0,1.667-.247l.872-7.844-1.733-.193Z" transform="translate(-242.41 -312.862)"/>
        <path id="Trazado_902334" data-name="Trazado 902334" d="M374.516,355.675l-1.313-3.062a.872.872,0,0,0-1.6,0l-1.312,3.062-.506-4.559-1.733.193.872,7.844a.872.872,0,0,0,1.667.247l1.814-4.232,1.814,4.232a.872.872,0,0,0,1.667-.247l.872-7.844-1.733-.193Z" transform="translate(-327.951 -312.862)"/>
        <path id="Trazado_902335" data-name="Trazado 902335" d="M49.681,34.864H45.89a19.178,19.178,0,1,0-22.053,0H17.211a6.985,6.985,0,0,0-6.752-5.23H9.588v-.872a2.618,2.618,0,0,0-2.615-2.615H2.615a.872.872,0,0,1,0-1.743H13.946V22.662H2.615a2.615,2.615,0,1,0,0,5.23H6.973a.873.873,0,0,1,.872.872v.872H6.973A6.981,6.981,0,0,0,0,36.607v8.716a8.713,8.713,0,0,0,15.684,5.23h34a4.363,4.363,0,0,0,4.358-4.358V39.222A4.363,4.363,0,0,0,49.681,34.864Zm-7.217,0H39.957a21.031,21.031,0,0,0,2.5-6.1H49.4a17.442,17.442,0,0,1-6.939,6.1Zm-10.545,0a16.6,16.6,0,0,1-2.834-6.1h11.56a16.6,16.6,0,0,1-2.834,6.1ZM17.454,18.3A17.3,17.3,0,0,1,19.3,11.331h7.585a40.165,40.165,0,0,0-.728,6.973Zm11.208-6.973h12.4a38.057,38.057,0,0,1,.762,6.973H27.9A38.057,38.057,0,0,1,28.662,11.331Zm6.2-9.588c1.7,0,3.43,1.761,4.746,4.833a23.221,23.221,0,0,1,1.038,3.012H29.081a23.226,23.226,0,0,1,1.038-3.012c1.316-3.071,3.046-4.833,4.746-4.833ZM52.274,18.3h-8.7a40.155,40.155,0,0,0-.728-6.973h7.585A17.307,17.307,0,0,1,52.274,18.3ZM41.826,20.047a38.353,38.353,0,0,1-.765,6.973h-12.4a38.353,38.353,0,0,1-.765-6.973Zm8.588,6.973H42.847a40.309,40.309,0,0,0,.723-6.973h8.7a17.4,17.4,0,0,1-1.856,6.973Zm-1-17.432H42.449a25.453,25.453,0,0,0-1.237-3.7,14.273,14.273,0,0,0-2.163-3.637A17.489,17.489,0,0,1,49.415,9.588ZM30.679,2.252a14.269,14.269,0,0,0-2.163,3.637,25.457,25.457,0,0,0-1.237,3.7H20.313A17.489,17.489,0,0,1,30.679,2.252ZM17.457,20.047h8.7a40.32,40.32,0,0,0,.723,6.973H19.313A17.4,17.4,0,0,1,17.457,20.047Zm2.868,8.716h6.949a21.031,21.031,0,0,0,2.5,6.1H27.264a17.443,17.443,0,0,1-6.939-6.1Zm-4.636,7.844H11.181a2.6,2.6,0,0,0,.15-.872V32.249a2.6,2.6,0,0,0-.132-.818A5.237,5.237,0,0,1,15.689,36.607Zm-7.844-.872V32.249a.872.872,0,0,1,1.743,0v3.486a.872.872,0,0,1-1.743,0Zm-1.611-4.3a2.6,2.6,0,0,0-.132.818v3.486a2.6,2.6,0,0,0,.15.872H1.743A5.237,5.237,0,0,1,6.233,31.431ZM8.716,52.3a6.981,6.981,0,0,1-6.973-6.973V38.35H15.689v6.973A6.981,6.981,0,0,1,8.716,52.3Zm43.58-6.1a2.618,2.618,0,0,1-2.615,2.615H16.7a8.664,8.664,0,0,0,.73-3.486V36.607H49.681A2.618,2.618,0,0,1,52.3,39.222Z"/>
      </g>
    </g>
  </g>
</svg>
