<svg xmlns="http://www.w3.org/2000/svg" width="82" height="82" viewBox="0 0 82 82">
  <g id="Grupo_1112083" data-name="Grupo 1112083" transform="translate(3527 10250)">
    <circle id="Elipse_11497" data-name="Elipse 11497" cx="41" cy="41" r="41" transform="translate(-3527 -10250)" fill="#ff9b6a"/>
    <g id="Grupo_1111739" data-name="Grupo 1111739" transform="translate(-3513.5 -10236.5)">
      <g id="Grupo_1111737" data-name="Grupo 1111737" transform="translate(0.806 0.806)">
        <g id="Grupo_1111736" data-name="Grupo 1111736" transform="translate(0 6.977)">
          <g id="Grupo_1111735" data-name="Grupo 1111735">
            <g id="Grupo_1111733" data-name="Grupo 1111733" transform="translate(20.074 37.813)">
              <path id="Trazado_901932" data-name="Trazado 901932" d="M207.616,433.047H194.375l.931-2.793,1.217-3.652L201,424.453l1.36.653,3.112,1.5Z" transform="translate(-194.375 -424.453)" fill="#b9cfdf"/>
              <path id="Trazado_901933" data-name="Trazado 901933" d="M207.616,438.474H194.375l.931-2.793h7.375a1,1,0,0,0,.951-1.319l-1.276-3.828,3.112,1.5Z" transform="translate(-194.375 -429.88)" fill="#90abbd"/>
            </g>
            <path id="Trazado_901934" data-name="Trazado 901934" d="M60.89,74.1v36.65a1.657,1.657,0,0,1-1.659,1.655H9.16A1.657,1.657,0,0,1,7.5,110.754V74.1A1.657,1.657,0,0,1,9.16,72.448H59.231A1.657,1.657,0,0,1,60.89,74.1Z" transform="translate(-7.501 -72.448)" fill="#99e7fa"/>
            <path id="Trazado_901935" data-name="Trazado 901935" d="M60.89,74.105v36.65a1.657,1.657,0,0,1-1.659,1.655H9.16A1.657,1.657,0,0,1,7.5,110.756v-4.1H56.653A1.657,1.657,0,0,0,58.311,105V74.105a1.657,1.657,0,0,0-1.659-1.655h2.578A1.657,1.657,0,0,1,60.89,74.105Z" transform="translate(-7.501 -72.45)" fill="#4dd4f7"/>
            <path id="Trazado_901936" data-name="Trazado 901936" d="M60.891,414.453v1.567a1.657,1.657,0,0,1-1.659,1.655H9.161A1.657,1.657,0,0,1,7.5,416.032v-1.579Z" transform="translate(-7.502 -377.714)" fill="#56788b"/>
            <path id="Trazado_901937" data-name="Trazado 901937" d="M60.89,74.105v1.567H7.5V74.105A1.657,1.657,0,0,1,9.16,72.45H59.231A1.657,1.657,0,0,1,60.89,74.105Z" transform="translate(-7.501 -72.45)" fill="#56788b"/>
            <g id="Grupo_1111734" data-name="Grupo 1111734" transform="translate(0 0)">
              <path id="Trazado_901938" data-name="Trazado 901938" d="M469.3,74.105v1.567h-2.578V74.105a1.657,1.657,0,0,0-1.659-1.655h2.578A1.657,1.657,0,0,1,469.3,74.105Z" transform="translate(-415.908 -72.45)" fill="#415e6f"/>
              <path id="Trazado_901939" data-name="Trazado 901939" d="M58.31,414.453h2.58v1.567a1.657,1.657,0,0,1-1.659,1.655H9.161A1.657,1.657,0,0,1,7.5,416.032H56.654A1.655,1.655,0,0,0,58.31,414.453Z" transform="translate(-7.502 -377.714)" fill="#415e6f"/>
            </g>
          </g>
        </g>
        <path id="Trazado_901940" data-name="Trazado 901940" d="M131.954,142.783v21.042H98.011V142.783l4.888-3.223h24.168Z" transform="translate(-88.288 -125.374)" fill="#f9d11f"/>
        <path id="Trazado_901941" data-name="Trazado 901941" d="M131.954,142.783l-4.888,4.761-6.126,5.967H109.025l-6.126-5.967-4.888-4.761,4.888-3.223h24.168Z" transform="translate(-88.288 -125.374)" fill="#ffa402"/>
        <path id="Trazado_901942" data-name="Trazado 901942" d="M167.679,7.5V29.67l-6.126,5.967H149.637l-6.126-5.967V7.5Z" transform="translate(-128.901 -7.5)" fill="#fdeda5"/>
        <path id="Trazado_901943" data-name="Trazado 901943" d="M285.221,7.5V29.67L279.1,35.637h-3.9l7.228-7.041V7.5Z" transform="translate(-246.443 -7.5)" fill="#fbdf63"/>
        <path id="Trazado_901944" data-name="Trazado 901944" d="M131.954,233.383H98.011l16.971-15.893Z" transform="translate(-88.288 -194.932)" fill="#f9d11f"/>
        <path id="Trazado_901945" data-name="Trazado 901945" d="M131.954,233.383h-1l-15.971-12.132L99.011,233.383h-1l16.971-15.893Z" transform="translate(-88.288 -194.932)" fill="#ffa402"/>
      </g>
      <g id="Grupo_1111738" data-name="Grupo 1111738" transform="translate(0 0)">
        <path id="Trazado_901946" data-name="Trazado 901946" d="M401.559,64.951h-9.725a.806.806,0,0,0,0,1.611h9.725a.852.852,0,0,1,.853.85v.762H391.834a.806.806,0,0,0,0,1.611h10.578V78.2a.806.806,0,0,0,1.611,0V67.412A2.465,2.465,0,0,0,401.559,64.951Z" transform="translate(-349.023 -57.974)"/>
        <path id="Trazado_901947" data-name="Trazado 901947" d="M54.194,81.213a.806.806,0,0,0-.806.806v19.676H45.245a.806.806,0,0,0,0,1.611h8.144v.762a.852.852,0,0,1-.853.85H2.464a.852.852,0,0,1-.853-.85v-.762H41.461a.806.806,0,1,0,0-1.611H1.611V69.786H12.227a.806.806,0,0,0,0-1.611H1.611v-.762a.852.852,0,0,1,.853-.85h9.763a.806.806,0,0,0,0-1.611H2.464A2.465,2.465,0,0,0,0,67.413v36.655a2.465,2.465,0,0,0,2.464,2.461H21.91L20.3,111.363H17.4a.806.806,0,0,0,0,1.611H37.6a.806.806,0,0,0,0-1.611H34.7l-1.611-4.835H52.536A2.465,2.465,0,0,0,55,104.068V82.018a.806.806,0,0,0-.806-.806ZM33,111.363H22l1.611-4.835h7.784Z" transform="translate(0 -57.975)"/>
        <path id="Trazado_901948" data-name="Trazado 901948" d="M90.871,17.542a.806.806,0,0,0-.362.673v5.62a.806.806,0,0,0,1.611,0V20.124l9.042,8.807L92.12,37.4V27.507a.806.806,0,0,0-1.611,0V39.256a.806.806,0,0,0,.806.806h33.943a.806.806,0,0,0,.806-.806V18.214a.806.806,0,0,0-.362-.673l-4.526-2.984V.806A.806.806,0,0,0,120.37,0H115.6a.806.806,0,1,0,0,1.611h3.961V22.636l-5.331,5.193-5.4-5.053a.806.806,0,0,0-1.1,0l-5.4,5.053-5.331-5.193V1.611h14.881a.806.806,0,0,0,0-1.611H96.2A.806.806,0,0,0,95.4.806V14.557Zm30.3-1.054,2.8,1.848-2.8,2.73Zm3.277,3.636V37.4l-9.042-8.467Zm-16.166,4.343L123.219,38.45H93.354ZM92.594,18.336l2.8-1.848v4.579Z" transform="translate(-80.786 0)"/>
        <path id="Trazado_901949" data-name="Trazado 901949" d="M196.559,49a3.93,3.93,0,1,0,3.154,6.271,2.665,2.665,0,0,0,1.839.734,2.074,2.074,0,0,0,2.016-1.634,7.206,7.206,0,0,0,.144-1.586,7.123,7.123,0,1,0-7.2,7.3h.044a7.11,7.11,0,0,0,4.071-1.271.806.806,0,1,0-.918-1.324,5.533,5.533,0,1,1,2.388-4.672,5.585,5.585,0,0,1-.11,1.222.452.452,0,0,1-.439.354,1.127,1.127,0,0,1-1.078-1.12q.015-.17.015-.344A3.934,3.934,0,0,0,196.559,49Zm0,6.248a2.318,2.318,0,1,1,2.318-2.318A2.321,2.321,0,0,1,196.559,55.251Z" transform="translate(-169.059 -40.86)"/>
      </g>
    </g>
  </g>
</svg>
