<svg xmlns="http://www.w3.org/2000/svg" width="82" height="82" viewBox="0 0 82 82">
  <g id="Grupo_1112085" data-name="Grupo 1112085" transform="translate(2893 10250)">
    <circle id="Elipse_11497" data-name="Elipse 11497" cx="41" cy="41" r="41" transform="translate(-2893 -10250)" fill="#ff9b6a"/>
    <g id="Grupo_1111746" data-name="Grupo 1111746" transform="translate(-2932.145 -10239.695)">
      <g id="Grupo_1111744" data-name="Grupo 1111744" transform="translate(54.579 0.9)">
        <path id="Trazado_901969" data-name="Trazado 901969" d="M190.64,106.355l8.239,1.15h14.932a3.6,3.6,0,0,0,3.6-3.6V63.838a3.6,3.6,0,0,0-3.6-3.6H189.219a3.6,3.6,0,0,0-3.6,3.6V74.4Z" transform="translate(-170.744 -53.912)" fill="#7a6d79"/>
        <path id="Trazado_901970" data-name="Trazado 901970" d="M204.733,60.238v28.88a6.42,6.42,0,0,1-6.413,6.412h-.007a.207.207,0,0,0-.2.256,16.714,16.714,0,0,1,.462,3.892,16.133,16.133,0,0,1-1.017,5.629.209.209,0,0,0,.072.239,3.36,3.36,0,0,1,1.251,1.957h-8.461L185.62,74.4V63.837a3.6,3.6,0,0,1,3.6-3.6h15.514Z" transform="translate(-170.744 -53.911)" fill="#685e68"/>
        <path id="Trazado_901971" data-name="Trazado 901971" d="M246.614,103.838h-2.759l-3.92-.918-13.114.918a1.2,1.2,0,0,1-1.2-1.2v-1.2a1.2,1.2,0,0,1,1.2-1.2h19.794a1.2,1.2,0,0,1,1.2,1.2v1.2A1.2,1.2,0,0,1,246.614,103.838Z" transform="translate(-205.945 -89.114)" fill="#685e68"/>
        <path id="Trazado_901972" data-name="Trazado 901972" d="M272.9,46.636h-3.92l-1.838-.79-8.517.79V35.959a.72.72,0,0,1,.72-.72l7.229.95,2.406-.95h3.2a.72.72,0,0,1,.72.72Z" transform="translate(-234.986 -31.911)" fill="#f2fbff"/>
        <path id="Trazado_901973" data-name="Trazado 901973" d="M268.975,35.239v11.4H258.62V35.959a.72.72,0,0,1,.72-.72Z" transform="translate(-234.986 -31.911)" fill="#dfeef4"/>
        <g id="Grupo_1111742" data-name="Grupo 1111742" transform="translate(27.832 38.017)">
          <path id="Trazado_901974" data-name="Trazado 901974" d="M372.3,388.278h-4.2a.48.48,0,0,1-.48-.48v-2.579a.48.48,0,0,1,.48-.48h4.2a.48.48,0,0,1,.48.48V387.8A.48.48,0,0,1,372.3,388.278Z" transform="translate(-358.743 -377.501)" fill="#f2fbff"/>
          <path id="Trazado_901975" data-name="Trazado 901975" d="M298.3,388.278h-4.2a.48.48,0,0,1-.48-.48v-2.579a.48.48,0,0,1,.48-.48h4.2a.48.48,0,0,1,.48.48V387.8A.48.48,0,0,1,298.3,388.278Z" transform="translate(-293.62 -377.501)" fill="#f2fbff"/>
          <path id="Trazado_901976" data-name="Trazado 901976" d="M372.3,327.945h-4.2a.48.48,0,0,1-.48-.48v-2.579a.48.48,0,0,1,.48-.48h4.2a.48.48,0,0,1,.48.48v2.579A.48.48,0,0,1,372.3,327.945Z" transform="translate(-358.743 -324.406)" fill="#f2fbff"/>
          <path id="Trazado_901977" data-name="Trazado 901977" d="M299.407,328.408h-4.2c-.265,0-.244-.506-.244-.771l-.085-2.225a.48.48,0,0,1,.48-.48h3.918a.48.48,0,0,1,.48.48l.13.078v2.439A.48.48,0,0,1,299.407,328.408Z" transform="translate(-294.729 -324.869)" fill="#f2fbff"/>
        </g>
        <g id="Grupo_1111743" data-name="Grupo 1111743" transform="translate(27.832 38.018)">
          <path id="Trazado_901978" data-name="Trazado 901978" d="M298.778,324.889v.14a6.418,6.418,0,0,1-4.524,2.919H294.1a.48.48,0,0,1-.48-.48v-2.579a.48.48,0,0,1,.48-.48h4.2A.48.48,0,0,1,298.778,324.889Z" transform="translate(-293.62 -324.409)" fill="#dfeef4"/>
        </g>
        <path id="Trazado_901979" data-name="Trazado 901979" d="M225.62,174.395V161.439a1.2,1.2,0,0,1,1.2-1.2l11.826.53,1.289-.53h6.68a1.2,1.2,0,0,1,1.2,1.2v12.956a1.2,1.2,0,0,1-1.2,1.2h-6.68l-1.458-.938-11.656.938A1.2,1.2,0,0,1,225.62,174.395Z" transform="translate(-205.945 -141.916)" fill="#bbf49b"/>
        <path id="Trazado_901980" data-name="Trazado 901980" d="M239.934,160.239v15.355H226.82a1.2,1.2,0,0,1-1.2-1.2V161.439a1.2,1.2,0,0,1,1.2-1.2Z" transform="translate(-205.945 -141.916)" fill="#9be69d"/>
        <path id="Trazado_901981" data-name="Trazado 901981" d="M85.158,245.767l3.269,11.372-3.269,11.447L80.85,268.1a3.594,3.594,0,0,0-.689-2.115l-7.807-10.9a4.8,4.8,0,0,1,.156-5.846l4.769-7.326Z" transform="translate(-70.259 -213.797)" fill="#f6a96c"/>
        <path id="Trazado_901982" data-name="Trazado 901982" d="M75.558,268.5l-4.423-.4a3.594,3.594,0,0,0-.689-2.115l-7.916-10.9a4.8,4.8,0,0,1,.156-5.846l5.948-7.326,3.179,1.552-4.688,5.774a4.8,4.8,0,0,0-.156,5.846l7.916,10.9A7.85,7.85,0,0,1,75.558,268.5Z" transform="translate(-61.613 -213.797)" fill="#ea9b58"/>
        <path id="Trazado_901983" data-name="Trazado 901983" d="M160.732,314.627l-2.814,3.439a1.48,1.48,0,0,0,.364,2.195l1.167.725a.84.84,0,0,0,1.283-.713l1.194-2.737Z" transform="translate(-146.07 -277.783)" fill="#ea9b58"/>
        <path id="Trazado_901984" data-name="Trazado 901984" d="M184.117,354.429h-.23" transform="translate(-169.219 -312.81)" fill="#ea9b58"/>
        <path id="Trazado_901985" data-name="Trazado 901985" d="M118.717,10.373A2.873,2.873,0,0,1,121.59,7.5h17.852a2.873,2.873,0,0,1,2.873,2.873V42.707a2.873,2.873,0,0,1-2.873,2.873H121.59a2.873,2.873,0,0,1-2.873-2.873Z" transform="translate(-111.867 -7.5)" fill="#f2fbff"/>
        <path id="Trazado_901986" data-name="Trazado 901986" d="M122.927,7.5v38.08h-1.334a2.873,2.873,0,0,1-2.873-2.873V10.372A2.873,2.873,0,0,1,121.593,7.5Z" transform="translate(-111.869 -7.499)" fill="#dfeef4"/>
        <path id="Trazado_901987" data-name="Trazado 901987" d="M196.1,203.554a13.714,13.714,0,0,1-2.366,7.644,3.6,3.6,0,0,0-.629,2.032l-7.3-.659V182.08a3.81,3.81,0,0,1,3.806-3.811h0a3.81,3.81,0,0,1,3.81,3.811V194.1a3.638,3.638,0,0,0,.528,1.906,14.568,14.568,0,0,1,2.143,7.546Z" transform="translate(-170.908 -157.783)" fill="#f6a96c"/>
        <path id="Trazado_901988" data-name="Trazado 901988" d="M137.617,454.224H126.506l-5.934.392a.72.72,0,0,0-.72.72l-.117,3.882a.72.72,0,0,0,.72.72l6.051.287h11.111a.72.72,0,0,0,.72-.72v-4.56A.72.72,0,0,0,137.617,454.224Z" transform="translate(-112.762 -400.633)" fill="#f2fbff"/>
        <path id="Trazado_901989" data-name="Trazado 901989" d="M124.51,454.219v6h-6.323a.72.72,0,0,1-.72-.72v-4.561a.72.72,0,0,1,.72-.72Z" transform="translate(-110.767 -400.629)" fill="#dfeef4"/>
      </g>
      <g id="Grupo_1111745" data-name="Grupo 1111745" transform="translate(53.62 0)">
        <path id="Trazado_901990" data-name="Trazado 901990" d="M97.646,6.327H93.388V4.947a1.621,1.621,0,0,0-1.62-1.62H85.9A3.778,3.778,0,0,0,82.155,0H64.3a3.777,3.777,0,0,0-3.773,3.773V7.286a.9.9,0,0,0,1.8,0V3.773A1.976,1.976,0,0,1,64.3,1.8H82.155a1.976,1.976,0,0,1,1.974,1.974V36.107a1.976,1.976,0,0,1-1.974,1.974H78.072a2.822,2.822,0,0,1-.134-.862v-4.1a.9.9,0,0,0-1.8,0v4.1A4.522,4.522,0,0,0,76.8,39.6a13.753,13.753,0,0,1,2.008,7.079,12.906,12.906,0,0,1-2.066,6.915h-12.1a4.482,4.482,0,0,0-.559-1.031L56.162,41.664a3.9,3.9,0,0,1,.127-4.749l4.24-5.223v4.415A3.777,3.777,0,0,0,64.3,39.88h2.942l-1.625,1.625a.9.9,0,1,0,1.272,1.272l1.625-1.625v2.805a.9.9,0,0,0,1.8,0V25.2a2.915,2.915,0,0,1,2.908-2.911h0A2.911,2.911,0,0,1,76.138,25.2V28.92a.9.9,0,0,0,1.8,0V25.2a4.711,4.711,0,0,0-4.71-4.71h0a4.717,4.717,0,0,0-4.706,4.71V38.08H64.3a1.976,1.976,0,0,1-1.974-1.974V11.485a.9.9,0,1,0-1.8,0V28.838l-.006.006-5.631,6.937a5.705,5.705,0,0,0-.186,6.941l7.9,10.868h-.667a1.621,1.621,0,0,0-1.62,1.62v4.56a1.621,1.621,0,0,0,1.62,1.62H79.373a1.621,1.621,0,0,0,1.62-1.62V55.392h2.183a.9.9,0,0,0,0-1.8c-.376,0-4.176,0-4.336,0a14.561,14.561,0,0,0,1.769-6.917,15.347,15.347,0,0,0-1.6-6.794h2.862v2.576a.9.9,0,0,0,.9.9h5.158a.9.9,0,0,0,.9-.9V38.917a.9.9,0,0,0-.9-.9H85.406a3.749,3.749,0,0,0,.521-1.91v-.629h9.319a2.1,2.1,0,0,0,2.1-2.1V20.423a2.1,2.1,0,0,0-2.1-2.1h-1.14a.9.9,0,0,0,0,1.8h1.14a.3.3,0,0,1,.3.3V33.379a.3.3,0,0,1-.3.3H85.928v-3.06a5.068,5.068,0,0,1,1.69.451.9.9,0,0,0,.784-1.62,6.869,6.869,0,0,0-2.474-.636v-1.28A8.1,8.1,0,0,1,89.571,28.6a.9.9,0,1,0,.927-1.542,9.962,9.962,0,0,0-4.57-1.321V24.456a11.4,11.4,0,0,1,5.613,1.7.9.9,0,1,0,.99-1.5,13.253,13.253,0,0,0-6.6-2V20.123h3.981a.9.9,0,1,0,0-1.8H85.928v-1.8h9.319a2.1,2.1,0,0,0,2.1-2.1v-1.2a2.1,2.1,0,0,0-2.1-2.1H93.388v-3h4.259a2.7,2.7,0,0,1,2.7,2.7V50.893a2.7,2.7,0,0,1-2.7,2.7H87.374a.9.9,0,1,0,0,1.8H97.647a4.5,4.5,0,0,0,4.5-4.5V10.825a4.5,4.5,0,0,0-4.5-4.5ZM79.193,59.591H62.118v-4.2H79.193ZM87.03,41.556H83.671V39.817H87.03Zm-1.1-28.831h2.122a.9.9,0,1,0,0-1.8H85.928v-2h2.122a.9.9,0,1,0,0-1.8H85.928v-2h5.66v9.6h-5.66Zm9.319.2a.3.3,0,0,1,.3.3v1.2a.3.3,0,0,1-.3.3H93.388v-1.8Z" transform="translate(-53.62 0)"/>
        <path id="Trazado_901991" data-name="Trazado 901991" d="M360.12,381.678a.9.9,0,0,0,.9.9h5.158a.9.9,0,0,0,.9-.9v-3.539a.9.9,0,0,0-.9-.9H361.02a.9.9,0,0,0-.9.9Zm1.8-2.639h3.359v1.74h-3.359Z" transform="translate(-323.351 -331.984)"/>
        <path id="Trazado_901992" data-name="Trazado 901992" d="M296.078,381.678v-3.539a.9.9,0,0,0-.9-.9H290.02a.9.9,0,0,0-.9.9v3.539a.9.9,0,0,0,.9.9h5.158A.9.9,0,0,0,296.078,381.678Zm-1.8-.9h-3.359v-1.74h3.359Z" transform="translate(-260.869 -331.984)"/>
        <path id="Trazado_901993" data-name="Trazado 901993" d="M361.02,322.244h5.158a.9.9,0,0,0,.9-.9v-3.539a.9.9,0,0,0-.9-.9H361.02a.9.9,0,0,0-.9.9v3.539A.9.9,0,0,0,361.02,322.244Zm.9-3.539h3.359v1.739h-3.359Z" transform="translate(-323.351 -278.889)"/>
        <path id="Trazado_901994" data-name="Trazado 901994" d="M185.7,29.96a.9.9,0,1,0,0-1.8h-3.831a.9.9,0,1,0,0,1.8Z" transform="translate(-165.688 -24.783)"/>
        <path id="Trazado_901995" data-name="Trazado 901995" d="M240,29.061a.9.9,0,0,0-.9-.9h0a.9.9,0,1,0,.9.9Z" transform="translate(-216.059 -24.783)"/>
        <path id="Trazado_901996" data-name="Trazado 901996" d="M154.053,115.083a.9.9,0,0,0,1.272,0,8.552,8.552,0,0,1,12.112,0,.9.9,0,1,0,1.273-1.272,10.351,10.351,0,0,0-14.657,0A.9.9,0,0,0,154.053,115.083Z" transform="translate(-141.773 -97.482)"/>
        <path id="Trazado_901997" data-name="Trazado 901997" d="M175.254,142.755a.9.9,0,1,0,1.272,1.272,4.961,4.961,0,0,1,7.026,0,.9.9,0,0,0,1.272-1.272,6.76,6.76,0,0,0-9.57,0Z" transform="translate(-160.43 -123.883)"/>
      </g>
    </g>
  </g>
</svg>
