<svg xmlns="http://www.w3.org/2000/svg" xmlns:xlink="http://www.w3.org/1999/xlink" width="112.221" height="112.221" viewBox="0 0 112.221 112.221">
  <defs>
    <filter id="Trazado_901468" x="0" y="0" width="112.221" height="112.221" filterUnits="userSpaceOnUse">
      <feOffset input="SourceAlpha"/>
      <feGaussianBlur stdDeviation="3" result="blur"/>
      <feFlood flood-color="#fff" flood-opacity="0.659"/>
      <feComposite operator="in" in2="blur"/>
      <feComposite in="SourceGraphic"/>
    </filter>
  </defs>
  <g id="Grupo_1112062" data-name="Grupo 1112062" transform="translate(-190.783 -566.39)">
    <g transform="matrix(1, 0, 0, 1, 190.78, 566.39)" filter="url(#Trazado_901468)">
      <path id="Trazado_901468-2" data-name="Trazado 901468" d="M47.11,0A47.11,47.11,0,1,1,0,47.11,47.11,47.11,0,0,1,47.11,0Z" transform="translate(9 9)" fill="#ff9b6a"/>
    </g>
    <g id="Grupo_1111661" data-name="Grupo 1111661" transform="translate(213.024 573.094)">
      <path id="Trazado_901712" data-name="Trazado 901712" d="M391.993,133.186l.87-8.112-8.27,4.676Z" transform="translate(-333.711 -92.989)" fill="#00ddc0"/>
      <path id="Trazado_901713" data-name="Trazado 901713" d="M209,314.77l6.585,4.817.1-9.5Z" transform="translate(-181.353 -253.525)" fill="#6b7f9e"/>
      <path id="Trazado_901714" data-name="Trazado 901714" d="M90.276,114.312l-8.1.993,6.429,6.994Z" transform="translate(-71.306 -83.651)" fill="#ff3c63"/>
      <path id="Trazado_901715" data-name="Trazado 901715" d="M184.072,143.293h-25.88a12.967,12.967,0,0,1,6.566-11.264c.118-.068.239-.134.359-.2a12.966,12.966,0,0,1,11.892-.072c.117.061.234.122.35.186a12.928,12.928,0,0,1,6.713,11.346Z" transform="translate(-137.263 -97.57)" fill="#e0e0e3"/>
      <g id="Grupo_1111658" data-name="Grupo 1111658" transform="translate(20.929 34.262)">
        <path id="Trazado_901716" data-name="Trazado 901716" d="M184.072,215.315h-25.88a12.976,12.976,0,0,1,.148-1.959h25.585A12.976,12.976,0,0,1,184.072,215.315Z" transform="translate(-158.192 -203.854)" fill="#d1d1d1"/>
        <path id="Trazado_901717" data-name="Trazado 901717" d="M213.04,142.791l-2.072,4.4a1.418,1.418,0,0,1-2.27.414l-3.483-3.379-3.483,3.379a1.418,1.418,0,0,1-2.27-.414l-2.141-4.549a12.931,12.931,0,0,1,1.39-.911c.118-.067.239-.133.359-.2l1.848,4.3,2.3-2.5h4l2.3,2.5,1.8-4.19A12.9,12.9,0,0,1,213.04,142.791Z" transform="translate(-192.145 -141.536)" fill="#d1d1d1"/>
      </g>
      <path id="Trazado_901718" data-name="Trazado 901718" d="M227.978,67.662l-.133,1.223-.058.535-.4,3.663c-.191,1.762-2.119,3.118-4.434,3.118s-4.243-1.356-4.434-3.118l-.313-2.891-.161-1.481h0l-.113-1.05c-.214-1.981,1.832-3.679,4.434-3.679h1.177C226.145,63.983,228.192,65.681,227.978,67.662Z" transform="translate(-189.086 -39.981)" fill="#ffdaa7"/>
      <path id="Trazado_901719" data-name="Trazado 901719" d="M227.979,67.661l-.133,1.223-.058.535a5.877,5.877,0,0,0-1.428-2.7,8.228,8.228,0,0,1-4.6.882c-1.958-.377-3.322,2.133-3.553,2.592l-.161-1.481h0l-.113-1.05c-.214-1.981,1.833-3.679,4.434-3.679h1.177C226.146,63.982,228.193,65.68,227.979,67.661Z" transform="translate(-189.087 -39.98)" fill="#f9c587"/>
      <path id="Trazado_901720" data-name="Trazado 901720" d="M242.134,156.856a.6.6,0,0,0-.6-.519h-.927a.6.6,0,0,0-.6.519L238.8,165.6a.6.6,0,0,0,.112.439l1.675,2.27a.6.6,0,0,0,.968,0l1.675-2.27a.6.6,0,0,0,.112-.439Z" transform="translate(-207.206 -120.116)" fill="#ff3c63"/>
      <path id="Trazado_901721" data-name="Trazado 901721" d="M194.56,34.608s1.656-2.857,3.809-2.443a8.229,8.229,0,0,0,4.6-.882,5.919,5.919,0,0,1,1.554,3.506,7.125,7.125,0,0,0,1.632-4.778c0-3.105-2.608-3.188-2.608-3.188s-6.257-4.513-12.586,2.609a3.881,3.881,0,0,1,2.4,3.354A2.178,2.178,0,0,0,194.56,34.608Z" transform="translate(-165.694 -6.515)" fill="#6b7f9e"/>
      <path id="Trazado_901722" data-name="Trazado 901722" d="M206.153,30.013a8.461,8.461,0,0,1-.053.952,2.759,2.759,0,0,0-2.555-2.467s-5.6-4.038-11.562,1.553a3.092,3.092,0,0,0-1.024-.618c6.33-7.121,12.587-2.608,12.587-2.608S206.153,26.908,206.153,30.013Z" transform="translate(-165.694 -6.515)" fill="#798daa"/>
      <path id="Trazado_901723" data-name="Trazado 901723" d="M33.381,358.927H7.5a12.967,12.967,0,0,1,6.566-11.264c.118-.068.239-.134.359-.2a12.966,12.966,0,0,1,11.892-.072c.117.061.234.122.35.186a12.928,12.928,0,0,1,6.713,11.346Z" transform="translate(-6.509 -284.675)" fill="#6b7f9e"/>
      <g id="Grupo_1111659" data-name="Grupo 1111659" transform="translate(0.992 62.791)">
        <path id="Trazado_901724" data-name="Trazado 901724" d="M33.381,430.949H7.5a12.978,12.978,0,0,1,.148-1.959H33.233A12.978,12.978,0,0,1,33.381,430.949Z" transform="translate(-7.501 -419.488)" fill="#586c89"/>
        <path id="Trazado_901725" data-name="Trazado 901725" d="M62.349,358.426l-2.072,4.4a1.418,1.418,0,0,1-2.27.414l-3.483-3.379-3.483,3.379a1.418,1.418,0,0,1-2.27-.414l-2.141-4.549a12.93,12.93,0,0,1,1.39-.911c.118-.067.239-.133.359-.2l1.848,4.3,2.3-2.5h4l2.3,2.5,1.8-4.19A12.9,12.9,0,0,1,62.349,358.426Z" transform="translate(-41.454 -357.171)" fill="#586c89"/>
      </g>
      <path id="Trazado_901726" data-name="Trazado 901726" d="M77.287,283.3l-.133,1.223-.058.535-.4,3.663c-.191,1.762-2.119,3.118-4.434,3.118s-4.243-1.356-4.434-3.118l-.313-2.891-.161-1.481h0l-.113-1.05c-.214-1.981,1.833-3.679,4.434-3.679h1.177C75.454,279.617,77.5,281.315,77.287,283.3Z" transform="translate(-58.331 -227.086)" fill="#ffdaa7"/>
      <path id="Trazado_901727" data-name="Trazado 901727" d="M77.288,283.3l-.133,1.223-.058.535a5.877,5.877,0,0,0-1.428-2.7,8.229,8.229,0,0,1-4.6.882c-1.958-.377-3.322,2.133-3.553,2.592l-.161-1.481h0l-.113-1.05c-.214-1.981,1.832-3.679,4.434-3.679h1.177C75.455,279.616,77.5,281.314,77.288,283.3Z" transform="translate(-58.332 -227.085)" fill="#f9c587"/>
      <path id="Trazado_901728" data-name="Trazado 901728" d="M43.868,250.243s1.656-2.857,3.809-2.443a8.229,8.229,0,0,0,4.6-.882,5.919,5.919,0,0,1,1.554,3.506,7.125,7.125,0,0,0,1.632-4.778c0-3.105-2.608-3.188-2.608-3.188s-6.257-4.513-12.587,2.608a3.881,3.881,0,0,1,2.4,3.354A2.178,2.178,0,0,0,43.868,250.243Z" transform="translate(-34.939 -193.621)" fill="#6b7f9e"/>
      <path id="Trazado_901729" data-name="Trazado 901729" d="M55.462,245.648a8.458,8.458,0,0,1-.053.951,2.759,2.759,0,0,0-2.555-2.467s-5.6-4.038-11.562,1.553a3.092,3.092,0,0,0-1.024-.618c6.33-7.121,12.587-2.608,12.587-2.608S55.462,242.543,55.462,245.648Z" transform="translate(-34.94 -193.622)" fill="#798daa"/>
      <path id="Trazado_901730" data-name="Trazado 901730" d="M334.763,358.927h-25.88a12.967,12.967,0,0,1,6.566-11.264c.118-.068.239-.134.359-.2A12.966,12.966,0,0,1,327.7,347.4c.117.061.234.122.35.186a12.927,12.927,0,0,1,6.713,11.346Z" transform="translate(-268.018 -284.675)" fill="#00ddc0"/>
      <g id="Grupo_1111660" data-name="Grupo 1111660" transform="translate(40.865 62.791)">
        <path id="Trazado_901731" data-name="Trazado 901731" d="M334.763,430.949h-25.88a12.978,12.978,0,0,1,.148-1.959h25.585A12.97,12.97,0,0,1,334.763,430.949Z" transform="translate(-308.883 -419.488)" fill="#00cdb3"/>
        <path id="Trazado_901732" data-name="Trazado 901732" d="M363.732,358.426l-2.072,4.4a1.418,1.418,0,0,1-2.27.414l-3.483-3.379-3.483,3.379a1.418,1.418,0,0,1-2.27-.414l-2.141-4.549a12.934,12.934,0,0,1,1.39-.911c.118-.067.239-.133.359-.2l1.848,4.3,2.3-2.5h4l2.3,2.5,1.8-4.19A12.9,12.9,0,0,1,363.732,358.426Z" transform="translate(-342.837 -357.171)" fill="#00cdb3"/>
      </g>
      <path id="Trazado_901733" data-name="Trazado 901733" d="M378.67,283.3l-.133,1.223-.058.535-.4,3.663c-.191,1.762-2.119,3.118-4.434,3.118s-4.243-1.356-4.434-3.118l-.313-2.891-.161-1.481h0l-.113-1.05c-.214-1.981,1.832-3.679,4.434-3.679h1.177C376.837,279.617,378.884,281.315,378.67,283.3Z" transform="translate(-319.841 -227.086)" fill="#ffdaa7"/>
      <path id="Trazado_901734" data-name="Trazado 901734" d="M378.671,283.3l-.133,1.223-.058.535a5.877,5.877,0,0,0-1.428-2.7,8.229,8.229,0,0,1-4.6.882c-1.957-.377-3.322,2.133-3.553,2.592l-.161-1.481h0l-.113-1.05c-.214-1.981,1.832-3.679,4.434-3.679h1.177C376.838,279.616,378.885,281.314,378.671,283.3Z" transform="translate(-319.842 -227.085)" fill="#f9c587"/>
      <path id="Trazado_901735" data-name="Trazado 901735" d="M345.25,250.243s1.656-2.857,3.809-2.443a8.229,8.229,0,0,0,4.6-.882,5.918,5.918,0,0,1,1.554,3.506,7.125,7.125,0,0,0,1.632-4.778c0-3.105-2.608-3.188-2.608-3.188s-6.257-4.513-12.587,2.608a3.881,3.881,0,0,1,2.4,3.354A2.179,2.179,0,0,0,345.25,250.243Z" transform="translate(-296.448 -193.621)" fill="#6b7f9e"/>
      <path id="Trazado_901736" data-name="Trazado 901736" d="M356.845,245.648a8.466,8.466,0,0,1-.053.951,2.759,2.759,0,0,0-2.555-2.467s-5.6-4.038-11.562,1.553a3.092,3.092,0,0,0-1.024-.618c6.33-7.121,12.587-2.608,12.587-2.608S356.845,242.543,356.845,245.648Z" transform="translate(-296.449 -193.622)" fill="#798daa"/>
      <path id="Trazado_901737" data-name="Trazado 901737" d="M221.917,472a.992.992,0,0,0-.992.992v.938a.992.992,0,0,0,1.985,0V473A.992.992,0,0,0,221.917,472Z" transform="translate(-191.696 -394.019)"/>
      <path id="Trazado_901738" data-name="Trazado 901738" d="M249.492,472a.992.992,0,0,0-.992.992v.938a.992.992,0,0,0,1.984,0V473A.992.992,0,0,0,249.492,472Z" transform="translate(-215.623 -394.019)"/>
      <path id="Trazado_901739" data-name="Trazado 901739" d="M277.066,472a.992.992,0,0,0-.992.992v.938a.992.992,0,0,0,1.985,0V473A.992.992,0,0,0,277.066,472Z" transform="translate(-239.549 -394.019)"/>
      <path id="Trazado_901740" data-name="Trazado 901740" d="M377.667,112.958l7.4,3.436a.992.992,0,0,0,1.4-.794l.869-8.112a.992.992,0,0,0-1.475-.969l-3.458,1.955-2.7-3.413a.992.992,0,1,0-1.556,1.231l2.508,3.17-3.063,1.732a.992.992,0,0,0,.071,1.764Zm7.495-3.762-.516,4.815-4.392-2.039Z" transform="translate(-327.202 -75.297)"/>
      <path id="Trazado_901741" data-name="Trazado 901741" d="M77.628,112.394l-2.711,3.4a.992.992,0,0,0,1.552,1.236l2.518-3.162,2.382,2.591a.992.992,0,0,0,1.7-.469l1.669-7.986a.992.992,0,0,0-1.092-1.188l-8.1.993a.992.992,0,0,0-.61,1.657Zm4.886-3.435-.99,4.74-3.816-4.151Z" transform="translate(-64.798 -77.145)"/>
      <path id="Trazado_901742" data-name="Trazado 901742" d="M215.124,309.321a.992.992,0,0,0,0-1.985h-4.992l.038-3.747a.992.992,0,0,0-1.562-.823l-6.681,4.683a.992.992,0,0,0-.016,1.613l6.585,4.816a.992.992,0,0,0,1.578-.791l.038-3.767h5.012ZM204.2,308.279l3.965-2.779-.057,5.638Z" transform="translate(-174.845 -247.017)"/>
      <path id="Trazado_901743" data-name="Trazado 901743" d="M158.224,33.348l-.007,0a.976.976,0,0,0-.129.068,13.964,13.964,0,0,0-7.4,12.3.992.992,0,0,0,.992.992h10.136l1.522,2.063a1.593,1.593,0,0,0,2.565,0l1.522-2.063h10.136a.992.992,0,0,0,.992-.992,13.959,13.959,0,0,0-8.478-12.82l.458-4.221A8.411,8.411,0,0,0,172.2,23.5a3.817,3.817,0,0,0-3.265-4.154,9.839,9.839,0,0,0-7.48-1.138.992.992,0,0,0,.492,1.923,7.936,7.936,0,0,1,5.858.852,1.808,1.808,0,0,1,.051.448.992.992,0,0,0,1.875.452,2.424,2.424,0,0,1,.485,1.618,7.137,7.137,0,0,1-.344,2.23,6.481,6.481,0,0,0-1.159-1.671.992.992,0,0,0-1.155-.164,7.077,7.077,0,0,1-3.946.784c-1.817-.35-3.279.912-4.108,1.888a2,2,0,0,1-.107-.43,5.21,5.21,0,0,0-1.807-3.427,12.77,12.77,0,0,1,1.1-.949.992.992,0,1,0-1.2-1.578,15.888,15.888,0,0,0-2.217,2.079.992.992,0,0,0,.456,1.609,2.951,2.951,0,0,1,1.7,2.541,3.4,3.4,0,0,0,1.277,2.294l.455,4.2Q158.685,33.109,158.224,33.348Zm11.261,1.46.086.04-.826,1.92-.564-.613A4.632,4.632,0,0,0,169.485,34.808Zm-8.257,1.456-.464.5-.615-1.432A4.912,4.912,0,0,0,161.228,36.264Zm-3.088-.576,1.4,3.271a.992.992,0,0,0,1.642.281l1.211-1.316-.943,6.808h-8.739A11.985,11.985,0,0,1,158.14,35.688Zm6.482,11.486-1.265-1.715,1.142-8.246h.246l1.142,8.246Zm11.907-2.443h-8.739l-.99-7.144,1.519,1.651a.992.992,0,0,0,1.642-.28l1.349-3.136A11.986,11.986,0,0,1,176.529,44.731ZM163.241,26.625a8.436,8.436,0,0,0,4.5-.637,5.016,5.016,0,0,1,.845,2.286l-.512,4.721c-.136,1.252-1.651,2.234-3.448,2.234s-3.312-.981-3.448-2.233l-.507-4.686C161.088,27.717,162.15,26.417,163.241,26.625Z" transform="translate(-130.754 0)"/>
      <path id="Trazado_901744" data-name="Trazado 901744" d="M25.366,255.228a.992.992,0,0,0-.5,1.31,11.794,11.794,0,0,1,.979,3.843H2.026a11.985,11.985,0,0,1,5.424-9.043l1.4,3.271a.992.992,0,0,0,1.642.281l2-2.178a6.809,6.809,0,0,0,3.079-.051l2.05,2.228a.992.992,0,0,0,1.642-.28l1.349-3.136a12.014,12.014,0,0,1,2.531,2.3.992.992,0,0,0,1.53-1.264,13.967,13.967,0,0,0-5.3-3.958l.457-4.217a8.41,8.41,0,0,0,1.671-5.186,3.818,3.818,0,0,0-3.266-4.154,10.031,10.031,0,0,0-4.155-1.387c-2.38-.241-5.96.311-9.508,4.3a.992.992,0,0,0,.456,1.609,2.951,2.951,0,0,1,1.7,2.541,3.4,3.4,0,0,0,1.277,2.294l.455,4.2q-.485.206-.948.446h0a.993.993,0,0,0-.123.065A13.964,13.964,0,0,0,0,261.373a.992.992,0,0,0,.992.992H26.873a.992.992,0,0,0,.992-.992,13.814,13.814,0,0,0-1.19-5.64A.993.993,0,0,0,25.366,255.228Zm-15.292-2.81-.615-1.431a4.907,4.907,0,0,0,1.078.928Zm.474-3.466c0-.01-.006-.02-.008-.029a1.734,1.734,0,0,1-.055-.277l-.508-4.687c.421-.592,1.483-1.892,2.574-1.684a8.44,8.44,0,0,0,4.5-.636,5.023,5.023,0,0,1,.846,2.281l-.511,4.725a1.711,1.711,0,0,1-.049.258c-.005.017-.01.034-.015.051-.329,1.1-1.738,1.925-3.385,1.925S10.876,250.054,10.547,248.952Zm7.507,3.466-.564-.612a4.632,4.632,0,0,0,1.3-1.348l.086.039ZM6.9,238.357c4.764-4.573,9.19-2.352,10.214-1.731a1.8,1.8,0,0,1,.052.452.992.992,0,0,0,1.875.452,2.424,2.424,0,0,1,.485,1.618,7.137,7.137,0,0,1-.344,2.23,6.487,6.487,0,0,0-1.159-1.672.992.992,0,0,0-1.155-.164,7.081,7.081,0,0,1-3.946.784c-1.817-.349-3.279.912-4.107,1.887a1.988,1.988,0,0,1-.107-.43A5.209,5.209,0,0,0,6.9,238.357Z" transform="translate(0 -187.121)"/>
      <path id="Trazado_901745" data-name="Trazado 901745" d="M320.766,248.551l.458-4.221a8.41,8.41,0,0,0,1.67-5.185,3.818,3.818,0,0,0-3.266-4.154,10.031,10.031,0,0,0-4.155-1.387c-2.379-.241-5.96.311-9.508,4.3a.992.992,0,0,0,.456,1.609,2.951,2.951,0,0,1,1.7,2.541,3.4,3.4,0,0,0,1.277,2.294l.456,4.2q-.5.211-.971.458a.976.976,0,0,0-.095.049,13.968,13.968,0,0,0-7.414,12.314.992.992,0,0,0,.992.992h7.488a.992.992,0,1,0,0-1.984H303.4a11.988,11.988,0,0,1,5.424-9.044l1.4,3.272a.992.992,0,0,0,1.642.281l2-2.177a6.839,6.839,0,0,0,3.08-.051l2.049,2.227a.992.992,0,0,0,1.642-.28L322,251.471a11.986,11.986,0,0,1,5.218,8.908H313.444a.992.992,0,0,0,0,1.984h14.808a.992.992,0,0,0,.992-.992A13.96,13.96,0,0,0,320.766,248.551Zm-12.482-10.2c4.764-4.573,9.19-2.353,10.214-1.731a1.8,1.8,0,0,1,.052.452.992.992,0,0,0,1.875.452,2.424,2.424,0,0,1,.485,1.618,7.137,7.137,0,0,1-.344,2.23,6.48,6.48,0,0,0-1.159-1.672.992.992,0,0,0-1.155-.164,7.084,7.084,0,0,1-3.946.784c-1.817-.35-3.279.912-4.108,1.888a1.988,1.988,0,0,1-.107-.43A5.21,5.21,0,0,0,308.284,238.355Zm3.169,14.061-.614-1.43a4.89,4.89,0,0,0,1.076.927Zm.463-3.506a1.594,1.594,0,0,1-.052-.267l-.509-4.686c.42-.592,1.484-1.894,2.575-1.684a8.435,8.435,0,0,0,4.5-.637,5.017,5.017,0,0,1,.845,2.284l-.512,4.724a1.553,1.553,0,0,1-.054.272c-.311,1.118-1.771,1.961-3.394,1.961S312.228,250.034,311.916,248.91Zm7.517,3.506-.562-.611a4.6,4.6,0,0,0,1.3-1.35l.085.04Z" transform="translate(-261.506 -187.12)"/>
    </g>
  </g>
</svg>
