<svg xmlns="http://www.w3.org/2000/svg" width="132" height="132" viewBox="0 0 132 132">
  <g id="Grupo_1112072" data-name="Grupo 1112072" transform="translate(-1258.355 -397)">
    <g id="Grupo_1099402" data-name="Grupo 1099402" transform="translate(311.574 -4043)">
      <rect id="Rect치ngulo_401228" data-name="Rect치ngulo 401228" width="132" height="132" rx="14" transform="translate(946.781 4440)" fill="#405f5a"/>
    </g>
    <g id="Grupo_1111712" data-name="Grupo 1111712" transform="translate(1249.855 395.645)">
      <path id="Trazado_901855" data-name="Trazado 901855" d="M134.813,425.119H104l3.424-13.695V408H131.39v3.424Z" transform="translate(-62.881 -308.119)" fill="#e3e4e2"/>
      <path id="Trazado_901856" data-name="Trazado 901856" d="M211.249,61.629A37.67,37.67,0,1,1,195.363,30.9,37.67,37.67,0,0,1,211.249,61.629Z" transform="translate(-87.961 -6.256)" fill="#0093b9"/>
      <path id="Trazado_901857" data-name="Trazado 901857" d="M187.4,37.68l3.424,8.559-11.983,6.847-6.847-3.424L158.3,53.086l-9.176-5.735A37.717,37.717,0,0,1,191.82,24.8l-4.423,7.74Z" transform="translate(-98.347 -6.273)" fill="#85bb40"/>
      <path id="Trazado_901858" data-name="Trazado 901858" d="M381.1,87.112a37.66,37.66,0,0,1-20.249,33.4l-3.717-11.148,5.136-8.559-3.424-6.847L352,90.536V83.688l10.271-3.424,1.712-8.559-5.136-5.136,6.368-10.19A37.618,37.618,0,0,1,381.1,87.112Z" transform="translate(-257.814 -31.74)" fill="#85bb40"/>
      <path id="Trazado_901859" data-name="Trazado 901859" d="M80,480h41.085v3.424H80Z" transform="translate(-44.017 -364.712)" fill="#c9c9c7"/>
      <path id="Trazado_901860" data-name="Trazado 901860" d="M141.678,414.847H116l.856-3.424V408h23.966v3.424Z" transform="translate(-72.314 -308.119)" fill="#c9c9c7"/>
      <rect id="Rect치ngulo_405147" data-name="Rect치ngulo 405147" width="62" height="45" rx="22.5" transform="translate(25.5 58.356)" fill="#00bbc1"/>
      <path id="Trazado_901861" data-name="Trazado 901861" d="M91.39,280.525v-6.544a5.172,5.172,0,0,0-3.536-4.906l-6.735-2.245v-3.424a6.194,6.194,0,0,0,3.424-5.54v-3.02a6.847,6.847,0,1,0-13.695,0v3.02a6.193,6.193,0,0,0,3.424,5.54v3.424l-6.735,2.245A5.172,5.172,0,0,0,64,273.982v6.544Z" transform="translate(-31.441 -182.356)" fill="#ce549e"/>
      <path id="Trazado_901862" data-name="Trazado 901862" d="M208,248h17.119v6.847H208Z" transform="translate(-144.627 -182.356)" fill="#cbde77"/>
      <path id="Trazado_901863" data-name="Trazado 901863" d="M70.7,255.932H82.2a6.855,6.855,0,0,0,6.847-6.847V214.847A6.855,6.855,0,0,0,82.2,208H30.847A6.855,6.855,0,0,0,24,214.847v34.237a6.855,6.855,0,0,0,6.847,6.847h11.5L39.782,266.2h-3.8v3.424H77.068V266.2h-3.8Zm-43.277-6.847V214.847a3.428,3.428,0,0,1,3.424-3.424H82.2a3.428,3.428,0,0,1,3.424,3.424v34.237a3.428,3.428,0,0,1-3.424,3.424H30.847A3.428,3.428,0,0,1,27.424,249.085Zm18.455,6.847H67.172L69.74,266.2H43.311Z" transform="translate(0 -150.916)"/>
      <path id="Trazado_901864" data-name="Trazado 901864" d="M308.45,352.5l-6.847,6.847,2.421,2.421,3.925-3.925v10.792a3.91,3.91,0,0,1-3.906,3.906H272v3.424h32.043a7.338,7.338,0,0,0,7.33-7.33V357.844l3.925,3.925,2.421-2.421-6.847-6.847A1.712,1.712,0,0,0,308.45,352.5Z" transform="translate(-194.932 -264.102)"/>
      <path id="Trazado_901865" data-name="Trazado 901865" d="M42.4,53.661a1.707,1.707,0,0,0,1.21-.5l6.847-6.847-2.421-2.421-3.925,3.925V37.024a3.91,3.91,0,0,1,3.906-3.906h13.25a39.128,39.128,0,0,0-6.845,20.466l3.42.153a35.9,35.9,0,0,1,1.919-10.1l7.408,4.63a1.712,1.712,0,0,0,1.322.209L81.574,45.2l6.281,3.14A1.712,1.712,0,0,0,89.47,48.3l11.983-6.847a1.712,1.712,0,0,0,.74-2.122l-3.3-8.253V26.726l3.563-6.236A35.766,35.766,0,0,1,113.2,25.146l-5.486,8.777a1.712,1.712,0,0,0,.241,2.118l4.488,4.488L111.1,47.216l-9.33,3.109a1.712,1.712,0,0,0-1.17,1.623V58.8a1.712,1.712,0,0,0,.946,1.531l6.337,3.169,2.748,5.5-4.652,7.754a1.712,1.712,0,0,0-.156,1.422l3.249,9.745a35.848,35.848,0,0,1-8.781,2.816l.618,3.367a39.376,39.376,0,1,0-34.4-67.147q-1.375,1.318-2.605,2.746H48.019a7.338,7.338,0,0,0-7.33,7.33V47.816l-3.925-3.925-2.421,2.421,6.847,6.847a1.707,1.707,0,0,0,1.21.5Zm87.3,1.712a35.955,35.955,0,0,1-17.563,30.914l-2.819-8.454,4.73-7.884a1.712,1.712,0,0,0,.063-1.646l-3.424-6.847a1.712,1.712,0,0,0-.765-.765l-5.9-2.951V53.183l9.1-3.033a1.712,1.712,0,0,0,1.137-1.288l1.712-8.559a1.712,1.712,0,0,0-.468-1.546l-4.173-4.173,4.651-7.442a35.9,35.9,0,0,1,13.718,28.232ZM68.881,29.42A35.956,35.956,0,0,1,98.91,19.794l-3.216,5.628a1.712,1.712,0,0,0-.226.849v5.136a1.712,1.712,0,0,0,.122.636l2.871,7.176-9.894,5.654-6.028-3.014a1.707,1.707,0,0,0-1.181-.13L68.37,44.976l-7.312-4.57a35.772,35.772,0,0,1,4.463-7.287H81.774V29.695H68.6c.094-.092.185-.184.28-.275Z" transform="translate(-8.13)"/>
      <path id="Trazado_901866" data-name="Trazado 901866" d="M88,376h3.424v5.136H88Z" transform="translate(-50.305 -282.967)"/>
      <path id="Trazado_901867" data-name="Trazado 901867" d="M152,376h3.424v5.136H152Z" transform="translate(-100.61 -282.967)"/>
      <path id="Trazado_901868" data-name="Trazado 901868" d="M107.356,248.557v-6.847A1.712,1.712,0,0,0,105.644,240H88.525a1.712,1.712,0,0,0-1.712,1.712v1.712H78.249a8.556,8.556,0,0,0-15.4,5.136v3.02a7.856,7.856,0,0,0,3.424,6.514v1.215l-5.564,1.855A6.875,6.875,0,0,0,56,267.691v6.544h3.424v-6.544a3.455,3.455,0,0,1,2.366-3.282l6.735-2.245a1.712,1.712,0,0,0,1.17-1.624v-3.424a1.712,1.712,0,0,0-.946-1.531,4.458,4.458,0,0,1-2.478-4.009v-3.02a5.136,5.136,0,0,1,10.271,0v3.02a4.458,4.458,0,0,1-2.477,4.009,1.712,1.712,0,0,0-.946,1.531v3.424a1.712,1.712,0,0,0,1.171,1.624l6.735,2.245a3.455,3.455,0,0,1,2.366,3.282v6.544h3.424v-6.544a6.875,6.875,0,0,0-4.708-6.531l-5.564-1.855V258.09a7.856,7.856,0,0,0,3.424-6.514v-3.019a8.565,8.565,0,0,0-.172-1.712h7.02v1.712a1.712,1.712,0,0,0,1.712,1.712h17.119A1.712,1.712,0,0,0,107.356,248.557Zm-3.424-1.712H90.237v-3.424h13.695Z" transform="translate(-25.153 -176.066)"/>
      <path id="Trazado_901869" data-name="Trazado 901869" d="M224,304h15.407v3.424H224Z" transform="translate(-157.203 -226.373)"/>
      <path id="Trazado_901870" data-name="Trazado 901870" d="M216,336h17.119v3.424H216Z" transform="translate(-150.915 -251.526)"/>
      <path id="Trazado_901871" data-name="Trazado 901871" d="M216,368h17.119v3.424H216Z" transform="translate(-150.915 -276.678)"/>
      <path id="Trazado_901872" data-name="Trazado 901872" d="M192,304h3.424v3.424H192Z" transform="translate(-132.051 -226.373)"/>
      <path id="Trazado_901873" data-name="Trazado 901873" d="M296,104h3.424v3.424H296Z" transform="translate(-213.797 -69.17)"/>
      <path id="Trazado_901874" data-name="Trazado 901874" d="M424,280h3.424v3.424H424Z" transform="translate(-314.407 -207.509)"/>
      <path id="Trazado_901875" data-name="Trazado 901875" d="M400,200h3.424v3.424H400Z" transform="translate(-295.543 -144.628)"/>
      <path id="Trazado_901876" data-name="Trazado 901876" d="M192,112h3.424v3.424H192Z" transform="translate(-132.051 -75.458)"/>
    </g>
  </g>
</svg>
