<svg xmlns="http://www.w3.org/2000/svg" width="39.051" height="36.013" viewBox="0 0 39.051 36.013">
  <g id="Grupo_1112058" data-name="Grupo 1112058" transform="translate(-195 -2413.867)">
    <g id="Rectángulo_401341" data-name="Rectángulo 401341" transform="translate(195 2413.867)" fill="#fece2f" stroke="#faedc1" stroke-width="3">
      <rect width="39.051" height="36.013" rx="12" stroke="none"/>
      <rect x="1.5" y="1.5" width="36.051" height="33.013" rx="10.5" fill="none"/>
    </g>
    <g id="Grupo_1111991" data-name="Grupo 1111991" transform="translate(202.638 2419.883)">
      <g id="Grupo_1111965" data-name="Grupo 1111965" transform="translate(18.442 1)">
        <circle id="Elipse_12134" data-name="Elipse 12134" cx="1.703" cy="1.703" r="1.703" fill="#d6b5b0"/>
      </g>
      <g id="Grupo_1111966" data-name="Grupo 1111966" transform="translate(18.437 1.991)">
        <path id="Trazado_902223" data-name="Trazado 902223" d="M39.249,3.46a1.693,1.693,0,0,1-3.087,0A1.675,1.675,0,0,0,36,4.172a1.7,1.7,0,0,0,3.406,0,1.615,1.615,0,0,0-.157-.712Z" transform="translate(-36 -3.46)" fill="#b5a1a4"/>
      </g>
      <g id="Grupo_1111967" data-name="Grupo 1111967" transform="translate(16.543 5.538)">
        <path id="Trazado_902224" data-name="Trazado 902224" d="M39.45,14.037v-1.93a1.626,1.626,0,0,0-1.627-1.627H33.877a1.626,1.626,0,0,0-1.627,1.627v1.93Z" transform="translate(-32.25 -10.48)" fill="#96d7ff"/>
      </g>
      <g id="Grupo_1111968" data-name="Grupo 1111968" transform="translate(16.543 7.685)">
        <path id="Trazado_902225" data-name="Trazado 902225" d="M32.25,14.73h7.2v1.41h-7.2Z" transform="translate(-32.25 -14.73)" fill="#82bce4"/>
      </g>
      <g id="Grupo_1111969" data-name="Grupo 1111969" transform="translate(18.442 15.613)">
        <circle id="Elipse_12135" data-name="Elipse 12135" cx="1.703" cy="1.703" r="1.703" fill="#d6b5b0"/>
      </g>
      <g id="Grupo_1111970" data-name="Grupo 1111970" transform="translate(18.437 16.608)">
        <path id="Trazado_902226" data-name="Trazado 902226" d="M39.249,32.39a1.693,1.693,0,0,1-3.087,0A1.675,1.675,0,0,0,36,33.1a1.7,1.7,0,1,0,3.406,0,1.6,1.6,0,0,0-.157-.712Z" transform="translate(-36 -32.39)" fill="#b5a1a4"/>
      </g>
      <g id="Grupo_1111971" data-name="Grupo 1111971" transform="translate(16.543 20.15)">
        <path id="Trazado_902227" data-name="Trazado 902227" d="M39.45,42.957v-1.93A1.626,1.626,0,0,0,37.823,39.4H33.877a1.626,1.626,0,0,0-1.627,1.627v1.93Z" transform="translate(-32.25 -39.4)" fill="#ff9797"/>
      </g>
      <g id="Grupo_1111972" data-name="Grupo 1111972" transform="translate(16.543 22.298)">
        <path id="Trazado_902228" data-name="Trazado 902228" d="M32.25,43.65h7.2v1.41h-7.2Z" transform="translate(-32.25 -43.65)" fill="#e47979"/>
      </g>
      <g id="Grupo_1111973" data-name="Grupo 1111973" transform="translate(4.168 1)">
        <path id="Trazado_902229" data-name="Trazado 902229" d="M12.03,3.637A2.135,2.135,0,1,1,9.9,1.5,2.138,2.138,0,0,1,12.03,3.637Z" transform="translate(-7.76 -1.5)" fill="#d6b5b0"/>
      </g>
      <g id="Grupo_1111974" data-name="Grupo 1111974" transform="translate(1.005 7.023)">
        <path id="Trazado_902230" data-name="Trazado 902230" d="M9.706,13.42H3.89A2.391,2.391,0,0,0,1.5,15.81V21.8H3.809v8.332H9.787V21.8H12.1V15.81a2.391,2.391,0,0,0-2.39-2.39Z" transform="translate(-1.5 -13.42)" fill="#fff27d"/>
      </g>
      <g id="Grupo_1111975" data-name="Grupo 1111975" transform="translate(4.168 2.375)">
        <path id="Trazado_902231" data-name="Trazado 902231" d="M9.9,5.6A2.138,2.138,0,0,1,7.907,4.22a2.135,2.135,0,1,0,4.128.763,2.107,2.107,0,0,0-.147-.758A2.133,2.133,0,0,1,9.9,5.6Z" transform="translate(-7.76 -4.22)" fill="#b5a1a4"/>
      </g>
      <g id="Grupo_1111979" data-name="Grupo 1111979" transform="translate(1.005 13.89)">
        <g id="Grupo_1111976" data-name="Grupo 1111976" transform="translate(0)">
          <path id="Trazado_902232" data-name="Trazado 902232" d="M1.5,27.01H3.809v1.516H1.5Z" transform="translate(-1.5 -27.01)" fill="#e4c364"/>
        </g>
        <g id="Grupo_1111977" data-name="Grupo 1111977" transform="translate(2.309 8.332)">
          <path id="Trazado_902233" data-name="Trazado 902233" d="M6.07,43.5h5.977v1.516H6.07Z" transform="translate(-6.07 -43.5)" fill="#e4c364"/>
        </g>
        <g id="Grupo_1111978" data-name="Grupo 1111978" transform="translate(8.287)">
          <path id="Trazado_902234" data-name="Trazado 902234" d="M17.9,27.01h2.309v1.516H17.9Z" transform="translate(-17.9 -27.01)" fill="#e4c364"/>
        </g>
      </g>
      <g id="Grupo_1111980" data-name="Grupo 1111980" transform="translate(3.663 0.49)">
        <path id="Trazado_902235" data-name="Trazado 902235" d="M9.4,5.775a2.643,2.643,0,1,1,2.643-2.643A2.645,2.645,0,0,1,9.4,5.775Zm0-4.27a1.632,1.632,0,1,0,1.632,1.632A1.635,1.635,0,0,0,9.4,1.506Z" transform="translate(-6.76 -0.49)"/>
      </g>
      <g id="Grupo_1111981" data-name="Grupo 1111981" transform="translate(0.5 6.518)">
        <path id="Trazado_902236" data-name="Trazado 902236" d="M9.8,30.145H2.809V21.813H.5v-6.5a2.9,2.9,0,0,1,2.9-2.9H9.206a2.9,2.9,0,0,1,2.9,2.9v6.5H9.8ZM3.82,29.135H8.787V20.8H11.1V15.315a1.889,1.889,0,0,0-1.89-1.885H3.4a1.885,1.885,0,0,0-1.885,1.885V20.8H3.82Z" transform="translate(-0.5 -12.42)"/>
      </g>
      <g id="Grupo_1111982" data-name="Grupo 1111982" transform="translate(2.809 9.58)">
        <path id="Trazado_902237" data-name="Trazado 902237" d="M5.07,18.48H6.081v5.831H5.07Z" transform="translate(-5.07 -18.48)"/>
      </g>
      <g id="Grupo_1111983" data-name="Grupo 1111983" transform="translate(8.787 9.58)">
        <path id="Trazado_902238" data-name="Trazado 902238" d="M16.9,18.48h1.011v5.831H16.9Z" transform="translate(-16.9 -18.48)"/>
      </g>
      <g id="Grupo_1111984" data-name="Grupo 1111984" transform="translate(5.8 15.042)">
        <path id="Trazado_902239" data-name="Trazado 902239" d="M10.99,29.29H12v8.7H10.99Z" transform="translate(-10.99 -29.29)"/>
      </g>
      <g id="Grupo_1111985" data-name="Grupo 1111985" transform="translate(17.937 0.495)">
        <path id="Trazado_902240" data-name="Trazado 902240" d="M37.218,4.916a2.208,2.208,0,1,1,2.208-2.208A2.21,2.21,0,0,1,37.218,4.916Zm0-3.406a1.2,1.2,0,1,0,1.2,1.2A1.2,1.2,0,0,0,37.218,1.511Z" transform="translate(-35.01 -0.5)"/>
      </g>
      <g id="Grupo_1111986" data-name="Grupo 1111986" transform="translate(16.037 5.032)">
        <path id="Trazado_902241" data-name="Trazado 902241" d="M39.461,14.048H31.25V11.612A2.136,2.136,0,0,1,33.382,9.48h3.946a2.136,2.136,0,0,1,2.132,2.132Zm-7.2-1.011h6.19V11.612a1.122,1.122,0,0,0-1.122-1.122H33.382a1.122,1.122,0,0,0-1.122,1.122Z" transform="translate(-31.25 -9.48)"/>
      </g>
      <g id="Grupo_1111987" data-name="Grupo 1111987" transform="translate(17.937 15.138)">
        <path id="Trazado_902242" data-name="Trazado 902242" d="M37.218,33.9a2.208,2.208,0,1,1,2.208-2.208A2.21,2.21,0,0,1,37.218,33.9Zm0-3.406a1.2,1.2,0,1,0,1.2,1.2A1.2,1.2,0,0,0,37.218,30.491Z" transform="translate(-35.01 -29.48)"/>
      </g>
      <g id="Grupo_1111988" data-name="Grupo 1111988" transform="translate(16.037 19.675)">
        <path id="Trazado_902243" data-name="Trazado 902243" d="M39.461,43.028H31.25V40.592a2.136,2.136,0,0,1,2.132-2.132h3.946a2.136,2.136,0,0,1,2.132,2.132Zm-7.2-1.011h6.19V40.592a1.122,1.122,0,0,0-1.122-1.122H33.382a1.122,1.122,0,0,0-1.122,1.122Z" transform="translate(-31.25 -38.46)"/>
      </g>
      <g id="Grupo_1111989" data-name="Grupo 1111989" transform="translate(13.046 2.425)">
        <path id="Trazado_902244" data-name="Trazado 902244" d="M27.644,23.844H25.33V4.32h2.314V5.331h-1.3v17.5h1.3Z" transform="translate(-25.33 -4.32)"/>
      </g>
      <g id="Grupo_1111990" data-name="Grupo 1111990" transform="translate(11.601 11.864)">
        <path id="Trazado_902245" data-name="Trazado 902245" d="M22.47,23h1.95v1.011H22.47Z" transform="translate(-22.47 -23)"/>
      </g>
    </g>
  </g>
</svg>
