<svg xmlns="http://www.w3.org/2000/svg" width="39.051" height="36.013" viewBox="0 0 39.051 36.013">
  <g id="Grupo_1112057" data-name="Grupo 1112057" transform="translate(-195 -2351.867)">
    <g id="Rectángulo_401341" data-name="Rectángulo 401341" transform="translate(195 2351.867)" fill="#fece2f" stroke="#faedc1" stroke-width="3">
      <rect width="39.051" height="36.013" rx="12" stroke="none"/>
      <rect x="1.5" y="1.5" width="36.051" height="33.013" rx="10.5" fill="none"/>
    </g>
    <g id="Grupo_1111964" data-name="Grupo 1111964" transform="translate(203.138 2359)">
      <g id="Grupo_1111962" data-name="Grupo 1111962" transform="translate(0.383 0.383)">
        <g id="Grupo_1111941" data-name="Grupo 1111941" transform="translate(9.193 15.321)">
          <path id="Trazado_902198" data-name="Trazado 902198" d="M27.3,41.766V45.6a.768.768,0,0,1-.766.766H25V41h1.532A.768.768,0,0,1,27.3,41.766Z" transform="translate(-25 -41)" fill="#e6e9ed"/>
        </g>
        <g id="Grupo_1111942" data-name="Grupo 1111942" transform="translate(0 15.321)">
          <path id="Trazado_902199" data-name="Trazado 902199" d="M7.895,41h.766v5.362H1V41H7.895Z" transform="translate(-1 -41)" fill="#e6e9ed"/>
        </g>
        <g id="Grupo_1111943" data-name="Grupo 1111943" transform="translate(7.661 15.321)">
          <path id="Trazado_902200" data-name="Trazado 902200" d="M22.532,41v5.362H21V41h1.532Z" transform="translate(-21 -41)" fill="#ccd1d9"/>
        </g>
        <g id="Grupo_1111944" data-name="Grupo 1111944" transform="translate(0 0)">
          <path id="Trazado_902201" data-name="Trazado 902201" d="M8.661,4.064V5.6l-.517.172a3.412,3.412,0,0,1-.306.743L8.082,7,7,8.082l-.486-.245a3.412,3.412,0,0,1-.743.306L5.6,8.661H4.064l-.172-.517a3.412,3.412,0,0,1-.743-.306l-.486.245L1.578,7l.245-.486a3.412,3.412,0,0,1-.306-.743L1,5.6V4.064l.517-.172a3.412,3.412,0,0,1,.306-.743l-.245-.486L2.662,1.578l.486.245a3.412,3.412,0,0,1,.743-.306L4.064,1H5.6l.172.517a3.412,3.412,0,0,1,.743.306L7,1.578,8.082,2.662l-.245.486a3.412,3.412,0,0,1,.306.743ZM6.745,4.83A1.915,1.915,0,1,0,4.83,6.745,1.916,1.916,0,0,0,6.745,4.83Z" transform="translate(-1 -1)" fill="#fcd770"/>
        </g>
        <g id="Grupo_1111945" data-name="Grupo 1111945" transform="translate(3.83 9.959)">
          <path id="Trazado_902202" data-name="Trazado 902202" d="M11,27h1.532v5.362H11Z" transform="translate(-11 -27)" fill="#ff826e"/>
        </g>
        <g id="Grupo_1111946" data-name="Grupo 1111946" transform="translate(6.895 8.427)">
          <path id="Trazado_902203" data-name="Trazado 902203" d="M20.532,23v6.895H19V23Z" transform="translate(-19 -23)" fill="#ff826e"/>
        </g>
        <g id="Grupo_1111947" data-name="Grupo 1111947" transform="translate(0.766 11.491)">
          <path id="Trazado_902204" data-name="Trazado 902204" d="M3,31H4.532v3.83H3Z" transform="translate(-3 -31)" fill="#ff826e"/>
        </g>
        <g id="Grupo_1111948" data-name="Grupo 1111948" transform="translate(15.321 16.087)">
          <path id="Trazado_902205" data-name="Trazado 902205" d="M44.064,48.362v.766a.768.768,0,0,1-.766.766H41.766A.768.768,0,0,1,41,49.129V43h1.532a.768.768,0,0,0,.766.766.772.772,0,0,0-.766.766.768.768,0,0,0,.766.766.772.772,0,0,0-.766.766.768.768,0,0,0,.766.766.772.772,0,0,0-.766.766.768.768,0,0,0,.766.766Z" transform="translate(-41 -43)" fill="#969faa"/>
        </g>
        <g id="Grupo_1111949" data-name="Grupo 1111949" transform="translate(10.667 2.421)">
          <circle id="Elipse_12130" data-name="Elipse 12130" cx="6.184" cy="6.184" r="6.184" transform="translate(0 0)" fill="#fcd770"/>
        </g>
        <g id="Grupo_1111950" data-name="Grupo 1111950" transform="translate(12.315 4.069)">
          <circle id="Elipse_12131" data-name="Elipse 12131" cx="4.535" cy="4.535" r="4.535" transform="translate(0 0)" fill="#69d6f4"/>
        </g>
        <g id="Grupo_1111951" data-name="Grupo 1111951" transform="translate(12.257)">
          <path id="Trazado_902206" data-name="Trazado 902206" d="M36.064,4.447l-.663.165a1.155,1.155,0,0,0-.869,1.115v.636h-.383a1.142,1.142,0,0,0-.724.257L33.4,6.581A2.376,2.376,0,0,1,33,5.378c0-.038,0-.08,0-.119V4.869a2.38,2.38,0,0,1,1.915-2.337A2.022,2.022,0,0,1,36.876,1H38.37a3.824,3.824,0,0,1,3.823,3.823,3.794,3.794,0,0,1-.44,1.785,1.143,1.143,0,0,0-.709-.245h-.383V4.447a.768.768,0,0,1-.766.766H36.83a.772.772,0,0,1-.766-.766Z" transform="translate(-33 -1)" fill="#656d78"/>
        </g>
        <g id="Grupo_1111952" data-name="Grupo 1111952" transform="translate(13.965 10.177)">
          <path id="Trazado_902207" data-name="Trazado 902207" d="M39.2,27.735a1.149,1.149,0,1,0,2.3,0,1.089,1.089,0,0,0-.015-.157l0-.008a3.063,3.063,0,0,1,1.747,1.823l0,0a4.6,4.6,0,0,1-5.776,0l0,0A3.063,3.063,0,0,1,39.21,27.57l0,.008a1.09,1.09,0,0,0-.015.157Z" transform="translate(-37.46 -27.57)" fill="#ff826e"/>
        </g>
        <g id="Grupo_1111953" data-name="Grupo 1111953" transform="translate(16.853 16.853)">
          <path id="Trazado_902208" data-name="Trazado 902208" d="M47.3,45a.768.768,0,0,1,.766.766.772.772,0,0,1-.766.766H45.766A.768.768,0,0,1,45,45.766.772.772,0,0,1,45.766,45Z" transform="translate(-45 -45)" fill="#f0d0b4"/>
        </g>
        <g id="Grupo_1111954" data-name="Grupo 1111954" transform="translate(16.853 15.321)">
          <path id="Trazado_902209" data-name="Trazado 902209" d="M46.578,41.429,46.846,41H47.3a.768.768,0,0,1,.766.766.772.772,0,0,1-.766.766H45.766A.768.768,0,0,1,45,41.766h.766A1.146,1.146,0,0,0,46.578,41.429Z" transform="translate(-45 -41)" fill="#f0d0b4"/>
        </g>
        <g id="Grupo_1111955" data-name="Grupo 1111955" transform="translate(16.853 19.918)">
          <path id="Trazado_902210" data-name="Trazado 902210" d="M47.3,53a.768.768,0,0,1,.766.766.772.772,0,0,1-.766.766H45.766A.768.768,0,0,1,45,53.766.772.772,0,0,1,45.766,53Z" transform="translate(-45 -53)" fill="#f0d0b4"/>
        </g>
        <g id="Grupo_1111956" data-name="Grupo 1111956" transform="translate(16.853 18.386)">
          <path id="Trazado_902211" data-name="Trazado 902211" d="M47.3,49a.768.768,0,0,1,.766.766.772.772,0,0,1-.766.766H45.766A.768.768,0,0,1,45,49.766.772.772,0,0,1,45.766,49Z" transform="translate(-45 -49)" fill="#f0d0b4"/>
        </g>
        <g id="Grupo_1111957" data-name="Grupo 1111957" transform="translate(11.491 14.555)">
          <path id="Trazado_902212" data-name="Trazado 902212" d="M34.83,40.532v5.362H33.72a2.289,2.289,0,0,1-1.433-.5L31,44.362v-3.83l1.287-1.03A2.289,2.289,0,0,1,33.72,39h4.175a.384.384,0,0,1,.383.383,1.062,1.062,0,0,1-.069.383l-.268.429a1.146,1.146,0,0,1-.812.337h-2.3Z" transform="translate(-31 -39)" fill="#f0d0b4"/>
        </g>
        <g id="Grupo_1111958" data-name="Grupo 1111958" transform="translate(19.887 5.362)">
          <path id="Trazado_902213" data-name="Trazado 902213" d="M52.951,16.915V15h.383a1.148,1.148,0,0,1,.961,1.777,1.122,1.122,0,0,1-.149.184,1.146,1.146,0,0,1-.812.337h-.383l-.031,0A2.055,2.055,0,0,0,52.951,16.915Z" transform="translate(-52.92 -15)" fill="#f0d0b4"/>
        </g>
        <g id="Grupo_1111959" data-name="Grupo 1111959" transform="translate(15.704 9.959)">
          <path id="Trazado_902214" data-name="Trazado 902214" d="M42.015,27.226l0-.008a3.073,3.073,0,0,1,2.275,0l0,.008a1.09,1.09,0,0,1,.015.157,1.149,1.149,0,0,1-2.3,0A1.09,1.09,0,0,1,42.015,27.226Z" transform="translate(-42 -27)" fill="#f0d0b4"/>
        </g>
        <g id="Grupo_1111960" data-name="Grupo 1111960" transform="translate(13.789 3.447)">
          <path id="Trazado_902215" data-name="Trazado 902215" d="M43.129,10v3.83a2.055,2.055,0,0,1-.031.379,2.674,2.674,0,0,1-2.651,2.3h-.766a2.674,2.674,0,0,1-2.651-2.3A2.055,2.055,0,0,1,37,13.83V11.279a1.155,1.155,0,0,1,.869-1.115L38.532,10a.772.772,0,0,0,.766.766h3.064A.768.768,0,0,0,43.129,10Z" transform="translate(-37 -10)" fill="#f0d0b4"/>
        </g>
        <g id="Grupo_1111961" data-name="Grupo 1111961" transform="translate(12.257 5.362)">
          <path id="Trazado_902216" data-name="Trazado 902216" d="M34.532,16.915a2.055,2.055,0,0,0,.031.379l-.031,0h-.383a1.146,1.146,0,0,1-.812-.337,1.122,1.122,0,0,1-.149-.184A1.149,1.149,0,0,1,34.149,15h.383Z" transform="translate(-33 -15)" fill="#f0d0b4"/>
        </g>
      </g>
      <g id="Grupo_1111963" data-name="Grupo 1111963" transform="translate(0 0)">
        <ellipse id="Elipse_12132" data-name="Elipse 12132" cx="0.412" rx="0.412" transform="translate(15.172 6.102)"/>
        <ellipse id="Elipse_12133" data-name="Elipse 12133" cx="0.412" rx="0.412" transform="translate(18.471 6.102)"/>
        <path id="Trazado_902217" data-name="Trazado 902217" d="M23.748,8.81A6.488,6.488,0,0,0,22.191,4.6c.013-.133.025-.266.025-.4A4.21,4.21,0,0,0,18.011,0H16.518a2.4,2.4,0,0,0-2.265,1.6,2.774,2.774,0,0,0-2,2.656v.381a6.486,6.486,0,0,0,1.984,9.953,2.691,2.691,0,0,0-1.321.557l-.859.687a1.15,1.15,0,0,0-.954-.508H9.193V8.427h-2.3v6.895H6.129V9.959H3.83v5.362H3.064v-3.83H.766v3.83H0V21.45H11.108a1.149,1.149,0,0,0,.953-.508l.859.687a2.694,2.694,0,0,0,1.675.587h.726V22.6a1.151,1.151,0,0,0,1.149,1.149H18A1.151,1.151,0,0,0,19.152,22.6v-.383h.383a1.144,1.144,0,0,0,.85-1.915,1.132,1.132,0,0,0,0-1.532,1.132,1.132,0,0,0,0-1.532,1.144,1.144,0,0,0-.85-1.915.757.757,0,0,0-.109-.387A6.517,6.517,0,0,0,23.748,8.81Zm-2.3,0a4.2,4.2,0,0,1-1.2,2.936,3.45,3.45,0,0,0-1.313-1.324,3.072,3.072,0,0,0,1.644-2h.1a1.51,1.51,0,0,0,.724-.19,4.129,4.129,0,0,1,.042.573ZM13.789,7.661a.766.766,0,0,1,0-1.532Zm-.724.576a1.51,1.51,0,0,0,.724.19h.1a3.074,3.074,0,0,0,1.644,2,3.448,3.448,0,0,0-1.313,1.324,4.2,4.2,0,0,1-1.2-2.936A4.129,4.129,0,0,1,13.065,8.236ZM15.422,4.3a1.15,1.15,0,0,0,1.049.684h3.064a1.136,1.136,0,0,0,.383-.07V7.661a2.3,2.3,0,0,1-2.3,2.3h-.766a2.3,2.3,0,0,1-2.3-2.3V5.111a.765.765,0,0,1,.58-.743Zm6.028,2.6a.767.767,0,0,1-.766.766V6.129A.767.767,0,0,1,21.45,6.895Zm-4.213,3.83a2.65,2.65,0,0,1,.755.114.763.763,0,0,1-1.509,0A2.65,2.65,0,0,1,17.236,10.725Zm-1.459.442a1.522,1.522,0,0,0,2.919,0,2.677,2.677,0,0,1,.953,1.092,4.19,4.19,0,0,1-4.825,0,2.677,2.677,0,0,1,.953-1.092ZM13.023,4.251a2,2,0,0,1,1.607-1.96l.237-.047.059-.235A1.638,1.638,0,0,1,16.518.766h1.493a3.435,3.435,0,0,1,3.2,4.7,1.511,1.511,0,0,0-.526-.1V3.83a1.151,1.151,0,0,0-1.149-1.149h-.383v.766h.383a.383.383,0,1,1,0,.766H16.47a.383.383,0,1,1,0-.766h.383V2.681H16.47a1.147,1.147,0,0,0-1.1.838l-.42.1a1.53,1.53,0,0,0-1.161,1.487v.252a1.521,1.521,0,0,0-.581.116,1.99,1.99,0,0,1-.185-.837ZM9.193,16.087v4.6H8.427v-4.6ZM7.661,9.193h.766v6.129H7.661ZM4.6,10.725h.766v4.6H4.6ZM1.532,12.257H2.3v3.064H1.532Zm-.766,3.83H7.661v4.6H.766ZM11.491,20.3a.383.383,0,0,1-.383.383H9.959v-4.6h1.149a.383.383,0,0,1,.383.383Zm6.895,2.3a.383.383,0,0,1-.383.383H16.47a.383.383,0,0,1-.383-.383V16.853h.837a1.138,1.138,0,0,0,.228.383,1.132,1.132,0,0,0,0,1.532,1.132,1.132,0,0,0,0,1.532A1.144,1.144,0,0,0,18,22.216h.383ZM19.918,18a.383.383,0,0,1-.383.383H18a.383.383,0,1,1,0-.766h1.532A.383.383,0,0,1,19.918,18Zm0,1.532a.383.383,0,0,1-.383.383H18a.383.383,0,1,1,0-.766h1.532A.383.383,0,0,1,19.918,19.535Zm-.383,1.915H18a.383.383,0,1,1,0-.766h1.532a.383.383,0,1,1,0,.766Zm0-5.362a.383.383,0,1,1,0,.766H18a1.527,1.527,0,0,0,1.319-.766Zm-.766-.766a.767.767,0,0,1-.766.766H15.5l-.114.17a2.193,2.193,0,0,1-1.828.979h-.151V18h.151a2.953,2.953,0,0,0,1.764-.587V21.45H14.6a1.921,1.921,0,0,1-1.2-.42l-1.142-.914V16.655l1.142-.914a1.921,1.921,0,0,1,1.2-.42Zm-1.532-.766a5.729,5.729,0,0,1-4.783-8.909,2.757,2.757,0,0,0,.139.3,1.489,1.489,0,0,0-.174,1.619,4.979,4.979,0,1,0,9.633,0,1.49,1.49,0,0,0-.206-1.659c.047-.107.092-.214.13-.324a5.73,5.73,0,0,1-4.741,8.971Z" transform="translate(0 0)"/>
        <path id="Trazado_902218" data-name="Trazado 902218" d="M42.532,21.532A1.534,1.534,0,0,0,44.064,20H43.3a.766.766,0,1,1-1.532,0H41A1.534,1.534,0,0,0,42.532,21.532Z" transform="translate(-25.296 -12.339)"/>
        <path id="Trazado_902219" data-name="Trazado 902219" d="M.775,5.9.5,6.456,1.971,7.93l.557-.278a3.732,3.732,0,0,0,.447.184l.2.592H5.255l.2-.591A3.864,3.864,0,0,0,5.9,7.651l.557.278L7.93,6.456,7.651,5.9a3.732,3.732,0,0,0,.184-.447l.592-.2V3.171l-.591-.2a3.864,3.864,0,0,0-.184-.447l.278-.557L6.456.5,5.9.775A3.77,3.77,0,0,0,5.453.591L5.256,0H3.171l-.2.591a3.9,3.9,0,0,0-.447.184L1.971.5.5,1.971l.278.557a3.772,3.772,0,0,0-.184.447L0,3.171V5.255l.591.2A3.836,3.836,0,0,0,.775,5.9ZM.766,3.723l.446-.149.055-.2a3.049,3.049,0,0,1,.273-.66l.1-.177-.21-.42.693-.693.42.21.177-.1a3.056,3.056,0,0,1,.661-.273l.195-.055L3.723.766H4.7l.149.446.195.055a3.072,3.072,0,0,1,.661.273l.177.1.42-.21L7,2.122l-.21.42.1.177a3.064,3.064,0,0,1,.273.661l.055.2.445.148V4.7l-.446.149-.055.2a3.08,3.08,0,0,1-.273.661l-.1.177.21.42L6.3,7l-.42-.21-.177.1a3.064,3.064,0,0,1-.661.273l-.2.055L4.7,7.661h-.98l-.149-.446-.2-.055a3.049,3.049,0,0,1-.66-.273l-.177-.1L2.122,7,1.429,6.3l.21-.42-.1-.177a3.064,3.064,0,0,1-.273-.661l-.055-.2L.766,4.7Z" transform="translate(0 0)"/>
        <path id="Trazado_902220" data-name="Trazado 902220" d="M7.3,9.6A2.3,2.3,0,1,0,5,7.3,2.3,2.3,0,0,0,7.3,9.6Zm0-3.83A1.532,1.532,0,1,1,5.766,7.3,1.534,1.534,0,0,1,7.3,5.766Z" transform="translate(-3.085 -3.085)"/>
        <path id="Trazado_902221" data-name="Trazado 902221" d="M28,10h.766v.766H28Z" transform="translate(-17.275 -6.17)"/>
        <path id="Trazado_902222" data-name="Trazado 902222" d="M24,10h.766v.766H24Z" transform="translate(-14.807 -6.17)"/>
      </g>
    </g>
  </g>
</svg>
