<svg xmlns="http://www.w3.org/2000/svg" width="39.051" height="36.013" viewBox="0 0 39.051 36.013">
  <g id="Grupo_1112053" data-name="Grupo 1112053" transform="translate(-195 -2101.867)">
    <g id="Rectángulo_405078" data-name="Rectángulo 405078" transform="translate(195 2101.867)" fill="#fece2f" stroke="#faedc1" stroke-width="3">
      <rect width="39.051" height="36.013" rx="12" stroke="none"/>
      <rect x="1.5" y="1.5" width="36.051" height="33.013" rx="10.5" fill="none"/>
    </g>
    <g id="Layer_67" transform="translate(200.66 2093.283)">
      <g id="Grupo_1111910" data-name="Grupo 1111910" transform="translate(0 14.716)">
        <g id="Grupo_1111774" data-name="Grupo 1111774" transform="translate(11.182 16.236)">
          <g id="Grupo_1111773" data-name="Grupo 1111773">
            <path id="Trazado_902093" data-name="Trazado 902093" d="M107.9,164.616h-3.958a.7.7,0,0,0-.7.7v1.863a.705.705,0,0,0,.7.7H107.9a.705.705,0,0,0,.7-.7v-1.863A.705.705,0,0,0,107.9,164.616Z" transform="translate(-103.241 -164.616)" fill="#70d6f9"/>
          </g>
        </g>
        <g id="Grupo_1111776" data-name="Grupo 1111776" transform="translate(11.182 21.001)">
          <g id="Grupo_1111775" data-name="Grupo 1111775">
            <path id="Trazado_902094" data-name="Trazado 902094" d="M107.9,208.6h-3.958a.705.705,0,0,0-.7.7v1.863a.705.705,0,0,0,.7.7H107.9a.7.7,0,0,0,.7-.7v-1.863A.705.705,0,0,0,107.9,208.6Z" transform="translate(-103.241 -208.605)" fill="#fc657e"/>
          </g>
        </g>
        <g id="Grupo_1111778" data-name="Grupo 1111778" transform="translate(11.182 1.942)">
          <g id="Grupo_1111777" data-name="Grupo 1111777">
            <path id="Trazado_902095" data-name="Trazado 902095" d="M107.9,32.649h-3.958a.7.7,0,0,0-.7.7v1.863a.705.705,0,0,0,.7.7H107.9a.705.705,0,0,0,.7-.7V33.352A.7.7,0,0,0,107.9,32.649Z" transform="translate(-103.241 -32.649)" fill="#f5c84c"/>
          </g>
        </g>
        <g id="Grupo_1111780" data-name="Grupo 1111780" transform="translate(11.182 6.707)">
          <g id="Grupo_1111779" data-name="Grupo 1111779">
            <path id="Trazado_902096" data-name="Trazado 902096" d="M107.9,76.638h-3.958a.705.705,0,0,0-.7.7V79.2a.705.705,0,0,0,.7.7H107.9a.7.7,0,0,0,.7-.7V77.341A.705.705,0,0,0,107.9,76.638Z" transform="translate(-103.241 -76.638)" fill="#f5c84c"/>
          </g>
        </g>
        <g id="Grupo_1111782" data-name="Grupo 1111782" transform="translate(11.182 11.472)">
          <g id="Grupo_1111781" data-name="Grupo 1111781">
            <path id="Trazado_902097" data-name="Trazado 902097" d="M107.9,120.627h-3.958a.705.705,0,0,0-.7.7v1.863a.705.705,0,0,0,.7.7H107.9a.705.705,0,0,0,.7-.7V121.33A.705.705,0,0,0,107.9,120.627Z" transform="translate(-103.241 -120.627)" fill="#f5c84c"/>
          </g>
        </g>
        <g id="Grupo_1111784" data-name="Grupo 1111784" transform="translate(6.428 15.272)">
          <g id="Grupo_1111783" data-name="Grupo 1111783">
            <path id="Trazado_902098" data-name="Trazado 902098" d="M61.333,156.679a1.2,1.2,0,0,1-.964-.944.022.022,0,0,0-.043,0,1.2,1.2,0,0,1-.964.944.021.021,0,0,0,0,.042,1.2,1.2,0,0,1,.964.944.022.022,0,0,0,.043,0,1.2,1.2,0,0,1,.964-.944A.021.021,0,0,0,61.333,156.679Z" transform="translate(-59.344 -155.717)" fill="#f5c84c"/>
          </g>
        </g>
        <g id="Grupo_1111786" data-name="Grupo 1111786" transform="translate(8.981 0)">
          <g id="Grupo_1111785" data-name="Grupo 1111785">
            <path id="Trazado_902099" data-name="Trazado 902099" d="M84.139,15.307a.739.739,0,0,1-.592-.58.013.013,0,0,0-.026,0,.739.739,0,0,1-.592.58.013.013,0,0,0,0,.026.739.739,0,0,1,.592.58.013.013,0,0,0,.026,0,.739.739,0,0,1,.592-.58A.013.013,0,0,0,84.139,15.307Z" transform="translate(-82.918 -14.716)" fill="#fc657e"/>
          </g>
        </g>
        <g id="Grupo_1111788" data-name="Grupo 1111788" transform="translate(20.61 4.301)">
          <g id="Grupo_1111787" data-name="Grupo 1111787">
            <path id="Trazado_902100" data-name="Trazado 902100" d="M190.627,55.021h.252v-.252a.342.342,0,1,1,.684,0v.252h.252a.342.342,0,1,1,0,.684h-.252v.252a.342.342,0,1,1-.684,0v-.252h-.252a.342.342,0,0,1,0-.684Z" transform="translate(-190.285 -54.427)" fill="#70d6f9"/>
          </g>
        </g>
        <g id="Grupo_1111790" data-name="Grupo 1111790" transform="translate(19.967 2.058)">
          <g id="Grupo_1111789" data-name="Grupo 1111789">
            <circle id="Elipse_12118" data-name="Elipse 12118" cx="0.366" cy="0.366" r="0.366" fill="#87d147"/>
          </g>
        </g>
        <g id="Grupo_1111792" data-name="Grupo 1111792" transform="translate(8.702 19.172)">
          <g id="Grupo_1111791" data-name="Grupo 1111791">
            <circle id="Elipse_12119" data-name="Elipse 12119" cx="0.366" cy="0.366" r="0.366" fill="#70d6f9"/>
          </g>
        </g>
        <g id="Grupo_1111794" data-name="Grupo 1111794" transform="translate(2.108 5.129)">
          <g id="Grupo_1111793" data-name="Grupo 1111793">
            <path id="Trazado_902101" data-name="Trazado 902101" d="M21.443,62.1a1.872,1.872,0,0,1-1.874.616.092.092,0,0,0-.111.089h0V64.2a1.727,1.727,0,0,0,3.453,0V62.657q0-.013,0-.027a.093.093,0,0,0-.089-.091,1.8,1.8,0,0,1-1.24-.448A.093.093,0,0,0,21.443,62.1Z" transform="translate(-19.458 -62.065)" fill="#f9c1a8"/>
          </g>
        </g>
        <g id="Grupo_1111796" data-name="Grupo 1111796" transform="translate(0.271 8.776)">
          <g id="Grupo_1111795" data-name="Grupo 1111795">
            <path id="Trazado_902102" data-name="Trazado 902102" d="M9.545,97.766a.681.681,0,0,0-.514-.623L7.69,96.805l-.474-.234a.6.6,0,0,1-.333-.535v-.294a1.714,1.714,0,0,1-1.591.026v.268a.6.6,0,0,1-.333.535l-.474.234-1.341.338a.681.681,0,0,0-.514.623L2.5,99.521a.189.189,0,0,0,.189.2h6.8a.189.189,0,0,0,.189-.2Z" transform="translate(-2.5 -95.743)" fill="#70d6f9"/>
          </g>
        </g>
        <g id="Grupo_1111798" data-name="Grupo 1111798" transform="translate(2.657 8.776)">
          <g id="Grupo_1111797" data-name="Grupo 1111797">
            <path id="Trazado_902103" data-name="Trazado 902103" d="M26.858,96.572a.6.6,0,0,1-.333-.535v-.294a1.714,1.714,0,0,1-1.591.026v.268a.6.6,0,0,1-.333.535l-.074.037a1.35,1.35,0,0,0,2.405,0Z" transform="translate(-24.528 -95.743)" fill="#f9c1a8"/>
          </g>
        </g>
        <g id="Grupo_1111800" data-name="Grupo 1111800" transform="translate(5.556 5.943)">
          <g id="Grupo_1111799" data-name="Grupo 1111799">
            <path id="Trazado_902104" data-name="Trazado 902104" d="M51.412,69.582a.719.719,0,0,0-.111.009V70.9c0,.039,0,.077,0,.116a.72.72,0,1,0,.115-1.432Z" transform="translate(-51.297 -69.582)" fill="#f9c1a8"/>
          </g>
        </g>
        <g id="Grupo_1111802" data-name="Grupo 1111802" transform="translate(1.276 5.943)">
          <g id="Grupo_1111801" data-name="Grupo 1111801">
            <path id="Trazado_902105" data-name="Trazado 902105" d="M12.612,70.9V69.592a.721.721,0,1,0,0,1.423c0-.038,0-.077,0-.116Z" transform="translate(-11.78 -69.583)" fill="#f9c1a8"/>
          </g>
        </g>
        <g id="Grupo_1111805" data-name="Grupo 1111805" transform="translate(1.547 3.52)">
          <g id="Grupo_1111804" data-name="Grupo 1111804">
            <g id="Grupo_1111803" data-name="Grupo 1111803">
              <path id="Trazado_902106" data-name="Trazado 902106" d="M14.735,49.639a.719.719,0,0,1,.111.009v-.082h0a.092.092,0,0,1,.111-.089,1.872,1.872,0,0,0,1.874-.616.093.093,0,0,1,.138-.009,1.8,1.8,0,0,0,1.24.448.093.093,0,0,1,.089.091q0,.013,0,.027v.231a.717.717,0,0,1,.611.193v-1.3a.989.989,0,0,0-.986-.986.976.976,0,0,0-.5.141.987.987,0,0,0-.846-.483h-.506A1.787,1.787,0,0,0,14.285,49v.8A.715.715,0,0,1,14.735,49.639Z" transform="translate(-14.285 -47.217)" fill="#414344"/>
            </g>
          </g>
        </g>
        <g id="Grupo_1111807" data-name="Grupo 1111807" transform="translate(1.837 4.858)">
          <g id="Grupo_1111806" data-name="Grupo 1111806">
            <path id="Trazado_902107" data-name="Trazado 902107" d="M18.954,63.963a2,2,0,0,1-2-2V60.577a.363.363,0,0,1,.438-.355A1.593,1.593,0,0,0,19,59.7a.364.364,0,0,1,.54-.034,1.538,1.538,0,0,0,1.059.37.363.363,0,0,1,.352.356v1.571a2,2,0,0,1-2,2ZM17.5,60.786v1.18a1.456,1.456,0,0,0,2.911,0v-1.4a2.1,2.1,0,0,1-1.106-.392A2.12,2.12,0,0,1,17.5,60.786Zm-.215-.034h0Zm1.929-.881h0Z" transform="translate(-16.957 -59.565)"/>
          </g>
        </g>
        <g id="Grupo_1111810" data-name="Grupo 1111810" transform="translate(1.276 3.249)">
          <g id="Grupo_1111809" data-name="Grupo 1111809">
            <g id="Grupo_1111808" data-name="Grupo 1111808">
              <path id="Trazado_902108" data-name="Trazado 902108" d="M16.679,47.816a.271.271,0,0,1-.271-.271v-1.23a.712.712,0,0,0-1.08-.613.271.271,0,0,1-.372-.093.721.721,0,0,0-.613-.351h-.506a1.513,1.513,0,0,0-1.511,1.511v.759a.271.271,0,0,1-.542,0v-.759a2.055,2.055,0,0,1,2.053-2.053h.506a1.263,1.263,0,0,1,.93.415,1.244,1.244,0,0,1,.419-.073,1.258,1.258,0,0,1,1.257,1.257v1.23A.271.271,0,0,1,16.679,47.816Z" transform="translate(-11.784 -44.716)"/>
            </g>
          </g>
        </g>
        <g id="Grupo_1111812" data-name="Grupo 1111812" transform="translate(3.035 7.461)">
          <g id="Grupo_1111811" data-name="Grupo 1111811">
            <path id="Trazado_902109" data-name="Trazado 902109" d="M28.841,84.437a.938.938,0,0,1-.778-.414.271.271,0,1,1,.449-.3.4.4,0,0,0,.658,0,.271.271,0,0,1,.449.3.937.937,0,0,1-.778.414Z" transform="translate(-28.017 -83.601)"/>
          </g>
        </g>
        <g id="Grupo_1111814" data-name="Grupo 1111814" transform="translate(0 8.588)">
          <g id="Grupo_1111813" data-name="Grupo 1111813">
            <path id="Trazado_902110" data-name="Trazado 902110" d="M7.259,98.438H.461A.46.46,0,0,1,0,97.952l.132-1.76a.946.946,0,0,1,.718-.865L2.164,95l.448-.221a.323.323,0,0,0,.182-.292v-.191a.271.271,0,0,1,.542,0v.191a.862.862,0,0,1-.484.778l-.474.234a.277.277,0,0,1-.054.02l-1.341.337a.409.409,0,0,0-.31.375L.548,97.9H7.171l-.125-1.664a.41.41,0,0,0-.31-.38L5.4,95.514a.27.27,0,0,1-.054-.02l-.474-.234a.862.862,0,0,1-.484-.778v-.212a.271.271,0,1,1,.542,0v.212a.324.324,0,0,0,.182.292L5.555,95l1.313.33a.948.948,0,0,1,.718.87l.131,1.75a.46.46,0,0,1-.459.491Z" transform="translate(0 -94)"/>
          </g>
        </g>
        <g id="Grupo_1111816" data-name="Grupo 1111816" transform="translate(5.804 10.936)">
          <g id="Grupo_1111815" data-name="Grupo 1111815">
            <path id="Trazado_902111" data-name="Trazado 902111" d="M53.854,117.714a.271.271,0,0,1-.271-.271v-1.488a.271.271,0,0,1,.542,0v1.488A.271.271,0,0,1,53.854,117.714Z" transform="translate(-53.583 -115.685)"/>
          </g>
        </g>
        <g id="Grupo_1111818" data-name="Grupo 1111818" transform="translate(1.373 10.936)">
          <g id="Grupo_1111817" data-name="Grupo 1111817">
            <path id="Trazado_902112" data-name="Trazado 902112" d="M12.946,117.714a.271.271,0,0,1-.271-.271v-1.488a.271.271,0,0,1,.542,0v1.488A.271.271,0,0,1,12.946,117.714Z" transform="translate(-12.675 -115.685)"/>
          </g>
        </g>
        <g id="Grupo_1111823" data-name="Grupo 1111823" transform="translate(2.846 6.333)">
          <g id="Grupo_1111820" data-name="Grupo 1111820">
            <g id="Grupo_1111819" data-name="Grupo 1111819">
              <circle id="Elipse_12120" data-name="Elipse 12120" cx="0.325" cy="0.325" r="0.325"/>
            </g>
          </g>
          <g id="Grupo_1111822" data-name="Grupo 1111822" transform="translate(1.347)">
            <g id="Grupo_1111821" data-name="Grupo 1111821">
              <circle id="Elipse_12121" data-name="Elipse 12121" cx="0.325" cy="0.325" r="0.325"/>
            </g>
          </g>
        </g>
        <g id="Grupo_1111825" data-name="Grupo 1111825" transform="translate(2.401 9.396)">
          <g id="Grupo_1111824" data-name="Grupo 1111824">
            <path id="Trazado_902113" data-name="Trazado 902113" d="M23.627,102.72a1.625,1.625,0,0,1-1.425-.848.271.271,0,0,1,.475-.26,1.079,1.079,0,0,0,1.9,0,.271.271,0,1,1,.476.258A1.624,1.624,0,0,1,23.627,102.72Z" transform="translate(-22.169 -101.467)"/>
          </g>
        </g>
        <g id="Grupo_1111827" data-name="Grupo 1111827" transform="translate(5.335 5.672)">
          <g id="Grupo_1111826" data-name="Grupo 1111826">
            <path id="Trazado_902114" data-name="Trazado 902114" d="M49.59,69.067c-.032,0-.063,0-.093,0a.271.271,0,0,1,.055-.539l.038,0a.45.45,0,1,0,0-.9h-.03a.271.271,0,0,1-.041-.54l.071,0a.992.992,0,1,1,0,1.983Z" transform="translate(-49.254 -67.084)"/>
          </g>
        </g>
        <g id="Grupo_1111829" data-name="Grupo 1111829" transform="translate(1.005 5.672)">
          <g id="Grupo_1111828" data-name="Grupo 1111828">
            <path id="Trazado_902115" data-name="Trazado 902115" d="M10.272,69.066a.992.992,0,0,1,0-1.983l.066,0a.271.271,0,1,1-.036.54h-.03a.45.45,0,1,0,0,.9h.03a.271.271,0,0,1,.048.54q-.039,0-.078,0Z" transform="translate(-9.28 -67.083)"/>
          </g>
        </g>
        <g id="Grupo_1111831" data-name="Grupo 1111831" transform="translate(10.912 1.672)">
          <g id="Grupo_1111830" data-name="Grupo 1111830">
            <path id="Trazado_902116" data-name="Trazado 902116" d="M105.672,33.959h-3.958a.975.975,0,0,1-.974-.974V31.123a.975.975,0,0,1,.974-.974h3.958a.975.975,0,0,1,.974.974v1.863A.975.975,0,0,1,105.672,33.959Zm-3.958-3.269a.433.433,0,0,0-.432.432v1.863a.433.433,0,0,0,.432.432h3.958a.433.433,0,0,0,.432-.432V31.123a.433.433,0,0,0-.432-.432h-3.958Z" transform="translate(-100.741 -30.149)"/>
          </g>
        </g>
        <g id="Grupo_1111833" data-name="Grupo 1111833" transform="translate(10.912 6.436)">
          <g id="Grupo_1111832" data-name="Grupo 1111832">
            <path id="Trazado_902117" data-name="Trazado 902117" d="M105.672,77.948h-3.958a.975.975,0,0,1-.974-.974V75.112a.975.975,0,0,1,.974-.974h3.958a.975.975,0,0,1,.974.974v1.863A.975.975,0,0,1,105.672,77.948Zm-3.958-3.269a.433.433,0,0,0-.432.432v1.863a.433.433,0,0,0,.432.432h3.958a.433.433,0,0,0,.432-.432V75.112a.433.433,0,0,0-.432-.432Z" transform="translate(-100.741 -74.138)"/>
          </g>
        </g>
        <g id="Grupo_1111835" data-name="Grupo 1111835" transform="translate(10.912 11.201)">
          <g id="Grupo_1111834" data-name="Grupo 1111834">
            <path id="Trazado_902118" data-name="Trazado 902118" d="M105.672,121.938h-3.958a.975.975,0,0,1-.974-.974V119.1a.975.975,0,0,1,.974-.974h3.958a.975.975,0,0,1,.974.974v1.863A.975.975,0,0,1,105.672,121.938Zm-3.958-3.269a.433.433,0,0,0-.432.432v1.863a.433.433,0,0,0,.432.432h3.958a.433.433,0,0,0,.432-.432V119.1a.433.433,0,0,0-.432-.432Z" transform="translate(-100.741 -118.128)"/>
          </g>
        </g>
        <g id="Grupo_1111837" data-name="Grupo 1111837" transform="translate(10.912 15.966)">
          <g id="Grupo_1111836" data-name="Grupo 1111836">
            <path id="Trazado_902119" data-name="Trazado 902119" d="M105.672,165.927h-3.958a.975.975,0,0,1-.974-.974v-1.863a.975.975,0,0,1,.974-.974h3.958a.975.975,0,0,1,.974.974v1.863A.975.975,0,0,1,105.672,165.927Zm-3.958-3.269a.433.433,0,0,0-.432.432v1.863a.433.433,0,0,0,.432.432h3.958a.433.433,0,0,0,.432-.432v-1.863a.433.433,0,0,0-.432-.432Z" transform="translate(-100.741 -162.117)"/>
          </g>
        </g>
        <g id="Grupo_1111839" data-name="Grupo 1111839" transform="translate(10.912 20.73)">
          <g id="Grupo_1111838" data-name="Grupo 1111838">
            <path id="Trazado_902120" data-name="Trazado 902120" d="M105.672,209.916h-3.958a.975.975,0,0,1-.974-.974V207.08a.975.975,0,0,1,.974-.974h3.958a.975.975,0,0,1,.974.974v1.863A.975.975,0,0,1,105.672,209.916Zm-3.958-3.269a.433.433,0,0,0-.432.432v1.863a.433.433,0,0,0,.432.432h3.958a.433.433,0,0,0,.432-.432V207.08a.433.433,0,0,0-.432-.432Z" transform="translate(-100.741 -206.106)"/>
          </g>
        </g>
        <g id="Grupo_1111841" data-name="Grupo 1111841" transform="translate(12.32 7.637)">
          <g id="Grupo_1111840" data-name="Grupo 1111840">
            <path id="Trazado_902121" data-name="Trazado 902121" d="M115.4,85.77h-1.39a.271.271,0,0,1,0-.542h1.39a.271.271,0,1,1,0,.542Z" transform="translate(-113.74 -85.228)"/>
          </g>
        </g>
        <g id="Grupo_1111843" data-name="Grupo 1111843" transform="translate(12.32 2.873)">
          <g id="Grupo_1111842" data-name="Grupo 1111842">
            <path id="Trazado_902122" data-name="Trazado 902122" d="M115.4,41.781h-1.39a.271.271,0,0,1,0-.542h1.39a.271.271,0,1,1,0,.542Z" transform="translate(-113.74 -41.239)"/>
          </g>
        </g>
        <g id="Grupo_1111845" data-name="Grupo 1111845" transform="translate(12.32 12.402)">
          <g id="Grupo_1111844" data-name="Grupo 1111844">
            <path id="Trazado_902123" data-name="Trazado 902123" d="M115.4,129.759h-1.39a.271.271,0,1,1,0-.542h1.39a.271.271,0,1,1,0,.542Z" transform="translate(-113.74 -129.217)"/>
          </g>
        </g>
        <g id="Grupo_1111847" data-name="Grupo 1111847" transform="translate(12.32 17.167)">
          <g id="Grupo_1111846" data-name="Grupo 1111846">
            <path id="Trazado_902124" data-name="Trazado 902124" d="M115.4,173.747h-1.39a.271.271,0,1,1,0-.542h1.39a.271.271,0,1,1,0,.542Z" transform="translate(-113.74 -173.205)"/>
          </g>
        </g>
        <g id="Grupo_1111849" data-name="Grupo 1111849" transform="translate(12.32 21.931)">
          <g id="Grupo_1111848" data-name="Grupo 1111848" transform="translate(0 0)">
            <path id="Trazado_902125" data-name="Trazado 902125" d="M115.4,217.736h-1.39a.271.271,0,0,1,0-.542h1.39a.271.271,0,1,1,0,.542Z" transform="translate(-113.74 -217.194)"/>
          </g>
        </g>
        <g id="Grupo_1111851" data-name="Grupo 1111851" transform="translate(12.32 3.848)">
          <g id="Grupo_1111850" data-name="Grupo 1111850">
            <path id="Trazado_902126" data-name="Trazado 902126" d="M116.484,50.78h-2.473a.271.271,0,0,1,0-.542h2.473a.271.271,0,0,1,0,.542Z" transform="translate(-113.74 -50.238)"/>
          </g>
        </g>
        <g id="Grupo_1111853" data-name="Grupo 1111853" transform="translate(12.32 8.612)">
          <g id="Grupo_1111852" data-name="Grupo 1111852">
            <path id="Trazado_902127" data-name="Trazado 902127" d="M116.484,94.77h-2.473a.271.271,0,0,1,0-.542h2.473a.271.271,0,0,1,0,.542Z" transform="translate(-113.74 -94.228)"/>
          </g>
        </g>
        <g id="Grupo_1111855" data-name="Grupo 1111855" transform="translate(12.32 13.377)">
          <g id="Grupo_1111854" data-name="Grupo 1111854">
            <path id="Trazado_902128" data-name="Trazado 902128" d="M116.484,138.759h-2.473a.271.271,0,0,1,0-.542h2.473a.271.271,0,0,1,0,.542Z" transform="translate(-113.74 -138.217)"/>
          </g>
        </g>
        <g id="Grupo_1111857" data-name="Grupo 1111857" transform="translate(12.32 18.141)">
          <g id="Grupo_1111856" data-name="Grupo 1111856">
            <path id="Trazado_902129" data-name="Trazado 902129" d="M116.484,182.747h-2.473a.271.271,0,0,1,0-.542h2.473a.271.271,0,0,1,0,.542Z" transform="translate(-113.74 -182.205)"/>
          </g>
        </g>
        <g id="Grupo_1111859" data-name="Grupo 1111859" transform="translate(12.32 22.906)">
          <g id="Grupo_1111858" data-name="Grupo 1111858">
            <path id="Trazado_902130" data-name="Trazado 902130" d="M116.484,226.736h-2.473a.271.271,0,0,1,0-.542h2.473a.271.271,0,0,1,0,.542Z" transform="translate(-113.74 -226.194)"/>
          </g>
        </g>
        <g id="Grupo_1111868" data-name="Grupo 1111868" transform="translate(17.327 3.306)">
          <g id="Grupo_1111861" data-name="Grupo 1111861">
            <g id="Grupo_1111860" data-name="Grupo 1111860">
              <path id="Trazado_902131" data-name="Trazado 902131" d="M161.226,64.838h-.98a.271.271,0,0,1,0-.542h.709V45.78h-.709a.271.271,0,0,1,0-.542h.98a.271.271,0,0,1,.271.271V64.567A.271.271,0,0,1,161.226,64.838Z" transform="translate(-159.975 -45.238)"/>
            </g>
          </g>
          <g id="Grupo_1111863" data-name="Grupo 1111863" transform="translate(0 4.765)">
            <g id="Grupo_1111862" data-name="Grupo 1111862">
              <path id="Trazado_902132" data-name="Trazado 902132" d="M161.118,89.77h-.872a.271.271,0,0,1,0-.542h.872a.271.271,0,1,1,0,.542Z" transform="translate(-159.975 -89.228)"/>
            </g>
          </g>
          <g id="Grupo_1111865" data-name="Grupo 1111865" transform="translate(0 9.529)">
            <g id="Grupo_1111864" data-name="Grupo 1111864">
              <path id="Trazado_902133" data-name="Trazado 902133" d="M163.282,133.759h-3.035a.271.271,0,1,1,0-.542h3.035a.271.271,0,1,1,0,.542Z" transform="translate(-159.976 -133.217)"/>
            </g>
          </g>
          <g id="Grupo_1111867" data-name="Grupo 1111867" transform="translate(0 14.294)">
            <g id="Grupo_1111866" data-name="Grupo 1111866">
              <path id="Trazado_902134" data-name="Trazado 902134" d="M161.118,177.747h-.872a.271.271,0,0,1,0-.542h.872a.271.271,0,0,1,0,.542Z" transform="translate(-159.975 -177.205)"/>
            </g>
          </g>
        </g>
        <g id="Grupo_1111870" data-name="Grupo 1111870" transform="translate(8.879 3.306)">
          <g id="Grupo_1111869" data-name="Grupo 1111869">
            <path id="Trazado_902135" data-name="Trazado 902135" d="M83.226,55.309h-.98a.271.271,0,0,1-.271-.271V45.509a.271.271,0,0,1,.271-.271h.98a.271.271,0,0,1,0,.542h-.709v8.988h.709a.271.271,0,0,1,0,.542Z" transform="translate(-81.975 -45.238)"/>
          </g>
        </g>
        <g id="Grupo_1111872" data-name="Grupo 1111872" transform="translate(6.821 8.071)">
          <g id="Grupo_1111871" data-name="Grupo 1111871">
            <path id="Trazado_902136" data-name="Trazado 902136" d="M66.285,89.77H63.247a.271.271,0,1,1,0-.542h3.038a.271.271,0,1,1,0,.542Z" transform="translate(-62.976 -89.228)"/>
          </g>
        </g>
        <g id="Grupo_1111874" data-name="Grupo 1111874" transform="translate(22.118 9.65)">
          <g id="Grupo_1111873" data-name="Grupo 1111873">
            <path id="Trazado_902137" data-name="Trazado 902137" d="M206.184,103.848a1.872,1.872,0,0,1-1.874.616.092.092,0,0,0-.111.089h0v1.389a1.727,1.727,0,1,0,3.453,0V104.4q0-.013,0-.027a.093.093,0,0,0-.089-.091,1.8,1.8,0,0,1-1.24-.448A.093.093,0,0,0,206.184,103.848Z" transform="translate(-204.199 -103.812)" fill="#f9c1a8"/>
          </g>
        </g>
        <g id="Grupo_1111876" data-name="Grupo 1111876" transform="translate(20.281 13.298)">
          <g id="Grupo_1111875" data-name="Grupo 1111875">
            <path id="Trazado_902138" data-name="Trazado 902138" d="M194.288,139.513a.681.681,0,0,0-.514-.623l-1.341-.338-.474-.234a.6.6,0,0,1-.333-.535v-.294a1.714,1.714,0,0,1-1.591.026v.268a.6.6,0,0,1-.333.535l-.474.234-1.341.338a.681.681,0,0,0-.514.623l-.131,1.755a.189.189,0,0,0,.189.2h6.8a.189.189,0,0,0,.189-.2Z" transform="translate(-187.243 -137.49)" fill="#5290db"/>
          </g>
        </g>
        <g id="Grupo_1111878" data-name="Grupo 1111878" transform="translate(22.667 13.298)">
          <g id="Grupo_1111877" data-name="Grupo 1111877">
            <path id="Trazado_902139" data-name="Trazado 902139" d="M211.6,138.319a.6.6,0,0,1-.333-.535v-.294a1.714,1.714,0,0,1-1.591.026v.268a.6.6,0,0,1-.333.535l-.074.037a1.35,1.35,0,0,0,2.4,0Z" transform="translate(-209.27 -137.49)" fill="#f9c1a8"/>
          </g>
        </g>
        <g id="Grupo_1111880" data-name="Grupo 1111880" transform="translate(25.566 10.465)">
          <g id="Grupo_1111879" data-name="Grupo 1111879">
            <path id="Trazado_902140" data-name="Trazado 902140" d="M236.154,111.33a.719.719,0,0,0-.111.009v1.307c0,.039,0,.077,0,.116a.72.72,0,1,0,.115-1.432Z" transform="translate(-236.039 -111.33)" fill="#f9c1a8"/>
          </g>
        </g>
        <g id="Grupo_1111882" data-name="Grupo 1111882" transform="translate(21.286 10.465)">
          <g id="Grupo_1111881" data-name="Grupo 1111881">
            <path id="Trazado_902141" data-name="Trazado 902141" d="M197.353,112.646v-1.307a.721.721,0,1,0,0,1.423C197.354,112.723,197.353,112.685,197.353,112.646Z" transform="translate(-196.521 -111.33)" fill="#f9c1a8"/>
          </g>
        </g>
        <g id="Grupo_1111885" data-name="Grupo 1111885" transform="translate(21.557 8.042)">
          <g id="Grupo_1111884" data-name="Grupo 1111884">
            <g id="Grupo_1111883" data-name="Grupo 1111883">
              <path id="Trazado_902142" data-name="Trazado 902142" d="M199.475,91.387a.719.719,0,0,1,.111.009v-.082h0a.092.092,0,0,1,.111-.089,1.872,1.872,0,0,0,1.874-.616.093.093,0,0,1,.138-.009,1.8,1.8,0,0,0,1.24.448.093.093,0,0,1,.089.091q0,.013,0,.027V91.4a.717.717,0,0,1,.611.193v-1.3a.989.989,0,0,0-.986-.986.976.976,0,0,0-.5.141.987.987,0,0,0-.846-.483h-.506a1.787,1.787,0,0,0-1.782,1.782v.8A.716.716,0,0,1,199.475,91.387Z" transform="translate(-199.026 -88.964)" fill="#414344"/>
            </g>
          </g>
        </g>
        <g id="Grupo_1111887" data-name="Grupo 1111887" transform="translate(21.847 9.38)">
          <g id="Grupo_1111886" data-name="Grupo 1111886">
            <path id="Trazado_902143" data-name="Trazado 902143" d="M203.7,105.71a2,2,0,0,1-2-2v-1.389a.363.363,0,0,1,.438-.355,1.593,1.593,0,0,0,1.606-.519h0a.364.364,0,0,1,.54-.034,1.538,1.538,0,0,0,1.059.371.363.363,0,0,1,.352.356v1.57A2,2,0,0,1,203.7,105.71Zm-1.456-3.177v1.18a1.456,1.456,0,0,0,2.911,0v-1.4a2.1,2.1,0,0,1-1.106-.392A2.119,2.119,0,0,1,202.241,102.533Zm-.215-.034h0Zm2.141-.712h0Z" transform="translate(-201.699 -101.312)"/>
          </g>
        </g>
        <g id="Grupo_1111890" data-name="Grupo 1111890" transform="translate(21.286 7.771)">
          <g id="Grupo_1111889" data-name="Grupo 1111889">
            <g id="Grupo_1111888" data-name="Grupo 1111888">
              <path id="Trazado_902144" data-name="Trazado 902144" d="M201.418,89.563a.271.271,0,0,1-.271-.271v-1.23a.712.712,0,0,0-1.08-.613.271.271,0,0,1-.372-.093.721.721,0,0,0-.613-.351h-.506a1.513,1.513,0,0,0-1.511,1.511v.759a.271.271,0,1,1-.542,0v-.759a2.055,2.055,0,0,1,2.053-2.053h.506a1.263,1.263,0,0,1,.93.415,1.243,1.243,0,0,1,.419-.073,1.258,1.258,0,0,1,1.257,1.257v1.23a.271.271,0,0,1-.271.271Z" transform="translate(-196.523 -86.463)"/>
            </g>
          </g>
        </g>
        <g id="Grupo_1111892" data-name="Grupo 1111892" transform="translate(23.045 11.983)">
          <g id="Grupo_1111891" data-name="Grupo 1111891">
            <path id="Trazado_902145" data-name="Trazado 902145" d="M213.584,126.184a.938.938,0,0,1-.778-.414.271.271,0,1,1,.449-.3.4.4,0,0,0,.658,0,.271.271,0,1,1,.449.3.937.937,0,0,1-.778.414Z" transform="translate(-212.759 -125.348)"/>
          </g>
        </g>
        <g id="Grupo_1111894" data-name="Grupo 1111894" transform="translate(20.01 13.109)">
          <g id="Grupo_1111893" data-name="Grupo 1111893">
            <path id="Trazado_902146" data-name="Trazado 902146" d="M192,140.186h-6.8a.46.46,0,0,1-.459-.486l.132-1.76a.946.946,0,0,1,.718-.865l1.313-.33.448-.221a.324.324,0,0,0,.182-.292v-.191a.271.271,0,1,1,.542,0v.191a.862.862,0,0,1-.484.778l-.474.234a.278.278,0,0,1-.054.02l-1.341.338a.408.408,0,0,0-.31.375l-.125,1.669h6.623l-.124-1.664a.41.41,0,0,0-.31-.38l-1.341-.338a.271.271,0,0,1-.054-.02l-.474-.234a.862.862,0,0,1-.484-.778v-.212a.271.271,0,1,1,.542,0v.212a.323.323,0,0,0,.182.292l.448.221,1.313.33a.948.948,0,0,1,.718.87l.131,1.75a.46.46,0,0,1-.459.491Z" transform="translate(-184.741 -135.748)"/>
          </g>
        </g>
        <g id="Grupo_1111896" data-name="Grupo 1111896" transform="translate(25.814 15.458)">
          <g id="Grupo_1111895" data-name="Grupo 1111895">
            <path id="Trazado_902147" data-name="Trazado 902147" d="M238.6,159.461a.271.271,0,0,1-.271-.271V157.7a.271.271,0,0,1,.542,0v1.488A.271.271,0,0,1,238.6,159.461Z" transform="translate(-238.325 -157.432)"/>
          </g>
        </g>
        <g id="Grupo_1111898" data-name="Grupo 1111898" transform="translate(21.383 15.458)">
          <g id="Grupo_1111897" data-name="Grupo 1111897">
            <path id="Trazado_902148" data-name="Trazado 902148" d="M197.688,159.461a.271.271,0,0,1-.271-.271V157.7a.271.271,0,1,1,.542,0v1.488A.271.271,0,0,1,197.688,159.461Z" transform="translate(-197.417 -157.432)"/>
          </g>
        </g>
        <g id="Grupo_1111903" data-name="Grupo 1111903" transform="translate(22.856 10.855)">
          <g id="Grupo_1111900" data-name="Grupo 1111900">
            <g id="Grupo_1111899" data-name="Grupo 1111899">
              <circle id="Elipse_12122" data-name="Elipse 12122" cx="0.325" cy="0.325" r="0.325"/>
            </g>
          </g>
          <g id="Grupo_1111902" data-name="Grupo 1111902" transform="translate(1.347)">
            <g id="Grupo_1111901" data-name="Grupo 1111901">
              <circle id="Elipse_12123" data-name="Elipse 12123" cx="0.325" cy="0.325" r="0.325"/>
            </g>
          </g>
        </g>
        <g id="Grupo_1111905" data-name="Grupo 1111905" transform="translate(22.411 13.918)">
          <g id="Grupo_1111904" data-name="Grupo 1111904">
            <path id="Trazado_902149" data-name="Trazado 902149" d="M208.37,144.467a1.625,1.625,0,0,1-1.425-.848.271.271,0,0,1,.475-.26,1.079,1.079,0,0,0,1.9,0,.271.271,0,1,1,.476.258A1.624,1.624,0,0,1,208.37,144.467Z" transform="translate(-206.912 -143.213)"/>
          </g>
        </g>
        <g id="Grupo_1111907" data-name="Grupo 1111907" transform="translate(25.345 10.194)">
          <g id="Grupo_1111906" data-name="Grupo 1111906">
            <path id="Trazado_902150" data-name="Trazado 902150" d="M234.332,110.815c-.032,0-.063,0-.093,0a.271.271,0,0,1,.055-.539l.038,0a.45.45,0,0,0,0-.9H234.3a.271.271,0,0,1-.038-.54l.069,0a.992.992,0,1,1,0,1.983Z" transform="translate(-233.996 -108.832)"/>
          </g>
        </g>
        <g id="Grupo_1111909" data-name="Grupo 1111909" transform="translate(21.015 10.194)">
          <g id="Grupo_1111908" data-name="Grupo 1111908">
            <path id="Trazado_902151" data-name="Trazado 902151" d="M195.013,110.813a.992.992,0,0,1,0-1.983l.066,0a.271.271,0,1,1-.036.54h-.03a.45.45,0,1,0,0,.9h.03a.271.271,0,0,1,.048.54C195.065,110.812,195.039,110.813,195.013,110.813Z" transform="translate(-194.021 -108.83)"/>
          </g>
        </g>
      </g>
    </g>
  </g>
</svg>
