<svg xmlns="http://www.w3.org/2000/svg" width="82" height="82" viewBox="0 0 82 82">
  <g id="Grupo_1112086" data-name="Grupo 1112086" transform="translate(2576 10250)">
    <circle id="Elipse_11497" data-name="Elipse 11497" cx="41" cy="41" r="41" transform="translate(-2576 -10250)" fill="#ff9b6a"/>
    <g id="internet-tablet-money-laptop-shopping_online" data-name="internet-tablet-money-laptop-shopping online" transform="translate(-2564 -10238)">
      <ellipse id="Elipse_12109" data-name="Elipse 12109" cx="11" cy="10.5" rx="11" ry="10.5" transform="translate(18 3)" fill="#ffcd00"/>
      <path id="Trazado_901998" data-name="Trazado 901998" d="M42.6,13.8A10.789,10.789,0,0,1,30,24.447,10.8,10.8,0,0,0,30,3.153,10.789,10.789,0,0,1,42.6,13.8Z" transform="translate(-2.8 -0.1)" fill="#ddb200"/>
      <path id="Trazado_901999" data-name="Trazado 901999" d="M21,57v1.8a1.805,1.805,0,0,1-1.8,1.8H4.8A1.805,1.805,0,0,1,3,58.8V57Z" transform="translate(-0.1 -5.5)" fill="#c6c5ca"/>
      <path id="Trazado_902000" data-name="Trazado 902000" d="M21,34.8V54.6H3V34.8A1.805,1.805,0,0,1,4.8,33H19.2A1.805,1.805,0,0,1,21,34.8Z" transform="translate(-0.1 -3.1)" fill="#46f8ff"/>
      <path id="Trazado_902001" data-name="Trazado 902001" d="M22.4,57v1.8a1.805,1.805,0,0,1-1.8,1.8H17a1.805,1.805,0,0,0,1.8-1.8V57Z" transform="translate(-1.5 -5.5)" fill="#898890"/>
      <path id="Trazado_902002" data-name="Trazado 902002" d="M22.4,34.8V54.6H18.8V34.8A1.805,1.805,0,0,0,17,33h3.6a1.805,1.805,0,0,1,1.8,1.8Z" transform="translate(-1.5 -3.1)" fill="#00b6bd"/>
      <path id="Trazado_902003" data-name="Trazado 902003" d="M57.6,55v3.6a1.805,1.805,0,0,1-1.8,1.8h-27A1.805,1.805,0,0,1,27,58.6V55H37.8a1.805,1.805,0,0,0,1.8,1.8H45A1.805,1.805,0,0,0,46.8,55Z" transform="translate(-2.5 -5.3)" fill="#898890"/>
      <path id="Trazado_902004" data-name="Trazado 902004" d="M56,35.6V52.7H47a1.805,1.805,0,0,1-1.8,1.8H39.8A1.805,1.805,0,0,1,38,52.7H29V35.6A3.6,3.6,0,0,1,32.6,32H52.4A3.6,3.6,0,0,1,56,35.6Z" transform="translate(-2.7 -3)" fill="#ff7956"/>
      <path id="Trazado_902005" data-name="Trazado 902005" d="M60.4,55v3.6a1.805,1.805,0,0,1-1.8,1.8H55a1.805,1.805,0,0,0,1.8-1.8V55Z" transform="translate(-5.3 -5.3)" fill="#57565c"/>
      <path id="Trazado_902006" data-name="Trazado 902006" d="M58.2,35.6V52.7H54.6V35.6A3.6,3.6,0,0,0,51,32h3.6A3.6,3.6,0,0,1,58.2,35.6Z" transform="translate(-4.9 -3)" fill="#ff5023"/>
      <path id="Trazado_902007" data-name="Trazado 902007" d="M52.8,37.8V48.6H33V37.8A1.805,1.805,0,0,1,34.8,36H51A1.805,1.805,0,0,1,52.8,37.8Z" transform="translate(-3.1 -3.4)" fill="#46f8ff"/>
      <path id="Trazado_902008" data-name="Trazado 902008" d="M54.4,37.8V48.6H50.8V37.8A1.805,1.805,0,0,0,49,36h3.6A1.805,1.805,0,0,1,54.4,37.8Z" transform="translate(-4.7 -3.4)" fill="#00b6bd"/>
      <path id="Trazado_902009" data-name="Trazado 902009" d="M57.5,51.7h-.9V35.5A4.5,4.5,0,0,0,52.1,31H32.3a4.5,4.5,0,0,0-4.5,4.5V51.7h-.9a.9.9,0,0,0-.9.9v3.6a2.708,2.708,0,0,0,2.7,2.7h27a2.708,2.708,0,0,0,2.7-2.7V52.6A.9.9,0,0,0,57.5,51.7ZM29.6,35.5a2.708,2.708,0,0,1,2.7-2.7H52.1a2.708,2.708,0,0,1,2.7,2.7V51.7H46.7a.9.9,0,0,0-.9.9.9.9,0,0,1-.9.9H39.5a.9.9,0,0,1-.9-.9.9.9,0,0,0-.9-.9H29.6Zm27,20.7a.9.9,0,0,1-.9.9h-27a.9.9,0,0,1-.9-.9V53.5h9.153A2.713,2.713,0,0,0,39.5,55.3h5.4a2.713,2.713,0,0,0,2.547-1.8H56.6Z" transform="translate(-2.4 -2.9)"/>
      <path id="Trazado_902010" data-name="Trazado 902010" d="M42,53h3.6v1.8H42Z" transform="translate(-4 -5.1)"/>
      <path id="Trazado_902011" data-name="Trazado 902011" d="M30,57h1.8v1.8H30Z" transform="translate(-2.8 -5.5)"/>
      <path id="Trazado_902012" data-name="Trazado 902012" d="M34,57h1.8v1.8H34Z" transform="translate(-3.2 -5.5)"/>
      <path id="Trazado_902013" data-name="Trazado 902013" d="M52,57h1.8v1.8H52Z" transform="translate(-5 -5.5)"/>
      <path id="Trazado_902014" data-name="Trazado 902014" d="M56,57h1.8v1.8H56Z" transform="translate(-5.4 -5.5)"/>
      <path id="Trazado_902015" data-name="Trazado 902015" d="M53.6,48.5V37.7A2.7,2.7,0,0,0,50.9,35H34.7A2.7,2.7,0,0,0,32,37.7V48.5a.9.9,0,0,0,.9.9H52.7A.9.9,0,0,0,53.6,48.5Zm-1.8-.9h-18V37.7a.9.9,0,0,1,.9-.9H50.9a.9.9,0,0,1,.9.9Z" transform="translate(-3 -3.3)"/>
      <path id="Trazado_902016" data-name="Trazado 902016" d="M19.1,32H4.7A2.708,2.708,0,0,0,2,34.7V56.3A2.708,2.708,0,0,0,4.7,59H19.1a2.708,2.708,0,0,0,2.7-2.7V34.7A2.708,2.708,0,0,0,19.1,32ZM20,56.3a.9.9,0,0,1-.9.9H4.7a.9.9,0,0,1-.9-.9v-.9H20Zm0-2.7H3.8V34.7a.9.9,0,0,1,.9-.9H19.1a.9.9,0,0,1,.9.9Z" transform="translate(0 -3)"/>
      <path id="Trazado_902017" data-name="Trazado 902017" d="M7.8,37.8H9.6V36H6.9a.9.9,0,0,0-.9.9v2.7H7.8Z" transform="translate(-0.4 -3.4)"/>
      <path id="Trazado_902018" data-name="Trazado 902018" d="M6,42H7.8v1.8H6Z" transform="translate(-0.4 -4)"/>
      <path id="Trazado_902019" data-name="Trazado 902019" d="M51,14h1.8v1.8H51Z" transform="translate(-4.9 -1.2)"/>
      <path id="Trazado_902020" data-name="Trazado 902020" d="M55,14h1.8v1.8H55Z" transform="translate(-5.3 -1.2)"/>
      <path id="Trazado_902021" data-name="Trazado 902021" d="M55,18h1.8v1.8H55Z" transform="translate(-5.3 -1.6)"/>
      <path id="Trazado_902022" data-name="Trazado 902022" d="M55,22h1.8v1.8H55Z" transform="translate(-5.3 -2)"/>
      <path id="Trazado_902023" data-name="Trazado 902023" d="M55,26h1.8v1.8H55Z" transform="translate(-5.3 -2.4)"/>
      <path id="Trazado_902024" data-name="Trazado 902024" d="M11,14h1.8v1.8H11Z" transform="translate(-0.9 -1.2)"/>
      <path id="Trazado_902025" data-name="Trazado 902025" d="M7,14H8.8v1.8H7Z" transform="translate(-0.5 -1.2)"/>
      <path id="Trazado_902026" data-name="Trazado 902026" d="M7,18H8.8v1.8H7Z" transform="translate(-0.5 -1.6)"/>
      <path id="Trazado_902027" data-name="Trazado 902027" d="M7,22H8.8v1.8H7Z" transform="translate(-0.5 -2)"/>
      <path id="Trazado_902028" data-name="Trazado 902028" d="M7,26H8.8v1.8H7Z" transform="translate(-0.5 -2.4)"/>
      <path id="Trazado_902029" data-name="Trazado 902029" d="M4,2H5.8V3.8H4Z" transform="translate(-0.2)"/>
      <path id="Trazado_902030" data-name="Trazado 902030" d="M2,4H3.8V5.8H2Z" transform="translate(0 -0.2)"/>
      <path id="Trazado_902031" data-name="Trazado 902031" d="M4,6H5.8V7.8H4Z" transform="translate(-0.2 -0.4)"/>
      <path id="Trazado_902032" data-name="Trazado 902032" d="M6,4H7.8V5.8H6Z" transform="translate(-0.4 -0.2)"/>
      <path id="Trazado_902033" data-name="Trazado 902033" d="M12,4h1.8V5.8H12Z" transform="translate(-1 -0.2)"/>
      <path id="Trazado_902034" data-name="Trazado 902034" d="M10,6h1.8V7.8H10Z" transform="translate(-0.8 -0.4)"/>
      <path id="Trazado_902035" data-name="Trazado 902035" d="M12,8h1.8V9.8H12Z" transform="translate(-1 -0.6)"/>
      <path id="Trazado_902036" data-name="Trazado 902036" d="M14,6h1.8V7.8H14Z" transform="translate(-1.2 -0.4)"/>
      <path id="Trazado_902037" data-name="Trazado 902037" d="M58,2h1.8V3.8H58Z" transform="translate(-5.6)"/>
      <path id="Trazado_902038" data-name="Trazado 902038" d="M60,4h1.8V5.8H60Z" transform="translate(-5.8 -0.2)"/>
      <path id="Trazado_902039" data-name="Trazado 902039" d="M58,6h1.8V7.8H58Z" transform="translate(-5.6 -0.4)"/>
      <path id="Trazado_902040" data-name="Trazado 902040" d="M56,4h1.8V5.8H56Z" transform="translate(-5.4 -0.2)"/>
      <path id="Trazado_902041" data-name="Trazado 902041" d="M50,4h1.8V5.8H50Z" transform="translate(-4.8 -0.2)"/>
      <path id="Trazado_902042" data-name="Trazado 902042" d="M52,6h1.8V7.8H52Z" transform="translate(-5 -0.4)"/>
      <path id="Trazado_902043" data-name="Trazado 902043" d="M50,8h1.8V9.8H50Z" transform="translate(-4.8 -0.6)"/>
      <path id="Trazado_902044" data-name="Trazado 902044" d="M31.6,18.6a1.8,1.8,0,0,1-1.8-1.8H28a3.6,3.6,0,0,0,2.7,3.472V22.2h1.8V20.272a3.593,3.593,0,0,0-.9-7.072,1.8,1.8,0,1,1,1.8-1.8h1.8a3.6,3.6,0,0,0-2.7-3.472V6H30.7V7.928A3.593,3.593,0,0,0,31.6,15a1.8,1.8,0,1,1,0,3.6Z" transform="translate(-2.6 -0.4)"/>
      <path id="Trazado_902045" data-name="Trazado 902045" d="M30.7,25.4A11.7,11.7,0,1,0,19,13.7,11.7,11.7,0,0,0,30.7,25.4Zm0-21.6a9.9,9.9,0,1,1-9.9,9.9,9.9,9.9,0,0,1,9.9-9.9Z" transform="translate(-1.7 0)"/>
      <path id="Trazado_902046" data-name="Trazado 902046" d="M48,6h1.8V7.8H48Z" transform="translate(-4.6 -0.4)"/>
    </g>
  </g>
</svg>
