<svg xmlns="http://www.w3.org/2000/svg" width="39.051" height="36.013" viewBox="0 0 39.051 36.013">
  <g id="Grupo_1112054" data-name="Grupo 1112054" transform="translate(-195 -2164.867)">
    <g id="Rectángulo_405076" data-name="Rectángulo 405076" transform="translate(195 2164.867)" fill="#fece2f" stroke="#faedc1" stroke-width="3">
      <rect width="39.051" height="36.013" rx="12" stroke="none"/>
      <rect x="1.5" y="1.5" width="36.051" height="33.013" rx="10.5" fill="none"/>
    </g>
    <g id="Grupo_1111938" data-name="Grupo 1111938" transform="translate(202.637 2171.201)">
      <g id="Grupo_1111913" data-name="Grupo 1111913" transform="translate(0.341 0.341)">
        <g id="Grupo_1111911" data-name="Grupo 1111911">
          <path id="Trazado_902152" data-name="Trazado 902152" d="M8.494,7.5h7.941a.994.994,0,0,1,.994.994v6.561a.994.994,0,0,1-.994.994H14.487v1.472L12.6,16.05H8.494a.994.994,0,0,1-.994-.994V8.494A.994.994,0,0,1,8.494,7.5Z" transform="translate(-7.5 -7.5)" fill="#f4fbff"/>
        </g>
        <g id="Grupo_1111912" data-name="Grupo 1111912" transform="translate(8.322 0.874)">
          <path id="Trazado_902153" data-name="Trazado 902153" d="M191.008,30.74a1.835,1.835,0,0,0-.644,1.4v1.471a1.827,1.827,0,0,0,.174.781h.439a.994.994,0,0,0,.994-.994V26.832a1,1,0,0,0-.008-.12,4.574,4.574,0,0,0-.956,2.8Z" transform="translate(-190.364 -26.712)" fill="#dfeaef"/>
        </g>
      </g>
      <g id="Grupo_1111929" data-name="Grupo 1111929" transform="translate(7.329 0.341)">
        <g id="Grupo_1111914" data-name="Grupo 1111914" transform="translate(2.715 8.642)">
          <path id="Trazado_902154" data-name="Trazado 902154" d="M220.7,197.411h10.2v6.344h-10.2Z" transform="translate(-220.695 -197.411)" fill="#934d36"/>
        </g>
        <g id="Grupo_1111915" data-name="Grupo 1111915" transform="translate(0 13.331)">
          <path id="Trazado_902155" data-name="Trazado 902155" d="M170.469,300.447l3.817,1.018a3.218,3.218,0,0,1,2.389,3.109v5.159h-15.63v-5.159a3.218,3.218,0,0,1,2.389-3.109l3.817-1.018Z" transform="translate(-161.045 -300.447)" fill="#d3effb"/>
        </g>
        <g id="Grupo_1111917" data-name="Grupo 1111917" transform="translate(7.815 13.331)">
          <g id="Grupo_1111916" data-name="Grupo 1111916">
            <path id="Trazado_902156" data-name="Trazado 902156" d="M332.772,302.195l.826,1.7a.637.637,0,0,0,1.169-.052l1.133-2.993-1.519-.405Z" transform="translate(-332.772 -300.448)" fill="#f4fbff"/>
          </g>
        </g>
        <g id="Grupo_1111919" data-name="Grupo 1111919" transform="translate(4.687 13.331)">
          <g id="Grupo_1111918" data-name="Grupo 1111918">
            <path id="Trazado_902157" data-name="Trazado 902157" d="M267.159,302.195l-.826,1.7a.637.637,0,0,1-1.169-.052l-1.133-2.993,1.519-.405Z" transform="translate(-264.031 -300.448)" fill="#f4fbff"/>
          </g>
        </g>
        <g id="Grupo_1111920" data-name="Grupo 1111920" transform="translate(13.438 14.409)">
          <path id="Trazado_902158" data-name="Trazado 902158" d="M456.345,324.137a3.214,3.214,0,0,1,.766,2.084v6.124h1.425v-5.159A3.218,3.218,0,0,0,456.345,324.137Z" transform="translate(-456.345 -324.137)" fill="#b1e4f9"/>
        </g>
        <g id="Grupo_1111921" data-name="Grupo 1111921" transform="translate(6.206 11.355)">
          <path id="Trazado_902159" data-name="Trazado 902159" d="M297.417,259.125V257.01h3.218v2.115a1.609,1.609,0,1,1-3.218,0Z" transform="translate(-297.417 -257.01)" fill="#fcd0a3"/>
        </g>
        <g id="Grupo_1111922" data-name="Grupo 1111922" transform="translate(6.206 11.355)">
          <path id="Trazado_902160" data-name="Trazado 902160" d="M297.417,258.056a4.6,4.6,0,0,0,3.218,0V257.01h-3.218v1.046Z" transform="translate(-297.417 -257.01)" fill="#ffb983"/>
        </g>
        <g id="Grupo_1111923" data-name="Grupo 1111923" transform="translate(4.137 4.275)">
          <path id="Trazado_902161" data-name="Trazado 902161" d="M251.959,101.445v3.82a3.678,3.678,0,0,0,7.355,0v-3.82Z" transform="translate(-251.959 -101.445)" fill="#fcd0a3"/>
        </g>
        <g id="Grupo_1111924" data-name="Grupo 1111924" transform="translate(10.057 4.275)">
          <path id="Trazado_902162" data-name="Trazado 902162" d="M383.482,105.265v-3.82h-.873v4.781a3.659,3.659,0,0,1-.562,1.953A3.671,3.671,0,0,0,383.482,105.265Z" transform="translate(-382.047 -101.445)" fill="#ffb983"/>
        </g>
        <g id="Grupo_1111925" data-name="Grupo 1111925" transform="translate(2.942)">
          <path id="Trazado_902163" data-name="Trazado 902163" d="M225.7,12.1a4.6,4.6,0,0,1,4.6-4.6h1.333A1.379,1.379,0,0,1,233,8.879h.6a1.839,1.839,0,0,1,1.839,1.839v3.815h-1.2L233,12.143l-.657.657a1.839,1.839,0,0,1-1.3.539h-1.394a3.678,3.678,0,0,0-2.363.86l-.4.335h-1.2V12.1Z" transform="translate(-225.695 -7.5)" fill="#aa593d"/>
        </g>
        <g id="Grupo_1111926" data-name="Grupo 1111926" transform="translate(11.301 1.435)">
          <path id="Trazado_902164" data-name="Trazado 902164" d="M409.375,39.038a1.83,1.83,0,0,1,.192.817V44.59h-.023l.023.045,1.2-.046v-3.77A1.839,1.839,0,0,0,409.375,39.038Z" transform="translate(-409.375 -39.038)" fill="#934d36"/>
        </g>
        <g id="Grupo_1111927" data-name="Grupo 1111927" transform="translate(11.492 5.378)">
          <path id="Trazado_902165" data-name="Trazado 902165" d="M414.505,129h-.919v-3.31h.919a.919.919,0,0,1,.919.919v1.471A.919.919,0,0,1,414.505,129Z" transform="translate(-413.586 -125.689)" fill="#e28086"/>
        </g>
        <g id="Grupo_1111928" data-name="Grupo 1111928" transform="translate(2.298 5.378)">
          <path id="Trazado_902166" data-name="Trazado 902166" d="M212.472,129h.919v-3.31h-.919a.919.919,0,0,0-.919.919v1.471A.919.919,0,0,0,212.472,129Z" transform="translate(-211.553 -125.689)" fill="#e28086"/>
        </g>
      </g>
      <g id="Grupo_1111934" data-name="Grupo 1111934" transform="translate(0.341 14.224)">
        <g id="Grupo_1111930" data-name="Grupo 1111930">
          <path id="Trazado_902167" data-name="Trazado 902167" d="M18.073,319.464H7.5v-5.976a.919.919,0,0,1,.919-.919h8.734a.919.919,0,0,1,.919.919Z" transform="translate(-7.5 -312.569)" fill="#a0aab7"/>
        </g>
        <g id="Grupo_1111931" data-name="Grupo 1111931" transform="translate(4.367 2.528)">
          <circle id="Elipse_12124" data-name="Elipse 12124" cx="0.919" cy="0.919" r="0.919" fill="#f4fbff"/>
        </g>
        <g id="Grupo_1111932" data-name="Grupo 1111932" transform="translate(0 6.895)">
          <path id="Trazado_902168" data-name="Trazado 902168" d="M7.5,464.094H18.992v.919a.919.919,0,0,1-.919.919H8.419a.919.919,0,0,1-.919-.919Z" transform="translate(-7.5 -464.094)" fill="#808b95"/>
        </g>
        <g id="Grupo_1111933" data-name="Grupo 1111933" transform="translate(9.654 6.895)">
          <path id="Trazado_902169" data-name="Trazado 902169" d="M220.553,464.094v.919a.919.919,0,0,1-.919.919h.919a.919.919,0,0,0,.919-.919v-.919Z" transform="translate(-219.634 -464.094)" fill="#5e6b75"/>
        </g>
      </g>
      <g id="Grupo_1111936" data-name="Grupo 1111936" transform="translate(2.57 1.858)">
        <g id="Grupo_1111935" data-name="Grupo 1111935">
          <circle id="Elipse_12125" data-name="Elipse 12125" cx="2.758" cy="2.758" r="2.758" fill="#f6e266"/>
        </g>
      </g>
      <g id="Grupo_1111937" data-name="Grupo 1111937" transform="translate(0 0)">
        <path id="Trazado_902170" data-name="Trazado 902170" d="M22.958,18.913a.341.341,0,0,0,.341-.341V17.8a3.563,3.563,0,0,0-2.642-3.439l-.072-.019v-5.3A1.258,1.258,0,0,0,21,8.11V6.639a1.261,1.261,0,0,0-.644-1.1V3.559a2.183,2.183,0,0,0-2.18-2.18h-.29A1.723,1.723,0,0,0,16.2,0H14.868a4.941,4.941,0,0,0-4.256,2.436v-1.1A1.337,1.337,0,0,0,9.276,0H3.47a.341.341,0,0,0,0,.683H9.276a.654.654,0,0,1,.653.653v4.2a1.261,1.261,0,0,0-.644,1.1V8.11a1.255,1.255,0,0,0,.077.433.668.668,0,0,1-.086.006H7.329a.341.341,0,0,0-.341.341v.772L5.655,8.622a.341.341,0,0,0-.21-.072H1.336A.654.654,0,0,1,.683,7.9V1.336A.654.654,0,0,1,1.336.683h.54a.341.341,0,0,0,0-.683h-.54A1.337,1.337,0,0,0,0,1.336V7.9A1.337,1.337,0,0,0,1.336,9.232H5.327l1.791,1.4a.341.341,0,0,0,.551-.269V9.232H9.276a1.335,1.335,0,0,0,.425-.07v4.72H1.261A1.262,1.262,0,0,0,0,15.144v2.478a.341.341,0,1,0,.683,0V15.144a.579.579,0,0,1,.578-.578H9.995a.579.579,0,0,1,.578.578v5.635H.683V19.215a.341.341,0,0,0-.683,0v2.824A1.262,1.262,0,0,0,1.261,23.3h21.7a.341.341,0,0,0,.341-.341V20.166a.341.341,0,0,0-.683,0v2.451H20.266v-1.5a.341.341,0,1,0-.683,0v1.5H12.034a1.253,1.253,0,0,0,.141-.578V21.12a.341.341,0,0,0-.341-.341h-.578V15.144a1.253,1.253,0,0,0-.1-.485l.647-.172,1.024,2.7a.965.965,0,0,0,.871.631h.046a.964.964,0,0,0,.878-.552l.519-1.07.519,1.07a.964.964,0,0,0,.878.552h.046a.965.965,0,0,0,.871-.631l1.024-2.7,2,.533A2.88,2.88,0,0,1,22.617,17.8v.772a.341.341,0,0,0,.341.341ZM11.492,22.039a.579.579,0,0,1-.578.578H1.261a.579.579,0,0,1-.578-.578v-.578h10.81Zm8.41-7.88-2.809-.749V11.949a4.049,4.049,0,0,0,1.339-1.207.8.8,0,0,0,.73-.8V9.371h.578A1.261,1.261,0,0,0,19.9,9.36Zm-4.759.919a1.269,1.269,0,0,1-1.268-1.268V12.25a4.021,4.021,0,0,0,2.535,0v1.56A1.269,1.269,0,0,1,15.144,15.078Zm-1.95-1.668-2.52.672a1.256,1.256,0,0,0-.289-.137V9.36a1.27,1.27,0,0,0,.162.011h.688a4.034,4.034,0,0,0,1.959,2.578ZM9.968,6.639a.579.579,0,0,1,.578-.578h.578V8.688h-.578a.579.579,0,0,1-.578-.578Zm7.523-1.084.988,1.9v.978a3.315,3.315,0,0,1-.425,1.627h-2.32a.683.683,0,1,0,0,.683h1.813a3.334,3.334,0,0,1-5.74-2.31v-.9l.278-.233a3.342,3.342,0,0,1,2.144-.78h1.394a2.166,2.166,0,0,0,1.542-.639Zm2.249.506a.579.579,0,0,1,.578.578V8.11a.579.579,0,0,1-.578.578h-.578V6.061Zm-.065-2.5V5.378h-.854a.341.341,0,0,0-.341.341v.257L17.921,4.9V2.062h.256a1.5,1.5,0,0,1,1.5,1.5ZM14.868.683H16.2A1.039,1.039,0,0,1,17.239,1.72V4.843l-.557.557a1.488,1.488,0,0,1-1.059.439H14.229a4.026,4.026,0,0,0-2.422.812V5.72a.341.341,0,0,0-.341-.341h-.854v-.44A4.26,4.26,0,0,1,14.868.683Zm-.857,16.291a.3.3,0,0,1-.543-.024l-1-2.639.748-.2a1.956,1.956,0,0,0,1.416,1.582Zm2.809-.024a.3.3,0,0,1-.543.024l-.621-1.282a1.956,1.956,0,0,0,1.416-1.582l.748.2Z" transform="translate(0 0)"/>
        <path id="Trazado_902171" data-name="Trazado 902171" d="M98.487,361.889a1.261,1.261,0,1,0-1.261,1.261A1.262,1.262,0,0,0,98.487,361.889Zm-1.839,0a.578.578,0,1,1,.578.578A.579.579,0,0,1,96.649,361.889Z" transform="translate(-91.599 -344.217)"/>
        <path id="Trazado_902172" data-name="Trazado 902172" d="M88.108,114.793a.341.341,0,0,0-.483-.482,1.219,1.219,0,0,1-1.726,0,.341.341,0,0,0-.483.482,1.9,1.9,0,0,0,2.692,0Z" transform="translate(-81.434 -109.014)"/>
        <path id="Trazado_902173" data-name="Trazado 902173" d="M55.18,36.427a3.1,3.1,0,1,0-3.1,3.1A3.1,3.1,0,0,0,55.18,36.427Zm-5.516,0a2.417,2.417,0,1,1,2.417,2.417A2.42,2.42,0,0,1,49.664,36.427Z" transform="translate(-46.752 -31.811)"/>
        <circle id="Elipse_12126" data-name="Elipse 12126" cx="0.46" cy="0.46" r="0.46" transform="translate(3.811 3.467)"/>
        <circle id="Elipse_12127" data-name="Elipse 12127" cx="0.46" cy="0.46" r="0.46" transform="translate(5.927 3.467)"/>
      </g>
    </g>
  </g>
</svg>
