<svg xmlns="http://www.w3.org/2000/svg" width="132" height="132" viewBox="0 0 132 132">
  <g id="Grupo_1112049" data-name="Grupo 1112049" transform="translate(-317.355 -3459)">
    <g id="Grupo_1099402" data-name="Grupo 1099402" transform="translate(-629.426 -981)">
      <rect id="Rectángulo_401228" data-name="Rectángulo 401228" width="132" height="132" rx="14" transform="translate(946.781 4440)" fill="#ff9b6a"/>
    </g>
    <g id="Grupo_1112046" data-name="Grupo 1112046" transform="translate(341.355 3483)">
      <g id="Grupo_1112044" data-name="Grupo 1112044" transform="translate(1.186 1.186)">
        <g id="Grupo_1112043" data-name="Grupo 1112043">
          <g id="Grupo_1112042" data-name="Grupo 1112042">
            <g id="Grupo_1112041" data-name="Grupo 1112041">
              <g id="Grupo_1112040" data-name="Grupo 1112040">
                <path id="Trazado_902336" data-name="Trazado 902336" d="M352.992,59.192V77.983l-10.535,1.95-16.88-1.95V59.192L337.6,56.885Z" transform="translate(-273.348 -48.738)" fill="#98d5b9"/>
                <g id="Grupo_1112034" data-name="Grupo 1112034" transform="translate(60.08 14.897)">
                  <g id="Grupo_1112033" data-name="Grupo 1112033" transform="translate(0 7.671)">
                    <path id="Trazado_902337" data-name="Trazado 902337" d="M389.439,151.465l-8.066,1.825-7.944-1.825.767-1.853a3.329,3.329,0,0,1,2.787-2.091l1.657-.157a.493.493,0,0,0,.444-.442l.21-2.134h4.157l.211,2.134a.493.493,0,0,0,.444.442l1.657.157a3.331,3.331,0,0,1,2.787,2.091Z" transform="translate(-373.429 -144.788)" fill="#54ba8b"/>
                  </g>
                  <path id="Trazado_902338" data-name="Trazado 902338" d="M402.958,106.545a2.218,2.218,0,0,0,1.96,0,4.5,4.5,0,0,0,2.492-3.6l.1-.968a3.589,3.589,0,1,0-7.142,0l.1.968A4.516,4.516,0,0,0,402.958,106.545Z" transform="translate(-395.93 -98.029)" fill="#7acaa6"/>
                </g>
                <path id="Trazado_902339" data-name="Trazado 902339" d="M352.992,185.483v18.791l-11.559,1.8-15.856-1.8V185.483Z" transform="translate(-273.348 -156.238)" fill="#fe93bb"/>
                <g id="Grupo_1112036" data-name="Grupo 1112036" transform="translate(60.08 33.688)">
                  <g id="Grupo_1112035" data-name="Grupo 1112035" transform="translate(0 7.671)">
                    <path id="Trazado_902340" data-name="Trazado 902340" d="M389.439,266l-8.005,1.8-8.005-1.8.767-1.853a3.329,3.329,0,0,1,2.787-2.091l1.657-.157a.493.493,0,0,0,.444-.442l.21-2.134h4.157l.211,2.134a.493.493,0,0,0,.444.442l1.657.157a3.331,3.331,0,0,1,2.787,2.091Z" transform="translate(-373.428 -259.323)" fill="#fe5694"/>
                  </g>
                  <path id="Trazado_902341" data-name="Trazado 902341" d="M402.584,221.081a2.218,2.218,0,0,0,1.96,0,4.5,4.5,0,0,0,2.492-3.6l.1-.968a3.589,3.589,0,1,0-7.142,0l.1.968A4.516,4.516,0,0,0,402.584,221.081Z" transform="translate(-395.617 -212.565)" fill="#fe76a8"/>
                </g>
                <path id="Trazado_902342" data-name="Trazado 902342" d="M352.992,300.018v18.791l-12.575,2.4-14.84-2.4V300.018Z" transform="translate(-273.348 -251.982)" fill="#ffe177"/>
                <path id="Trazado_902343" data-name="Trazado 902343" d="M61.646,59.192v56.373l-29.457,2.951L7.227,115.565V59.192l30.109-2.307Z" transform="translate(-7.227 -48.738)" fill="#f2fbff"/>
                <g id="Grupo_1112037" data-name="Grupo 1112037" transform="translate(6.521 14.897)">
                  <path id="Trazado_902344" data-name="Trazado 902344" d="M87.706,351.273l-.082,14.235a.827.827,0,0,1-.826.828l-5.045.867-1.112-.861-1.114.861H68.777l-1.112-.861-1.114.861H55.8l-1.112-.861-1.114.861H47.717a.743.743,0,0,1-.742-.742V351.13a6.968,6.968,0,0,1,5.465-6.8l10.154-2.243,5.069,5.562,5.069-5.562,5.644,1.247h0L82.34,344.6a6.532,6.532,0,0,1,3.831,2.313A6.966,6.966,0,0,1,87.706,351.273Z" transform="translate(-46.975 -302.043)" fill="#a2aee6"/>
                  <path id="Trazado_902345" data-name="Trazado 902345" d="M248.347,357.484v15.245a.827.827,0,0,1-.826.828h-5.772l-.765-1.964v-4.516l.765-3.841.078-4.994a12.225,12.225,0,0,0-3.455-8.557l4.51,1a6.966,6.966,0,0,1,5.465,6.8Z" transform="translate(-206.971 -308.396)" fill="#8795de"/>
                  <path id="Trazado_902346" data-name="Trazado 902346" d="M109.242,111.829a10.913,10.913,0,0,1-.337,2.494,12.406,12.406,0,0,1-.409,1.909l-.348.458a2.432,2.432,0,0,0-1.255-.352l-1.985-.3-.331-.448a2.127,2.127,0,0,0-2.127-2.127H98.335a2.635,2.635,0,0,1-1.121-.275c-.017,0-.5.013-.519.007a6.05,6.05,0,0,1-.574,1.181,8.916,8.916,0,0,1-1.042.827,6.906,6.906,0,0,1-4.506,1.662h-8.81c-.423,0-.488-.715-.83-.519a13.983,13.983,0,0,1-1.169-4.817c0-7.458,6.855-13.5,15.309-13.5,6.211,0,14.169,6.343,14.169,13.8Z" transform="translate(-74.385 -98.028)" fill="#918291"/>
                  <path id="Trazado_902347" data-name="Trazado 902347" d="M188.383,111.534a10.913,10.913,0,0,1-.337,2.494c-.2.844-.757,2.367-.757,2.367l-5.271.962.891-2.591v-4.961c0-8.413-9.833-11.776-9.833-11.776C181.529,98.03,188.383,104.076,188.383,111.534Z" transform="translate(-152.387 -98.03)" fill="#7a6d79"/>
                  <path id="Trazado_902348" data-name="Trazado 902348" d="M152.316,284.658v9.42l-5.068,5.562-5.07-5.562v-9.42Z" transform="translate(-126.56 -254.039)" fill="#ffb09e"/>
                  <path id="Trazado_902349" data-name="Trazado 902349" d="M107.933,207.822a2.308,2.308,0,0,1,1.256.353,2.377,2.377,0,0,1,1.094,2v1.246a4.453,4.453,0,0,1-4.453,4.453H84.1a4.453,4.453,0,0,1-4.453-4.453v-1.246a2.347,2.347,0,0,1,1.189-2.042,3.066,3.066,0,0,1,1.339-.307h2.967l7.978,2.54,11.532-2.54Z" transform="translate(-74.287 -189.809)" fill="#ffb09e"/>
                  <path id="Trazado_902350" data-name="Trazado 902350" d="M113.722,336.536l-5.938-5.378,1.282-2.347a2.472,2.472,0,0,1,4.139-.31l5.292,6.973-3.207,1.333A1.485,1.485,0,0,1,113.722,336.536Z" transform="translate(-97.808 -289.871)" fill="#918291"/>
                  <path id="Trazado_902351" data-name="Trazado 902351" d="M177.848,336.536l5.939-5.377L182.5,328.81a2.472,2.472,0,0,0-4.139-.31l-5.292,6.973,3.207,1.333A1.485,1.485,0,0,0,177.848,336.536Z" transform="translate(-152.386 -289.872)" fill="#918291"/>
                  <path id="Trazado_902352" data-name="Trazado 902352" d="M130.677,185.719h-4.114a5.14,5.14,0,0,1-1.588-.25l-.051-.018a6.945,6.945,0,0,1-6.122,3.67h-5.665v6.041a9.251,9.251,0,0,0,3.567,7.3l2.395,1.865a6.3,6.3,0,0,0,7.744,0l2.395-1.865a9.252,9.252,0,0,0,3.567-7.3v-7.318A2.127,2.127,0,0,0,130.677,185.719Z" transform="translate(-102.282 -171.108)" fill="#ffcebf"/>
                </g>
                <g id="Grupo_1112039" data-name="Grupo 1112039" transform="translate(60.08 52.479)">
                  <g id="Grupo_1112038" data-name="Grupo 1112038" transform="translate(0 7.671)">
                    <path id="Trazado_902353" data-name="Trazado 902353" d="M389.439,380.536l-7.166,2.951-8.844-2.951.767-1.853a3.329,3.329,0,0,1,2.787-2.091l1.657-.157a.493.493,0,0,0,.444-.442l.21-2.134h4.157l.211,2.134a.493.493,0,0,0,.444.442l1.657.157a3.331,3.331,0,0,1,2.787,2.091Z" transform="translate(-373.429 -373.859)" fill="#ffc344"/>
                  </g>
                  <path id="Trazado_902354" data-name="Trazado 902354" d="M402.584,335.617a2.218,2.218,0,0,0,1.96,0,4.5,4.5,0,0,0,2.492-3.6l.1-.968a3.589,3.589,0,1,0-7.142,0l.1.968A4.516,4.516,0,0,0,402.584,335.617Z" transform="translate(-395.617 -327.101)" fill="#ffd15b"/>
                </g>
                <path id="Trazado_902355" data-name="Trazado 902355" d="M88.856,10.1v7.583H7.227V10.1A2.779,2.779,0,0,1,9.906,7.227H86.177A2.779,2.779,0,0,1,88.856,10.1Z" transform="translate(-7.227 -7.227)" fill="#918291"/>
                <path id="Trazado_902356" data-name="Trazado 902356" d="M87.776,414.554l.186,11.423a2.779,2.779,0,0,1-2.679,2.871l-3.566.508H9.906a2.779,2.779,0,0,1-2.679-2.871V414.554Z" transform="translate(-7.227 -347.727)" fill="#d8ecfe"/>
                <path id="Trazado_902357" data-name="Trazado 902357" d="M476.554,59.192V77.983l-2.769,1.394-2.769-1.394V59.192l2.769-2.307Z" transform="translate(-394.926 -48.738)" fill="#7acaa6"/>
                <path id="Trazado_902358" data-name="Trazado 902358" d="M476.554,185.483v18.791l-2.769,1.8-2.769-1.8V185.483Z" transform="translate(-394.926 -156.238)" fill="#fe76a8"/>
                <path id="Trazado_902359" data-name="Trazado 902359" d="M476.554,300.018v18.791l-2.769,2.024-2.769-2.024V300.018Z" transform="translate(-394.926 -251.982)" fill="#ffd15b"/>
                <path id="Trazado_902360" data-name="Trazado 902360" d="M462.905,10.1v7.583h-5.538V10.1a2.779,2.779,0,0,0-2.679-2.871h5.538A2.779,2.779,0,0,1,462.905,10.1Z" transform="translate(-381.276 -7.227)" fill="#7a6d79"/>
                <path id="Trazado_902361" data-name="Trazado 902361" d="M462.905,414.554v11.931a2.779,2.779,0,0,1-2.679,2.871h-5.538a2.779,2.779,0,0,0,2.679-2.871V414.554Z" transform="translate(-381.276 -347.727)" fill="#c4e2ff"/>
              </g>
            </g>
          </g>
        </g>
      </g>
      <g id="Grupo_1112045" data-name="Grupo 1112045" transform="translate(0 0)">
        <path id="Trazado_902362" data-name="Trazado 902362" d="M150.9,256.681a6.35,6.35,0,0,0,6.267,0,1.23,1.23,0,1,0-1.219-2.138,3.877,3.877,0,0,1-3.827,0,1.231,1.231,0,0,0-1.22,2.138Z" transform="translate(-125.628 -212.647)"/>
        <path id="Trazado_902363" data-name="Trazado 902363" d="M82.77,37.6A1.23,1.23,0,0,0,84,36.371V4.1A4.01,4.01,0,0,0,80.094,0H49.083a1.23,1.23,0,0,0,0,2.461H80.094A1.552,1.552,0,0,1,81.539,4.1v6.344H2.461V4.1A1.552,1.552,0,0,1,3.906,2.461H43.34A1.23,1.23,0,0,0,43.34,0H3.906A4.01,4.01,0,0,0,0,4.1V79.9A4.01,4.01,0,0,0,3.906,84H31.462a1.23,1.23,0,1,0,0-2.461H3.906A1.552,1.552,0,0,1,2.461,79.9V69.214H81.539V79.9a1.552,1.552,0,0,1-1.445,1.637H37.2A1.23,1.23,0,0,0,37.2,84H80.094A4.01,4.01,0,0,0,84,79.9V42.113a1.23,1.23,0,0,0-2.461,0v5.869H77.917l-.424-1.071a4.539,4.539,0,0,0-3.813-2.862l-1.049-.1-.088-.888a5.707,5.707,0,0,0,1.332-3.144l.1-.967a4.822,4.822,0,0,0-4.793-5.3h0a4.814,4.814,0,0,0-4.788,5.3l.1.967a5.719,5.719,0,0,0,1.331,3.139l-.088.895-1.049.1a4.538,4.538,0,0,0-3.813,2.862l-.424,1.071H56.82V31.674H81.539v4.7a1.23,1.23,0,0,0,1.23,1.23ZM2.461,12.9h51.9v53.85H50.313V65.163a8.144,8.144,0,0,0-6.427-8l-3.81-.842-1.343-2.271a3.435,3.435,0,0,0-4.028-1.515V48.975l.723-.563a10.414,10.414,0,0,0,3.528-5.028h.3a5.686,5.686,0,0,0,5.68-5.68V36.458a3.562,3.562,0,0,0-.817-2.274,13.262,13.262,0,0,0,.817-4.579c0-8.118-7.414-14.723-16.526-14.723A17.841,17.841,0,0,0,18.9,17.563a1.23,1.23,0,1,0,1.309,2.084,15.384,15.384,0,0,1,8.2-2.3c7.755,0,14.065,5.5,14.065,12.262a10.8,10.8,0,0,1-.526,3.325,3.58,3.58,0,0,0-.591-.05H39.467a3.361,3.361,0,0,0-3.356-3.4H32a3.929,3.929,0,0,1-3.925-3.925,1.23,1.23,0,0,0-2.461,0,6.385,6.385,0,0,0,2.93,5.366,5.692,5.692,0,0,1-4.3,1.96h-8.8a3.6,3.6,0,0,0-.571.046,10.78,10.78,0,0,1-.526-3.321,11.063,11.063,0,0,1,2.037-6.355,1.231,1.231,0,0,0-2.017-1.409,13.513,13.513,0,0,0-2.481,7.764,13.246,13.246,0,0,0,.812,4.563,3.562,3.562,0,0,0-.832,2.291V37.7a5.686,5.686,0,0,0,5.68,5.68h.321a10.413,10.413,0,0,0,3.528,5.028l.723.563v3.559a3.435,3.435,0,0,0-4.029,1.515L16.743,56.32l-3.81.842a8.144,8.144,0,0,0-6.427,8v1.591H2.461ZM17.193,58.74l5.594,5.067h0a2.783,2.783,0,0,0,2.924.5l1.469-.61v3.051H8.968V65.163a5.7,5.7,0,0,1,4.5-5.6ZM14.324,36.458a1.119,1.119,0,0,1,1.117-1.117h1.912v4.806c0,.258.012.513.031.767a3.22,3.22,0,0,1-3.06-3.211Zm5.49-1.117h4.431a8.15,8.15,0,0,0,6.693-3.491,6.4,6.4,0,0,0,1.062.09h4.11a.9.9,0,0,1,.9.9v7.312a7.963,7.963,0,0,1-3.089,6.322l-2.393,1.864a5.06,5.06,0,0,1-6.226,0L22.9,46.47a7.963,7.963,0,0,1-3.089-6.322V35.341Zm22.661,1.117V37.7a3.22,3.22,0,0,1-3.04,3.21c.018-.254.031-.509.031-.766V35.341h1.892A1.118,1.118,0,0,1,42.476,36.458ZM32.381,61.983a.312.312,0,0,1-.328.057l-1.7-.707L35,55.208a.974.974,0,0,1,1.615.093l1.1,1.854Zm-3.971-2.16L24.576,54.77V50.815a7.518,7.518,0,0,0,7.668,0V54.77Zm-1.943,1.511-1.7.707a.311.311,0,0,1-.328-.057l-5.331-4.828L20.2,55.3a.974.974,0,0,1,1.615-.093ZM29.641,63.7l1.468.61a2.783,2.783,0,0,0,2.924-.5h0l5.594-5.067,3.728.824a5.7,5.7,0,0,1,4.5,5.6v1.591H29.641Zm41.882-6.224-.1.967a3.249,3.249,0,0,1-1.808,2.61.993.993,0,0,1-.871,0,3.261,3.261,0,0,1-1.813-2.615l-.1-.967a2.353,2.353,0,0,1,2.339-2.591h0a2.362,2.362,0,0,1,2.345,2.6Zm-4.554,7.6a1.23,1.23,0,0,0,1.109-1.1l.051-.521a3.453,3.453,0,0,0,2.1,0l.051.519a1.23,1.23,0,0,0,1.109,1.1l2.059.194a2.122,2.122,0,0,1,1.821,1.484H63.089a2.121,2.121,0,0,1,1.82-1.484Zm.466-28.19a2.322,2.322,0,0,1,1.741-.773h0a2.361,2.361,0,0,1,2.345,2.6l-.1.967a3.249,3.249,0,0,1-1.808,2.61.993.993,0,0,1-.871,0,3.261,3.261,0,0,1-1.813-2.615l-.1-.967a2.332,2.332,0,0,1,.6-1.818Zm-4.28,10.931A2.089,2.089,0,0,1,64.909,46.5l2.059-.194a1.23,1.23,0,0,0,1.109-1.1l.051-.521a3.454,3.454,0,0,0,2.1,0l.051.518a1.23,1.23,0,0,0,1.109,1.1l2.059.194a2.121,2.121,0,0,1,1.821,1.484H63.089Zm18.385,2.627V66.753H77.917l-.424-1.071a4.539,4.539,0,0,0-3.813-2.863l-1.049-.1-.088-.888a5.706,5.706,0,0,0,1.332-3.144l.1-.967a4.822,4.822,0,0,0-4.793-5.3h0a4.814,4.814,0,0,0-4.787,5.3l.1.967a5.719,5.719,0,0,0,1.331,3.139l-.088.895-1.049.1a4.538,4.538,0,0,0-3.813,2.862l-.424,1.071H56.82V50.444H81.539ZM71.522,19.938l-.1.967a3.25,3.25,0,0,1-1.808,2.61.993.993,0,0,1-.871,0A3.261,3.261,0,0,1,66.934,20.9l-.1-.967a2.353,2.353,0,0,1,2.339-2.591h0a2.362,2.362,0,0,1,2.345,2.6Zm-4.554,7.6a1.23,1.23,0,0,0,1.109-1.1l.051-.521a3.452,3.452,0,0,0,2.1,0l.051.518a1.23,1.23,0,0,0,1.109,1.1l2.059.194a2.122,2.122,0,0,1,1.821,1.484H63.089a2.122,2.122,0,0,1,1.82-1.484Zm10.949,1.678-.424-1.071a4.539,4.539,0,0,0-3.813-2.862l-1.049-.1-.088-.888a5.706,5.706,0,0,0,1.332-3.144l.1-.967a4.822,4.822,0,0,0-4.793-5.3h0a4.814,4.814,0,0,0-4.787,5.3l.1.967a5.719,5.719,0,0,0,1.331,3.139l-.088.894-1.049.1a4.539,4.539,0,0,0-3.812,2.862l-.424,1.071H56.82V12.9H81.539V29.213H77.917Z" transform="translate(0 0)"/>
        <path id="Trazado_902364" data-name="Trazado 902364" d="M31.23,451.938a1.23,1.23,0,0,0,0,2.461h4.02a1.23,1.23,0,1,0,0-2.461Z" transform="translate(-25.078 -377.792)"/>
        <path id="Trazado_902365" data-name="Trazado 902365" d="M149.955,453.168a1.23,1.23,0,0,0-1.23-1.23H86.017a1.23,1.23,0,0,0,0,2.461h62.707A1.23,1.23,0,0,0,149.955,453.168Z" transform="translate(-70.877 -377.792)"/>
        <circle id="Elipse_12141" data-name="Elipse 12141" cx="1.23" cy="1.23" r="1.23" transform="translate(5.672 5.222)"/>
        <circle id="Elipse_12142" data-name="Elipse 12142" cx="1.23" cy="1.23" r="1.23" transform="translate(11.269 5.222)"/>
        <circle id="Elipse_12143" data-name="Elipse 12143" cx="1.23" cy="1.23" r="1.23" transform="translate(16.867 5.222)"/>
      </g>
    </g>
  </g>
</svg>
