<svg xmlns="http://www.w3.org/2000/svg" width="39.051" height="36.013" viewBox="0 0 39.051 36.013">
  <g id="Grupo_1112059" data-name="Grupo 1112059" transform="translate(-195 -2475.867)">
    <g id="Rectángulo_401341" data-name="Rectángulo 401341" transform="translate(195 2475.867)" fill="#fece2f" stroke="#faedc1" stroke-width="3">
      <rect width="39.051" height="36.013" rx="12" stroke="none"/>
      <rect x="1.5" y="1.5" width="36.051" height="33.013" rx="10.5" fill="none"/>
    </g>
    <g id="Grupo_1111992" data-name="Grupo 1111992" transform="translate(197.978 2476.92)">
      <path id="Trazado_902246" data-name="Trazado 902246" d="M71.25,73.75v.68h4.76v-.68H71.25Z" transform="translate(-49.141 -50.961)" fill="#8ec1db"/>
      <circle id="Elipse_12136" data-name="Elipse 12136" cx="0.34" cy="0.34" r="0.34" transform="translate(24.149 25.509)" fill="#8ec1db"/>
      <path id="Trazado_902247" data-name="Trazado 902247" d="M44.99,23.73a3.786,3.786,0,1,0-1.7-.413A3.714,3.714,0,0,0,44.99,23.73Zm-2.04-2.72a.34.34,0,0,1-.283-.528l1.36-2.04a.353.353,0,0,1,.566,0l1.13,1.695,1.067-1.067a.34.34,0,0,1,.481.481l-1.36,1.36a.34.34,0,0,1-.523-.052L44.31,19.243l-1.077,1.616a.339.339,0,0,1-.283.151Z" transform="translate(-27.3 -9.1)" fill="#f79e51"/>
      <circle id="Elipse_12137" data-name="Elipse 12137" cx="0.34" cy="0.34" r="0.34" transform="translate(10.55 25.509)" fill="#8ec1db"/>
      <path id="Trazado_902248" data-name="Trazado 902248" d="M48.75,45v1.021h3.4V45a4.407,4.407,0,0,1-3.4,0Z" transform="translate(-32.76 -30.027)" fill="#f4d35e"/>
      <path id="Trazado_902249" data-name="Trazado 902249" d="M51.25,56.25h2.04v.68H51.25Z" transform="translate(-34.58 -38.22)" fill="#f4d35e"/>
      <path id="Trazado_902250" data-name="Trazado 902250" d="M21.968,78.75a2.38,2.38,0,1,0,3.325,0Zm1.662,2.72a1.02,1.02,0,1,1,1.02-1.02A1.021,1.021,0,0,1,23.63,81.47Z" transform="translate(-12.74 -54.601)" fill="#0e77b5"/>
      <path id="Trazado_902251" data-name="Trazado 902251" d="M21.25,73.75v.68h4.76v-.68H21.25Z" transform="translate(-12.74 -50.961)" fill="#8ec1db"/>
      <path id="Trazado_902252" data-name="Trazado 902252" d="M71.968,78.75a2.38,2.38,0,1,0,3.325,0Zm1.662,2.72a1.02,1.02,0,1,1,1.02-1.02A1.021,1.021,0,0,1,73.63,81.47Z" transform="translate(-49.141 -54.601)" fill="#0e77b5"/>
      <path id="Trazado_902253" data-name="Trazado 902253" d="M48.75,51.93h3.4v-.68h-3.4Z" transform="translate(-32.76 -34.58)" fill="#f79e51"/>
      <path id="Trazado_902254" data-name="Trazado 902254" d="M27.329,26.33a.34.34,0,0,1-.34.34H12.03a.34.34,0,0,1-.34-.34V13.75H6.25v2.72H8.63a.34.34,0,0,1,.34.34v12.58H30.049V17.83h-2.72Z" transform="translate(-1.82 -7.28)" fill="#0e77b5"/>
      <path id="Trazado_902255" data-name="Trazado 902255" d="M28.569,15.33h-3.4a.34.34,0,0,0-.34.34v8.5h-5.44v-.68h.34a.34.34,0,0,0,.34-.34V20.068a4.42,4.42,0,1,0-4.76,0V23.15a.34.34,0,0,0,.34.34h.34v.68H10.55V11.59a.34.34,0,0,0-.34-.34H4.09a.34.34,0,0,0-.34.34v3.4a.34.34,0,0,0,.34.34H6.47v12.58a.34.34,0,0,0,.34.34H7.83v1.02a.34.34,0,0,0,.34.34h.177a3.06,3.06,0,1,0,5.085,0h.177a.34.34,0,0,0,.34-.34v-1.02h7.48v1.02a.34.34,0,0,0,.34.34h.177a3.06,3.06,0,1,0,5.085,0h.177a.34.34,0,0,0,.34-.34v-1.02h1.02a.34.34,0,0,0,.34-.34V15.67A.34.34,0,0,0,28.569,15.33Zm-9.18,7.48h-3.4v-.68h3.4Zm-.68.68v.68H16.67v-.68Zm.68-2.04h-3.4V20.429a4.407,4.407,0,0,0,3.4,0Zm-4.08-2.217a3.786,3.786,0,1,1,.68.444A3.734,3.734,0,0,1,15.31,19.232ZM10.89,33.689a2.378,2.378,0,0,1-1.662-4.08h3.325a2.378,2.378,0,0,1-1.662,4.08Zm2.38-4.76H8.51v-.68h4.76Zm11.22,4.76a2.378,2.378,0,0,1-1.662-4.08h3.325a2.378,2.378,0,0,1-1.662,4.08Zm2.38-4.76h-4.76v-.68h4.76Zm1.36-1.36H7.15V14.99a.34.34,0,0,0-.34-.34H4.43V11.93H9.87V24.51a.34.34,0,0,0,.34.34h14.96a.34.34,0,0,0,.34-.34v-8.5h2.72Z" transform="translate(0 -5.46)"/>
      <path id="Trazado_902256" data-name="Trazado 902256" d="M49.027,26.344a.34.34,0,0,0,.523.052l1.36-1.36a.34.34,0,0,0-.481-.481l-1.067,1.067-1.13-1.695a.353.353,0,0,0-.566,0l-1.36,2.04a.34.34,0,1,0,.566.377l1.077-1.616Z" transform="translate(-30.94 -14.586)"/>
      <path id="Trazado_902257" data-name="Trazado 902257" d="M54.43,5.45V4.09a.34.34,0,1,0-.68,0V5.45a.34.34,0,0,0,.68,0Z" transform="translate(-36.4)"/>
      <path id="Trazado_902258" data-name="Trazado 902258" d="M39.77,10.11a.34.34,0,0,0,.24-.58l-.68-.68a.34.34,0,0,0-.481.481l.68.68A.339.339,0,0,0,39.77,10.11Z" transform="translate(-25.48 -3.64)"/>
      <path id="Trazado_902259" data-name="Trazado 902259" d="M28.786,32.422a.34.34,0,0,0,.456.152l1.36-.68a.34.34,0,0,0-.3-.608l-1.36.68A.34.34,0,0,0,28.786,32.422Z" transform="translate(-18.2 -20.02)"/>
      <path id="Trazado_902260" data-name="Trazado 902260" d="M28.938,19.393l1.36.68a.34.34,0,0,0,.3-.608l-1.36-.68a.34.34,0,0,0-.3.608Z" transform="translate(-18.2 -10.919)"/>
      <path id="Trazado_902261" data-name="Trazado 902261" d="M66.59,10.11a.339.339,0,0,0,.24-.1l.68-.68a.34.34,0,0,0-.481-.481l-.68.68a.34.34,0,0,0,.24.58Z" transform="translate(-45.501 -3.64)"/>
      <path id="Trazado_902262" data-name="Trazado 902262" d="M73.938,31.893l1.36.68a.34.34,0,0,0,.3-.608l-1.36-.68a.34.34,0,0,0-.3.608Z" transform="translate(-50.96 -20.02)"/>
      <path id="Trazado_902263" data-name="Trazado 902263" d="M74.09,20.11a.341.341,0,0,0,.152-.036l1.36-.68a.34.34,0,0,0-.3-.608l-1.36.68a.34.34,0,0,0,.152.644Z" transform="translate(-50.96 -10.92)"/>
      <path id="Trazado_902264" data-name="Trazado 902264" d="M27.27,81.25a1.02,1.02,0,1,0,1.02,1.02A1.021,1.021,0,0,0,27.27,81.25Zm0,1.36a.34.34,0,1,1,.34-.34A.34.34,0,0,1,27.27,82.61Z" transform="translate(-16.38 -56.421)"/>
      <path id="Trazado_902265" data-name="Trazado 902265" d="M77.27,81.25a1.02,1.02,0,1,0,1.02,1.02A1.021,1.021,0,0,0,77.27,81.25Zm0,1.36a.34.34,0,1,1,.34-.34A.34.34,0,0,1,77.27,82.61Z" transform="translate(-52.781 -56.421)"/>
    </g>
  </g>
</svg>
