<svg xmlns="http://www.w3.org/2000/svg" width="132" height="132" viewBox="0 0 132 132">
  <g id="Grupo_1112050" data-name="Grupo 1112050" transform="translate(-842.355 -3458)">
    <g id="Grupo_1099402" data-name="Grupo 1099402" transform="translate(-104.426 -982)">
      <rect id="Rectángulo_401228" data-name="Rectángulo 401228" width="132" height="132" rx="14" transform="translate(946.781 4440)" fill="#405f5a"/>
    </g>
    <g id="Grupo_1112048" data-name="Grupo 1112048" transform="translate(857.4 3426.002)">
      <g id="Grupo_1112047" data-name="Grupo 1112047" transform="translate(1.554 62.722)">
        <path id="Trazado_902366" data-name="Trazado 902366" d="M412.111,205.1a9.955,9.955,0,1,1-9.961,9.955A9.954,9.954,0,0,1,412.111,205.1Z" transform="translate(-325.076 -178.516)" fill="#e2e7f0" fill-rule="evenodd"/>
        <path id="Trazado_902367" data-name="Trazado 902367" d="M431.851,275.88a9.956,9.956,0,0,1-13.631,0,5.683,5.683,0,0,1,5.465-4.19h2.7A5.683,5.683,0,0,1,431.851,275.88Z" transform="translate(-338.004 -232.085)" fill="#0593fc" fill-rule="evenodd"/>
        <path id="Trazado_902368" data-name="Trazado 902368" d="M430.1,272.648a5.609,5.609,0,0,1,3.142-.958h2.7a5.643,5.643,0,0,1,3.148.958,6.4,6.4,0,0,1-8.991,0Z" transform="translate(-347.561 -232.085)" fill="#0584e3" fill-rule="evenodd"/>
        <path id="Trazado_902369" data-name="Trazado 902369" d="M435.392,231.38a4.3,4.3,0,1,0,4.3,4.3A4.3,4.3,0,0,0,435.392,231.38Z" transform="translate(-348.357 -199.658)" fill="#fbbd80" fill-rule="evenodd"/>
        <path id="Trazado_902370" data-name="Trazado 902370" d="M412.119,205.1c.272,0,.544.012.81.033a9.949,9.949,0,0,0-7.122,15.931,5.54,5.54,0,0,0-.5,1.248,9.953,9.953,0,0,1,6.817-17.211Z" transform="translate(-325.084 -178.516)" fill="#cbd0d8" fill-rule="evenodd"/>
        <path id="Trazado_902371" data-name="Trazado 902371" d="M418.726,286.74a9.926,9.926,0,0,0,7.122,3.913c-.266.022-.538.033-.81.033a9.922,9.922,0,0,1-6.818-2.7A5.549,5.549,0,0,1,418.726,286.74Z" transform="translate(-338.004 -244.192)" fill="#0584e3" fill-rule="evenodd"/>
        <path id="Trazado_902372" data-name="Trazado 902372" d="M412.111,69.15a9.958,9.958,0,1,1-9.961,9.961A9.959,9.959,0,0,1,412.111,69.15Z" transform="translate(-325.076 -69.15)" fill="#e2e7f0" fill-rule="evenodd"/>
        <path id="Trazado_902373" data-name="Trazado 902373" d="M431.851,139.936a9.956,9.956,0,0,1-13.631,0,5.681,5.681,0,0,1,5.465-4.2h2.7A5.682,5.682,0,0,1,431.851,139.936Z" transform="translate(-338.004 -122.719)" fill="#0593fc" fill-rule="evenodd"/>
        <path id="Trazado_902374" data-name="Trazado 902374" d="M430.1,136.7a5.568,5.568,0,0,1,3.142-.964h2.7a5.6,5.6,0,0,1,3.148.964,6.4,6.4,0,0,1-8.991,0Z" transform="translate(-347.561 -122.719)" fill="#0584e3" fill-rule="evenodd"/>
        <path id="Trazado_902375" data-name="Trazado 902375" d="M435.392,95.46a4.3,4.3,0,1,0,4.3,4.3A4.3,4.3,0,0,0,435.392,95.46Z" transform="translate(-348.357 -90.315)" fill="#fbbd80" fill-rule="evenodd"/>
        <path id="Trazado_902376" data-name="Trazado 902376" d="M412.119,69.15c.272,0,.544.012.81.033a9.953,9.953,0,0,0-7.122,15.936,5.431,5.431,0,0,0-.5,1.248,9.957,9.957,0,0,1,6.817-17.217Z" transform="translate(-325.084 -69.15)" fill="#cbd0d8" fill-rule="evenodd"/>
        <path id="Trazado_902377" data-name="Trazado 902377" d="M418.726,150.82a9.926,9.926,0,0,0,7.122,3.913c-.266.021-.538.033-.81.033a9.922,9.922,0,0,1-6.818-2.7A5.44,5.44,0,0,1,418.726,150.82Z" transform="translate(-338.004 -134.85)" fill="#0584e3" fill-rule="evenodd"/>
        <path id="Trazado_902378" data-name="Trazado 902378" d="M412.111,341.03a9.955,9.955,0,1,1-9.961,9.955A9.954,9.954,0,0,1,412.111,341.03Z" transform="translate(-325.076 -287.867)" fill="#e2e7f0" fill-rule="evenodd"/>
        <path id="Trazado_902379" data-name="Trazado 902379" d="M431.851,411.8a9.956,9.956,0,0,1-13.631,0,5.683,5.683,0,0,1,5.465-4.19h2.7A5.683,5.683,0,0,1,431.851,411.8Z" transform="translate(-338.004 -341.428)" fill="#0593fc" fill-rule="evenodd"/>
        <path id="Trazado_902380" data-name="Trazado 902380" d="M430.1,408.568a5.609,5.609,0,0,1,3.142-.958h2.7a5.643,5.643,0,0,1,3.148.958,6.383,6.383,0,0,1-8.991,0Z" transform="translate(-347.561 -341.428)" fill="#0584e3" fill-rule="evenodd"/>
        <path id="Trazado_902381" data-name="Trazado 902381" d="M435.392,367.3a4.3,4.3,0,1,0,4.3,4.3A4.3,4.3,0,0,0,435.392,367.3Z" transform="translate(-348.357 -309)" fill="#fbbd80" fill-rule="evenodd"/>
        <path id="Trazado_902382" data-name="Trazado 902382" d="M412.119,341.03c.272,0,.544.012.81.033a9.949,9.949,0,0,0-7.122,15.931,5.54,5.54,0,0,0-.5,1.248,9.953,9.953,0,0,1,6.817-17.211Z" transform="translate(-325.084 -287.867)" fill="#cbd0d8" fill-rule="evenodd"/>
        <path id="Trazado_902383" data-name="Trazado 902383" d="M418.726,422.66a9.952,9.952,0,0,0,7.122,3.919c-.266.018-.538.027-.81.027a9.922,9.922,0,0,1-6.818-2.7A5.586,5.586,0,0,1,418.726,422.66Z" transform="translate(-338.004 -353.535)" fill="#0584e3" fill-rule="evenodd"/>
        <path id="Trazado_902384" data-name="Trazado 902384" d="M10.757,146.28H48.138a2.769,2.769,0,0,1,2.765,2.761v37.387a2.769,2.769,0,0,1-2.765,2.765H10.757a2.77,2.77,0,0,1-2.767-2.765V149.041A2.772,2.772,0,0,1,10.757,146.28Z" transform="translate(-7.99 -131.198)" fill="#ffd400" fill-rule="evenodd"/>
        <path id="Trazado_902385" data-name="Trazado 902385" d="M89.32,146.28h11.109v15.9l-5.553-4.03-5.555,4.03Z" transform="translate(-73.417 -131.198)" fill="#fea832" fill-rule="evenodd"/>
        <path id="Trazado_902386" data-name="Trazado 902386" d="M11.412,186.428V149.041a2.768,2.768,0,0,1,2.761-2.761H10.757a2.769,2.769,0,0,0-2.767,2.761v37.387a2.769,2.769,0,0,0,2.767,2.765h3.414a2.769,2.769,0,0,1-2.759-2.765Z" transform="translate(-7.99 -131.198)" fill="#e6bf00" fill-rule="evenodd"/>
      </g>
      <path id="Trazado_902387" data-name="Trazado 902387" d="M88.589,87.736a11.511,11.511,0,0,0-8,19.8,1.5,1.5,0,0,0,.213.2,11.5,11.5,0,0,0,15.555.014,1.531,1.531,0,0,0,.244-.233,11.512,11.512,0,0,0-8.011-19.787Zm-4.947,18.293a4.106,4.106,0,0,1,2.464-1.979,5.844,5.844,0,0,0,4.965,0,4.131,4.131,0,0,1,2.464,1.979,8.373,8.373,0,0,1-9.892,0Zm4.947-4.558a2.733,2.733,0,1,1,2.73-2.736A2.736,2.736,0,0,1,88.589,101.47Zm7.135,2.192a7.283,7.283,0,0,0-2.116-1.9,5.862,5.862,0,1,0-10.041,0,7.3,7.3,0,0,0-2.12,1.9,8.389,8.389,0,1,1,14.276,0Zm-7.135,10.651a11.514,11.514,0,0,0-7.958,19.847,1.5,1.5,0,0,0,.127.121,11.493,11.493,0,0,0,15.62.037,1.656,1.656,0,0,0,.207-.2,11.516,11.516,0,0,0-8-19.808ZM83.64,132.608a4.117,4.117,0,0,1,2.466-1.983,5.845,5.845,0,0,0,4.965,0,4.121,4.121,0,0,1,2.464,1.981,8.372,8.372,0,0,1-9.894,0Zm4.949-4.56a2.73,2.73,0,1,1,2.73-2.73A2.732,2.732,0,0,1,88.589,128.048Zm7.135,2.194a7.283,7.283,0,0,0-2.116-1.9,5.862,5.862,0,1,0-10.041,0,7.272,7.272,0,0,0-2.118,1.9,8.391,8.391,0,1,1,14.274,0ZM17.776,110a1.566,1.566,0,0,1-1.566,1.566H9a1.566,1.566,0,1,1,0-3.133H16.21A1.566,1.566,0,0,1,17.776,110Zm0,4.844a1.566,1.566,0,0,1-1.566,1.566H9a1.566,1.566,0,1,1,0-3.133H16.21A1.567,1.567,0,0,1,17.776,114.847ZM80.589,80.96a1.646,1.646,0,0,0,.215.205,11.5,11.5,0,0,0,15.555.014,1.531,1.531,0,0,0,.244-.233,11.526,11.526,0,1,0-16.015.014Zm3.052-1.512a4.1,4.1,0,0,1,2.47-1.983,5.846,5.846,0,0,0,4.953,0,4.111,4.111,0,0,1,2.47,1.981,8.373,8.373,0,0,1-9.892,0Zm4.947-4.562a2.73,2.73,0,1,1,2.73-2.73A2.732,2.732,0,0,1,88.589,74.887Zm0-10.6a8.384,8.384,0,0,1,7.135,12.794,7.28,7.28,0,0,0-2.116-1.9,5.862,5.862,0,1,0-10.041,0,7.255,7.255,0,0,0-2.12,1.9,8.383,8.383,0,0,1,7.141-12.8ZM66.669,77.759a1.563,1.563,0,0,0,2.214,0l3.973-3.973a1.566,1.566,0,0,0,0-2.215L68.883,67.6a1.566,1.566,0,0,0-2.214,2.215l1.3,1.3H58.431a1.566,1.566,0,0,0-1.566,1.566V97.691H46.034V80.565a4.333,4.333,0,0,0-4.325-4.331H4.321A4.336,4.336,0,0,0-.01,80.565v37.387a4.333,4.333,0,0,0,4.331,4.325H41.708a4.329,4.329,0,0,0,4.325-4.325V100.823H56.865v25.011a1.566,1.566,0,0,0,1.566,1.566h9.538l-1.3,1.3a1.566,1.566,0,1,0,2.214,2.215l3.973-3.973a1.566,1.566,0,0,0,0-2.215l-3.973-3.973a1.565,1.565,0,0,0-2.214,2.214l1.3,1.3H60V100.821h7.974l-1.3,1.3a1.566,1.566,0,1,0,2.214,2.215l3.973-3.973a1.564,1.564,0,0,0,0-2.214l-3.973-3.975a1.566,1.566,0,0,0-2.214,2.215l1.3,1.3H60V74.244h7.974l-1.3,1.3a1.566,1.566,0,0,0,0,2.215ZM19.024,79.365H27V90.63L23.932,88.4a1.564,1.564,0,0,0-1.84,0L19.024,90.63ZM42.9,117.953a1.2,1.2,0,0,1-1.195,1.195H4.321a1.214,1.214,0,0,1-1.2-1.195V80.565a1.216,1.216,0,0,1,1.2-1.2h11.57V93.7a1.566,1.566,0,0,0,2.485,1.267l4.634-3.363,4.634,3.363a1.563,1.563,0,0,0,.919.3,1.582,1.582,0,0,0,.712-.17A1.566,1.566,0,0,0,30.13,93.7V79.367H41.706a1.214,1.214,0,0,1,1.195,1.2v37.385Z"/>
    </g>
  </g>
</svg>
