<svg xmlns="http://www.w3.org/2000/svg" width="39.051" height="36.013" viewBox="0 0 39.051 36.013">
  <g id="Grupo_1112061" data-name="Grupo 1112061" transform="translate(-195 -2599.867)">
    <g id="Rectángulo_405074" data-name="Rectángulo 405074" transform="translate(195 2599.867)" fill="#fece2f" stroke="#faedc1" stroke-width="3">
      <rect width="39.051" height="36.013" rx="12" stroke="none"/>
      <rect x="1.5" y="1.5" width="36.051" height="33.013" rx="10.5" fill="none"/>
    </g>
    <g id="Grupo_1112005" data-name="Grupo 1112005" transform="translate(200.138 2603.783)">
      <g id="Grupo_1112003" data-name="Grupo 1112003" transform="translate(1.426 1.426)">
        <g id="Grupo_1111995" data-name="Grupo 1111995" transform="translate(0 8.527)">
          <path id="Trazado_902282" data-name="Trazado 902282" d="M24.171,24.115V36.5a.855.855,0,0,1-.853.853H14.791a1.705,1.705,0,1,1-3.411,0H2.853A.855.855,0,0,1,2,36.5V22H3.705V35.644h18.76V25.411h.426l.277-1.1a5.078,5.078,0,0,0,.785-.328Z" transform="translate(-2 -22)" fill="#ff826e"/>
        </g>
        <g id="Grupo_1111996" data-name="Grupo 1111996" transform="translate(1.705 5.969)">
          <path id="Trazado_902283" data-name="Trazado 902283" d="M22.628,21.969l-.277-1.1a5.078,5.078,0,0,1-.785-.328l-.976.58-1.808-1.808.58-.976a5.078,5.078,0,0,1-.328-.785l-1.1-.277V16h-.853a1.7,1.7,0,0,0-1.705,1.705A1.7,1.7,0,0,0,13.675,16H11.969a.855.855,0,0,1-.853.853h-.853v1.1a.6.6,0,0,1-1.028.426L7.705,16.853H6V32.2H24.76V21.969Z" transform="translate(-6 -16)" fill="#e6e9ed"/>
        </g>
        <g id="Grupo_1111997" data-name="Grupo 1111997" transform="translate(12.791 15.349)">
          <path id="Trazado_902284" data-name="Trazado 902284" d="M32,38h5.969v3.411H32Z" transform="translate(-32 -38)" fill="#4fc1e9"/>
        </g>
        <g id="Grupo_1111998" data-name="Grupo 1111998" transform="translate(0 1.705)">
          <path id="Trazado_902285" data-name="Trazado 902285" d="M2,10.264V6.853A.855.855,0,0,1,2.853,6H8.822a.855.855,0,0,1,.853.853v3.411a.855.855,0,0,1-.853.853H7.969v1.1a.6.6,0,0,1-1.028.426L5.411,11.116H2.853A.855.855,0,0,1,2,10.264Z" transform="translate(-2 -6)" fill="#ffeaa7"/>
        </g>
        <g id="Grupo_1111999" data-name="Grupo 1111999" transform="translate(3.411 14.496)">
          <path id="Trazado_902286" data-name="Trazado 902286" d="M15.969,38.985v1.279H10V38.985a2.985,2.985,0,1,1,5.969,0Z" transform="translate(-10 -36)" fill="#b4dd7f"/>
        </g>
        <g id="Grupo_1112000" data-name="Grupo 1112000" transform="translate(4.38 11.59)">
          <ellipse id="Elipse_12138" data-name="Elipse 12138" cx="1.5" cy="1" rx="1.5" ry="1" transform="translate(0.411 0.201)" fill="#f0d0b4"/>
        </g>
        <g id="Grupo_1112001" data-name="Grupo 1112001" transform="translate(13.644 0)">
          <path id="Trazado_902287" data-name="Trazado 902287" d="M34,7.969V6.69l1.1-.277a5.078,5.078,0,0,1,.328-.785l-.58-.976,1.808-1.808.976.58a5.078,5.078,0,0,1,.785-.328L38.69,2h2.558l.277,1.1a5.078,5.078,0,0,1,.785.328l.976-.58,1.808,1.808-.58.976a5.078,5.078,0,0,1,.328.785l1.1.277V9.248l-1.1.277a5.078,5.078,0,0,1-.328.785l.58.976-1.808,1.808-.759-.452-.217-.128a5.078,5.078,0,0,1-.785.328l-.277,1.1H38.69l-.277-1.1a5.078,5.078,0,0,1-.785-.328l-.976.58-1.808-1.808.58-.976a5.078,5.078,0,0,1-.328-.785L34,9.248Zm9.38,0a3.411,3.411,0,1,0-3.411,3.411A3.41,3.41,0,0,0,43.38,7.969Z" transform="translate(-34 -2)" fill="#ffc729"/>
        </g>
        <g id="Grupo_1112002" data-name="Grupo 1112002" transform="translate(16.202 2.558)">
          <path id="Trazado_902288" data-name="Trazado 902288" d="M43.411,8A3.411,3.411,0,1,1,40,11.411,3.41,3.41,0,0,1,43.411,8Zm1.705,3.411a1.705,1.705,0,1,0-1.705,1.705A1.7,1.7,0,0,0,45.116,11.411Z" transform="translate(-40 -8)" fill="#fcd770"/>
        </g>
      </g>
      <g id="Grupo_1112004" data-name="Grupo 1112004" transform="translate(1 1)">
        <path id="Trazado_902289" data-name="Trazado 902289" d="M27.435,9.006V5.785l-1.195-.3c-.051-.136-.107-.272-.171-.408L26.7,4.012,24.423,1.734l-1.061.631c-.135-.063-.272-.12-.408-.171L22.649,1H19.428l-.3,1.195c-.136.051-.272.108-.408.171l-1.061-.631L15.378,4.012l.631,1.061c-.063.135-.12.272-.171.408l-1.2.3V6.969h-.426a2.124,2.124,0,0,0-1.705.866,2.124,2.124,0,0,0-1.705-.866H9.527V3.985A1.281,1.281,0,0,0,8.248,2.705H2.279A1.281,1.281,0,0,0,1,3.985V7.4A1.281,1.281,0,0,0,2.279,8.675h.426v.853H1V24.45a1.281,1.281,0,0,0,1.279,1.279h8.144a2.132,2.132,0,0,0,4.178,0h8.144a1.281,1.281,0,0,0,1.279-1.279V12.819l.4.237L26.7,10.779l-.631-1.061c.063-.135.12-.272.171-.408ZM14.217,7.822h.426V9.006l1.195.3c.051.136.107.272.171.408l-.631,1.061,2.278,2.278,1.061-.631c.135.063.272.12.408.171l.3,1.195h2.037v9.38H12.938V9.1A1.281,1.281,0,0,1,14.217,7.822ZM1.853,7.4V3.985a.427.427,0,0,1,.426-.426H8.248a.427.427,0,0,1,.426.426V7.4a.427.427,0,0,1-.426.426H6.969V9.351a.183.183,0,0,1-.3.125L5.014,7.822H2.279A.427.427,0,0,1,1.853,7.4ZM4.661,8.675l1.4,1.4a1.03,1.03,0,0,0,1.757-.728V8.675h.426a1.277,1.277,0,0,0,1.2-.853h1.358A1.281,1.281,0,0,1,12.085,9.1v14.07H3.558V8.675Zm18.084,16.2H13.791V25.3a1.279,1.279,0,0,1-2.558,0v-.426H2.279a.427.427,0,0,1-.426-.426V10.38h.853V24.024H22.318V13.791h.331l.3-1.195c.072-.027.145-.061.217-.091V24.45A.427.427,0,0,1,22.745,24.876Zm2.884-14.232-1.34,1.34-.894-.531-.21.109a4.693,4.693,0,0,1-.718.3l-.225.072-.255,1h-1.9l-.255-1-.225-.072a4.693,4.693,0,0,1-.718-.3l-.21-.109-.894.531-1.34-1.34.531-.893-.108-.21a4.68,4.68,0,0,1-.3-.719L16.5,8.6l-1-.255v-1.9l1-.255.072-.225a4.681,4.681,0,0,1,.3-.719l.108-.21-.531-.893,1.34-1.34.894.531.21-.109a4.693,4.693,0,0,1,.718-.3l.225-.072.255-1h1.9l.255,1,.225.072a4.693,4.693,0,0,1,.718.3l.21.109.894-.531,1.34,1.34-.531.893.108.21a4.681,4.681,0,0,1,.3.719l.072.225,1,.255v1.9l-1,.255-.072.225a4.681,4.681,0,0,1-.3.719l-.108.21Z" transform="translate(-1 -1)"/>
        <path id="Trazado_902290" data-name="Trazado 902290" d="M42.837,7a3.837,3.837,0,1,0,3.837,3.837A3.842,3.842,0,0,0,42.837,7Zm0,6.822a2.985,2.985,0,1,1,2.985-2.985A2.988,2.988,0,0,1,42.837,13.822Z" transform="translate(-22.798 -4.442)"/>
        <path id="Trazado_902291" data-name="Trazado 902291" d="M45.132,11a2.132,2.132,0,1,0,2.132,2.132A2.134,2.134,0,0,0,45.132,11Zm0,3.411a1.279,1.279,0,1,1,1.279-1.279A1.281,1.281,0,0,1,45.132,14.411Z" transform="translate(-25.093 -6.736)"/>
        <path id="Trazado_902292" data-name="Trazado 902292" d="M15.822,33.822a3.413,3.413,0,0,0-2-3.1,2.132,2.132,0,1,0-2.818,0,3.413,3.413,0,0,0-2,3.1v1.705h6.822Zm-4.69-4.69a1.279,1.279,0,1,1,1.279,1.279A1.281,1.281,0,0,1,11.132,29.132Zm3.837,5.543H9.853v-.853a2.558,2.558,0,0,1,5.116,0Z" transform="translate(-5.589 -15.915)"/>
        <path id="Trazado_902293" data-name="Trazado 902293" d="M5,9h5.116v.853H5Z" transform="translate(-3.295 -5.589)"/>
        <path id="Trazado_902294" data-name="Trazado 902294" d="M5,13H8.411v.853H5Z" transform="translate(-3.295 -7.884)"/>
        <path id="Trazado_902295" data-name="Trazado 902295" d="M15,13h.853v.853H15Z" transform="translate(-9.031 -7.884)"/>
        <path id="Trazado_902296" data-name="Trazado 902296" d="M37.822,37H31v4.264h6.822Zm-.853,3.411H31.853V37.853h5.116Z" transform="translate(-18.209 -21.651)"/>
        <path id="Trazado_902297" data-name="Trazado 902297" d="M31,33h.853v.853H31Z" transform="translate(-18.209 -19.356)"/>
        <path id="Trazado_902298" data-name="Trazado 902298" d="M35,33h5.116v.853H35Z" transform="translate(-20.504 -19.356)"/>
        <path id="Trazado_902299" data-name="Trazado 902299" d="M31,29h2.558v.853H31Z" transform="translate(-18.209 -17.062)"/>
        <path id="Trazado_902300" data-name="Trazado 902300" d="M21,19h1.705v.853H21Z" transform="translate(-12.473 -11.325)"/>
        <path id="Trazado_902301" data-name="Trazado 902301" d="M19,23h2.558v.853H19Z" transform="translate(-11.325 -13.62)"/>
        <path id="Trazado_902302" data-name="Trazado 902302" d="M45,49h.853v.853H45Z" transform="translate(-26.24 -28.535)"/>
        <path id="Trazado_902303" data-name="Trazado 902303" d="M31,49h5.116v.853H31Z" transform="translate(-18.209 -28.535)"/>
        <path id="Trazado_902304" data-name="Trazado 902304" d="M23,49h.853v.853H23Z" transform="translate(-13.62 -28.535)"/>
        <path id="Trazado_902305" data-name="Trazado 902305" d="M9,49h5.116v.853H9Z" transform="translate(-5.589 -28.535)"/>
      </g>
    </g>
  </g>
</svg>
