<svg xmlns="http://www.w3.org/2000/svg" width="82.869" height="82.869" viewBox="0 0 82.869 82.869">
  <g id="Grupo_1112051" data-name="Grupo 1112051" transform="translate(-247.994 -2975.232)">
    <ellipse id="Elipse_11497" data-name="Elipse 11497" cx="41.434" cy="41.434" rx="41.434" ry="41.434" transform="translate(247.994 2975.232)" fill="#ff9b6a"/>
    <g id="Grupo_1112023" data-name="Grupo 1112023" transform="translate(264.855 2992.5)">
      <g id="Grupo_1112021" data-name="Grupo 1112021" transform="translate(1.758 1.758)">
        <g id="Grupo_1112006" data-name="Grupo 1112006">
          <path id="Trazado_902306" data-name="Trazado 902306" d="M21.71,3.516V9.581H18.677a3.031,3.031,0,0,0-3.032,3.032v7.581H3.516A1.521,1.521,0,0,1,2,18.677V3.516A1.521,1.521,0,0,1,3.516,2H20.194A1.521,1.521,0,0,1,21.71,3.516Z" transform="translate(-2 -2)" fill="#e6e9ed"/>
        </g>
        <g id="Grupo_1112007" data-name="Grupo 1112007" transform="translate(25.774 27.29)">
          <path id="Trazado_902307" data-name="Trazado 902307" d="M55.71,39.516V54.677a1.521,1.521,0,0,1-1.516,1.516H37.516A1.521,1.521,0,0,1,36,54.677V48.613h3.032a3.024,3.024,0,0,0,1.516-.409v4.2L51.161,47.1l-9.1-4.548V38H54.194A1.521,1.521,0,0,1,55.71,39.516Z" transform="translate(-36 -38)" fill="#e6e9ed"/>
        </g>
        <g id="Grupo_1112008" data-name="Grupo 1112008" transform="translate(0 27.29)">
          <path id="Trazado_902308" data-name="Trazado 902308" d="M15.645,42.548v1.16a4.526,4.526,0,0,0-3.032-1.16H5.032v9.1H20.194V48.613h3.032v6.065a1.521,1.521,0,0,1-1.516,1.516H3.516A1.521,1.521,0,0,1,2,54.677V39.516A1.521,1.521,0,0,1,3.516,38H15.645Z" transform="translate(-2 -38)" fill="#ffeaa7"/>
        </g>
        <g id="Grupo_1112009" data-name="Grupo 1112009" transform="translate(25.774)">
          <path id="Trazado_902309" data-name="Trazado 902309" d="M55.71,3.516V18.677a1.521,1.521,0,0,1-1.516,1.516H42.065V15.645H50.4a2.268,2.268,0,0,0,.652-4.442,4.084,4.084,0,0,0,.106-.864,3.79,3.79,0,0,0-7.277-1.486,1.957,1.957,0,0,0-.3-.03,2.27,2.27,0,0,0-2.229,1.835,3.041,3.041,0,0,0-2.32-1.076H36V3.516A1.521,1.521,0,0,1,37.516,2H54.194A1.521,1.521,0,0,1,55.71,3.516Z" transform="translate(-36 -2)" fill="#ffeaa7"/>
        </g>
        <g id="Grupo_1112010" data-name="Grupo 1112010" transform="translate(3.032 31.839)">
          <path id="Trazado_902310" data-name="Trazado 902310" d="M6,44h7.581a4.548,4.548,0,0,0,0,9.1H6Z" transform="translate(-6 -44)" fill="#ccd1d9"/>
        </g>
        <g id="Grupo_1112011" data-name="Grupo 1112011" transform="translate(10.613 37.426)">
          <path id="Trazado_902311" data-name="Trazado 902311" d="M23.581,51.848V54.88H16a4.552,4.552,0,0,0,4.427-3.51,3.044,3.044,0,0,0,1.637.478Z" transform="translate(-16 -51.37)" fill="#ccd1d9"/>
        </g>
        <g id="Grupo_1112012" data-name="Grupo 1112012" transform="translate(6.065 31.839)">
          <path id="Trazado_902312" data-name="Trazado 902312" d="M17.581,47.032a3.04,3.04,0,0,0,1.395,2.555,4.549,4.549,0,1,1-1.395-4.427Z" transform="translate(-10 -44)" fill="#69d6f4"/>
        </g>
        <g id="Grupo_1112013" data-name="Grupo 1112013" transform="translate(9.097 34.871)">
          <circle id="Elipse_12139" data-name="Elipse 12139" cx="1.5" cy="1.5" r="1.5" transform="translate(-0.355 -0.129)" fill="#4fc1e9"/>
        </g>
        <g id="Grupo_1112014" data-name="Grupo 1112014" transform="translate(30.323 31.839)">
          <path id="Trazado_902313" data-name="Trazado 902313" d="M52.613,48.548,42,53.855v-4.2a3.017,3.017,0,0,0,1.516-2.623V44Z" transform="translate(-42 -44)" fill="#ff826e"/>
        </g>
        <g id="Grupo_1112015" data-name="Grupo 1112015" transform="translate(6.065 12.129)">
          <circle id="Elipse_12140" data-name="Elipse 12140" cx="1.5" cy="1.5" r="1.5" transform="translate(-0.323 -0.388)" fill="#ff826e"/>
        </g>
        <g id="Grupo_1112016" data-name="Grupo 1112016" transform="translate(31.126 4.548)">
          <path id="Trazado_902314" data-name="Trazado 902314" d="M52.763,12.655a2.268,2.268,0,0,1-.652,4.442H43.773V14.065a3.063,3.063,0,0,0-.713-1.956,2.27,2.27,0,0,1,2.229-1.835,1.957,1.957,0,0,1,.3.03,3.79,3.79,0,0,1,7.277,1.486A4.085,4.085,0,0,1,52.763,12.655Z" transform="translate(-43.06 -8)" fill="#e6e9ed"/>
        </g>
        <g id="Grupo_1112017" data-name="Grupo 1112017" transform="translate(13.645 7.581)">
          <path id="Trazado_902315" data-name="Trazado 902315" d="M38.194,15.032v3.032H20V15.032A3.031,3.031,0,0,1,23.032,12H35.161a3.028,3.028,0,0,1,3.032,3.032Z" transform="translate(-20 -12)" fill="#969faa"/>
        </g>
        <g id="Grupo_1112018" data-name="Grupo 1112018" transform="translate(13.645 31.839)">
          <path id="Trazado_902316" data-name="Trazado 902316" d="M38.194,44v3.032a3.04,3.04,0,0,1-3.032,3.032H23.032A3.027,3.027,0,0,1,20,47.032V44Z" transform="translate(-20 -44)" fill="#969faa"/>
        </g>
        <g id="Grupo_1112019" data-name="Grupo 1112019" transform="translate(13.645 13.645)">
          <path id="Trazado_902317" data-name="Trazado 902317" d="M38.194,33.645v4.548H20V20H38.194V33.645Z" transform="translate(-20 -20)" fill="#69d6f4"/>
        </g>
        <g id="Grupo_1112020" data-name="Grupo 1112020" transform="translate(16.677 16.677)">
          <path id="Trazado_902318" data-name="Trazado 902318" d="M24,24H36.129V36.129H24Z" transform="translate(-24 -24)" fill="#fcd770"/>
        </g>
      </g>
      <g id="Grupo_1112022" data-name="Grupo 1112022" transform="translate(1 1)">
        <path id="Trazado_902319" data-name="Trazado 902319" d="M31,15h4.548v1.516H31Z" transform="translate(-8.258 -4.387)"/>
        <path id="Trazado_902320" data-name="Trazado 902320" d="M27,15h1.516v1.516H27Z" transform="translate(-7.29 -4.387)"/>
        <path id="Trazado_902321" data-name="Trazado 902321" d="M28,47h6.065v1.516H28Z" transform="translate(-7.532 -12.129)"/>
        <path id="Trazado_902322" data-name="Trazado 902322" d="M36.645,36.645V23H23V36.645ZM24.516,24.516H35.129V35.129H24.516Z" transform="translate(-6.323 -6.323)"/>
        <path id="Trazado_902323" data-name="Trazado 902323" d="M45.726,20.71A2.277,2.277,0,0,0,48,18.435V3.274A2.277,2.277,0,0,0,45.726,1H29.048a2.277,2.277,0,0,0-2.274,2.274V8.581H22.226V3.274A2.277,2.277,0,0,0,19.952,1H3.274A2.277,2.277,0,0,0,1,3.274V18.435A2.277,2.277,0,0,0,3.274,20.71H14.645V28.29H3.274A2.277,2.277,0,0,0,1,30.565V45.726A2.277,2.277,0,0,0,3.274,48H21.468a2.277,2.277,0,0,0,2.274-2.274V40.419h3.032v5.306A2.277,2.277,0,0,0,29.048,48H45.726A2.277,2.277,0,0,0,48,45.726V30.565a2.277,2.277,0,0,0-2.274-2.274H34.355V20.71ZM28.29,3.274a.759.759,0,0,1,.758-.758H45.726a.759.759,0,0,1,.758.758V18.435a.759.759,0,0,1-.758.758H34.355V16.161h7.581a3.035,3.035,0,0,0,3.032-3.032A3,3,0,0,0,43.431,10.5c.014-.136.02-.271.02-.4a4.548,4.548,0,0,0-8.49-2.27A3.032,3.032,0,0,0,32.6,9.182a3.759,3.759,0,0,0-2.031-.6H28.29ZM8.581,38.145a3.772,3.772,0,0,1,6.065-3.013v1.5a3.766,3.766,0,0,0,1.277,2.815,3.784,3.784,0,0,1-7.341-1.3Zm.084,3.79H5.548V34.355H8.665a5.289,5.289,0,0,0,0,7.581Zm33.7-30.248a1.5,1.5,0,0,1,1.083,1.442,1.518,1.518,0,0,1-1.516,1.516H34.355V12.371a3.763,3.763,0,0,0-.639-2.1,1.517,1.517,0,0,1,1.4-.932,1.738,1.738,0,0,1,.2.024l.571.077.226-.53a3.025,3.025,0,0,1,5.734,1.879l-.162.694Zm-9.53.684v2.274H16.161V12.371A2.277,2.277,0,0,1,18.435,10.1H30.565A2.277,2.277,0,0,1,32.839,12.371ZM17.26,40.214a3.733,3.733,0,0,0,1.176.205h.758v1.516H16.071a5.259,5.259,0,0,0,1.189-1.722ZM18.435,38.9a2.277,2.277,0,0,1-2.274-2.274V34.355H32.839v2.274A2.277,2.277,0,0,1,30.565,38.9Zm14.4.738a3.775,3.775,0,0,0,1.516-3.013V34.823L41,38.145l-8.16,4.08Zm0-6.8H16.161V16.161H32.839ZM3.274,19.194a.759.759,0,0,1-.758-.758V3.274a.759.759,0,0,1,.758-.758H19.952a.759.759,0,0,1,.758.758V8.581H18.435a3.8,3.8,0,0,0-3.79,3.79v6.823ZM22.226,45.726a.759.759,0,0,1-.758.758H3.274a.759.759,0,0,1-.758-.758V30.565a.759.759,0,0,1,.758-.758H14.645v3.546a5.3,5.3,0,0,0-2.274-.514H4.032V43.452H20.71V40.419h1.516Zm23.5-15.919a.759.759,0,0,1,.758.758V45.726a.759.759,0,0,1-.758.758H29.048a.759.759,0,0,1-.758-.758V40.419h2.274a3.787,3.787,0,0,0,.758-.077v4.335l13.066-6.533L34.355,33.128V29.806Z" transform="translate(-1 -1)"/>
        <path id="Trazado_902324" data-name="Trazado 902324" d="M19.7,5.734l-7.664-.851v9.325a2.249,2.249,0,0,0-.758-.139,2.274,2.274,0,1,0,2.274,2.274V6.577l5.981.665ZM11.274,17.1a.758.758,0,1,1,.758-.758A.759.759,0,0,1,11.274,17.1Z" transform="translate(-2.935 -1.939)"/>
        <path id="Trazado_902325" data-name="Trazado 902325" d="M15.274,47a2.274,2.274,0,1,0,2.274,2.274A2.277,2.277,0,0,0,15.274,47Zm0,3.032a.758.758,0,1,1,.758-.758A.759.759,0,0,1,15.274,50.032Z" transform="translate(-3.903 -12.129)"/>
      </g>
    </g>
  </g>
</svg>
