<svg xmlns="http://www.w3.org/2000/svg" width="400" height="281.045" viewBox="0 0 400 281.045">
  <g id="Grupo_1111657" data-name="Grupo 1111657" transform="translate(10209.362 9752.529)">
    <g id="OBJECTS" transform="translate(-10209.362 -9752.529)">
      <g id="Grupo_1111656" data-name="Grupo 1111656" transform="translate(0 0)">
        <path id="Trazado_901579" data-name="Trazado 901579" d="M141.762,166.114h-54.4a3.541,3.541,0,0,1-3.541-3.541V153.98c0-13.718,11.759-23.763,23.355-12.371,9.962-9.554,21.72-.368,21.72,8.574,8-2.7,14.865,2.057,16.357,11.812A3.556,3.556,0,0,1,141.762,166.114Z" transform="translate(-63.286 -86.764)" fill="#bedce0"/>
        <g id="Grupo_1111591" data-name="Grupo 1111591" transform="translate(26.145 142.828)">
          <g id="Grupo_1111587" data-name="Grupo 1111587" transform="translate(6.667 78.8)">
            <path id="Trazado_901580" data-name="Trazado 901580" d="M109.291,347.253,98.876,406.014h6.264l15.569-58.761Z" transform="translate(-98.876 -347.253)" fill="#bedce0"/>
            <path id="Trazado_901581" data-name="Trazado 901581" d="M121.087,352.872l-12.092,6.586,2.163-12.2h11.417Z" transform="translate(-100.743 -347.253)" fill="#a4cacf"/>
          </g>
          <g id="Grupo_1111588" data-name="Grupo 1111588" transform="translate(28.5 78.8)">
            <path id="Trazado_901582" data-name="Trazado 901582" d="M136.065,347.253l-10.416,58.761h6.264l15.569-58.761Z" transform="translate(-125.649 -347.253)" fill="#bedce0"/>
            <path id="Trazado_901583" data-name="Trazado 901583" d="M147.861,352.872l-12.092,6.586,2.163-12.2H149.35Z" transform="translate(-127.517 -347.253)" fill="#a4cacf"/>
          </g>
          <g id="Grupo_1111589" data-name="Grupo 1111589" transform="translate(84.785 78.8)">
            <path id="Trazado_901584" data-name="Trazado 901584" d="M206.088,347.253,216.5,406.014H210.24l-15.568-58.761Z" transform="translate(-194.672 -347.253)" fill="#bedce0"/>
            <path id="Trazado_901585" data-name="Trazado 901585" d="M196.16,352.872l12.092,6.586-2.163-12.2H194.672Z" transform="translate(-194.672 -347.253)" fill="#a4cacf"/>
          </g>
          <g id="Grupo_1111590" data-name="Grupo 1111590" transform="translate(62.952 78.8)">
            <path id="Trazado_901586" data-name="Trazado 901586" d="M179.315,347.253l10.416,58.761h-6.264L167.9,347.253Z" transform="translate(-167.898 -347.253)" fill="#bedce0"/>
            <path id="Trazado_901587" data-name="Trazado 901587" d="M169.387,352.872l12.092,6.586-2.163-12.2H167.9Z" transform="translate(-167.898 -347.253)" fill="#a4cacf"/>
          </g>
          <path id="Trazado_901588" data-name="Trazado 901588" d="M162.664,323.841H108.717L90.79,254.125a2.805,2.805,0,0,1,2.717-3.5h48.155a2.806,2.806,0,0,1,2.717,2.106Z" transform="translate(-90.7 -250.621)" fill="#bedce0"/>
          <path id="Trazado_901589" data-name="Trazado 901589" d="M104.417,307.834l56.7,10.709L165.2,334.4H111.249Z" transform="translate(-93.231 -261.179)" fill="#a4cacf"/>
          <path id="Trazado_901590" data-name="Trazado 901590" d="M194.016,343.588H106.558a16.2,16.2,0,0,1,16.2-16.2h55.069a16.2,16.2,0,0,1,16.194,16.2Z" transform="translate(-93.626 -264.788)" fill="#bedce0"/>
        </g>
        <g id="Grupo_1111603" data-name="Grupo 1111603" transform="translate(34.137 56.209)">
          <g id="Grupo_1111592" data-name="Grupo 1111592" transform="translate(58.969 149.246)">
            <path id="Trazado_901591" data-name="Trazado 901591" d="M189.092,328.049l-3.913,51.963,5.762,13.344,8.96,8.977-8.9.014a8.727,8.727,0,0,1-5.711-2.116l-6.1-5.254.011,7.344-2.4,0-1.977-11.983a7.378,7.378,0,0,1,.119-2.976l2.221-8.944-4.35-51Z" transform="translate(-172.814 -327.42)" fill="#de6767"/>
            <path id="Trazado_901592" data-name="Trazado 901592" d="M177.232,415.082l2.4,0-.011-7.344,6.1,5.254a8.727,8.727,0,0,0,5.711,2.116l8.9-.014-8.96-8.977-2.884-6.679-5.566,3.754-6.66-6.64-.888,3.574a7.365,7.365,0,0,0-.119,2.976Z" transform="translate(-173.246 -340.177)" fill="#1b2536"/>
          </g>
          <g id="Grupo_1111593" data-name="Grupo 1111593" transform="translate(0 149.223)">
            <path id="Trazado_901593" data-name="Trazado 901593" d="M126.657,328.048,119.839,380l-8.521,13.353L100.5,402.349h8.9a10.555,10.555,0,0,0,6.149-2.125l7.183-5.264-1.528,7.344h2.4l4.452-11.986a7.651,7.651,0,0,0,.5-2.976l-.375-8.941,14.887-51.01Z" transform="translate(-100.5 -327.392)" fill="#de6767"/>
            <path id="Trazado_901594" data-name="Trazado 901594" d="M123.612,415.064h-2.4l1.528-7.344-7.183,5.264a10.556,10.556,0,0,1-6.149,2.125h-8.9l10.818-8.991,4.264-6.684,4.792,3.745,8.034-6.65.15,3.573a7.652,7.652,0,0,1-.5,2.976Z" transform="translate(-100.5 -340.15)" fill="#1b2536"/>
          </g>
          <g id="Grupo_1111602" data-name="Grupo 1111602" transform="translate(15.26)">
            <path id="Trazado_901595" data-name="Trazado 901595" d="M175.552,163.6c.217,4.527,3.321,6.379,6.677,9.484s3.29,10.006-.25,13.069c-4.456,3.855-28.46,1.5-32.1,1.151-5.208-.5-9.191-4.195-7.261-10.716,1.452-4.907,10.312-9.842,10.933-15.123Z" transform="translate(-123.441 -147.55)" fill="#28364f"/>
            <g id="Grupo_1111594" data-name="Grupo 1111594" transform="translate(0 31.816)">
              <path id="Trazado_901596" data-name="Trazado 901596" d="M192.655,209.787l-6.745-15.321a15.845,15.845,0,0,0-10.042-8.82l-7.6-2.23H151.416l-7.6,2.23a15.845,15.845,0,0,0-10.042,8.82l-6.745,15.321h-7.811l1.292,9.507a10.309,10.309,0,0,0,19.589,2.9l3.155-6.9,2.1,6.81-8.279,19.429h45.534l-8.279-19.428,2.1-6.81,3.155,6.9a10.309,10.309,0,0,0,19.589-2.9l1.292-9.507h-7.811Z" transform="translate(-119.213 -183.416)" fill="#6e3c3c"/>
              <line id="Línea_1455" data-name="Línea 1455" x2="5.352" y2="20.143" transform="translate(18.684 11.737)" fill="none" stroke="#1b2536" stroke-miterlimit="10" stroke-width="0.676"/>
              <line id="Línea_1456" data-name="Línea 1456" x2="6.744" y2="9.748" transform="translate(10.115 27.006)" fill="none" stroke="#1b2536" stroke-miterlimit="10" stroke-width="0.676"/>
              <line id="Línea_1457" data-name="Línea 1457" x1="5.353" y2="20.143" transform="translate(57.218 11.737)" fill="none" stroke="#1b2536" stroke-miterlimit="10" stroke-width="0.676"/>
              <line id="Línea_1458" data-name="Línea 1458" x1="6.743" y2="9.748" transform="translate(64.395 27.006)" fill="none" stroke="#1b2536" stroke-miterlimit="10" stroke-width="0.676"/>
            </g>
            <path id="Trazado_901597" data-name="Trazado 901597" d="M159.413,191.4H175.1l-7.845,29.177Z" transform="translate(-126.631 -153.073)" fill="#fff"/>
            <g id="Grupo_1111595" data-name="Grupo 1111595" transform="translate(28.372 31.816)">
              <path id="Trazado_901598" data-name="Trazado 901598" d="M157.836,183.416l9.915,38.189-8.81-10.634a8.349,8.349,0,0,1-1.542-7.809l1.024-3.289-2.943-4.27a8.35,8.35,0,0,1,.687-10.345Z" transform="translate(-154.006 -183.416)" fill="#d9956a"/>
              <path id="Trazado_901599" data-name="Trazado 901599" d="M177.12,183.416,167.2,221.6l8.81-10.634a8.349,8.349,0,0,0,1.542-7.809l-1.024-3.289,2.943-4.27a8.35,8.35,0,0,0-.687-10.345Z" transform="translate(-156.441 -183.416)" fill="#d9956a"/>
            </g>
            <path id="Trazado_901600" data-name="Trazado 901600" d="M171.733,178.363l-.442-6.37h-8.352l-.442,6.37a2.492,2.492,0,0,1-1.668,2.181l-2.194.763,2.278,8.917h12.4l2.278-8.917-2.194-.763A2.492,2.492,0,0,1,171.733,178.363Z" transform="translate(-126.488 -149.492)" fill="#de6767"/>
            <path id="Trazado_901601" data-name="Trazado 901601" d="M172.585,177.328l-.37-5.336h-8.352l-.222,3.193a8.081,8.081,0,0,0,6.14,2.587A8.846,8.846,0,0,0,172.585,177.328Z" transform="translate(-127.412 -149.492)" fill="#28364f"/>
            <path id="Trazado_901602" data-name="Trazado 901602" d="M175.772,158.919a13.576,13.576,0,0,0-6.469-11.375l-2.248-1.424-2.248,1.424a13.576,13.576,0,0,0-6.469,11.375c0,1.028-.012,2.045-.029,2.958-.071,4.073,2.56,9.614,8.746,9.614s8.817-5.542,8.746-9.614C175.784,160.964,175.775,159.947,175.772,158.919Z" transform="translate(-126.427 -144.717)" fill="#de6767"/>
            <g id="Grupo_1111596" data-name="Grupo 1111596" transform="translate(34.763 17.876)">
              <path id="Trazado_901603" data-name="Trazado 901603" d="M165.183,167.991a1.67,1.67,0,1,1-1.67-1.67A1.67,1.67,0,0,1,165.183,167.991Z" transform="translate(-161.843 -166.321)" fill="#d65353"/>
              <circle id="Elipse_12092" data-name="Elipse 12092" cx="1.67" cy="1.67" r="1.67" transform="translate(8.388)" fill="#d65353"/>
            </g>
            <path id="Trazado_901604" data-name="Trazado 901604" d="M158.33,158.821s4.874-3.906,5.508-8.613c0,0,5.308,8.206,12.119,10.245h2.17s.534-16.056-11.885-16.054c-7.68,0-10.616,9.614-10.115,13.921Z" transform="translate(-126.015 -144.4)" fill="#28364f"/>
            <g id="Grupo_1111599" data-name="Grupo 1111599" transform="translate(27.452 13.226)">
              <g id="Grupo_1111597" data-name="Grupo 1111597">
                <path id="Trazado_901605" data-name="Trazado 901605" d="M158.447,162.235c1.234,1.6,1.187,3.708-.1,4.7s-3.338.5-4.571-1.1-1.187-3.708.1-4.7S157.214,160.632,158.447,162.235Z" transform="translate(-152.877 -160.619)" fill="#de6767"/>
                <path id="Trazado_901606" data-name="Trazado 901606" d="M154.566,163.262s2.337-1.77,3.906,2.07" transform="translate(-153.189 -161.032)" fill="none" stroke="#6e3c3c" stroke-miterlimit="10" stroke-width="0.5"/>
                <line id="Línea_1459" data-name="Línea 1459" y1="2.009" x2="0.32" transform="translate(2.913 1.823)" fill="none" stroke="#6e3c3c" stroke-miterlimit="10" stroke-width="0.5"/>
              </g>
              <g id="Grupo_1111598" data-name="Grupo 1111598" transform="translate(19.884)">
                <path id="Trazado_901607" data-name="Trazado 901607" d="M178.157,162.235c-1.234,1.6-1.187,3.708.1,4.7s3.338.5,4.571-1.1,1.187-3.708-.1-4.7S179.391,160.632,178.157,162.235Z" transform="translate(-177.261 -160.619)" fill="#de6767"/>
                <path id="Trazado_901608" data-name="Trazado 901608" d="M182.618,163.262s-2.337-1.77-3.906,2.07" transform="translate(-177.529 -161.032)" fill="none" stroke="#6e3c3c" stroke-miterlimit="10" stroke-width="0.5"/>
                <line id="Línea_1460" data-name="Línea 1460" x1="0.32" y1="2.009" transform="translate(3.233 1.823)" fill="none" stroke="#6e3c3c" stroke-miterlimit="10" stroke-width="0.5"/>
              </g>
            </g>
            <g id="Grupo_1111600" data-name="Grupo 1111600" transform="translate(35.77 14.607)">
              <path id="Trazado_901609" data-name="Trazado 901609" d="M164.263,162.313a1.169,1.169,0,0,0-1.133,1.514l.833-.163-.5.7a1.183,1.183,0,1,0,.8-2.053Z" transform="translate(-163.078 -162.313)" fill="#28364f"/>
              <path id="Trazado_901610" data-name="Trazado 901610" d="M173.269,162.313a1.185,1.185,0,0,1,1.185,1.185,1.161,1.161,0,0,1-.052.329l-.833-.163.5.7a1.183,1.183,0,1,1-.8-2.053Z" transform="translate(-164.74 -162.313)" fill="#28364f"/>
            </g>
            <g id="Grupo_1111601" data-name="Grupo 1111601" transform="translate(35.128 13.286)">
              <path id="Trazado_901611" data-name="Trazado 901611" d="M162.29,161.227s1.969-1.2,3.538,0" transform="translate(-162.29 -160.693)" fill="none" stroke="#28364f" stroke-miterlimit="10" stroke-width="1"/>
              <path id="Trazado_901612" data-name="Trazado 901612" d="M174.977,161.227s-1.969-1.2-3.538,0" transform="translate(-163.978 -160.693)" fill="none" stroke="#28364f" stroke-miterlimit="10" stroke-width="1"/>
            </g>
            <path id="Trazado_901613" data-name="Trazado 901613" d="M168.868,162.045l.815,3.972h-1.628" transform="translate(-128.226 -147.656)" fill="none" stroke="#6e3c3c" stroke-miterlimit="10" stroke-width="0.5"/>
            <path id="Trazado_901614" data-name="Trazado 901614" d="M165.523,168.84h5.727s-.481,3.605-2.863,3.605S165.523,168.84,165.523,168.84Z" transform="translate(-127.759 -148.91)" fill="#6e3c3c"/>
            <path id="Trazado_901615" data-name="Trazado 901615" d="M168.544,170.774a4.268,4.268,0,0,0-2.163.542,2.318,2.318,0,0,0,4.327,0A4.268,4.268,0,0,0,168.544,170.774Z" transform="translate(-127.917 -149.267)" fill="#943232"/>
          </g>
          <path id="Trazado_901616" data-name="Trazado 901616" d="M184.9,254.687l-3.5,61.893c-6.914,2.2-16.128.024-25.943.813s-16.825,1.991-23.836,1.39l7.745-64.1Z" transform="translate(-106.242 -164.752)" fill="#6e3c3c"/>
          <path id="Trazado_901617" data-name="Trazado 901617" d="M133.444,313.1l49.132-4.774,1-17.618H136.15Z" transform="translate(-106.579 -171.4)" fill="#1b2536"/>
        </g>
        <g id="Grupo_1111605" data-name="Grupo 1111605" transform="translate(35.578 113.148)">
          <path id="Trazado_901618" data-name="Trazado 901618" d="M211.819,291.333H109.388a7.122,7.122,0,0,1-7.121-7.122V221.346a7.122,7.122,0,0,1,7.121-7.121h102.43a7.122,7.122,0,0,1,7.121,7.121v62.865A7.122,7.122,0,0,1,211.819,291.333Z" transform="translate(-102.267 -214.225)" fill="#4a75c9"/>
          <g id="Grupo_1111604" data-name="Grupo 1111604" transform="translate(7.109 11.549)">
            <rect id="Rectángulo_405101" data-name="Rectángulo 405101" width="7.162" height="8.943" transform="translate(7.214 41.88)" fill="#bedce0"/>
            <rect id="Rectángulo_405102" data-name="Rectángulo 405102" width="7.162" height="20.004" transform="translate(23.387 30.82)" fill="#bedce0"/>
            <rect id="Rectángulo_405103" data-name="Rectángulo 405103" width="7.162" height="28.164" transform="translate(39.56 22.66)" fill="#bedce0"/>
            <rect id="Rectángulo_405104" data-name="Rectángulo 405104" width="7.162" height="32.694" transform="translate(55.732 18.13)" fill="#bedce0"/>
            <rect id="Rectángulo_405105" data-name="Rectángulo 405105" width="7.162" height="44.024" transform="translate(71.904 6.799)" fill="#bedce0"/>
            <rect id="Rectángulo_405106" data-name="Rectángulo 405106" width="7.162" height="24.117" transform="translate(88.077 26.706)" fill="#bedce0"/>
            <rect id="Rectángulo_405107" data-name="Rectángulo 405107" width="7.162" height="28.624" transform="translate(7.214 22.199)" fill="none" stroke="#28364f" stroke-miterlimit="10" stroke-width="0.597"/>
            <rect id="Rectángulo_405108" data-name="Rectángulo 405108" width="7.162" height="24.117" transform="translate(23.387 26.706)" fill="none" stroke="#28364f" stroke-miterlimit="10" stroke-width="0.548"/>
            <rect id="Rectángulo_405109" data-name="Rectángulo 405109" width="7.162" height="40.008" transform="translate(39.56 10.816)" fill="none" stroke="#28364f" stroke-miterlimit="10" stroke-width="0.706"/>
            <rect id="Rectángulo_405110" data-name="Rectángulo 405110" width="7.162" height="43.446" transform="translate(55.732 7.377)" fill="none" stroke="#28364f" stroke-miterlimit="10" stroke-width="0.736"/>
            <rect id="Rectángulo_405111" data-name="Rectángulo 405111" width="7.162" height="50.824" transform="translate(71.904)" fill="none" stroke="#28364f" stroke-miterlimit="10" stroke-width="0.796"/>
            <rect id="Rectángulo_405112" data-name="Rectángulo 405112" width="7.162" height="35.831" transform="translate(88.077 14.993)" fill="none" stroke="#28364f" stroke-miterlimit="10" stroke-width="0.668"/>
            <line id="Línea_1461" data-name="Línea 1461" x2="102.454" transform="translate(0 50.824)" fill="none" stroke="#28364f" stroke-miterlimit="10" stroke-width="0.548"/>
          </g>
        </g>
        <g id="Grupo_1111610" data-name="Grupo 1111610" transform="translate(276.813 142.828)">
          <g id="Grupo_1111606" data-name="Grupo 1111606" transform="translate(78.118 78.8)">
            <path id="Trazado_901619" data-name="Trazado 901619" d="M505.307,347.253l10.416,58.761h-6.264L493.89,347.253Z" transform="translate(-493.89 -347.253)" fill="#bedce0"/>
            <path id="Trazado_901620" data-name="Trazado 901620" d="M495.379,352.872l12.092,6.586-2.163-12.2H493.89Z" transform="translate(-493.89 -347.253)" fill="#a4cacf"/>
          </g>
          <g id="Grupo_1111607" data-name="Grupo 1111607" transform="translate(56.286 78.8)">
            <path id="Trazado_901621" data-name="Trazado 901621" d="M478.534,347.253l10.415,58.761h-6.264l-15.569-58.761Z" transform="translate(-467.117 -347.253)" fill="#bedce0"/>
            <path id="Trazado_901622" data-name="Trazado 901622" d="M468.606,352.872l12.091,6.586-2.163-12.2H467.117Z" transform="translate(-467.117 -347.253)" fill="#a4cacf"/>
          </g>
          <g id="Grupo_1111608" data-name="Grupo 1111608" transform="translate(0 78.8)">
            <path id="Trazado_901623" data-name="Trazado 901623" d="M408.51,347.253l-10.416,58.761h6.264l15.569-58.761Z" transform="translate(-398.094 -347.253)" fill="#bedce0"/>
            <path id="Trazado_901624" data-name="Trazado 901624" d="M420.306,352.872l-12.092,6.586,2.163-12.2h11.417Z" transform="translate(-399.961 -347.253)" fill="#a4cacf"/>
          </g>
          <g id="Grupo_1111609" data-name="Grupo 1111609" transform="translate(21.833 78.8)">
            <path id="Trazado_901625" data-name="Trazado 901625" d="M435.284,347.253l-10.416,58.761h6.264L446.7,347.253Z" transform="translate(-424.868 -347.253)" fill="#bedce0"/>
            <path id="Trazado_901626" data-name="Trazado 901626" d="M447.08,352.872l-12.092,6.586,2.163-12.2h11.416Z" transform="translate(-426.736 -347.253)" fill="#a4cacf"/>
          </g>
          <path id="Trazado_901627" data-name="Trazado 901627" d="M440.589,323.841h53.948l17.927-69.716a2.805,2.805,0,0,0-2.717-3.5H461.592a2.806,2.806,0,0,0-2.717,2.106Z" transform="translate(-405.936 -250.621)" fill="#bedce0"/>
          <path id="Trazado_901628" data-name="Trazado 901628" d="M501.368,307.834l-56.7,10.709L440.589,334.4h53.948Z" transform="translate(-405.936 -261.179)" fill="#a4cacf"/>
          <path id="Trazado_901629" data-name="Trazado 901629" d="M405.732,343.588H493.19A16.2,16.2,0,0,0,477,327.393H421.927a16.194,16.194,0,0,0-16.2,16.2Z" transform="translate(-399.503 -264.788)" fill="#bedce0"/>
        </g>
        <line id="Línea_1462" data-name="Línea 1462" x2="400" transform="translate(0 280.345)" fill="none" stroke="#28364f" stroke-miterlimit="10" stroke-width="1.399"/>
        <g id="Grupo_1111617" data-name="Grupo 1111617" transform="translate(257.676 49.03)">
          <path id="Trazado_901630" data-name="Trazado 901630" d="M470.6,394.388l-.187,8.973a7.578,7.578,0,0,0,.474,2.8l2.095,5.628a2.137,2.137,0,0,1-2,2.883H449.444a1.276,1.276,0,0,1-.705-2.339l9.56-6.347a4.625,4.625,0,0,0,2.062-4.082l-.371-7.513H470.6Z" transform="translate(-388.197 -183.354)" fill="#946351"/>
          <path id="Trazado_901631" data-name="Trazado 901631" d="M459.361,407.39a4.6,4.6,0,0,1-1.064.992l-9.56,6.347a1.276,1.276,0,0,0,.705,2.339h21.539a2.137,2.137,0,0,0,2-2.883l-1.552-4.169-5.455.869a4.272,4.272,0,0,1-3.887-1.481A8.651,8.651,0,0,0,459.361,407.39Z" transform="translate(-388.197 -185.753)" fill="#28364f"/>
          <path id="Trazado_901632" data-name="Trazado 901632" d="M435.914,389.334l1.87,8.777a7.571,7.571,0,0,0,1.1,2.614l3.327,5a2.138,2.138,0,0,1-1.291,3.265l-20.968,4.926a1.276,1.276,0,0,1-1.222-2.115l7.855-8.365a4.625,4.625,0,0,0,1.073-4.445l-2.079-7.229Z" transform="translate(-382.7 -182.421)" fill="#946351"/>
          <path id="Trazado_901633" data-name="Trazado 901633" d="M427.395,405.1a4.642,4.642,0,0,1-.809,1.21l-7.855,8.365a1.276,1.276,0,0,0,1.222,2.115l20.968-4.926a2.138,2.138,0,0,0,1.291-3.265l-2.463-3.7-5.111,2.094a4.274,4.274,0,0,1-4.122-.553A8.679,8.679,0,0,0,427.395,405.1Z" transform="translate(-382.7 -185.293)" fill="#28364f"/>
          <path id="Trazado_901634" data-name="Trazado 901634" d="M455.256,154.148c-.011-.146,4.125-5.764,5.126-8.768s-1.239-4.707-5.126-4.306c0,0,1.571-5.107-3.186-5.008s-6.21,1.149-8.713,0-6.009-.148-6.56,2.706,2.718,7.987,5.358,10.766C445.96,153.542,455.256,154.148,455.256,154.148Z" transform="translate(-386.088 -135.597)" fill="#1b2536"/>
          <path id="Trazado_901635" data-name="Trazado 901635" d="M435.869,227.013H462.61l-4.3-55.719H443.021Z" transform="translate(-385.928 -142.185)" fill="#d4b5a5"/>
          <path id="Trazado_901636" data-name="Trazado 901636" d="M411.031,182.894,393.32,207.207l-18.695,4.807v18.828l16.727-3.987a30.814,30.814,0,0,0,15.389-8.955l12.218-13.1,7.668-30.851-4.387,1.2A20.6,20.6,0,0,0,411.031,182.894Z" transform="translate(-374.626 -142.675)" fill="#415780"/>
          <path id="Trazado_901637" data-name="Trazado 901637" d="M392.417,215.464l-2.078,19.7-8.013,1.841,2-19.46Z" transform="translate(-376.047 -150.336)" fill="#28364f"/>
          <path id="Trazado_901638" data-name="Trazado 901638" d="M413.255,221.074l11.325-12.14L423.2,191.151l-13.278,33A30.82,30.82,0,0,0,413.255,221.074Z" transform="translate(-381.14 -145.849)" fill="#28364f"/>
          <g id="Grupo_1111611" data-name="Grupo 1111611" transform="translate(27.036 87.85)">
            <path id="Trazado_901639" data-name="Trazado 901639" d="M467.006,243.716l-1.8,124.72H448.129l-4.5-105.158h-3.263L429.75,308.146l6.4,53.85-16.413,3.837-10.625-45.142a50.016,50.016,0,0,1,.518-24.93l14.554-52.044h42.823Z" transform="translate(-407.78 -243.399)" fill="#415780"/>
            <path id="Trazado_901640" data-name="Trazado 901640" d="M419.148,269.07,442,265.128l.468-1.967h3.263l.056,1.314,23.076-3.982.244-16.777H426.282Z" transform="translate(-409.878 -243.399)" fill="#28364f"/>
            <line id="Línea_1463" data-name="Línea 1463" x1="1.319" y2="116.338" transform="translate(53.835 8.699)" fill="none" stroke="#1b2536" stroke-miterlimit="10" stroke-width="0.618"/>
            <path id="Trazado_901641" data-name="Trazado 901641" d="M440.408,265.948l-11.089,45.433,7.8,55.419" transform="translate(-411.755 -247.501)" fill="none" stroke="#1b2536" stroke-miterlimit="10" stroke-width="0.618"/>
            <line id="Línea_1464" data-name="Línea 1464" y2="19.879" transform="translate(35.85)" fill="none" stroke="#1b2536" stroke-miterlimit="10" stroke-width="0.618"/>
            <path id="Trazado_901642" data-name="Trazado 901642" d="M447.065,244.309v7.83a7.167,7.167,0,0,0,3.584,6.207l.231.133" transform="translate(-415.03 -243.508)" fill="none" stroke="#1b2536" stroke-miterlimit="10" stroke-width="0.618"/>
            <line id="Línea_1465" data-name="Línea 1465" y1="1.001" x2="17.426" transform="translate(24.624 17.677)" fill="none" stroke="#1b2536" stroke-miterlimit="10" stroke-width="0.618"/>
          </g>
          <rect id="Rectángulo_405113" data-name="Rectángulo 405113" width="34.068" height="4.807" transform="translate(45.852 84.828)" fill="#6e4c2e"/>
          <rect id="Rectángulo_405114" data-name="Rectángulo 405114" width="8.15" height="4.807" transform="translate(56.904 84.828)" fill="#1b2536"/>
          <path id="Trazado_901643" data-name="Trazado 901643" d="M453.417,144.891s-2.053,5.859,2.454,7.712l.751,10.566-7.311,4.407-3.656-2.7v-3.155s-6.209-1.252-3.755-10.466l-.2-4.356S448.911,147.9,453.417,144.891Z" transform="translate(-386.935 -137.312)" fill="#946351"/>
          <g id="Grupo_1111612" data-name="Grupo 1111612" transform="translate(66.654 12.691)">
            <path id="Trazado_901644" data-name="Trazado 901644" d="M462.815,156.458a3.4,3.4,0,1,1-1.184-4.931A3.6,3.6,0,0,1,462.815,156.458Z" transform="translate(-456.364 -151.161)" fill="#946351"/>
            <path id="Trazado_901645" data-name="Trazado 901645" d="M458.1,156.581c-.451-2.8,2.879-5.183,4.306-2.479" transform="translate(-456.676 -151.484)" fill="none" stroke="#422424" stroke-miterlimit="10" stroke-width="0.655"/>
            <line id="Línea_1466" data-name="Línea 1466" x1="1.261" y1="2.066" transform="translate(2.756 1.871)" fill="none" stroke="#422424" stroke-miterlimit="10" stroke-width="0.655"/>
          </g>
          <path id="Trazado_901646" data-name="Trazado 901646" d="M447.106,165.335a8.648,8.648,0,0,0,7.545-1.469" transform="translate(-388.001 -140.814)" fill="none" stroke="#422424" stroke-miterlimit="10" stroke-width="0.655"/>
          <path id="Trazado_901647" data-name="Trazado 901647" d="M460.574,169.685l-3.3,65.69a9.429,9.429,0,0,0,9.417,9.9h14.255L476,224.579l5.558-34.1a12.194,12.194,0,0,0-6.162-12.649Z" transform="translate(-389.875 -141.888)" fill="#415780"/>
          <path id="Trazado_901648" data-name="Trazado 901648" d="M473.859,205.561,479.2,229.58,481.17,217.5Z" transform="translate(-392.938 -148.508)" fill="#28364f"/>
          <path id="Trazado_901649" data-name="Trazado 901649" d="M439.816,172.221,435.822,236.9a9.429,9.429,0,0,1-9.411,8.848h-8.227l7.211-24.57-1.563-33.462a13.721,13.721,0,0,1,10.081-13.874Z" transform="translate(-382.664 -142.356)" fill="#415780"/>
          <path id="Trazado_901650" data-name="Trazado 901650" d="M439.926,174.49l-2,2.532a11.2,11.2,0,0,0-1.821,10.55l1.544,4.545-2.637,5.059a11.2,11.2,0,0,0-.6,8.974l4.042,11.2" transform="translate(-385.535 -142.774)" fill="none" stroke="#28364f" stroke-miterlimit="10" stroke-width="0.655"/>
          <path id="Trazado_901651" data-name="Trazado 901651" d="M462.838,173.369l1.691,2.994a11.2,11.2,0,0,1,.679,9.582l-2.371,6.064,2.1,3.537a11.2,11.2,0,0,1,.524,10.426l-5.376,11.574" transform="translate(-390.396 -142.567)" fill="none" stroke="#28364f" stroke-miterlimit="10" stroke-width="0.655"/>
          <line id="Línea_1467" data-name="Línea 1467" x2="1.069" y2="22.729" transform="translate(40.995 41.831)" fill="none" stroke="#1b2536" stroke-miterlimit="10" stroke-width="0.618"/>
          <rect id="Rectángulo_405115" data-name="Rectángulo 405115" width="9.714" height="2.036" transform="translate(40.959 90.132) rotate(-22.788)" fill="#fff"/>
          <rect id="Rectángulo_405116" data-name="Rectángulo 405116" width="9.714" height="2.036" transform="translate(72.593 86.343) rotate(22.788)" fill="#fff"/>
          <path id="Trazado_901652" data-name="Trazado 901652" d="M448.058,176l1.878-3.29,2.3,3.29-.752,2.518,2.253,37.806-4.607,7.812-4.423-7.812,4.173-37.806Z" transform="translate(-387.559 -142.446)" fill="#fff"/>
          <g id="Grupo_1111614" data-name="Grupo 1111614" transform="translate(75.713 122.333)">
            <path id="Trazado_901653" data-name="Trazado 901653" d="M494.606,285.614h-2.369a10.856,10.856,0,0,0-8,3.519l-7.121,7.765h32.615l-7.121-7.765A10.857,10.857,0,0,0,494.606,285.614Z" transform="translate(-469.252 -285.614)" fill="none" stroke="#d65353" stroke-miterlimit="10" stroke-width="2"/>
            <rect id="Rectángulo_405117" data-name="Rectángulo 405117" width="48.339" height="16.558" transform="translate(0 9.214)" fill="#d65353"/>
            <rect id="Rectángulo_405118" data-name="Rectángulo 405118" width="48.339" height="18.159" transform="translate(0 25.772)" fill="#1b2536"/>
            <g id="Grupo_1111613" data-name="Grupo 1111613" transform="translate(8.296 21.699)">
              <rect id="Rectángulo_405119" data-name="Rectángulo 405119" width="3.205" height="15.123" transform="translate(28.543)" fill="none" stroke="#fff" stroke-miterlimit="10" stroke-width="0.655"/>
              <rect id="Rectángulo_405120" data-name="Rectángulo 405120" width="3.205" height="15.123" fill="none" stroke="#fff" stroke-miterlimit="10" stroke-width="0.655"/>
            </g>
          </g>
          <g id="Grupo_1111615" data-name="Grupo 1111615" transform="translate(56.267 12.766)">
            <path id="Trazado_901654" data-name="Trazado 901654" d="M444.865,152.316l.719.216a.982.982,0,0,0,.044-.279,1.013,1.013,0,1,0-.235.637Z" transform="translate(-443.626 -151.252)" fill="#1b2536"/>
            <path id="Trazado_901655" data-name="Trazado 901655" d="M451.226,152.316l.719.216a.983.983,0,0,0,.044-.279,1.013,1.013,0,1,0-.235.637Z" transform="translate(-444.8 -151.252)" fill="#1b2536"/>
          </g>
          <path id="Trazado_901656" data-name="Trazado 901656" d="M447.289,150.766l.25,1.586-.413,1.989a1.016,1.016,0,0,0,.995,1.223h1.333" transform="translate(-388.001 -138.396)" fill="none" stroke="#422424" stroke-miterlimit="10" stroke-width="0.655"/>
          <path id="Trazado_901657" data-name="Trazado 901657" d="M446.679,158.123a5.044,5.044,0,0,0,4.318-.712" transform="translate(-387.922 -139.623)" fill="none" stroke="#422424" stroke-miterlimit="10" stroke-width="0.655"/>
          <g id="Grupo_1111616" data-name="Grupo 1111616" transform="translate(55.689 11.144)">
            <path id="Trazado_901658" data-name="Trazado 901658" d="M448.942,149.425a8.124,8.124,0,0,1,3.16,0" transform="translate(-444.029 -149.263)" fill="none" stroke="#1b2536" stroke-miterlimit="10" stroke-width="1"/>
            <path id="Trazado_901659" data-name="Trazado 901659" d="M442.917,149.425a8.124,8.124,0,0,1,3.16,0" transform="translate(-442.917 -149.263)" fill="none" stroke="#1b2536" stroke-miterlimit="10" stroke-width="1"/>
          </g>
          <path id="Trazado_901660" data-name="Trazado 901660" d="M451.118,171.6l8.146-4.919,2.531,3.268-7.789,5.774Z" transform="translate(-388.742 -141.333)" fill="#b3988b"/>
          <path id="Trazado_901661" data-name="Trazado 901661" d="M449.537,171.95l-2.529,4.431-4.456-4.431,2.328-3.356Z" transform="translate(-387.161 -141.686)" fill="#b3988b"/>
          <path id="Trazado_901662" data-name="Trazado 901662" d="M492.155,275.872l.188,2.186-1.62,3.5a1.248,1.248,0,0,0,1.133,1.772h0l-.173,1.738a2.061,2.061,0,0,0,2.051,2.265h5.488a2.061,2.061,0,0,0,2.037-2.374l-1.041-6.787.1-2.3h-8.162Z" transform="translate(-396.029 -161.483)" fill="#946351"/>
          <path id="Trazado_901663" data-name="Trazado 901663" d="M488.7,190.312l10.974,27.081a33.363,33.363,0,0,1,2.362,14.846l-1.869,26.889H486.678l-.668-28.442-12.151-30.045L477.3,178.9l2.437,1.34A20.113,20.113,0,0,1,488.7,190.312Z" transform="translate(-392.938 -143.588)" fill="#415780"/>
        </g>
        <path id="Trazado_901664" data-name="Trazado 901664" d="M361.575,292.461H235.886v-80.2a7.122,7.122,0,0,1,7.121-7.121H354.453a7.122,7.122,0,0,1,7.121,7.121Z" transform="translate(-91.347 -99.399)" fill="#415780"/>
        <path id="Trazado_901665" data-name="Trazado 901665" d="M354.453,399.55H243.007a7.122,7.122,0,0,1-7.121-7.121v-80.2H361.575v80.2A7.122,7.122,0,0,1,354.453,399.55Z" transform="translate(-91.347 -119.161)" fill="#6e9296"/>
        <g id="Grupo_1111627" data-name="Grupo 1111627" transform="translate(153.273 142.442)">
          <g id="Grupo_1111620" data-name="Grupo 1111620">
            <g id="Grupo_1111619" data-name="Grupo 1111619">
              <path id="Trazado_901666" data-name="Trazado 901666" d="M268.577,252.041H248.425v38.954H279.01v-28.52Z" transform="translate(-246.934 -250.497)" fill="#1b2536"/>
              <path id="Trazado_901667" data-name="Trazado 901667" d="M266.749,250.148H246.6V289.1h30.586V260.582Z" transform="translate(-246.597 -250.148)" fill="#fff"/>
              <path id="Trazado_901668" data-name="Trazado 901668" d="M271.309,250.148v10.434h10.434Z" transform="translate(-251.157 -250.148)" fill="#d9b59e"/>
              <rect id="Rectángulo_405121" data-name="Rectángulo 405121" width="9.716" height="1.791" transform="translate(3.797 8.643)" fill="#415780"/>
              <g id="Grupo_1111618" data-name="Grupo 1111618" transform="translate(3.797 13.33)">
                <rect id="Rectángulo_405122" data-name="Rectángulo 405122" width="22.992" height="0.895" fill="#415780"/>
                <rect id="Rectángulo_405123" data-name="Rectángulo 405123" width="22.992" height="0.895" transform="translate(0 3.166)" fill="#415780"/>
                <rect id="Rectángulo_405124" data-name="Rectángulo 405124" width="22.992" height="0.895" transform="translate(0 6.331)" fill="#415780"/>
                <rect id="Rectángulo_405125" data-name="Rectángulo 405125" width="22.992" height="0.895" transform="translate(0 9.497)" fill="#415780"/>
                <rect id="Rectángulo_405126" data-name="Rectángulo 405126" width="22.992" height="0.895" transform="translate(0 12.662)" fill="#415780"/>
                <rect id="Rectángulo_405127" data-name="Rectángulo 405127" width="9.716" height="0.895" transform="translate(0 15.827)" fill="#415780"/>
              </g>
            </g>
          </g>
          <g id="Grupo_1111623" data-name="Grupo 1111623" transform="translate(38.071)">
            <g id="Grupo_1111622" data-name="Grupo 1111622">
              <path id="Trazado_901669" data-name="Trazado 901669" d="M315.264,252.041H295.112v38.954H325.7v-28.52Z" transform="translate(-293.621 -250.497)" fill="#1b2536"/>
              <path id="Trazado_901670" data-name="Trazado 901670" d="M313.436,250.148H293.284V289.1H323.87V260.582Z" transform="translate(-293.284 -250.148)" fill="#fff"/>
              <path id="Trazado_901671" data-name="Trazado 901671" d="M318,250.148v10.434h10.434Z" transform="translate(-297.844 -250.148)" fill="#d9b59e"/>
              <rect id="Rectángulo_405128" data-name="Rectángulo 405128" width="9.716" height="1.791" transform="translate(3.797 8.643)" fill="#415780"/>
              <g id="Grupo_1111621" data-name="Grupo 1111621" transform="translate(3.797 13.33)">
                <rect id="Rectángulo_405129" data-name="Rectángulo 405129" width="22.992" height="0.895" fill="#415780"/>
                <rect id="Rectángulo_405130" data-name="Rectángulo 405130" width="22.992" height="0.895" transform="translate(0 3.166)" fill="#415780"/>
                <rect id="Rectángulo_405131" data-name="Rectángulo 405131" width="22.992" height="0.895" transform="translate(0 6.331)" fill="#415780"/>
                <rect id="Rectángulo_405132" data-name="Rectángulo 405132" width="22.992" height="0.895" transform="translate(0 9.497)" fill="#415780"/>
                <rect id="Rectángulo_405133" data-name="Rectángulo 405133" width="22.992" height="0.895" transform="translate(0 12.662)" fill="#415780"/>
                <rect id="Rectángulo_405134" data-name="Rectángulo 405134" width="9.716" height="0.895" transform="translate(0 15.827)" fill="#415780"/>
              </g>
            </g>
          </g>
          <g id="Grupo_1111626" data-name="Grupo 1111626" transform="translate(76.143)">
            <g id="Grupo_1111625" data-name="Grupo 1111625">
              <path id="Trazado_901672" data-name="Trazado 901672" d="M361.952,252.041H341.8v38.954h30.586v-28.52Z" transform="translate(-340.309 -250.497)" fill="#1b2536"/>
              <path id="Trazado_901673" data-name="Trazado 901673" d="M360.123,250.148H339.971V289.1h30.586V260.582Z" transform="translate(-339.971 -250.148)" fill="#fff"/>
              <path id="Trazado_901674" data-name="Trazado 901674" d="M364.684,250.148v10.434h10.434Z" transform="translate(-344.531 -250.148)" fill="#d9b59e"/>
              <rect id="Rectángulo_405135" data-name="Rectángulo 405135" width="9.716" height="1.791" transform="translate(3.798 8.643)" fill="#415780"/>
              <g id="Grupo_1111624" data-name="Grupo 1111624" transform="translate(3.798 13.33)">
                <rect id="Rectángulo_405136" data-name="Rectángulo 405136" width="22.992" height="0.895" fill="#415780"/>
                <rect id="Rectángulo_405137" data-name="Rectángulo 405137" width="22.992" height="0.895" transform="translate(0 3.166)" fill="#415780"/>
                <rect id="Rectángulo_405138" data-name="Rectángulo 405138" width="22.992" height="0.895" transform="translate(0 6.331)" fill="#415780"/>
                <rect id="Rectángulo_405139" data-name="Rectángulo 405139" width="22.992" height="0.895" transform="translate(0 9.497)" fill="#415780"/>
                <rect id="Rectángulo_405140" data-name="Rectángulo 405140" width="22.992" height="0.895" transform="translate(0 12.662)" fill="#415780"/>
                <rect id="Rectángulo_405141" data-name="Rectángulo 405141" width="9.716" height="0.895" transform="translate(0 15.827)" fill="#415780"/>
              </g>
            </g>
          </g>
        </g>
        <g id="Grupo_1111631" data-name="Grupo 1111631" transform="translate(154.568 203.386)">
          <g id="Grupo_1111630" data-name="Grupo 1111630">
            <path id="Trazado_901675" data-name="Trazado 901675" d="M351.326,345.366H253.85a4.078,4.078,0,0,1-4.077-4.077V331.2a4.078,4.078,0,0,1,4.077-4.077h97.475A4.078,4.078,0,0,1,355.4,331.2v10.087A4.078,4.078,0,0,1,351.326,345.366Z" transform="translate(-248.478 -325.297)" fill="#496163"/>
            <path id="Trazado_901676" data-name="Trazado 901676" d="M349.738,343.125H252.262a4.077,4.077,0,0,1-4.077-4.077V328.96a4.077,4.077,0,0,1,4.077-4.077h97.475a4.078,4.078,0,0,1,4.077,4.077v10.087A4.078,4.078,0,0,1,349.738,343.125Z" transform="translate(-248.185 -324.883)" fill="#fff"/>
            <g id="Grupo_1111629" data-name="Grupo 1111629" transform="translate(6.123 0.661)">
              <circle id="Elipse_12093" data-name="Elipse 12093" cx="6.419" cy="6.419" r="6.419" transform="translate(0 5.15) rotate(-23.653)" fill="#d9b59e"/>
              <g id="Grupo_1111628" data-name="Grupo 1111628" transform="translate(19.028 4.802)">
                <line id="Línea_1468" data-name="Línea 1468" x2="72.325" fill="none" stroke="#28364f" stroke-linecap="round" stroke-linejoin="round" stroke-miterlimit="10" stroke-width="0.75"/>
                <line id="Línea_1469" data-name="Línea 1469" x2="72.325" transform="translate(0 3.657)" fill="none" stroke="#28364f" stroke-linecap="round" stroke-linejoin="round" stroke-miterlimit="10" stroke-width="0.75"/>
                <line id="Línea_1470" data-name="Línea 1470" x2="72.325" transform="translate(0 7.314)" fill="none" stroke="#28364f" stroke-linecap="round" stroke-linejoin="round" stroke-miterlimit="10" stroke-width="0.75"/>
              </g>
            </g>
          </g>
        </g>
        <g id="Grupo_1111635" data-name="Grupo 1111635" transform="translate(154.568 226.691)">
          <g id="Grupo_1111634" data-name="Grupo 1111634">
            <path id="Trazado_901677" data-name="Trazado 901677" d="M351.326,373.945H253.85a4.078,4.078,0,0,1-4.077-4.077V359.78a4.078,4.078,0,0,1,4.077-4.077h97.475a4.078,4.078,0,0,1,4.077,4.077v10.087A4.077,4.077,0,0,1,351.326,373.945Z" transform="translate(-248.478 -353.876)" fill="#496163"/>
            <path id="Trazado_901678" data-name="Trazado 901678" d="M349.738,371.7H252.262a4.077,4.077,0,0,1-4.077-4.077V357.539a4.077,4.077,0,0,1,4.077-4.077h97.475a4.078,4.078,0,0,1,4.077,4.077v10.087A4.077,4.077,0,0,1,349.738,371.7Z" transform="translate(-248.185 -353.462)" fill="#fff"/>
            <g id="Grupo_1111633" data-name="Grupo 1111633" transform="translate(6.124 0.661)">
              <circle id="Elipse_12094" data-name="Elipse 12094" cx="6.419" cy="6.419" r="6.419" transform="translate(0 5.15) rotate(-23.653)" fill="#d9b59e"/>
              <g id="Grupo_1111632" data-name="Grupo 1111632" transform="translate(19.027 4.803)">
                <line id="Línea_1471" data-name="Línea 1471" x2="72.325" fill="none" stroke="#28364f" stroke-linecap="round" stroke-linejoin="round" stroke-miterlimit="10" stroke-width="0.75"/>
                <line id="Línea_1472" data-name="Línea 1472" x2="72.325" transform="translate(0 3.657)" fill="none" stroke="#28364f" stroke-linecap="round" stroke-linejoin="round" stroke-miterlimit="10" stroke-width="0.75"/>
                <line id="Línea_1473" data-name="Línea 1473" x2="72.325" transform="translate(0 7.314)" fill="none" stroke="#28364f" stroke-linecap="round" stroke-linejoin="round" stroke-miterlimit="10" stroke-width="0.75"/>
              </g>
            </g>
          </g>
        </g>
        <g id="Grupo_1111639" data-name="Grupo 1111639" transform="translate(154.568 249.996)">
          <g id="Grupo_1111638" data-name="Grupo 1111638">
            <path id="Trazado_901679" data-name="Trazado 901679" d="M351.326,402.525H253.85a4.078,4.078,0,0,1-4.077-4.077V388.36a4.078,4.078,0,0,1,4.077-4.077h97.475a4.078,4.078,0,0,1,4.077,4.077v10.087A4.078,4.078,0,0,1,351.326,402.525Z" transform="translate(-248.478 -382.455)" fill="#496163"/>
            <path id="Trazado_901680" data-name="Trazado 901680" d="M349.738,400.283H252.262a4.077,4.077,0,0,1-4.077-4.077V386.118a4.077,4.077,0,0,1,4.077-4.077h97.475a4.078,4.078,0,0,1,4.077,4.077v10.087A4.077,4.077,0,0,1,349.738,400.283Z" transform="translate(-248.185 -382.041)" fill="#fff"/>
            <g id="Grupo_1111637" data-name="Grupo 1111637" transform="translate(6.125 0.662)">
              <circle id="Elipse_12095" data-name="Elipse 12095" cx="6.419" cy="6.419" r="6.419" transform="translate(0 5.15) rotate(-23.653)" fill="#d9b59e"/>
              <g id="Grupo_1111636" data-name="Grupo 1111636" transform="translate(19.027 4.803)">
                <line id="Línea_1474" data-name="Línea 1474" x2="72.325" fill="none" stroke="#28364f" stroke-linecap="round" stroke-linejoin="round" stroke-miterlimit="10" stroke-width="0.75"/>
                <line id="Línea_1475" data-name="Línea 1475" x2="72.325" transform="translate(0 3.657)" fill="none" stroke="#28364f" stroke-linecap="round" stroke-linejoin="round" stroke-miterlimit="10" stroke-width="0.75"/>
                <line id="Línea_1476" data-name="Línea 1476" x2="72.325" transform="translate(0 7.314)" fill="none" stroke="#28364f" stroke-linecap="round" stroke-linejoin="round" stroke-miterlimit="10" stroke-width="0.75"/>
              </g>
            </g>
          </g>
        </g>
        <g id="Grupo_1111641" data-name="Grupo 1111641" transform="translate(232.225 188.809)">
          <path id="Trazado_901681" data-name="Trazado 901681" d="M388.495,337.653H355.348a3.757,3.757,0,0,1-3.757-3.757V310.764a3.757,3.757,0,0,1,3.757-3.757h33.147a3.757,3.757,0,0,1,3.757,3.757V333.9A3.757,3.757,0,0,1,388.495,337.653Z" transform="translate(-344.924 -307.007)" fill="#d65353"/>
          <rect id="Rectángulo_405142" data-name="Rectángulo 405142" width="33.05" height="22.634" transform="translate(10.472 3.524)" fill="#fff"/>
          <g id="Grupo_1111640" data-name="Grupo 1111640" transform="translate(24.627 6.661)">
            <line id="Línea_1477" data-name="Línea 1477" x2="16.024" fill="none" stroke="#415780" stroke-miterlimit="10" stroke-width="0.871"/>
            <line id="Línea_1478" data-name="Línea 1478" x2="16.024" transform="translate(0 3.072)" fill="none" stroke="#415780" stroke-miterlimit="10" stroke-width="0.871"/>
          </g>
          <path id="Trazado_901682" data-name="Trazado 901682" d="M365.216,321.488l-1.539-5.15a3.751,3.751,0,0,0-3.594-2.677H345.955a2.451,2.451,0,0,0-2.39,3.408l5.5,18.4a4.96,4.96,0,0,0,4.426,3.408h33.845a2.451,2.451,0,0,0,2.39-3.408l-3.378-11.308a3.751,3.751,0,0,0-3.594-2.677H365.216Z" transform="translate(-343.416 -308.235)" fill="#ebbc3b"/>
        </g>
        <g id="Grupo_1111643" data-name="Grupo 1111643" transform="translate(335.873 35.578)">
          <path id="Trazado_901683" data-name="Trazado 901683" d="M521.938,119.1H485.706a7.122,7.122,0,0,0-7.122,7.121v12.727a1.344,1.344,0,0,1-.548,1.084l-7.214,5.306a.74.74,0,0,0,.439,1.337h5.979a1.345,1.345,0,0,1,1.345,1.345v8.213a7.122,7.122,0,0,0,7.122,7.121h36.232a7.122,7.122,0,0,0,7.121-7.121V126.222A7.122,7.122,0,0,0,521.938,119.1Z" transform="translate(-470.518 -119.1)" fill="none" stroke="#bedce0" stroke-miterlimit="10" stroke-width="1.144"/>
          <g id="Grupo_1111642" data-name="Grupo 1111642" transform="translate(14.476 8.111)">
            <path id="Trazado_901684" data-name="Trazado 901684" d="M522.9,130.482l3.705,3.705,5.141-5.141" transform="translate(-494.661 -129.047)" fill="none" stroke="#4a75c9" stroke-linecap="round" stroke-linejoin="round" stroke-miterlimit="10" stroke-width="1.144"/>
            <path id="Trazado_901685" data-name="Trazado 901685" d="M512.105,134.271H489.739a1.468,1.468,0,0,1-1.469-1.469h0a1.468,1.468,0,0,1,1.469-1.469h22.366a1.468,1.468,0,0,1,1.469,1.469h0A1.469,1.469,0,0,1,512.105,134.271Z" transform="translate(-488.27 -129.469)" fill="#ebbc3b"/>
            <path id="Trazado_901686" data-name="Trazado 901686" d="M522.9,144.518l3.705,3.705,5.141-5.141" transform="translate(-494.661 -131.637)" fill="none" stroke="#4a75c9" stroke-linecap="round" stroke-linejoin="round" stroke-miterlimit="10" stroke-width="1.144"/>
            <path id="Trazado_901687" data-name="Trazado 901687" d="M512.105,148.306H489.739a1.469,1.469,0,0,1-1.469-1.469h0a1.468,1.468,0,0,1,1.469-1.469h22.366a1.468,1.468,0,0,1,1.469,1.469h0A1.468,1.468,0,0,1,512.105,148.306Z" transform="translate(-488.27 -132.059)" fill="#ebbc3b"/>
            <path id="Trazado_901688" data-name="Trazado 901688" d="M522.9,158.553l3.705,3.706,5.141-5.141" transform="translate(-494.661 -134.227)" fill="none" stroke="#4a75c9" stroke-linecap="round" stroke-linejoin="round" stroke-miterlimit="10" stroke-width="1.144"/>
            <path id="Trazado_901689" data-name="Trazado 901689" d="M512.105,162.342H489.739a1.468,1.468,0,0,1-1.469-1.469h0a1.468,1.468,0,0,1,1.469-1.469h22.366a1.468,1.468,0,0,1,1.469,1.469h0A1.468,1.468,0,0,1,512.105,162.342Z" transform="translate(-488.27 -134.649)" fill="#ebbc3b"/>
          </g>
        </g>
        <path id="Trazado_901690" data-name="Trazado 901690" d="M398.805,107.577h59.3a3.86,3.86,0,0,0,3.86-3.86V94.349c0-14.956-12.819-25.906-25.461-13.487-10.86-10.416-23.679-.4-23.679,9.348-8.721-2.949-16.206,2.243-17.833,12.878A3.877,3.877,0,0,0,398.805,107.577Z" transform="translate(-120.7 -75.471)" fill="#bedce0"/>
        <g id="Grupo_1111646" data-name="Grupo 1111646" transform="translate(137.896 45.192)">
          <path id="Trazado_901691" data-name="Trazado 901691" d="M346.307,218.217H234.861a7.122,7.122,0,0,1-7.121-7.121V138.012a7.122,7.122,0,0,1,7.121-7.122H346.307a7.122,7.122,0,0,1,7.121,7.122V211.1A7.122,7.122,0,0,1,346.307,218.217Z" transform="translate(-227.74 -130.89)" fill="#ebbc3b"/>
          <g id="Grupo_1111644" data-name="Grupo 1111644" transform="translate(8.585 12.035)">
            <circle id="Elipse_12096" data-name="Elipse 12096" cx="31.628" cy="31.628" r="31.628" fill="#fff"/>
            <path id="Trazado_901692" data-name="Trazado 901692" d="M308.1,171.273a31.632,31.632,0,0,0-31.051-25.623v31.628Z" transform="translate(-245.425 -145.649)" fill="#d65353"/>
            <path id="Trazado_901693" data-name="Trazado 901693" d="M308.681,183.075a31.8,31.8,0,0,0-.577-6.005l-31.051,6.005,3.113,31.474A31.629,31.629,0,0,0,308.681,183.075Z" transform="translate(-245.425 -151.447)" fill="#4a75c9"/>
            <path id="Trazado_901694" data-name="Trazado 901694" d="M269.9,182.066,240.048,171.6a31.631,31.631,0,0,0,29.848,42.09c1.051,0,2.089-.054,3.113-.154Z" transform="translate(-238.268 -150.439)" fill="#6e9296"/>
            <path id="Trazado_901695" data-name="Trazado 901695" d="M240.451,169.433,270.3,179.895l-24.452-20.058A31.575,31.575,0,0,0,240.451,169.433Z" transform="translate(-238.671 -148.267)" fill="#415780"/>
          </g>
          <g id="Grupo_1111645" data-name="Grupo 1111645" transform="translate(76.207 18.987)">
            <path id="Trazado_901696" data-name="Trazado 901696" d="M328.071,157.613a3.439,3.439,0,1,1-3.439-3.439A3.439,3.439,0,0,1,328.071,157.613Z" transform="translate(-321.193 -154.174)" fill="#d65353"/>
            <line id="Línea_1479" data-name="Línea 1479" x2="26.55" transform="translate(9.111 3.439)" fill="none" stroke="#fff" stroke-miterlimit="10" stroke-width="0.842"/>
            <path id="Trazado_901697" data-name="Trazado 901697" d="M328.071,170.635a3.439,3.439,0,1,1-3.439-3.439A3.438,3.438,0,0,1,328.071,170.635Z" transform="translate(-321.193 -156.577)" fill="#4a75c9"/>
            <line id="Línea_1480" data-name="Línea 1480" x2="26.55" transform="translate(9.111 14.058)" fill="none" stroke="#fff" stroke-miterlimit="10" stroke-width="0.842"/>
            <path id="Trazado_901698" data-name="Trazado 901698" d="M328.071,183.656a3.439,3.439,0,1,1-3.439-3.439A3.438,3.438,0,0,1,328.071,183.656Z" transform="translate(-321.193 -158.98)" fill="#6e9296"/>
            <line id="Línea_1481" data-name="Línea 1481" x2="26.55" transform="translate(9.111 24.676)" fill="none" stroke="#fff" stroke-miterlimit="10" stroke-width="0.842"/>
            <path id="Trazado_901699" data-name="Trazado 901699" d="M328.071,196.678a3.439,3.439,0,1,1-3.439-3.439A3.438,3.438,0,0,1,328.071,196.678Z" transform="translate(-321.193 -161.383)" fill="#415780"/>
            <line id="Línea_1482" data-name="Línea 1482" x2="26.55" transform="translate(9.111 35.295)" fill="none" stroke="#fff" stroke-miterlimit="10" stroke-width="0.842"/>
            <path id="Trazado_901700" data-name="Trazado 901700" d="M328.071,209.7a3.439,3.439,0,1,1-3.439-3.439A3.439,3.439,0,0,1,328.071,209.7Z" transform="translate(-321.193 -163.786)" fill="#fff"/>
            <line id="Línea_1483" data-name="Línea 1483" x2="26.55" transform="translate(9.111 45.914)" fill="none" stroke="#fff" stroke-miterlimit="10" stroke-width="0.842"/>
          </g>
        </g>
        <g id="Grupo_1111651" data-name="Grupo 1111651" transform="translate(48.112 109.213)">
          <g id="Grupo_1111648" data-name="Grupo 1111648">
            <path id="Trazado_901701" data-name="Trazado 901701" d="M118.732,209.931l7.528-.528a1.4,1.4,0,0,1,1.489,1.247l.509,4.77a1.674,1.674,0,0,1-1.664,1.851h-6.635a1.674,1.674,0,0,1-1.657-1.437l-.652-4.563A1.177,1.177,0,0,1,118.732,209.931Z" transform="translate(-117.638 -209.399)" fill="#de6767"/>
            <g id="Grupo_1111647" data-name="Grupo 1111647" transform="translate(1.941 1.56)">
              <line id="Línea_1484" data-name="Línea 1484" x2="1.224" y2="6.311" fill="none" stroke="#6e3c3c" stroke-miterlimit="10" stroke-width="0.5"/>
              <line id="Línea_1485" data-name="Línea 1485" x2="1.225" y2="6.311" transform="translate(2.64)" fill="none" stroke="#6e3c3c" stroke-miterlimit="10" stroke-width="0.5"/>
              <line id="Línea_1486" data-name="Línea 1486" x2="1.224" y2="6.311" transform="translate(5.282)" fill="none" stroke="#6e3c3c" stroke-miterlimit="10" stroke-width="0.5"/>
            </g>
          </g>
          <g id="Grupo_1111650" data-name="Grupo 1111650" transform="translate(73.194)">
            <path id="Trazado_901702" data-name="Trazado 901702" d="M216.93,209.931,209.4,209.4a1.4,1.4,0,0,0-1.489,1.247l-.509,4.77a1.674,1.674,0,0,0,1.664,1.851H215.7a1.674,1.674,0,0,0,1.657-1.437l.652-4.563A1.177,1.177,0,0,0,216.93,209.931Z" transform="translate(-207.395 -209.399)" fill="#de6767"/>
            <g id="Grupo_1111649" data-name="Grupo 1111649" transform="translate(2.182 1.56)">
              <line id="Línea_1487" data-name="Línea 1487" x1="1.224" y2="6.311" transform="translate(5.283)" fill="none" stroke="#6e3c3c" stroke-miterlimit="10" stroke-width="0.5"/>
              <line id="Línea_1488" data-name="Línea 1488" x1="1.224" y2="6.311" transform="translate(2.641)" fill="none" stroke="#6e3c3c" stroke-miterlimit="10" stroke-width="0.5"/>
              <line id="Línea_1489" data-name="Línea 1489" x1="1.225" y2="6.311" fill="none" stroke="#6e3c3c" stroke-miterlimit="10" stroke-width="0.5"/>
            </g>
          </g>
        </g>
        <g id="Grupo_1111653" data-name="Grupo 1111653" transform="translate(233.564 23.908)">
          <rect id="Rectángulo_405143" data-name="Rectángulo 405143" width="6.276" height="34.185" transform="translate(26.175 30.617) rotate(-45)" fill="#4a75c9"/>
          <path id="Trazado_901703" data-name="Trazado 901703" d="M377.159,141.329l2.417,2.417a17.275,17.275,0,0,0,5.27-3.606l-3.249-3.249Z" transform="translate(-350.981 -110.713)" fill="#1b2536"/>
          <rect id="Rectángulo_405144" data-name="Rectángulo 405144" width="6.276" height="21.544" transform="translate(35.113 39.556) rotate(-45)" fill="#1b2536"/>
          <circle id="Elipse_12097" data-name="Elipse 12097" cx="17.326" cy="17.326" r="17.326" fill="#4a75c9"/>
          <path id="Trazado_901704" data-name="Trazado 901704" d="M372.55,113.91a12.991,12.991,0,1,1-18.372,0A12.992,12.992,0,0,1,372.55,113.91Z" transform="translate(-346.038 -105.77)" fill="#fff"/>
          <g id="Grupo_1111652" data-name="Grupo 1111652" transform="translate(7.064 10.07)">
            <path id="Trazado_901705" data-name="Trazado 901705" d="M357.2,134.7a10.284,10.284,0,0,1-.9-1.031" transform="translate(-354.195 -120.189)" fill="none" stroke="#bedce0" stroke-miterlimit="10" stroke-width="1.747"/>
            <path id="Trazado_901706" data-name="Trazado 901706" d="M354.51,128.352a10.265,10.265,0,0,1,2.215-11.214" transform="translate(-353.719 -117.138)" fill="none" stroke="#bedce0" stroke-miterlimit="10" stroke-width="1.747"/>
          </g>
        </g>
        <g id="Grupo_1111655" data-name="Grupo 1111655" transform="translate(105.624 14.616)">
          <path id="Trazado_901707" data-name="Trazado 901707" d="M229.783,135.592H200.092a4.578,4.578,0,0,0-3.131,1.238l-6.55,6.138a1.334,1.334,0,0,1-2.246-.973V100.516a7.122,7.122,0,0,1,7.121-7.121h34.5a7.122,7.122,0,0,1,7.121,7.121V128.47A7.121,7.121,0,0,1,229.783,135.592Z" transform="translate(-188.165 -93.395)" fill="#6e9296"/>
          <g id="Grupo_1111654" data-name="Grupo 1111654" transform="translate(7.945 8.653)">
            <path id="Trazado_901708" data-name="Trazado 901708" d="M229.329,106.863H199.337a1.429,1.429,0,0,1-1.429-1.429h0a1.429,1.429,0,0,1,1.429-1.429h29.992a1.429,1.429,0,0,1,1.429,1.429h0A1.428,1.428,0,0,1,229.329,106.863Z" transform="translate(-197.908 -104.006)" fill="none" stroke="#fff" stroke-miterlimit="10" stroke-width="0.682"/>
            <path id="Trazado_901709" data-name="Trazado 901709" d="M229.329,115.87H199.337a1.429,1.429,0,0,1-1.429-1.429h0a1.429,1.429,0,0,1,1.429-1.429h29.992a1.429,1.429,0,0,1,1.429,1.429h0A1.429,1.429,0,0,1,229.329,115.87Z" transform="translate(-197.908 -105.668)" fill="none" stroke="#fff" stroke-miterlimit="10" stroke-width="0.682"/>
            <path id="Trazado_901710" data-name="Trazado 901710" d="M229.329,124.876H199.337a1.429,1.429,0,0,1-1.429-1.429h0a1.428,1.428,0,0,1,1.429-1.429h29.992a1.429,1.429,0,0,1,1.429,1.429h0A1.428,1.428,0,0,1,229.329,124.876Z" transform="translate(-197.908 -107.33)" fill="none" stroke="#fff" stroke-miterlimit="10" stroke-width="0.682"/>
            <path id="Trazado_901711" data-name="Trazado 901711" d="M229.329,133.882H199.337a1.429,1.429,0,0,1-1.429-1.429h0a1.429,1.429,0,0,1,1.429-1.429h29.992a1.429,1.429,0,0,1,1.429,1.429h0A1.428,1.428,0,0,1,229.329,133.882Z" transform="translate(-197.908 -108.992)" fill="none" stroke="#fff" stroke-miterlimit="10" stroke-width="0.682"/>
          </g>
        </g>
      </g>
    </g>
  </g>
</svg>
