<svg xmlns="http://www.w3.org/2000/svg" width="39.051" height="36.013" viewBox="0 0 39.051 36.013">
  <g id="Grupo_1112060" data-name="Grupo 1112060" transform="translate(-195 -2537.867)">
    <g id="Rectángulo_405072" data-name="Rectángulo 405072" transform="translate(195 2537.867)" fill="#fece2f" stroke="#faedc1" stroke-width="3">
      <rect width="39.051" height="36.013" rx="12" stroke="none"/>
      <rect x="1.5" y="1.5" width="36.051" height="33.013" rx="10.5" fill="none"/>
    </g>
    <g id="Grupo_1111994" data-name="Grupo 1111994" transform="translate(195.02 2542.4)">
      <path id="Trazado_902266" data-name="Trazado 902266" d="M29.55,283.61a.363.363,0,0,1,.508-.517l2.624,2.586a1.53,1.53,0,0,0,.139.118,1.189,1.189,0,0,0,.813.243,1.241,1.241,0,0,0,.78-.376,1.914,1.914,0,0,0,.128-.149,1.765,1.765,0,0,0,.332-1.173,1.686,1.686,0,0,0-.474-1.095l-4.379-4.314a2.37,2.37,0,0,0-1.055-.616,3.577,3.577,0,0,0-1.264-.08l-7.245.676v6.6h5.512a.366.366,0,0,1,.292.147l2.755,3.081a2.692,2.692,0,0,0,1.112.769,2.371,2.371,0,0,0,1.283.069l11-2.35c.08-.018.194-.04.309-.06.628-.121,1.311-.25,1.311-1.127a1.13,1.13,0,0,0-.267-.746.786.786,0,0,0-.588-.284h-.007l-7.759.415a2.328,2.328,0,0,1-.295.52,2.046,2.046,0,0,1-.19.22,1.96,1.96,0,0,1-1.239.592,1.9,1.9,0,0,1-1.308-.388,2.1,2.1,0,0,1-.209-.181Z" transform="translate(-13.276 -263.755)" fill="#fbbd80"/>
      <g id="Grupo_1111993" data-name="Grupo 1111993" transform="translate(6.816 2.045)">
        <path id="Trazado_902267" data-name="Trazado 902267" d="M14.023,247.039h2.593a.571.571,0,0,1,.569.57v9.965a.571.571,0,0,1-.569.57H14.023a.572.572,0,0,1-.57-.57v-9.965A.572.572,0,0,1,14.023,247.039Z" transform="translate(-13.453 -236.243)" fill="#968c96" fill-rule="evenodd"/>
        <path id="Trazado_902268" data-name="Trazado 902268" d="M352.151,308.253h2.077v1.761a.576.576,0,0,1-.573.575h-.93a.577.577,0,0,1-.575-.575Z" transform="translate(-334.546 -294.275)" fill="#214c5f" fill-rule="evenodd"/>
        <path id="Trazado_902269" data-name="Trazado 902269" d="M277.963,76.233c0-3.025-3.3-3.657-3.3-7.3a5.066,5.066,0,1,1,10.133,0c0,3.642-3.3,4.274-3.3,7.3v.726a.728.728,0,0,1-.728.726h-2.078a.728.728,0,0,1-.726-.726Z" transform="translate(-261.085 -62.592)" fill="#feda43" fill-rule="evenodd"/>
        <path id="Trazado_902270" data-name="Trazado 902270" d="M336.148,287.531a3.682,3.682,0,0,0-.112-.919h3.754a3.749,3.749,0,0,0-.111.919v.726a.728.728,0,0,1-.728.726h-2.078a.728.728,0,0,1-.726-.726Z" transform="translate(-319.268 -273.759)" fill="#295d76" fill-rule="evenodd"/>
        <path id="Trazado_902271" data-name="Trazado 902271" d="M338.84,309.086h-2.078a.728.728,0,0,1-.726-.726v-.46h3.532v.46a.728.728,0,0,1-.728.726Z" transform="translate(-319.268 -293.941)" fill="#214c5f" fill-rule="evenodd"/>
        <path id="Trazado_902272" data-name="Trazado 902272" d="M54.118,44.626l-.919.255a3.582,3.582,0,0,1-.27.648l.47.83A4.476,4.476,0,0,1,52.257,47.5l-.83-.47a3.578,3.578,0,0,1-.648.27l-.255.919a4.554,4.554,0,0,1-1.615,0l-.255-.919a3.534,3.534,0,0,1-.649-.27l-.83.47a4.475,4.475,0,0,1-1.142-1.142l.469-.83a3.68,3.68,0,0,1-.268-.648l-.919-.255a4.551,4.551,0,0,1,0-1.615l.919-.255a3.634,3.634,0,0,1,.268-.649l-.469-.83a4.474,4.474,0,0,1,1.142-1.142l.83.469a3.638,3.638,0,0,1,.648-.268l.255-.919a4.551,4.551,0,0,1,1.615,0l.255.919a3.685,3.685,0,0,1,.648.268l.83-.469A4.475,4.475,0,0,1,53.4,41.278l-.47.83a3.538,3.538,0,0,1,.27.648l.919.255a4.551,4.551,0,0,1,0,1.615Z" transform="translate(-43.592 -39.345)" fill="#bec7cf" fill-rule="evenodd"/>
        <path id="Trazado_902273" data-name="Trazado 902273" d="M97.013,89.126a1.989,1.989,0,1,1-1.989-1.989,1.989,1.989,0,0,1,1.989,1.989Z" transform="translate(-88.898 -84.653)" fill="#eaf6ff" fill-rule="evenodd"/>
        <path id="Trazado_902274" data-name="Trazado 902274" d="M303.791,107.6h1.5v-.491a.7.7,0,1,1,1.394,0v.491h1.5a.245.245,0,0,1,.246.245v.749h.491a.7.7,0,1,1,0,1.394h-.491v.748a.246.246,0,0,1-.246.245h-1.5v-.489a.7.7,0,1,0-1.394,0v.489h-1.5a.246.246,0,0,1-.245-.245v-.748h-.491a.7.7,0,1,1,0-1.394h.491v-.749a.245.245,0,0,1,.245-.245Z" transform="translate(-287.342 -102.926)" fill="#60b7ff" fill-rule="evenodd"/>
        <path id="Trazado_902275" data-name="Trazado 902275" d="M91.728,94.143a1.99,1.99,0,0,0,0,3.963c-.059,0-.12.007-.18.007a1.989,1.989,0,1,1,0-3.978C91.609,94.136,91.669,94.138,91.728,94.143Z" transform="translate(-85.603 -91.288)" fill="#d3dde6" fill-rule="evenodd"/>
        <path id="Trazado_902276" data-name="Trazado 902276" d="M369.909,68.948c0,3.24-2.614,4.1-3.189,6.38h.721c.576-2.282,3.19-3.14,3.19-6.38a5.066,5.066,0,0,0-5.066-5.066c-.122,0-.242,0-.36.012a5.068,5.068,0,0,1,4.7,5.054Z" transform="translate(-346.92 -62.607)" fill="#e5c43c" fill-rule="evenodd"/>
        <path id="Trazado_902277" data-name="Trazado 902277" d="M393.078,286.608h-.721a3.68,3.68,0,0,0-.112.919v.267h.722v-.266a3.751,3.751,0,0,1,.111-.919Z" transform="translate(-372.556 -273.755)" fill="#25546a" fill-rule="evenodd"/>
        <path id="Trazado_902278" data-name="Trazado 902278" d="M392.969,309.426h-.722v1.186a.729.729,0,0,0,.722-.726Z" transform="translate(-372.558 -295.387)" fill="#1e4456" fill-rule="evenodd"/>
        <path id="Trazado_902279" data-name="Trazado 902279" d="M104.6,285.023l-7.759.415a2.3,2.3,0,0,1-.267.482l7.656-.41h.007a.786.786,0,0,1,.588.284,1.123,1.123,0,0,1,.267.744,1.25,1.25,0,0,1-.047.36.914.914,0,0,0,.417-.846,1.13,1.13,0,0,0-.267-.746.786.786,0,0,0-.588-.284Zm-14.581-6.212a2.373,2.373,0,0,1,1.056.616l4.379,4.314a1.683,1.683,0,0,1,.474,1.095,1.831,1.831,0,0,1-.174.912c.029-.025.057-.052.084-.078a1.917,1.917,0,0,0,.128-.149,1.765,1.765,0,0,0,.332-1.173,1.686,1.686,0,0,0-.474-1.095l-4.379-4.314a2.37,2.37,0,0,0-1.055-.616,3.575,3.575,0,0,0-1.264-.08l-3.877.361v.454l3.507-.327a3.5,3.5,0,0,1,1.263.08Z" transform="translate(-81.52 -265.807)" fill="#e2aa73" fill-rule="evenodd"/>
        <path id="Trazado_902280" data-name="Trazado 902280" d="M67.765,247.039v11.105h.34a.571.571,0,0,0,.569-.57v-9.965a.571.571,0,0,0-.569-.57Z" transform="translate(-64.942 -236.243)" fill="#877e87" fill-rule="evenodd"/>
      </g>
      <path id="Trazado_902281" data-name="Trazado 902281" d="M29.9,20.534h-.019l-7.568.406a2.468,2.468,0,0,0-.686-1.967l-4.379-4.313a3.381,3.381,0,0,0-2.894-.9l-3.446.321v-.669a.935.935,0,0,0-.934-.934H7.385a.934.934,0,0,0-.933.934v9.965a.934.934,0,0,0,.933.934H9.978a.935.935,0,0,0,.934-.934V22.49h1.616L15.2,25.475a3.188,3.188,0,0,0,2.4,1.138,3.282,3.282,0,0,0,.683-.073l11.009-2.35c.092-.02.187-.038.288-.057.759-.144,1.906-.362,1.906-1.841A1.679,1.679,0,0,0,29.9,20.534Zm-19.72,2.842a.207.207,0,0,1-.206.206H7.385a.208.208,0,0,1-.2-.206V13.411a.208.208,0,0,1,.2-.206H9.978a.206.206,0,0,1,.206.206Zm19.262.042c-.1.019-.206.039-.306.061l-11.008,2.35a2.412,2.412,0,0,1-2.394-.838l-2.777-3.106a.364.364,0,0,0-.271-.121H10.912V14.811l3.514-.327a2.672,2.672,0,0,1,2.316.7l4.379,4.313a1.8,1.8,0,0,1,.143,2.267,1.265,1.265,0,0,1-.917.526,1.206,1.206,0,0,1-.94-.363l-2.624-2.586a.364.364,0,0,0-.511.518L18.9,22.44a1.923,1.923,0,0,0,1.5.57,1.982,1.982,0,0,0,1.445-.814,2.328,2.328,0,0,0,.294-.518l7.774-.417a.971.971,0,0,1,.847,1.03c0,.835-.475.966-1.314,1.126Zm-20.4-8.786v.018a.364.364,0,1,1-.728,0v-.018a.364.364,0,0,1,.728,0ZM25,18.7h.93a.94.94,0,0,0,.939-.939v-.274a1.091,1.091,0,0,0,.726-1.027v-.726a3.394,3.394,0,0,1,.094-.805.362.362,0,0,0,.012-.048,5.734,5.734,0,0,1,1.346-2.2A6.18,6.18,0,0,0,30.89,8.438a5.43,5.43,0,1,0-10.861,0,6.178,6.178,0,0,0,1.85,4.251,5.731,5.731,0,0,1,1.346,2.2.358.358,0,0,0,.012.046,3.393,3.393,0,0,1,.094.806v.726a1.092,1.092,0,0,0,.726,1.027v.274a.939.939,0,0,0,.937.939Zm1.868-3.063H24.058a4.2,4.2,0,0,0-.034-.458H26.9a4.212,4.212,0,0,0-.034.458Zm-2.8.728h2.8v.1a.363.363,0,0,1-.362.363H24.422a.363.363,0,0,1-.363-.363Zm1.865,1.608H25a.213.213,0,0,1-.209-.211v-.211h1.35v.211a.214.214,0,0,1-.211.211ZM20.757,8.438a4.7,4.7,0,1,1,9.4,0,5.435,5.435,0,0,1-1.68,3.785,6.932,6.932,0,0,0-1.417,2.231H23.856a6.93,6.93,0,0,0-1.418-2.231A5.434,5.434,0,0,1,20.757,8.438Zm7.514-6.086L28.938,1.2a.364.364,0,1,1,.631.364L28.9,2.716a.364.364,0,0,1-.631-.364Zm3.941,2.119L31.1,5.116a.364.364,0,1,1-.364-.63l1.115-.644a.364.364,0,0,1,.364.63Zm-13.637-.5a.364.364,0,0,1,.5-.133l1.114.644a.364.364,0,0,1-.364.63l-1.114-.644A.364.364,0,0,1,18.576,3.974Zm2.776-2.413a.364.364,0,0,1,.63-.364l.668,1.155a.364.364,0,0,1-.63.364Zm3.745.152V.364a.364.364,0,0,1,.728,0v1.35a.364.364,0,0,1-.728,0ZM8.444,7.677l.732.2q.061.17.14.338l-.375.661a.364.364,0,0,0,.018.387A4.848,4.848,0,0,0,10.194,10.5a.364.364,0,0,0,.386.017l.662-.374q.164.078.338.141l.2.733a.364.364,0,0,0,.286.261,4.914,4.914,0,0,0,1.744,0,.364.364,0,0,0,.286-.261l.2-.733q.174-.063.34-.141l.662.374a.364.364,0,0,0,.386-.018,4.865,4.865,0,0,0,1.234-1.234.364.364,0,0,0,.018-.387l-.375-.661q.077-.166.14-.338l.733-.2a.364.364,0,0,0,.261-.284,4.824,4.824,0,0,0,0-1.748.364.364,0,0,0-.261-.284l-.733-.2q-.062-.173-.14-.338l.375-.661a.364.364,0,0,0-.018-.387,4.863,4.863,0,0,0-1.234-1.234.364.364,0,0,0-.386-.018l-.662.374q-.166-.078-.339-.14l-.2-.733a.364.364,0,0,0-.286-.261,4.932,4.932,0,0,0-1.744,0,.364.364,0,0,0-.286.261l-.2.733q-.172.062-.337.14l-.663-.373a.364.364,0,0,0-.385.017A4.815,4.815,0,0,0,8.959,3.772a.364.364,0,0,0-.017.386l.374.661q-.079.168-.14.339l-.732.2a.364.364,0,0,0-.261.284,4.827,4.827,0,0,0,0,1.747.364.364,0,0,0,.261.285ZM8.864,6l.693-.192a.364.364,0,0,0,.252-.247,3.172,3.172,0,0,1,.241-.581.364.364,0,0,0,0-.35L9.691,4a4.083,4.083,0,0,1,.735-.735l.627.353a.364.364,0,0,0,.35,0,3.322,3.322,0,0,1,.583-.242.364.364,0,0,0,.244-.251l.192-.692a4.2,4.2,0,0,1,1.039,0l.192.693a.364.364,0,0,0,.244.251,3.289,3.289,0,0,1,.584.241.364.364,0,0,0,.35,0l.627-.353A4.131,4.131,0,0,1,16.192,4l-.354.625a.364.364,0,0,0,0,.35,3.283,3.283,0,0,1,.241.583.364.364,0,0,0,.251.244L17.019,6a4.112,4.112,0,0,1,0,1.039l-.693.193a.364.364,0,0,0-.251.244,3.378,3.378,0,0,1-.242.585.364.364,0,0,0,.005.349l.354.625a4.132,4.132,0,0,1-.735.734l-.626-.354a.364.364,0,0,0-.352,0,3.183,3.183,0,0,1-.582.242.364.364,0,0,0-.244.251l-.192.693a4.194,4.194,0,0,1-1.039,0L12.229,9.9a.364.364,0,0,0-.244-.251A3.208,3.208,0,0,1,11.4,9.41a.364.364,0,0,0-.352,0l-.627.354a4.115,4.115,0,0,1-.734-.735l.354-.625a.364.364,0,0,0,.005-.349,3.266,3.266,0,0,1-.241-.583.364.364,0,0,0-.251-.246l-.693-.192A4.116,4.116,0,0,1,8.864,6Zm4.076,2.872a2.353,2.353,0,1,0-2.353-2.353,2.353,2.353,0,0,0,2.353,2.353Zm0-3.978a1.625,1.625,0,1,1-1.625,1.625,1.625,1.625,0,0,1,1.625-1.625Zm11.823,5.57a.364.364,0,0,0,.364-.364V9.608a.333.333,0,1,1,.666,0V10.1a.364.364,0,0,0,.364.364h1.5a.609.609,0,0,0,.609-.609V9.47h.127a1.061,1.061,0,1,0,0-2.122h-.127V6.963a.609.609,0,0,0-.609-.609H26.521V6.228a1.061,1.061,0,0,0-2.122,0v.127H23.267a.61.61,0,0,0-.61.609v.385h-.125a1.061,1.061,0,1,0,0,2.122h.125v.385a.61.61,0,0,0,.61.609ZM22.532,8.742a.333.333,0,1,1,0-.666h.489a.364.364,0,0,0,.364-.364V7.083h1.379a.364.364,0,0,0,.364-.364V6.228a.333.333,0,1,1,.666,0v.491a.364.364,0,0,0,.364.364h1.377v.629a.364.364,0,0,0,.364.364h.491a.333.333,0,1,1,0,.666H27.9a.364.364,0,0,0-.364.364v.629H26.521V9.608a1.061,1.061,0,1,0-2.122,0v.127H23.385V9.106a.364.364,0,0,0-.364-.364Z"/>
    </g>
  </g>
</svg>
