<svg xmlns="http://www.w3.org/2000/svg" width="132" height="132" viewBox="0 0 132 132">
  <g id="Grupo_1112063" data-name="Grupo 1112063" transform="translate(-423.051 -900)">
    <g id="Grupo_1099402" data-name="Grupo 1099402" transform="translate(-523.73 -3540)">
      <rect id="Rectángulo_401228" data-name="Rectángulo 401228" width="132" height="132" rx="14" transform="translate(946.781 4440)" fill="#405f5a"/>
    </g>
    <g id="Computer-Date_And_Time-Work_From_Home-List-Clock" data-name="Computer-Date And Time-Work From Home-List-Clock" transform="translate(431.051 913)">
      <path id="Trazado_901746" data-name="Trazado 901746" d="M96,17.8V62H11V17.8A6.8,6.8,0,0,1,17.8,11H89.2A6.8,6.8,0,0,1,96,17.8Z" transform="translate(6.3 6.3)" fill="#5aaae7"/>
      <path id="Trazado_901747" data-name="Trazado 901747" d="M48.4,24.6a23.8,23.8,0,0,1-34,21.5A23.29,23.29,0,0,1,11,44.133V17.8A6.8,6.8,0,0,1,17.8,11H44.133A23.29,23.29,0,0,1,46.1,14.4,23.61,23.61,0,0,1,48.4,24.6Z" transform="translate(6.3 6.3)" fill="#3d9ae2"/>
      <path id="Trazado_901748" data-name="Trazado 901748" d="M50.6,26.8a23.8,23.8,0,0,1-34,21.505,24.254,24.254,0,0,1-6.63-4.675A23.8,23.8,0,0,1,43.63,9.97a24.254,24.254,0,0,1,4.675,6.63A23.61,23.61,0,0,1,50.6,26.8Z" transform="translate(0.7 0.699)" fill="#00ccb3"/>
      <path id="Trazado_901749" data-name="Trazado 901749" d="M55.2,62.6H28L29.7,49H53.5Z" transform="translate(18.2 32.9)" fill="#acabb1"/>
      <path id="Trazado_901750" data-name="Trazado 901750" d="M96,41v6.8a6.8,6.8,0,0,1-6.8,6.8H17.8A6.8,6.8,0,0,1,11,47.8V41Z" transform="translate(6.3 27.3)" fill="#c6c5ca"/>
      <path id="Trazado_901751" data-name="Trazado 901751" d="M61.4,57a3.4,3.4,0,1,1,0,6.8h-34a3.4,3.4,0,1,1,0-6.8Z" transform="translate(15.4 38.5)" fill="#898890"/>
      <path id="Trazado_901752" data-name="Trazado 901752" d="M46.617,29.989A6.814,6.814,0,1,1,41.806,28a6.814,6.814,0,0,1,4.811,1.989Z" transform="translate(23.094 18.2)" fill="#ffd422"/>
      <path id="Trazado_901753" data-name="Trazado 901753" d="M46.617,17.989A6.814,6.814,0,1,1,41.806,16a6.814,6.814,0,0,1,4.811,1.989Z" transform="translate(23.094 9.8)" fill="#ffd422"/>
      <path id="Trazado_901754" data-name="Trazado 901754" d="M18.4,15A3.4,3.4,0,1,1,15,18.4,3.4,3.4,0,0,1,18.4,15Z" transform="translate(9.1 9.1)" fill="#ff5023"/>
      <path id="Trazado_901755" data-name="Trazado 901755" d="M53.4,52.4H28.75l.425-3.4h23.8Z" transform="translate(18.725 32.9)" fill="#898890"/>
      <path id="Trazado_901756" data-name="Trazado 901756" d="M89.9,10H49.1v3.4H89.9A5.115,5.115,0,0,1,95,18.5V61H13.4V49.1H10V69.5A8.5,8.5,0,0,0,18.5,78H40.379L39.1,88.2H37.2a5.1,5.1,0,0,0,0,10.2h34a5.1,5.1,0,1,0,0-10.2H69.3L68.021,78H89.9a8.5,8.5,0,0,0,8.5-8.5v-51A8.5,8.5,0,0,0,89.9,10ZM71.2,91.6a1.7,1.7,0,0,1,0,3.4h-34a1.7,1.7,0,0,1,0-3.4ZM42.521,88.2,43.8,78H64.6l1.275,10.2ZM95,69.5a5.115,5.115,0,0,1-5.1,5.1H18.5a5.115,5.115,0,0,1-5.1-5.1V64.4H95Z" transform="translate(5.6 5.6)"/>
      <path id="Trazado_901757" data-name="Trazado 901757" d="M54,44h3.4v3.4H54Z" transform="translate(36.4 29.4)"/>
      <path id="Trazado_901758" data-name="Trazado 901758" d="M53,27.5A25.5,25.5,0,1,0,27.5,53,25.5,25.5,0,0,0,53,27.5ZM13.075,39.521,10.735,41.86A21.972,21.972,0,0,1,5.487,29.2H8.8V25.8H5.487a21.973,21.973,0,0,1,5.248-12.66l2.341,2.339,2.4-2.4L13.14,10.735A21.973,21.973,0,0,1,25.8,5.487V8.8h3.4V5.487a21.973,21.973,0,0,1,12.66,5.248l-2.339,2.341,2.4,2.4,2.341-2.339A21.972,21.972,0,0,1,49.513,25.8H46.2v3.4h3.313a21.972,21.972,0,0,1-5.248,12.66l-2.341-2.339-2.4,2.4,2.339,2.341A21.973,21.973,0,0,1,29.2,49.513V46.2H25.8v3.313a21.973,21.973,0,0,1-12.66-5.248l2.339-2.341Z"/>
      <path id="Trazado_901759" data-name="Trazado 901759" d="M13.7,33l5.114-5.112A5.017,5.017,0,0,0,21,28.4a5.088,5.088,0,0,0,1.7-9.887V8H19.3V18.513A5.1,5.1,0,0,0,15.9,23.3a5.017,5.017,0,0,0,.51,2.185L11.292,30.6ZM21,21.6a1.7,1.7,0,1,1-1.7,1.7A1.7,1.7,0,0,1,21,21.6Z" transform="translate(6.504 4.2)"/>
      <path id="Trazado_901760" data-name="Trazado 901760" d="M49.819,14.293,47.2,16.911a8.526,8.526,0,1,0,2.4,2.4L52.223,16.7Zm-2.2,9.7a5.1,5.1,0,1,1-5.1-5.1,5.017,5.017,0,0,1,2.185.51l-5.086,5.086,2.4,2.4,5.088-5.085A5.017,5.017,0,0,1,47.621,23.995Z" transform="translate(22.379 8.605)"/>
      <path id="Trazado_901761" data-name="Trazado 901761" d="M48,17H61.6v3.4H48Z" transform="translate(32.2 10.5)"/>
      <path id="Trazado_901762" data-name="Trazado 901762" d="M48,21H61.6v3.4H48Z" transform="translate(32.2 13.3)"/>
      <path id="Trazado_901763" data-name="Trazado 901763" d="M42.507,44.495a8.486,8.486,0,0,0,7.084-13.18L52.209,28.7l-2.4-2.4-2.618,2.618a8.5,8.5,0,1,0-4.68,15.584Zm0-13.6a5.017,5.017,0,0,1,2.185.51l-5.086,5.086,2.4,2.4L47.1,33.81a5.017,5.017,0,0,1,.51,2.184,5.1,5.1,0,1,1-5.1-5.1Z" transform="translate(22.393 17.005)"/>
      <path id="Trazado_901764" data-name="Trazado 901764" d="M48,29H61.6v3.4H48Z" transform="translate(32.2 18.9)"/>
      <path id="Trazado_901765" data-name="Trazado 901765" d="M48,33H61.6v3.4H48Z" transform="translate(32.2 21.7)"/>
    </g>
  </g>
</svg>
