<svg xmlns="http://www.w3.org/2000/svg" width="82" height="82" viewBox="0 0 82 82">
  <g id="Grupo_1112080" data-name="Grupo 1112080" transform="translate(-768.355 -1301)">
    <circle id="Elipse_11497" data-name="Elipse 11497" cx="41" cy="41" r="41" transform="translate(768.355 1301)" fill="#ff9b6a"/>
    <g id="Grupo_1111731" data-name="Grupo 1111731" transform="translate(783.076 1312.802)">
      <g id="Grupo_1111729" data-name="Grupo 1111729" transform="translate(0.776 3.474)">
        <g id="Grupo_1111717" data-name="Grupo 1111717" transform="translate(10.341)">
          <g id="Grupo_1111716" data-name="Grupo 1111716">
            <g id="Grupo_1111715" data-name="Grupo 1111715">
              <g id="Grupo_1111714" data-name="Grupo 1111714">
                <g id="Grupo_1111713" data-name="Grupo 1111713">
                  <path id="Trazado_901877" data-name="Trazado 901877" d="M135.138,61.645h-23.6a4.141,4.141,0,0,1-4.141-4.141V14.338a4.141,4.141,0,0,1,4.141-4.141h23.6a4.141,4.141,0,0,1,4.141,4.141V57.5A4.141,4.141,0,0,1,135.138,61.645Z" transform="translate(-107.395 -10.197)" fill="#3d6d93"/>
                  <path id="Trazado_901878" data-name="Trazado 901878" d="M348.5,10.2h-3.106a4.141,4.141,0,0,1,4.141,4.141V57.5a4.141,4.141,0,0,1-4.141,4.141H348.5a4.141,4.141,0,0,0,4.141-4.141V14.338A4.141,4.141,0,0,0,348.5,10.2Z" transform="translate(-320.758 -10.197)" fill="#335e80"/>
                  <path id="Trazado_901879" data-name="Trazado 901879" d="M157.835,41.025a1.4,1.4,0,0,1-1.4,1.4H144.027a1.4,1.4,0,0,1-1.4-1.4.828.828,0,0,0-.828-.828h-2.852a1.553,1.553,0,0,0-1.553,1.553V83.881a1.553,1.553,0,0,0,1.553,1.553h22.567a1.553,1.553,0,0,0,1.553-1.553V41.75a1.553,1.553,0,0,0-1.553-1.553h-2.852a.828.828,0,0,0-.828.828Z" transform="translate(-134.289 -37.091)" fill="#f9f7f8"/>
                </g>
              </g>
            </g>
          </g>
        </g>
        <g id="Grupo_1111720" data-name="Grupo 1111720" transform="translate(0.558 5.653)">
          <g id="Grupo_1111718" data-name="Grupo 1111718">
            <circle id="Elipse_12102" data-name="Elipse 12102" cx="8.951" cy="8.951" r="8.951" transform="translate(0 0)" fill="#ffe179"/>
            <path id="Trazado_901880" data-name="Trazado 901880" d="M85.916,64.8a9,9,0,0,0-1.553.137,8.949,8.949,0,0,1,0,17.628A8.95,8.95,0,1,0,85.916,64.8Z" transform="translate(-76.965 -64.802)" fill="#fbd268"/>
          </g>
          <g id="Grupo_1111719" data-name="Grupo 1111719" transform="translate(4.293 4.293)">
            <path id="Trazado_901881" data-name="Trazado 901881" d="M62.126,115.587H55.915a1.553,1.553,0,0,1-1.553-1.553v-6.211a1.553,1.553,0,0,1,1.553-1.553h6.211a1.553,1.553,0,0,1,1.553,1.553v6.211A1.553,1.553,0,0,1,62.126,115.587Z" transform="translate(-54.362 -106.27)" fill="#f58a97"/>
            <path id="Trazado_901882" data-name="Trazado 901882" d="M102.469,106.27H99.363a1.553,1.553,0,0,1,1.553,1.553v6.211a1.553,1.553,0,0,1-1.553,1.553h3.106a1.553,1.553,0,0,0,1.553-1.553v-6.211A1.553,1.553,0,0,0,102.469,106.27Z" transform="translate(-94.705 -106.27)" fill="#f07281"/>
            <circle id="Elipse_12103" data-name="Elipse 12103" cx="1.553" cy="1.553" r="1.553" transform="translate(3.106 3.106)" fill="#fff"/>
          </g>
        </g>
        <g id="Grupo_1111722" data-name="Grupo 1111722" transform="translate(0 26.777)">
          <g id="Grupo_1111721" data-name="Grupo 1111721">
            <circle id="Elipse_12104" data-name="Elipse 12104" cx="8.951" cy="8.951" r="8.951" fill="#8fd8fa"/>
            <path id="Trazado_901883" data-name="Trazado 901883" d="M79.626,268.866a8.989,8.989,0,0,0-1.656.155,8.95,8.95,0,0,1,0,17.591,8.951,8.951,0,1,0,1.656-17.746Z" transform="translate(-70.675 -268.866)" fill="#6bcdfe"/>
          </g>
          <g id="Shape_2_" transform="translate(3.967 4.839)">
            <path id="Trazado_901884" data-name="Trazado 901884" d="M53.654,316.288a1.978,1.978,0,0,0-3.47,1.324v.441a4.706,4.706,0,0,1-3.682-1.627.264.264,0,0,0-.455.094,4.108,4.108,0,0,0,2.371,5.272,5.139,5.139,0,0,1-2.067.821c-.191.031-.1.384-.048.51.333.87,4.091,1.23,6.393-.663a6.037,6.037,0,0,0,1.99-3.7,4.071,4.071,0,0,0,1.094-2.152.472.472,0,0,0-.677-.5,2.267,2.267,0,0,1-.5.173A2.312,2.312,0,0,1,53.654,316.288Z" transform="translate(-45.819 -315.608)" fill="#fff"/>
          </g>
        </g>
        <g id="Grupo_1111725" data-name="Grupo 1111725" transform="translate(34.105 26.777)">
          <g id="Grupo_1111723" data-name="Grupo 1111723">
            <circle id="Elipse_12105" data-name="Elipse 12105" cx="8.951" cy="8.951" r="8.951" transform="translate(0 0)" fill="#f58a97"/>
            <path id="Trazado_901885" data-name="Trazado 901885" d="M409.98,268.866a9,9,0,0,0-1.553.137,8.949,8.949,0,0,1,0,17.628,8.95,8.95,0,1,0,1.553-17.765Z" transform="translate(-401.029 -268.866)" fill="#f07281"/>
          </g>
          <g id="Grupo_1111724" data-name="Grupo 1111724" transform="translate(6.753 5.605)">
            <path id="Trazado_901886" data-name="Trazado 901886" d="M402.2,323.317a.3.3,0,0,1,.451-.26l5.444,3.145a.3.3,0,0,1,0,.521l-5.444,3.145a.3.3,0,0,1-.451-.26Z" transform="translate(-402.196 -323.015)" fill="#fff"/>
          </g>
        </g>
        <g id="Grupo_1111727" data-name="Grupo 1111727" transform="translate(34.105 5.653)">
          <g id="Grupo_1111726" data-name="Grupo 1111726">
            <circle id="Elipse_12106" data-name="Elipse 12106" cx="8.951" cy="8.951" r="8.951" fill="#8fd8fa"/>
            <path id="Trazado_901887" data-name="Trazado 901887" d="M409.98,64.8a9,9,0,0,0-1.553.137,8.949,8.949,0,0,1,0,17.628A8.95,8.95,0,1,0,409.98,64.8Z" transform="translate(-401.029 -64.802)" fill="#6bcdfe"/>
          </g>
        </g>
        <path id="Trazado_901888" data-name="Trazado 901888" d="M202.477,198.261a6.256,6.256,0,0,0-5.755,8.271.715.715,0,0,1,0,.467l-.833,2.37a.414.414,0,0,0,.528.528l1.667-.586a.731.731,0,0,1,.7.121,6.256,6.256,0,1,0,3.7-11.17Z" transform="translate(-176.362 -178.791)" fill="#aee69c"/>
        <g id="Grupo_1111728" data-name="Grupo 1111728" transform="translate(24.725 19.468)">
          <path id="Trazado_901889" data-name="Trazado 901889" d="M247.739,198.261a6.18,6.18,0,0,0-1.382.195,6.255,6.255,0,0,1-.008,12.119,6.257,6.257,0,1,0,1.389-12.314Z" transform="translate(-246.35 -198.259)" fill="#89daa4"/>
        </g>
      </g>
      <g id="Grupo_1111730" data-name="Grupo 1111730" transform="translate(0 2.698)">
        <path id="Trazado_901890" data-name="Trazado 901890" d="M41.118,18.61h1.25v4.935a.776.776,0,0,0,1.553,0V18.61h1.25a.776.776,0,1,0,0-1.553h-1.25V14.8a.787.787,0,0,1,.786-.786h1.84a.776.776,0,1,0,0-1.553h-1.84A2.342,2.342,0,0,0,42.368,14.8v2.256h-1.25a.776.776,0,1,0,0,1.553ZM27.059,6.917a.776.776,0,1,0-.776-.776A.776.776,0,0,0,27.059,6.917ZM10.286,20.407a2.329,2.329,0,1,0-2.329-2.329A2.332,2.332,0,0,0,10.286,20.407Zm0-3.106a.776.776,0,1,1-.776.776A.777.777,0,0,1,10.286,17.3Zm3.106,6.211a2.332,2.332,0,0,0,2.329-2.329V14.972a2.332,2.332,0,0,0-2.329-2.329H7.18a2.332,2.332,0,0,0-2.329,2.329v6.211A2.332,2.332,0,0,0,7.18,23.513ZM6.4,21.183V14.972A.777.777,0,0,1,7.18,14.2h6.211a.777.777,0,0,1,.776.776v6.211a.777.777,0,0,1-.776.776H7.18A.777.777,0,0,1,6.4,21.183Zm8.587,13.83a1.25,1.25,0,0,0-1.3-.125,1.507,1.507,0,0,1-.326.114,1.489,1.489,0,0,1-.417.033A2.755,2.755,0,0,0,8.354,36.71,3.912,3.912,0,0,1,6.013,35.4a1.04,1.04,0,0,0-1.787.383A4.979,4.979,0,0,0,5.708,41.2c-.438.134-.937.123-1.193.567A1.335,1.335,0,0,0,4.5,42.885a1.9,1.9,0,0,0,1.422,1.025,6.3,6.3,0,0,0,1.569.181,7.348,7.348,0,0,0,4.62-1.546A6.671,6.671,0,0,0,14.334,38.6a4.846,4.846,0,0,0,1.136-2.38,1.241,1.241,0,0,0-.478-1.207ZM13.052,37.7a.776.776,0,0,0-.208.414,5.235,5.235,0,0,1-1.717,3.23,6.1,6.1,0,0,1-4.4,1.141,5.915,5.915,0,0,0,1.054-.568.776.776,0,0,0-.121-1.352A3.2,3.2,0,0,1,5.539,37.1a5.447,5.447,0,0,0,3.588,1.215.776.776,0,0,0,.756-.776v-.442s0-.007,0-.01a1.2,1.2,0,0,1,2.108-.8.777.777,0,0,0,.434.252,3.064,3.064,0,0,0,1.374-.037,3.3,3.3,0,0,1-.748,1.206Zm30.78-8.226h-.055V27.8h.055a9.727,9.727,0,1,0-.055-19.454V7.615A4.923,4.923,0,0,0,38.86,2.7h-23.6a4.923,4.923,0,0,0-4.917,4.917v.736A9.686,9.686,0,0,0,5,9.908a.776.776,0,0,0,.844,1.3A8.173,8.173,0,1,1,3.5,13.518a.776.776,0,0,0-1.288-.867,9.729,9.729,0,0,0,8.073,15.155h.055v1.69c-.2-.013-.407-.02-.614-.02a9.727,9.727,0,0,0,0,19.455c.206,0,.411-.007.614-.02v1.872A4.923,4.923,0,0,0,15.258,55.7h23.6a4.923,4.923,0,0,0,4.917-4.917V48.929h.055a9.727,9.727,0,0,0,0-19.455Zm0-19.571a8.175,8.175,0,1,1-8.175,8.175A8.184,8.184,0,0,1,43.832,9.9ZM42.224,27.671v1.935a9.681,9.681,0,0,0-1.553.39V27.278a9.628,9.628,0,0,0,1.553.394ZM13.446,8.133v.745a9.642,9.642,0,0,0-1.553-.394V7.615a3.368,3.368,0,0,1,3.364-3.364h23.6a3.368,3.368,0,0,1,3.364,3.364v.869a9.642,9.642,0,0,0-1.553.394V8.133A2.332,2.332,0,0,0,38.342,5.8H35.49a1.606,1.606,0,0,0-1.6,1.6.624.624,0,0,1-.623.623H20.855a.624.624,0,0,1-.623-.623,1.6,1.6,0,0,0-1.6-1.6H15.775A2.332,2.332,0,0,0,13.446,8.133ZM11.894,27.671a9.642,9.642,0,0,0,1.553-.394v2.937a9.638,9.638,0,0,0-1.553-.5ZM9.727,47.377A8.175,8.175,0,1,1,17.9,39.2,8.08,8.08,0,0,1,9.727,47.377Zm32.5,3.405a3.368,3.368,0,0,1-3.364,3.364h-23.6a3.368,3.368,0,0,1-3.364-3.364v-2.1a9.639,9.639,0,0,0,1.553-.5v2.074a2.332,2.332,0,0,0,2.329,2.329H38.342a2.332,2.332,0,0,0,2.329-2.329V48.4a9.643,9.643,0,0,0,1.553.394Zm1.608-3.405a8.182,8.182,0,0,1-7.911-10.241.776.776,0,0,0-1.5-.391,9.736,9.736,0,0,0,4.7,10.965v2.556a.777.777,0,0,1-.776.776H15.776A.777.777,0,0,1,15,50.264V47.373a9.721,9.721,0,0,0,0-16.343V26.584A9.723,9.723,0,0,0,15,9.571V8.133a.777.777,0,0,1,.776-.776h2.852a.052.052,0,0,1,.037.015.049.049,0,0,1,.015.037,2.178,2.178,0,0,0,2.176,2.176H33.263a2.178,2.178,0,0,0,2.176-2.176.052.052,0,0,1,.052-.052h2.852a.777.777,0,0,1,.776.776V9.571a9.723,9.723,0,0,0,.005,17.016.792.792,0,0,0-.005.089v4.009a9.747,9.747,0,0,0-2.994,2.582.776.776,0,0,0,1.23.948,8.075,8.075,0,0,1,6.478-3.188,8.175,8.175,0,1,1,0,16.349ZM29.9,28.942a.777.777,0,0,0-1.067.261,1.864,1.864,0,0,1-.579.591.7.7,0,0,1-.745.011L26.351,29.1a.72.72,0,0,1-.332-.685,1.823,1.823,0,0,1,.255-.768.776.776,0,0,0-1.327-.806,3.388,3.388,0,0,0-.474,1.429v.016a2.266,2.266,0,0,0,1.074,2.141l1.162.705A2.265,2.265,0,0,0,29.1,31.1a3.425,3.425,0,0,0,1.063-1.088A.777.777,0,0,0,29.9,28.942ZM47.917,38.37l-5.444-3.145a1.085,1.085,0,0,0-1.616.933v6.289a1.088,1.088,0,0,0,1.615.933l5.444-3.144A1.089,1.089,0,0,0,47.917,38.37Zm-5.507,3.253V36.982l4.017,2.32ZM26.87,22.168a7.033,7.033,0,0,0-6.477,9.275l-.827,2.352a1.19,1.19,0,0,0,1.518,1.518l1.64-.576A7.033,7.033,0,1,0,26.87,22.168Zm.341,12.508A5.5,5.5,0,0,1,23.671,33.5a1.512,1.512,0,0,0-.938-.328,1.494,1.494,0,0,0-.5.085l-.955.335.582-1.657a1.5,1.5,0,0,0,.006-.975,5.48,5.48,0,1,1,5.341,3.712Z" transform="translate(0 -2.698)"/>
      </g>
    </g>
  </g>
</svg>
