<svg xmlns="http://www.w3.org/2000/svg" width="132" height="132" viewBox="0 0 132 132">
  <g id="Grupo_1112063" data-name="Grupo 1112063" transform="translate(-423.051 -1514)">
    <g id="Grupo_1099402" data-name="Grupo 1099402" transform="translate(-523.73 -2926)">
      <rect id="Rectángulo_401228" data-name="Rectángulo 401228" width="132" height="132" rx="14" transform="translate(946.781 4440)" fill="#405f5a"/>
    </g>
    <g id="Grupo_1111693" data-name="Grupo 1111693" transform="translate(437.55 1483.555)">
      <g id="Grupo_1111688" data-name="Grupo 1111688" transform="translate(42.581 67.349)">
        <g id="Grupo_1111685" data-name="Grupo 1111685" transform="translate(0 0)">
          <path id="Trazado_901807" data-name="Trazado 901807" d="M248.579,117.226a23.33,23.33,0,0,1,2.561,1.063l6.2-2.958a29.606,29.606,0,0,1,7.793,7.8l-2.958,6.2a23.714,23.714,0,0,1,1.063,2.556l6.478,2.3a29.665,29.665,0,0,1,0,11.026l-6.478,2.291a23.327,23.327,0,0,1-1.062,2.561l2.958,6.2a29.584,29.584,0,0,1-7.793,7.793l-6.2-2.958a23.327,23.327,0,0,1-2.561,1.063l-2.292,6.478a29.667,29.667,0,0,1-11.027,0l-2.3-6.478a23.711,23.711,0,0,1-2.556-1.063l-6.2,2.958a29.689,29.689,0,0,1-7.8-7.793l2.958-6.2A23.327,23.327,0,0,1,218.3,147.5l-6.472-2.291a29.667,29.667,0,0,1,0-11.026l6.472-2.3a23.714,23.714,0,0,1,1.063-2.556l-2.958-6.2a29.63,29.63,0,0,1,7.8-7.8l6.2,2.958a23.715,23.715,0,0,1,2.556-1.063l2.3-6.472a29.667,29.667,0,0,1,11.027,0Z" transform="translate(-211.313 -110.237)" fill="#95b8c7" fill-rule="evenodd"/>
        </g>
        <g id="Grupo_1111686" data-name="Grupo 1111686" transform="translate(0 0)">
          <path id="Trazado_901808" data-name="Trazado 901808" d="M247.311,165.755l-1.022,2.889a29.667,29.667,0,0,1-11.026,0l-2.3-6.478a23.711,23.711,0,0,1-2.556-1.063l-6.2,2.958a29.689,29.689,0,0,1-7.8-7.793l2.958-6.2A23.329,23.329,0,0,1,218.3,147.5l-6.472-2.291a29.666,29.666,0,0,1,0-11.026l6.472-2.3a23.715,23.715,0,0,1,1.063-2.556l-2.958-6.2a29.63,29.63,0,0,1,7.8-7.8l6.2,2.958a23.715,23.715,0,0,1,2.556-1.063l2.3-6.472a29.666,29.666,0,0,1,11.026,0l1.022,2.889a30.434,30.434,0,0,0,0,52.111Z" transform="translate(-211.314 -110.238)" fill="#80a9ba" fill-rule="evenodd"/>
        </g>
        <g id="Grupo_1111687" data-name="Grupo 1111687" transform="translate(15.178 15.179)">
          <path id="Trazado_901809" data-name="Trazado 901809" d="M301.636,214.838a14.28,14.28,0,1,0-14.283-14.277A14.306,14.306,0,0,0,301.636,214.838Z" transform="translate(-287.353 -186.278)" fill="#fff" fill-rule="evenodd"/>
        </g>
      </g>
      <g id="Grupo_1111689" data-name="Grupo 1111689" transform="translate(9.483 65.319)">
        <path id="Trazado_901810" data-name="Trazado 901810" d="M98.576,109.173a31.094,31.094,0,1,0,9.1,21.987A31.012,31.012,0,0,0,98.576,109.173Z" transform="translate(-45.502 -100.068)" fill="#23a8fe"/>
      </g>
      <g id="Grupo_1111692" data-name="Grupo 1111692" transform="translate(25.983 81.824)">
        <g id="Grupo_1111690" data-name="Grupo 1111690">
          <path id="Trazado_901811" data-name="Trazado 901811" d="M142.746,211.927a14.587,14.587,0,1,0-14.587-14.587A14.615,14.615,0,0,0,142.746,211.927Z" transform="translate(-128.159 -182.753)" fill="#fed402" fill-rule="evenodd"/>
        </g>
        <g id="Grupo_1111691" data-name="Grupo 1111691" transform="translate(0 0)">
          <path id="Trazado_901812" data-name="Trazado 901812" d="M142.746,211.929c.367,0,.729-.017,1.091-.04a14.587,14.587,0,0,1,0-29.094c-.362-.029-.724-.04-1.091-.04a14.587,14.587,0,1,0,0,29.174Z" transform="translate(-128.159 -182.755)" fill="#fac600" fill-rule="evenodd"/>
        </g>
      </g>
      <path id="Trazado_901813" data-name="Trazado 901813" d="M102.5,96.412a30.639,30.639,0,0,1-.534,5.7,1.4,1.4,0,0,1-.908,1.058l-5.766,2.039q-.269.711-.586,1.419l2.634,5.524a1.4,1.4,0,0,1-.108,1.391,30.534,30.534,0,0,1-8.06,8.054,1.4,1.4,0,0,1-1.39.107l-5.52-2.632c-.468.212-.944.409-1.423.59l-2.04,5.766a1.4,1.4,0,0,1-1.058.908,30.651,30.651,0,0,1-11.4,0,1.4,1.4,0,0,1-1.058-.906l-.833-2.345a1.4,1.4,0,0,1,2.637-.936l.559,1.576a27.984,27.984,0,0,0,8.784,0l1.987-5.618a1.4,1.4,0,0,1,.861-.855,21.734,21.734,0,0,0,2.373-.984,1.4,1.4,0,0,1,1.214,0l5.38,2.565a27.718,27.718,0,0,0,6.212-6.208L91.9,107.238a1.4,1.4,0,0,1,0-1.207,22.872,22.872,0,0,0,.982-2.38,1.4,1.4,0,0,1,.855-.861l5.618-1.987a27.872,27.872,0,0,0,0-8.783l-5.618-1.987a1.4,1.4,0,0,1-.856-.861A21.625,21.625,0,0,0,91.9,86.8a1.4,1.4,0,0,1,0-1.214l2.565-5.379a27.835,27.835,0,0,0-6.213-6.213l-5.379,2.565a1.4,1.4,0,0,1-1.214,0,21.717,21.717,0,0,0-2.373-.979,1.4,1.4,0,0,1-.861-.855L76.436,69.1a27.983,27.983,0,0,0-8.784,0l-.56,1.576a1.4,1.4,0,0,1-2.637-.936l.833-2.345a1.4,1.4,0,0,1,1.058-.906,30.79,30.79,0,0,1,11.4,0A1.4,1.4,0,0,1,78.8,67.4l2.039,5.765q.73.275,1.422.586l5.521-2.633a1.4,1.4,0,0,1,1.391.107,30.651,30.651,0,0,1,8.058,8.059,1.4,1.4,0,0,1,.107,1.391l-2.633,5.521c.207.461.4.936.586,1.422l5.765,2.039a1.4,1.4,0,0,1,.908,1.058A30.632,30.632,0,0,1,102.5,96.412Zm-28.675,12.56a1.4,1.4,0,0,0,.193,2.785,1.426,1.426,0,0,0,.2-.014,15.485,15.485,0,0,0,0-30.662,1.4,1.4,0,0,0-.39,2.771,12.686,12.686,0,0,1,0,25.12Zm-.66-12.56A33.044,33.044,0,0,1,63,120.275a1.381,1.381,0,0,1-.327.309,33.081,33.081,0,0,1-45.288.008,1.387,1.387,0,0,1-.334-.316,33.091,33.091,0,0,1,.01-47.744,1.389,1.389,0,0,1,.309-.293,33.077,33.077,0,0,1,45.3,0,1.388,1.388,0,0,1,.319.3A33.053,33.053,0,0,1,73.167,96.412ZM61.6,75.093a45.917,45.917,0,0,1-4.3,1.821,45.855,45.855,0,0,1,4.046,18.1h8.992A30.252,30.252,0,0,0,61.6,75.093ZM24.3,97.811H21.5a42.769,42.769,0,0,0,3.925,17.211,51.8,51.8,0,0,1,29.193,0,42.763,42.763,0,0,0,3.925-17.211h-2.8a15.783,15.783,0,0,1-31.441,0ZM40.02,109.4A12.988,12.988,0,1,0,27.032,96.411,13,13,0,0,0,40.02,109.4ZM58.544,95.013A42.778,42.778,0,0,0,54.619,77.8a51.737,51.737,0,0,1-29.193,0A42.783,42.783,0,0,0,21.5,95.012h2.8a15.783,15.783,0,0,1,31.441,0h2.8ZM51.3,68.24a26.708,26.708,0,0,1,3.992,5q.36.572.7,1.167,1.722-.611,3.371-1.357A30.371,30.371,0,0,0,51.3,68.24ZM27.117,74.725q-.171.272-.337.551a48.909,48.909,0,0,0,26.485,0q-.166-.278-.337-.55c-3.508-5.586-8.092-8.662-12.908-8.662s-9.4,3.076-12.9,8.662Zm-6.44-1.678q1.648.745,3.371,1.358.34-.594.7-1.167a26.718,26.718,0,0,1,3.993-5,30.379,30.379,0,0,0-8.063,4.808ZM9.71,95.013H18.7a45.859,45.859,0,0,1,4.046-18.1,45.966,45.966,0,0,1-4.3-1.821A30.256,30.256,0,0,0,9.71,95.013Zm8.739,22.716a45.789,45.789,0,0,1,4.3-1.822,45.846,45.846,0,0,1-4.046-18.1H9.71A30.247,30.247,0,0,0,18.448,117.729Zm10.29,6.849a26.713,26.713,0,0,1-3.991-4.994q-.359-.572-.7-1.167-1.722.611-3.369,1.358A30.378,30.378,0,0,0,28.738,124.579Zm24.19-6.483q.171-.272.337-.55a48.97,48.97,0,0,0-26.485,0q.166.278.337.55c3.507,5.584,8.09,8.659,12.9,8.659S49.419,123.68,52.927,118.1Zm6.437,1.679q-1.646-.745-3.368-1.357-.34.594-.7,1.167a26.707,26.707,0,0,1-3.99,4.993,30.4,30.4,0,0,0,8.058-4.8ZM70.335,97.811H61.343a45.841,45.841,0,0,1-4.046,18.1,45.774,45.774,0,0,1,4.3,1.821A30.246,30.246,0,0,0,70.335,97.811Zm-31.715,3.806V97.695c-2.191-.281-4.883-1.249-4.883-4.585,0-2.423,2.142-4.423,4.883-4.674V87.083a1.4,1.4,0,1,1,2.8,0v1.325h.2c2.583,0,4.684,1.827,4.684,4.072a1.4,1.4,0,0,1-2.8,0c0-.6-.775-1.274-1.886-1.274h-.2v3.833c2.74.249,4.882,2.251,4.882,4.675s-2.142,4.425-4.882,4.675v1.352a1.4,1.4,0,1,1-2.8,0v-1.325h-.193c-2.586,0-4.69-1.827-4.69-4.073a1.4,1.4,0,1,1,2.8,0c0,.6.777,1.275,1.892,1.275Zm2.8-.049c1.176-.195,2.085-.964,2.085-1.854s-.908-1.66-2.085-1.854Zm-2.8-6.7V91.256c-1.177.2-2.085.965-2.085,1.853C36.536,93.668,36.537,94.522,38.621,94.864Zm12.41-33.808.3.1.21.068.215.074.21.068.21.074.21.074.21.074.21.074.21.079.21.079.2.079.147.057a1.4,1.4,0,0,0,1.841-1.733,1.363,1.363,0,0,0-.816-.867l-.159-.062-.227-.091-.221-.085-.227-.079-.227-.085-.221-.079-.227-.079-.227-.079-.227-.074-.227-.074-.227-.074-.317-.1a1.4,1.4,0,1,0-.838,2.668Zm-15.99-1.342.227-.028.227-.028.221-.028.221-.028.227-.023.221-.023.221-.017.227-.023.221-.017.221-.017.227-.017.221-.011h-.006a1.4,1.4,0,0,0-.153-2.8l-.249.017-.244.017-.238.017-.238.023-.244.023-.238.023-.238.023-.244.028-.238.023-.238.028-.244.034-.244.028a1.4,1.4,0,0,0-.765,2.413,1.382,1.382,0,0,0,1.138.362ZM18.467,65.264a1.4,1.4,0,0,0,1.524.006l.249-.159.2-.125.2-.125.2-.125.2-.125.2-.119.2-.119.2-.119.21-.119.2-.113L22.3,63.9a1.4,1.4,0,1,0-1.325-2.464l-.26.142L20.5,61.7l-.221.125-.221.13-.221.125-.215.13-.221.13-.215.136-.221.136-.215.136-.266.17A1.4,1.4,0,0,0,18.467,65.264ZM8.691,76.66l.147-.232.125-.187.119-.187.125-.187.125-.193.13-.181.125-.187.13-.187.13-.187.13-.181.136-.181.1-.136a1.4,1.4,0,1,0-2.249-1.66l-.108.142-.142.2-.142.2-.142.2-.142.2-.136.2-.136.2-.136.2-.13.2-.136.2-.13.2-.159.249a1.4,1.4,0,1,0,2.368,1.49Zm-5.4,15.118L3.31,91.6l.028-.221.034-.221L3.4,90.94l.034-.221.034-.221.04-.221.034-.215.04-.221.04-.215.045-.221.057-.289a1.4,1.4,0,1,0-2.741-.561l-.062.317-.045.238-.045.232-.04.238-.04.232-.04.238-.04.238-.034.232L.6,90.759.568,91l-.034.238-.023.181a1.4,1.4,0,1,0,2.775.363ZM4.7,107.559l-.068-.215-.068-.221-.062-.215-.062-.221-.068-.215-.057-.221-.062-.221-.057-.221-.057-.215-.057-.221-.051-.215a1.4,1.4,0,1,0-2.719.657l.057.232.057.238.062.238.062.238.068.232.062.238.068.232.068.238.074.232.068.238.074.232.062.2a1.4,1.4,0,0,0,2.668-.844Zm8.026,13.883-.153-.17-.159-.176-.153-.176-.153-.176-.153-.176-.153-.176-.153-.181-.147-.181-.147-.181-.147-.181-.091-.113a1.4,1.4,0,0,0-2.192,1.739l.1.13.159.2.159.193.164.193.159.193.164.193.164.187.164.193.17.187.164.187.17.181.147.164a1.4,1.4,0,0,0,2.067-1.886Zm13.351,9.272-.295-.119-.2-.085-.2-.091-.2-.085-.2-.091-.2-.091-.2-.091-.2-.1-.2-.1-.2-.1-.34-.164a1.4,1.4,0,0,0-1.24,2.509l.153.074.215.1.215.108.221.1.215.1.221.1.215.1.221.1.221.1.221.1.221.091.306.125a1.4,1.4,0,0,0,1.06-2.588Zm15.82,2.679-.249.011-.221.011-.227.006-.221.006-.221.006-.227.006h-.889l-.221-.006H39.2a1.4,1.4,0,1,0-.068,2.793l.238.006.238.006h.963l.238-.006.238-.006.244-.006.238-.011.244-.006.26-.011a1.4,1.4,0,1,0-.136-2.8Zm16.777-4.265a1.4,1.4,0,0,0-1.314,0l-.227.119-.2.108-.21.108-.21.1-.21.1-.21.1-.21.1-.21.1-.21.1-.215.1-.312.142a1.4,1.4,0,0,0,1.122,2.56l.346-.153.227-.1.227-.108.227-.108.227-.108.227-.108.227-.113.221-.113.227-.113.221-.119.238-.125a1.4,1.4,0,0,0,.006-2.47Z" transform="translate(0)"/>
    </g>
  </g>
</svg>
