<svg xmlns="http://www.w3.org/2000/svg" width="82" height="82" viewBox="0 0 82 82">
  <g id="Grupo_1112082" data-name="Grupo 1112082" transform="translate(3844 10250)">
    <circle id="Elipse_11497" data-name="Elipse 11497" cx="41" cy="41" r="41" transform="translate(-3844 -10250)" fill="#ff9b6a"/>
    <g id="Grupo_1111732" data-name="Grupo 1111732" transform="translate(-3830.5 -10236.5)">
      <path id="Trazado_901903" data-name="Trazado 901903" d="M11.419,20H49.032V49.065H8V23.419A3.42,3.42,0,0,1,11.419,20Z" transform="translate(-1.016 -2.758)" fill="#ccd1d9"/>
      <path id="Trazado_901904" data-name="Trazado 901904" d="M45.339,46.226H12.855A.855.855,0,0,1,12,45.371V24.855A.855.855,0,0,1,12.855,24H45.339a.855.855,0,0,1,.855.855V45.371A.855.855,0,0,1,45.339,46.226Z" transform="translate(-1.597 -3.339)" fill="#69d6f4"/>
      <path id="Trazado_901905" data-name="Trazado 901905" d="M57.065,3.71v17.1a1.715,1.715,0,0,1-1.71,1.71H29.71A1.715,1.715,0,0,1,28,20.806V3.71A1.715,1.715,0,0,1,29.71,2H55.355A1.715,1.715,0,0,1,57.065,3.71Z" transform="translate(-3.919 -0.145)" fill="#ffeaa7"/>
      <path id="Trazado_901906" data-name="Trazado 901906" d="M40.548,9.419v2.565a.857.857,0,0,1-.855.855H35.419V10.274a.857.857,0,0,0-.855-.855H32V6.855A.857.857,0,0,1,32.855,6h6.839a.857.857,0,0,1,.855.855Z" transform="translate(-4.5 -0.726)" fill="#fc6e51"/>
      <path id="Trazado_901907" data-name="Trazado 901907" d="M35.419,10.855v2.565H32.855A.857.857,0,0,1,32,12.565V10h2.565A.857.857,0,0,1,35.419,10.855Z" transform="translate(-4.5 -1.306)" fill="#ff826e"/>
      <path id="Trazado_901908" data-name="Trazado 901908" d="M56.839,18.855v1.71a.857.857,0,0,1-.855.855H50.855A.857.857,0,0,1,50,20.565v-1.71A.857.857,0,0,1,50.855,18h5.129A.857.857,0,0,1,56.839,18.855Z" transform="translate(-7.113 -2.468)" fill="#e6e9ed"/>
      <path id="Trazado_901909" data-name="Trazado 901909" d="M50.452,54v1.71a5.133,5.133,0,0,1-5.129,5.129H11.129A5.133,5.133,0,0,1,6,55.71V54H50.452Z" transform="translate(-0.726 -7.694)" fill="#969faa"/>
      <ellipse id="Elipse_12108" data-name="Elipse 12108" cx="9.5" cy="9" rx="9.5" ry="9" transform="translate(1.5 24.5)" fill="#4fc1e9"/>
      <path id="Trazado_901910" data-name="Trazado 901910" d="M28,30H45.1v3.419H28Z" transform="translate(-3.919 -4.21)" fill="#ff826e"/>
      <path id="Trazado_901911" data-name="Trazado 901911" d="M27,57h1.71v1.71H27Z" transform="translate(-3.774 -8.129)"/>
      <path id="Trazado_901912" data-name="Trazado 901912" d="M31,57h1.71v1.71H31Z" transform="translate(-4.355 -8.129)"/>
      <path id="Trazado_901913" data-name="Trazado 901913" d="M35,57h1.71v1.71H35Z" transform="translate(-4.935 -8.129)"/>
      <path id="Trazado_901914" data-name="Trazado 901914" d="M51.435,1H25.79a2.568,2.568,0,0,0-2.565,2.565V16.387H10.4a4.279,4.279,0,0,0-4.274,4.274v3.953a10.234,10.234,0,0,0,0,17.74v3.1H4.419v2.565A5.991,5.991,0,0,0,10.4,54H44.6a5.991,5.991,0,0,0,5.984-5.984V45.452h-1.71V23.226h2.565A2.568,2.568,0,0,0,54,20.661V3.565A2.568,2.568,0,0,0,51.435,1ZM8.894,39.468h4.728c-.659,1.6-1.536,2.565-2.364,2.565S9.554,41.065,8.894,39.468ZM2.753,34.339h3.4a19.6,19.6,0,0,0,.418,3.419h-2.7A8.467,8.467,0,0,1,2.753,34.339Zm15.9,3.419h-2.7a19.6,19.6,0,0,0,.418-3.419h3.4A8.481,8.481,0,0,1,18.65,37.758Zm-1.3,1.71a8.585,8.585,0,0,1-2.728,1.871,10.5,10.5,0,0,0,.849-1.871Zm-.986-6.839a19.6,19.6,0,0,0-.418-3.419h2.7a8.467,8.467,0,0,1,1.113,3.419ZM15.473,27.5a10.41,10.41,0,0,0-.849-1.871A8.585,8.585,0,0,1,17.352,27.5Zm-4.215-2.565c.828,0,1.7.967,2.364,2.565H8.894C9.554,25.9,10.43,24.935,11.258,24.935Zm2.918,4.274a17.326,17.326,0,0,1,.481,3.419h-6.8A17.326,17.326,0,0,1,8.34,29.21ZM6.15,32.629h-3.4A8.48,8.48,0,0,1,3.866,29.21h2.7A19.683,19.683,0,0,0,6.15,32.629Zm1.709,1.71h6.8a17.325,17.325,0,0,1-.481,3.419H8.34a17.325,17.325,0,0,1-.481-3.419Zm13.658-.855A10.269,10.269,0,0,0,11.258,23.226v-1.71H23.383a2.561,2.561,0,0,0,2.407,1.71H43.742V42.032H16.916A10.253,10.253,0,0,0,21.516,33.484ZM7.839,20.661A2.568,2.568,0,0,1,10.4,18.1H23.226v1.71H11.258a1.711,1.711,0,0,0-1.71,1.71v1.864a10.181,10.181,0,0,0-1.71.444Zm.053,4.967A10.47,10.47,0,0,0,7.043,27.5H5.164A8.585,8.585,0,0,1,7.892,25.629ZM5.164,39.468h1.88a10.41,10.41,0,0,0,.849,1.871,8.579,8.579,0,0,1-2.729-1.871Zm43.707,8.548A4.279,4.279,0,0,1,44.6,52.29H10.4a4.279,4.279,0,0,1-4.274-4.274v-.855H48.871Zm-1.71-2.565H7.839V43.144a10.191,10.191,0,0,0,3.419.6H43.742a1.711,1.711,0,0,0,1.71-1.71V23.226h1.71Zm5.129-24.79a.856.856,0,0,1-.855.855H25.79a.856.856,0,0,1-.855-.855V3.565a.856.856,0,0,1,.855-.855H51.435a.856.856,0,0,1,.855.855Z"/>
      <path id="Trazado_901915" data-name="Trazado 901915" d="M32.71,13.548h6.839a1.711,1.711,0,0,0,1.71-1.71V6.71A1.711,1.711,0,0,0,39.548,5H32.71A1.711,1.711,0,0,0,31,6.71v5.129A1.711,1.711,0,0,0,32.71,13.548Zm0-3.419h1.71v1.71H32.71ZM39.548,6.71v1.71h-1.71v1.71h1.711v1.71h-3.42v-1.71a1.711,1.711,0,0,0-1.71-1.71H32.71V6.71Z" transform="translate(-4.355 -0.581)"/>
      <path id="Trazado_901916" data-name="Trazado 901916" d="M49,5h8.548V6.71H49Z" transform="translate(-6.968 -0.581)"/>
      <path id="Trazado_901917" data-name="Trazado 901917" d="M49,9h1.71v1.71H49Z" transform="translate(-6.968 -1.161)"/>
      <path id="Trazado_901918" data-name="Trazado 901918" d="M53,9h1.71v1.71H53Z" transform="translate(-7.548 -1.161)"/>
      <path id="Trazado_901919" data-name="Trazado 901919" d="M57,9h1.71v1.71H57Z" transform="translate(-8.129 -1.161)"/>
      <path id="Trazado_901920" data-name="Trazado 901920" d="M39,21h1.71v1.71H39Z" transform="translate(-5.516 -2.903)"/>
      <path id="Trazado_901921" data-name="Trazado 901921" d="M35,21h1.71v1.71H35Z" transform="translate(-4.935 -2.903)"/>
      <path id="Trazado_901922" data-name="Trazado 901922" d="M31,21h1.71v1.71H31Z" transform="translate(-4.355 -2.903)"/>
      <path id="Trazado_901923" data-name="Trazado 901923" d="M31,17H42.968v1.71H31Z" transform="translate(-4.355 -2.323)"/>
      <path id="Trazado_901924" data-name="Trazado 901924" d="M55.839,17H50.71A1.711,1.711,0,0,0,49,18.71v1.71a1.711,1.711,0,0,0,1.71,1.71h5.129a1.711,1.711,0,0,0,1.71-1.71V18.71A1.711,1.711,0,0,0,55.839,17Zm0,3.419H50.71V18.71h5.13Z" transform="translate(-6.968 -2.323)"/>
      <path id="Trazado_901925" data-name="Trazado 901925" d="M27,34.129H45.806V29H27Zm1.71-3.419H44.1v1.71H28.71Z" transform="translate(-3.774 -4.065)"/>
      <path id="Trazado_901926" data-name="Trazado 901926" d="M43,45h1.71v1.71H43Z" transform="translate(-6.097 -6.387)"/>
      <path id="Trazado_901927" data-name="Trazado 901927" d="M47,45h1.71v1.71H47Z" transform="translate(-6.677 -6.387)"/>
      <path id="Trazado_901928" data-name="Trazado 901928" d="M27,45H38.968v1.71H27Z" transform="translate(-3.774 -6.387)"/>
      <path id="Trazado_901929" data-name="Trazado 901929" d="M33,41H46.677v1.71H33Z" transform="translate(-4.645 -5.806)"/>
      <path id="Trazado_901930" data-name="Trazado 901930" d="M27,41h3.419v1.71H27Z" transform="translate(-3.774 -5.806)"/>
      <path id="Trazado_901931" data-name="Trazado 901931" d="M27,37H45.806v1.71H27Z" transform="translate(-3.774 -5.226)"/>
    </g>
  </g>
</svg>
