<svg xmlns="http://www.w3.org/2000/svg" width="82" height="82" viewBox="0 0 82 82">
  <g id="Grupo_1111708" data-name="Grupo 1111708" transform="translate(-758.377 -1996)">
    <circle id="Elipse_11497" data-name="Elipse 11497" cx="41" cy="41" r="41" transform="translate(758.377 1996)" fill="#2436b1"/>
    <g id="Grupo_1111706" data-name="Grupo 1111706" transform="translate(758.14 1994.869)">
      <rect id="Rect치ngulo_405145" data-name="Rect치ngulo 405145" width="18.121" height="3.452" rx="1.726" transform="translate(28.155 61.964)" fill="#e6e6e6"/>
      <rect id="Rect치ngulo_405146" data-name="Rect치ngulo 405146" width="21.898" height="3.452" rx="1.726" transform="translate(42.825 61.964)" fill="#ccc"/>
      <path id="Trazado_901826" data-name="Trazado 901826" d="M284.908,309.432l2.685-12.081A1.726,1.726,0,0,1,289.277,296h15.774a1.726,1.726,0,0,1,1.685,2.1l-2.685,12.081a1.726,1.726,0,0,1-1.685,1.351H286.593a1.726,1.726,0,0,1-1.685-2.1Z" transform="translate(-239.891 -249.569)" fill="#e6e6e6"/>
      <path id="Trazado_901827" data-name="Trazado 901827" d="M284.908,309.432l2.685-12.081A1.726,1.726,0,0,1,289.277,296H301.7a1.726,1.726,0,0,1,1.685,2.1L300.7,310.181a1.726,1.726,0,0,1-1.685,1.351H286.593a1.726,1.726,0,0,1-1.685-2.1Z" transform="translate(-239.891 -249.569)" fill="#65dcff"/>
      <path id="Trazado_901828" data-name="Trazado 901828" d="M325,445.177H312.92A5.177,5.177,0,0,1,318.1,440h1.726A5.178,5.178,0,0,1,325,445.177Z" transform="translate(-264.918 -378.036)" fill="#e6e6e6"/>
      <path id="Trazado_901829" data-name="Trazado 901829" d="M56.7,40.338A16.406,16.406,0,0,1,37.717,56.529a16.136,16.136,0,0,1-2.589-.631A16.4,16.4,0,1,1,56.7,40.338Z" transform="translate(-7.072 -6.85)" fill="#3ea7ff"/>
      <path id="Trazado_901830" data-name="Trazado 901830" d="M67.847,52.531l-2.534,4.433-2.644,1.607V60.3l-.863.863H59.218v2.385a16.136,16.136,0,0,1-2.589-.631V57.709l-3.452-3.452V51.669L48,46.491V41.314l.507-3.55a16.43,16.43,0,0,1,8.1-5.964l.884.884-1.726,2.589L56.629,37l3.452-1.726L61.807,37l-6.04,6.04H52.315v2.589l3.452,3.452,1.726-1.726,3.452,1.726.863,2.589,2.589-.863Z" transform="translate(-28.573 -13.866)" fill="#a0cc00"/>
      <path id="Trazado_901831" data-name="Trazado 901831" d="M235.218,47.39a16.356,16.356,0,0,1-1.213,6.2l-2.238-4.476-1.726.863-2.589-1.726v-6.9L224.863,37.9l.863-2.589H224V31.857l.035-.017A16.4,16.4,0,0,1,235.218,47.39Z" transform="translate(-185.589 -13.902)" fill="#a0cc00"/>
      <path id="Trazado_901832" data-name="Trazado 901832" d="M27.783,49.867c.374.125.753.235,1.136.334v1.408a.864.864,0,0,1-.863.863H19.427a2.589,2.589,0,0,0,0,5.177h6.14a.863.863,0,1,1,0,1.726H22.015a2.589,2.589,0,0,0,0,5.177h5.425a2.593,2.593,0,0,0,2.44,1.726H47.2a6.062,6.062,0,0,0-.063.863A.863.863,0,0,0,48,68H60.083a.863.863,0,0,0,.863-.863,6.061,6.061,0,0,0-.063-.863H63a2.587,2.587,0,0,0,1.629-4.6A2.606,2.606,0,0,0,65,60.8l2.685-12.081a2.589,2.589,0,0,0-2.527-3.15H49.386A2.573,2.573,0,0,0,46.859,47.6L44.175,59.676A2.579,2.579,0,0,0,44.26,61.1H29.881a2.593,2.593,0,0,0-2.44,1.726H22.015a.863.863,0,1,1,0-1.726h3.551a2.589,2.589,0,1,0,0-5.177h-6.14a.863.863,0,1,1,0-1.726h8.629a2.592,2.592,0,0,0,2.589-2.589V50.552a17.237,17.237,0,1,0-2.862-.685Zm19.94,14.686H44.55a.863.863,0,0,1,0-1.726h4.407a6.068,6.068,0,0,0-1.235,1.726Zm5.456-1.726h1.726v3.452H48.952a4.322,4.322,0,0,1,4.228-3.452Zm3.452,3.452v-3.09a4.33,4.33,0,0,1,2.5,3.09ZM63,64.553H60.362a6.068,6.068,0,0,0-1.235-1.726H63a.863.863,0,1,1,0,1.726Zm2.836-16.935a.859.859,0,0,1,.169.727L63.318,60.425a.858.858,0,0,1-.842.676h-.913a2.646,2.646,0,0,0,.088-.3l2.685-12.081a2.579,2.579,0,0,0-.085-1.424h.91a.859.859,0,0,1,.673.323ZM45.86,60.051,48.544,47.97a.858.858,0,0,1,.842-.676H61.808a.863.863,0,0,1,.842,1.05L59.966,60.425a.858.858,0,0,1-.842.676H46.7a.863.863,0,0,1-.842-1.05ZM29.881,62.827H42.11a2.582,2.582,0,0,0,0,1.726H29.881a.863.863,0,0,1,0-1.726ZM48.766,33.488a15.53,15.53,0,0,1-.509,3.956l-1.308-2.617a.863.863,0,0,0-1.158-.386l-1.278.639-1.788-1.192V27.447a.863.863,0,0,0-.173-.518l-2.317-3.09.72-2.16a.863.863,0,0,0-.819-1.136h-.863V19.173a15.517,15.517,0,0,1,9.492,14.315ZM37.548,18.562v2.845a.863.863,0,0,0,.863.863h.529l-.484,1.453a.863.863,0,0,0,.128.791L41,27.735v6.616a.863.863,0,0,0,.384.718l2.589,1.726a.863.863,0,0,0,.865.054l.954-.477,1.673,3.346a15.478,15.478,0,0,1-14.231,9.3,15.7,15.7,0,0,1-1.726-.1v-.766h1.726a.863.863,0,0,0,.61-.253l.863-.863a.863.863,0,0,0,.253-.61V45.191l2.229-1.355a.863.863,0,0,0,.3-.309l2.534-4.433a.863.863,0,0,0-.363-1.2l-3.452-1.726a.863.863,0,0,0-.659-.047l-1.77.59-.59-1.77a.863.863,0,0,0-.433-.5L29.3,32.716a.863.863,0,0,0-1,.162l-1.116,1.116L24.6,31.4V30.036h2.589a.863.863,0,0,0,.61-.253l6.04-6.04a.863.863,0,0,0,0-1.22L32.118,20.8a.863.863,0,0,0-1-.162l-2.68,1.34-.253-.506L29.637,19.3a.863.863,0,0,0,.019-.927A15.642,15.642,0,0,1,37.548,18.562Zm-9.741.369-1.332,2a.863.863,0,0,0-.054.865l.863,1.726a.863.863,0,0,0,1.158.386l2.9-1.448.676.676L26.835,28.31H23.741a.863.863,0,0,0-.863.863v2.589a.863.863,0,0,0,.253.61l3.452,3.452a.863.863,0,0,0,1.22,0l1.286-1.286,2.576,1.288.75,2.25a.863.863,0,0,0,1.091.546l2.25-.75,2.316,1.158L36.1,42.477l-2.453,1.491a.863.863,0,0,0-.415.737v1.368l-.357.357H30.645a.863.863,0,0,0-.863.863v.863h-.863V43.843a.863.863,0,0,0-.253-.61l-3.2-3.2V37.8a.863.863,0,0,0-.253-.61L20.29,32.268V27.509l.467-3.27a15.692,15.692,0,0,1,7.05-5.308Zm-9.243,9.44v4.254a.863.863,0,0,0,.253.61l4.925,4.925v2.231a.863.863,0,0,0,.253.61l3.2,3.2v3.6a15.552,15.552,0,0,1-8.629-19.431Z" transform="translate(0)"/>
    </g>
  </g>
</svg>
