<svg xmlns="http://www.w3.org/2000/svg" width="82" height="82" viewBox="0 0 82 82">
  <g id="Grupo_1112084" data-name="Grupo 1112084" transform="translate(3210 10250)">
    <circle id="Elipse_11497" data-name="Elipse 11497" cx="41" cy="41" r="41" transform="translate(-3210 -10250)" fill="#ff9b6a"/>
    <g id="Grupo_1111741" data-name="Grupo 1111741" transform="translate(-3198.51 -10274.564)">
      <g id="Grupo_1111740" data-name="Grupo 1111740" transform="translate(0.879 43.929)">
        <path id="Trazado_901950" data-name="Trazado 901950" d="M65.535,58.57V53.721A2.83,2.83,0,0,1,68.356,50.9h42.749a2.827,2.827,0,0,1,2.819,2.821V87.444a2.827,2.827,0,0,1-2.818,2.821H68.356a2.83,2.83,0,0,1-2.821-2.821Z" transform="translate(-59.186 -50.9)" fill="#eaf6ff" fill-rule="evenodd"/>
        <path id="Trazado_901951" data-name="Trazado 901951" d="M65.539,58.57V53.721A2.83,2.83,0,0,1,68.36,50.9h42.749a2.827,2.827,0,0,1,2.819,2.821V58.57Z" transform="translate(-59.189 -50.9)" fill="#feda43" fill-rule="evenodd"/>
        <path id="Trazado_901952" data-name="Trazado 901952" d="M80.958,58.57H65.539V53.721A2.83,2.83,0,0,1,68.36,50.9h12.6Z" transform="translate(-59.189 -50.9)" fill="#e6404d" fill-rule="evenodd"/>
        <path id="Trazado_901953" data-name="Trazado 901953" d="M354.042,161.89h10.419a.891.891,0,0,1,.888.888v2.858a.888.888,0,0,1-.888.885H354.042a.889.889,0,0,1-.888-.885v-2.858A.891.891,0,0,1,354.042,161.89Z" transform="translate(-315.063 -149.641)" fill="#60b7ff" fill-rule="evenodd"/>
        <path id="Trazado_901954" data-name="Trazado 901954" d="M354.042,243.008h10.419a.891.891,0,0,1,.888.888v2.858a.888.888,0,0,1-.888.885H354.042a.889.889,0,0,1-.888-.885V243.9A.891.891,0,0,1,354.042,243.008Z" transform="translate(-315.063 -221.807)" fill="#3bb54a" fill-rule="evenodd"/>
        <path id="Trazado_901955" data-name="Trazado 901955" d="M354.042,324.153h10.419a.888.888,0,0,1,.888.885V327.9a.891.891,0,0,1-.888.888H354.042a.891.891,0,0,1-.888-.888v-2.858A.889.889,0,0,1,354.042,324.153Z" transform="translate(-315.063 -293.997)" fill="#e6404d" fill-rule="evenodd"/>
        <path id="Trazado_901956" data-name="Trazado 901956" d="M72.742,120.4h-7.2v28.874a2.939,2.939,0,0,0,.048.519,2.832,2.832,0,0,0,2.772,2.3h7.2a2.829,2.829,0,0,1-2.818-2.821Z" transform="translate(-59.189 -112.73)" fill="#d3dde6" fill-rule="evenodd"/>
        <path id="Trazado_901957" data-name="Trazado 901957" d="M65.539,58.57h7.2V53.721A2.829,2.829,0,0,1,75.561,50.9h-7.2a2.83,2.83,0,0,0-2.821,2.821Z" transform="translate(-59.189 -50.9)" fill="#cf3a45" fill-rule="evenodd"/>
        <path id="Trazado_901958" data-name="Trazado 901958" d="M125.324,163.4a11.188,11.188,0,1,0,0,15.822A11.188,11.188,0,0,0,125.324,163.4Z" transform="translate(-95.385 -148.07)" fill="#feda43" fill-rule="evenodd"/>
        <path id="Trazado_901959" data-name="Trazado 901959" d="M101.254,323.631,98,326.886l1.985,1.985,3.255-3.255a11.246,11.246,0,0,1-1.985-1.985Z" transform="translate(-88.068 -293.533)" fill="#bec7cf" fill-rule="evenodd"/>
        <path id="Trazado_901960" data-name="Trazado 901960" d="M20.27,350.223l-2.685-2.685a1.022,1.022,0,0,0-1.443,0L8.3,355.381a1.019,1.019,0,0,0,0,1.439l2.688,2.688a1.019,1.019,0,0,0,1.439,0l7.843-7.843a1.022,1.022,0,0,0,0-1.443Z" transform="translate(-8.002 -314.536)" fill="#295d76" fill-rule="evenodd"/>
        <path id="Trazado_901961" data-name="Trazado 901961" d="M146.222,188.316a8.347,8.347,0,1,0,0,11.8A8.347,8.347,0,0,0,146.222,188.316Z" transform="translate(-118.292 -170.976)" fill="#295d76" fill-rule="evenodd"/>
        <path id="Trazado_901962" data-name="Trazado 901962" d="M14.4,351.6l3.621-3.621-.088-.088-.349-.352a1.022,1.022,0,0,0-1.443,0l-1.791,1.791L8.3,355.377a1.019,1.019,0,0,0,0,1.439l2.688,2.688a1.019,1.019,0,0,0,1.439,0l.519-.519L10.7,356.738a1.022,1.022,0,0,1,0-1.443Z" transform="translate(-8.002 -314.533)" fill="#214c5f" fill-rule="evenodd"/>
        <path id="Trazado_901963" data-name="Trazado 901963" d="M137.351,206.453a11.192,11.192,0,0,1,0-15.592,8.355,8.355,0,0,0,0,15.592Z" transform="translate(-118.316 -175.415)" fill="#25546a" fill-rule="evenodd"/>
        <path id="Trazado_901964" data-name="Trazado 901964" d="M111.491,177.2a8.354,8.354,0,0,1,2.909-13.7l.115-.115a11.142,11.142,0,0,1,5.394-2.991,11.188,11.188,0,0,0-10.428,18.813,11.641,11.641,0,0,0,1.055.93,11.2,11.2,0,0,0,9.373,2.061,11.143,11.143,0,0,1-5.394-2.991c-.039-.039-.076-.079-.115-.115a8.357,8.357,0,0,1-2.909-1.894Z" transform="translate(-95.365 -148.053)" fill="#e5c43c" fill-rule="evenodd"/>
        <path id="Trazado_901965" data-name="Trazado 901965" d="M354.776,165.636v-2.858a.891.891,0,0,1,.888-.888h-1.622a.891.891,0,0,0-.888.888v2.858a.889.889,0,0,0,.888.885h1.622a.889.889,0,0,1-.888-.885Z" transform="translate(-315.063 -149.641)" fill="#56a5e6" fill-rule="evenodd"/>
        <path id="Trazado_901966" data-name="Trazado 901966" d="M354.042,243.008a.891.891,0,0,0-.888.888v2.858a.889.889,0,0,0,.888.885h1.622a.889.889,0,0,1-.888-.885V243.9a.891.891,0,0,1,.888-.888Z" transform="translate(-315.063 -221.807)" fill="#35a343" fill-rule="evenodd"/>
        <path id="Trazado_901967" data-name="Trazado 901967" d="M355.664,324.153h-1.622a.888.888,0,0,0-.888.885V327.9a.891.891,0,0,0,.888.888h1.622a.891.891,0,0,1-.888-.888v-2.858A.889.889,0,0,1,355.664,324.153Z" transform="translate(-315.063 -293.997)" fill="#cf3a45" fill-rule="evenodd"/>
      </g>
      <path id="Trazado_901968" data-name="Trazado 901968" d="M52.9,43.064H9.973a3.608,3.608,0,0,0-3.6,3.6V78.453L.521,84.3a1.8,1.8,0,0,0,0,2.538l2.695,2.694a1.779,1.779,0,0,0,1.268.529h0a1.786,1.786,0,0,0,1.272-.527l5.4-5.4H52.9a3.608,3.608,0,0,0,3.6-3.6V46.668a3.608,3.608,0,0,0-3.6-3.6Zm2.059,3.6v4.1H23.4V44.609H52.9a2.061,2.061,0,0,1,2.059,2.059Zm-47.04,0a2.061,2.061,0,0,1,2.058-2.059H21.851v6.157H7.915ZM4.666,88.444a.252.252,0,0,1-.179.074h0a.247.247,0,0,1-.177-.074l-2.7-2.7a.253.253,0,0,1,0-.353L9.49,77.519a.244.244,0,0,1,.174-.072h0a.252.252,0,0,1,.179.074l2.7,2.7a.253.253,0,0,1,0,.353l-2.246,2.246ZM15.487,74.57a10.62,10.62,0,0,1-.831-.935.767.767,0,0,0-.073-.094,10.468,10.468,0,1,1,.9,1.029Zm-1.093,1.093q.227.227.464.439l-2.125,2.123-.9-.9L13.957,75.2q.213.236.438.462Zm38.5,6.927H12.705l.927-.927a1.8,1.8,0,0,0,.177-2.329l2.271-2.269a11.983,11.983,0,1,0-3.089-3.085l-2.268,2.268A1.783,1.783,0,0,0,9.664,75.9h0a1.777,1.777,0,0,0-1.266.527l-.48.48v-24.6H54.955v28.22A2.061,2.061,0,0,1,52.9,82.59ZM51.254,55.364H39.013a.773.773,0,0,0-.773.773v4.649a.773.773,0,0,0,.773.773H51.254a.773.773,0,0,0,.773-.773V56.137a.773.773,0,0,0-.773-.773Zm-.773,4.649h-10.7v-3.1h10.7Zm.773,4.339H39.013a.773.773,0,0,0-.773.773v4.652a.773.773,0,0,0,.773.773H51.254a.773.773,0,0,0,.773-.773V65.125a.773.773,0,0,0-.773-.773ZM50.481,69h-10.7V65.9h10.7Zm.773,4.339H39.013a.773.773,0,0,0-.773.773v4.649a.773.773,0,0,0,.773.773H51.254a.773.773,0,0,0,.773-.773V74.115a.773.773,0,0,0-.773-.773Zm-.773,4.649h-10.7v-3.1h10.7ZM27.808,65.816h-5.97a2.39,2.39,0,1,0,0,1.545h2.294v1.2a.773.773,0,0,0,1.545,0v-1.2h1.357v2.012a.773.773,0,1,0,1.545,0V66.589a.773.773,0,0,0-.772-.773Zm-8.23,1.617a.843.843,0,1,1,.845-.845A.843.843,0,0,1,19.577,67.433ZM29.359,60.7a9.156,9.156,0,1,0,0,12.946,9.156,9.156,0,0,0,0-12.946ZM22.885,74.782a7.61,7.61,0,1,1,5.381-2.23,7.61,7.61,0,0,1-5.381,2.23Zm4.25-27.095a.773.773,0,0,1,.773-.773H51.442a.773.773,0,0,1,0,1.545H27.908a.773.773,0,0,1-.773-.773Zm-14.553,0a.773.773,0,0,1-.773.773h-1a.773.773,0,0,1,0-1.545h1a.773.773,0,0,1,.773.773Zm3.573,0a.773.773,0,0,1-.773.773h-1a.773.773,0,0,1,0-1.545h1A.773.773,0,0,1,16.155,47.688Zm3.572,0a.773.773,0,0,1-.773.773h-1a.773.773,0,1,1,0-1.545h1A.773.773,0,0,1,19.727,47.688Z"/>
    </g>
  </g>
</svg>
